<svg width="160" height="160" viewBox="0 0 160 160" fill="none"
	xmlns="http://www.w3.org/2000/svg">
	<circle cx="80" cy="80" r="80" fill="#221B4F" />
	<g clip-path="url(#clip0_1750_2064)">
		<path d="M92.55 122.746H55.0849L56.6618 109.827C57.3666 104.223 56.3161 98.5381 53.655 93.556C52.5395 91.4721 51.7739 89.9712 51.3683 89.1042C47.028 79.795 43.3723 70.5922 46.3131 60.4109C49.4568 49.5603 58.842 41.1434 70.2251 38.9784C77.3149 37.66 84.6225 38.1465 91.4751 40.393C97.7319 42.4769 102.802 45.9603 106.113 50.4628C110.129 55.9185 113.308 64.7765 111.356 72.2655C111.239 72.7116 111.108 73.1578 110.966 73.6142C110.509 75.1353 110.033 76.7173 110.332 78.2282V78.355C110.643 79.9637 111.154 81.5273 111.853 83.0096C112.122 83.5521 112.426 84.0845 112.72 84.5966C113.397 85.6666 113.93 86.8206 114.307 88.0293C114.52 88.6836 114.566 89.381 114.439 90.0574C114.124 91.4112 112.887 92.2022 111.833 92.4912C110.92 92.6983 109.979 92.748 109.049 92.6383C109.166 95.9999 109.145 98.956 108.983 101.653C108.983 101.917 108.958 102.221 108.948 102.546C108.877 104.574 108.775 107.358 107.35 108.63C105.667 110.151 97.9347 109.472 91.7438 108.63C91.6075 108.61 91.4684 108.623 91.3381 108.668C91.2077 108.712 91.0898 108.787 90.9941 108.886C90.8985 108.985 90.8278 109.106 90.788 109.238C90.7482 109.369 90.7404 109.509 90.7652 109.644L92.55 122.746ZM56.2308 121.732H91.3889L89.7511 109.781C89.711 109.492 89.7382 109.198 89.8307 108.922C89.9231 108.645 90.0782 108.394 90.2839 108.187C90.4896 107.98 90.7403 107.824 91.0164 107.73C91.2926 107.637 91.5866 107.608 91.8756 107.647C99.9578 108.742 105.627 108.838 106.671 107.9C107.716 106.962 107.868 104.27 107.928 102.52C107.928 102.186 107.928 101.877 107.964 101.603C108.139 98.4416 108.154 95.2736 108.01 92.111V91.5329L108.588 91.5887C109.584 91.7425 110.6 91.7202 111.589 91.5228C112.024 91.4313 112.427 91.2272 112.758 90.9308C113.089 90.6345 113.337 90.2564 113.475 89.8344C113.554 89.3244 113.51 88.8032 113.349 88.3132C112.996 87.1879 112.496 86.1139 111.863 85.1189C111.559 84.6118 111.244 84.044 110.961 83.471C110.233 81.911 109.705 80.2653 109.389 78.573L109.358 78.4361C109.014 76.6818 109.526 74.9781 110.023 73.3353C110.154 72.8942 110.286 72.4581 110.403 72.0271C112.269 64.8525 109.191 56.3343 105.332 51.0712C101.281 45.6054 95.3793 42.7609 91.1404 41.3564C84.4581 39.1647 77.3316 38.6904 70.4177 39.9772C59.3998 42.0561 50.3238 50.2042 47.2917 60.6948C44.4421 70.5364 48.0421 79.5465 52.3012 88.6732C52.6967 89.5301 53.4573 91.0107 54.5626 93.0794C57.3185 98.2457 58.4061 104.139 57.6759 109.949L56.2308 121.732Z" fill="#6F5CE0" stroke="#6F5CE0" stroke-miterlimit="10" />
		<path d="M76.9939 48.6167C78.6377 48.6167 79.9702 47.2842 79.9702 45.6404C79.9702 43.9966 78.6377 42.6641 76.9939 42.6641C75.3501 42.6641 74.0176 43.9966 74.0176 45.6404C74.0176 47.2842 75.3501 48.6167 76.9939 48.6167Z" fill="#6F5CE0" />
		<path d="M98.4568 59.3823C100.101 59.3823 101.433 58.0498 101.433 56.406C101.433 54.7622 100.101 53.4297 98.4568 53.4297C96.813 53.4297 95.4805 54.7622 95.4805 56.406C95.4805 58.0498 96.813 59.3823 98.4568 59.3823Z" fill="#6F5CE0" />
		<path d="M88.8132 73.2944C90.457 73.2944 91.7895 71.9619 91.7895 70.3181C91.7895 68.6743 90.457 67.3418 88.8132 67.3418C87.1695 67.3418 85.8369 68.6743 85.8369 70.3181C85.8369 71.9619 87.1695 73.2944 88.8132 73.2944Z" fill="#6F5CE0" />
		<path d="M65.3928 68.7827C67.0366 68.7827 68.3691 67.4502 68.3691 65.8064C68.3691 64.1626 67.0366 62.8301 65.3928 62.8301C63.749 62.8301 62.4165 64.1626 62.4165 65.8064C62.4165 67.4502 63.749 68.7827 65.3928 68.7827Z" fill="#6F5CE0" />
		<path d="M79.676 64.0562C81.3198 64.0562 82.6523 62.7236 82.6523 61.0798C82.6523 59.4361 81.3198 58.1035 79.676 58.1035C78.0322 58.1035 76.6997 59.4361 76.6997 61.0798C76.6997 62.7236 78.0322 64.0562 79.676 64.0562Z" fill="#6F5CE0" />
		<path d="M54.8516 68.1592C55.5881 68.1592 56.1851 67.5622 56.1851 66.8257C56.1851 66.0892 55.5881 65.4922 54.8516 65.4922C54.1151 65.4922 53.5181 66.0892 53.5181 66.8257C53.5181 67.5622 54.1151 68.1592 54.8516 68.1592Z" fill="#6F5CE0" />
		<path d="M63.2534 61.4756C63.9899 61.4756 64.5869 60.8786 64.5869 60.1421C64.5869 59.4056 63.9899 58.8086 63.2534 58.8086C62.517 58.8086 61.9199 59.4056 61.9199 60.1421C61.9199 60.8786 62.517 61.4756 63.2534 61.4756Z" fill="#6F5CE0" />
		<path d="M63.3902 49.7979C64.1266 49.7979 64.7237 49.2008 64.7237 48.4644C64.7237 47.7279 64.1266 47.1309 63.3902 47.1309C62.6537 47.1309 62.0566 47.7279 62.0566 48.4644C62.0566 49.2008 62.6537 49.7979 63.3902 49.7979Z" fill="#6F5CE0" />
		<path d="M71.5381 52.9366C72.2746 52.9366 72.8716 52.3395 72.8716 51.603C72.8716 50.8666 72.2746 50.2695 71.5381 50.2695C70.8016 50.2695 70.2046 50.8666 70.2046 51.603C70.2046 52.3395 70.8016 52.9366 71.5381 52.9366Z" fill="#6F5CE0" />
		<path d="M69.875 61.2686C70.6115 61.2686 71.2085 60.6716 71.2085 59.9351C71.2085 59.1986 70.6115 58.6016 69.875 58.6016C69.1385 58.6016 68.5415 59.1986 68.5415 59.9351C68.5415 60.6716 69.1385 61.2686 69.875 61.2686Z" fill="#6F5CE0" />
		<path d="M98.8423 63.1338C99.5788 63.1338 100.176 62.5368 100.176 61.8003C100.176 61.0638 99.5788 60.4668 98.8423 60.4668C98.1058 60.4668 97.5088 61.0638 97.5088 61.8003C97.5088 62.5368 98.1058 63.1338 98.8423 63.1338Z" fill="#6F5CE0" />
		<path d="M92.479 66.3135C93.2155 66.3135 93.8125 65.7165 93.8125 64.98C93.8125 64.2435 93.2155 63.6465 92.479 63.6465C91.7425 63.6465 91.1455 64.2435 91.1455 64.98C91.1455 65.7165 91.7425 66.3135 92.479 66.3135Z" fill="#6F5CE0" />
		<path d="M91.0899 58.6201C91.8263 58.6201 92.4234 58.0231 92.4234 57.2866C92.4234 56.5502 91.8263 55.9531 91.0899 55.9531C90.3534 55.9531 89.7563 56.5502 89.7563 57.2866C89.7563 58.0231 90.3534 58.6201 91.0899 58.6201Z" fill="#6F5CE0" />
		<path d="M83.981 55.2237C84.7175 55.2237 85.3145 54.6266 85.3145 53.8902C85.3145 53.1537 84.7175 52.5566 83.981 52.5566C83.2445 52.5566 82.6475 53.1537 82.6475 53.8902C82.6475 54.6266 83.2445 55.2237 83.981 55.2237Z" fill="#6F5CE0" />
		<path d="M76.0254 58.4541C76.7619 58.4541 77.3589 57.8571 77.3589 57.1206C77.3589 56.3841 76.7619 55.7871 76.0254 55.7871C75.2889 55.7871 74.6919 56.3841 74.6919 57.1206C74.6919 57.8571 75.2889 58.4541 76.0254 58.4541Z" fill="#6F5CE0" />
		<path d="M77.7241 53.044C78.4606 53.044 79.0576 52.4469 79.0576 51.7105C79.0576 50.974 78.4606 50.377 77.7241 50.377C76.9877 50.377 76.3906 50.974 76.3906 51.7105C76.3906 52.4469 76.9877 53.044 77.7241 53.044Z" fill="#6F5CE0" />
		<path d="M65.2915 55.1182C66.028 55.1182 66.625 54.5212 66.625 53.7847C66.625 53.0482 66.028 52.4512 65.2915 52.4512C64.555 52.4512 63.958 53.0482 63.958 53.7847C63.958 54.5212 64.555 55.1182 65.2915 55.1182Z" fill="#6F5CE0" />
		<path d="M66.8838 75.8096C67.6203 75.8096 68.2173 75.2126 68.2173 74.4761C68.2173 73.7396 67.6203 73.1426 66.8838 73.1426C66.1473 73.1426 65.5503 73.7396 65.5503 74.4761C65.5503 75.2126 66.1473 75.8096 66.8838 75.8096Z" fill="#6F5CE0" />
		<path d="M68.5923 87.4268C69.3288 87.4268 69.9258 86.8298 69.9258 86.0933C69.9258 85.3568 69.3288 84.7598 68.5923 84.7598C67.8558 84.7598 67.2588 85.3568 67.2588 86.0933C67.2588 86.8298 67.8558 87.4268 68.5923 87.4268Z" fill="#6F5CE0" />
		<path d="M77.126 74.1514C77.8625 74.1514 78.4595 73.5544 78.4595 72.8179C78.4595 72.0814 77.8625 71.4844 77.126 71.4844C76.3895 71.4844 75.7925 72.0814 75.7925 72.8179C75.7925 73.5544 76.3895 74.1514 77.126 74.1514Z" fill="#6F5CE0" />
		<path d="M80.9082 68.4737C81.6447 68.4737 82.2417 67.8766 82.2417 67.1402C82.2417 66.4037 81.6447 65.8066 80.9082 65.8066C80.1717 65.8066 79.5747 66.4037 79.5747 67.1402C79.5747 67.8766 80.1717 68.4737 80.9082 68.4737Z" fill="#6F5CE0" />
		<path d="M86.7036 62.1846C87.4401 62.1846 88.0371 61.5876 88.0371 60.8511C88.0371 60.1146 87.4401 59.5176 86.7036 59.5176C85.9671 59.5176 85.3701 60.1146 85.3701 60.8511C85.3701 61.5876 85.9671 62.1846 86.7036 62.1846Z" fill="#6F5CE0" />
		<path d="M88.5142 48.253C89.2507 48.253 89.8477 47.6559 89.8477 46.9195C89.8477 46.183 89.2507 45.5859 88.5142 45.5859C87.7777 45.5859 87.1807 46.183 87.1807 46.9195C87.1807 47.6559 87.7777 48.253 88.5142 48.253Z" fill="#6F5CE0" />
		<path d="M72.314 69.1983C73.0505 69.1983 73.6475 68.6012 73.6475 67.8648C73.6475 67.1283 73.0505 66.5312 72.314 66.5312C71.5775 66.5312 70.9805 67.1283 70.9805 67.8648C70.9805 68.6012 71.5775 69.1983 72.314 69.1983Z" fill="#6F5CE0" />
		<path d="M71.0415 80.5401C71.778 80.5401 72.375 79.943 72.375 79.2066C72.375 78.4701 71.778 77.873 71.0415 77.873C70.305 77.873 69.708 78.4701 69.708 79.2066C69.708 79.943 70.305 80.5401 71.0415 80.5401Z" fill="#6F5CE0" />
		<path d="M64.7744 80.7373C65.5109 80.7373 66.1079 80.1403 66.1079 79.4038C66.1079 78.6673 65.5109 78.0703 64.7744 78.0703C64.038 78.0703 63.4409 78.6673 63.4409 79.4038C63.4409 80.1403 64.038 80.7373 64.7744 80.7373Z" fill="#6F5CE0" />
		<path d="M62.3965 87.4561C63.133 87.4561 63.73 86.8591 63.73 86.1226C63.73 85.3861 63.133 84.7891 62.3965 84.7891C61.66 84.7891 61.063 85.3861 61.063 86.1226C61.063 86.8591 61.66 87.4561 62.3965 87.4561Z" fill="#6F5CE0" />
		<path d="M59.8613 83.208C60.5978 83.208 61.1949 82.611 61.1949 81.8745C61.1949 81.138 60.5978 80.541 59.8613 80.541C59.1249 80.541 58.5278 81.138 58.5278 81.8745C58.5278 82.611 59.1249 83.208 59.8613 83.208Z" fill="#6F5CE0" />
		<path d="M65.6821 67.3428C66.4186 67.3428 67.0157 66.7458 67.0157 66.0093C67.0157 65.2728 66.4186 64.6758 65.6821 64.6758C64.9457 64.6758 64.3486 65.2728 64.3486 66.0093C64.3486 66.7458 64.9457 67.3428 65.6821 67.3428Z" fill="#6F5CE0" />
		<path d="M57.2954 72.9854C58.0319 72.9854 58.6289 72.3884 58.6289 71.6519C58.6289 70.9154 58.0319 70.3184 57.2954 70.3184C56.5589 70.3184 55.9619 70.9154 55.9619 71.6519C55.9619 72.3884 56.5589 72.9854 57.2954 72.9854Z" fill="#6F5CE0" />
		<path d="M51.6118 62.2061C52.3483 62.2061 52.9453 61.6091 52.9453 60.8726C52.9453 60.1361 52.3483 59.5391 51.6118 59.5391C50.8754 59.5391 50.2783 60.1361 50.2783 60.8726C50.2783 61.6091 50.8754 62.2061 51.6118 62.2061Z" fill="#6F5CE0" />
		<path d="M56.885 57.7339C58.5288 57.7339 59.8613 56.4013 59.8613 54.7576C59.8613 53.1138 58.5288 51.7812 56.885 51.7812C55.2412 51.7812 53.9087 53.1138 53.9087 54.7576C53.9087 56.4013 55.2412 57.7339 56.885 57.7339Z" fill="#6F5CE0" />
		<path d="M65.9408 66.5003L62.5183 60.0558H62.7515L56.7178 55.239L64.4755 53.5607L64.5819 54.0677L57.8688 55.5026L62.7921 59.422L64.9572 53.6317L63.0507 48.9314L57.7369 54.4429L57.3719 54.0931L63.2535 48.0137L65.4541 53.4441L71.5081 50.8176L77.0855 51.4311L78.0996 50.2801L77.7193 51.568L84.2449 53.8852L75.4224 57.5663L76.9436 52.3083L70.2608 59.8632L65.9408 66.5003ZM63.3245 60.497L65.9864 65.5014L69.5712 60.0001L63.3245 60.497ZM65.1549 54.5494L63.1267 60.0102L69.2112 59.5032L65.1549 54.5494ZM65.378 54.017L69.845 59.5589L76.6495 51.9027L71.5588 51.3348L65.378 54.017ZM77.5824 52.0548L76.2185 56.6891L82.8404 53.9257L77.5824 52.0548Z" fill="#6F5CE0" />
		<path d="M54.9123 66.9016C54.6284 66.9016 54.6233 66.8306 54.603 66.7089L54.5675 66.4808L54.7551 66.4301C55.1608 66.1664 59.4655 62.9822 62.6954 60.5839L50.8813 61.1619L55.6475 55.6758L56.0278 56.0054L52.0425 60.5941L64.3382 59.9653L63.6638 60.4724C58.7962 64.0774 56.6616 65.6543 55.6982 66.3439C57.7568 66.2273 62.9945 65.8875 65.2812 65.7709L65.3117 66.278L60.0942 66.5923L56.5095 66.8053C55.6678 66.8509 55.2064 66.8813 54.9529 66.8712L54.9123 66.9016Z" fill="#6F5CE0" />
		<path d="M72.6995 68.6404L69.6572 60.2388L70.1338 60.0664L72.9226 67.748L79.0374 62.0236L81.6842 67.0382L73.0747 68.4224V68.2956L72.6995 68.6404ZM78.9005 62.845L73.5513 67.8444L80.9084 66.6528L78.9005 62.845Z" fill="#6F5CE0" />
		<path d="M77.993 62.707L69.8804 60.2175L75.5186 56.5566L79.0983 60.4304L78.7231 60.7752L75.4375 57.2158L71.0668 60.0501L78.14 62.2203L77.993 62.707Z" fill="#6F5CE0" />
		<path d="M88.2198 69.4013L80.6142 66.9625L86.866 61.2177L80.3911 59.8893L83.768 53.9975L84.2091 54.246L81.1669 59.5293L87.5404 60.8172L90.9477 57.1513L84.5488 54.0989L84.7719 53.6426L91.7995 57.0093L87.6266 61.5017L88.2198 69.4013ZM81.6283 66.7445L87.6671 68.6864L87.1195 61.6741L81.6283 66.7445Z" fill="#6F5CE0" />
		<path d="M83.768 53.6326L83.5601 53.5312L83.2964 53.6275C83.2356 53.4652 83.2204 53.4196 87.6367 47.107L77.6328 45.2766L77.7241 44.7695L88.5037 46.7521L88.2756 47.0766C86.5415 49.561 83.9049 53.3588 83.768 53.6326Z" fill="#6F5CE0" />
		<path d="M92.8087 65.3548L86.562 61.0653L86.846 60.6444L92.1394 64.2799L91.1254 57.3132L91.6273 57.2422L92.8087 65.3548Z" fill="#6F5CE0" />
		<path d="M98.9944 62.1855L91.2012 57.1303L98.6597 55.7461L99.542 61.5314L99.04 61.6075L98.2389 56.3393L92.5448 57.394L99.2732 61.7596L98.9944 62.1855Z" fill="#6F5CE0" />
		<path d="M98.5336 62.2126L93.1128 64.9082L93.3386 65.3622L98.7594 62.6666L98.5336 62.2126Z" fill="#6F5CE0" />
		<path d="M77.1613 74.2691L71.878 68.2759L65.7276 66.5671L57.3513 71.7846L54.6387 67.1097L55.0798 66.8561L57.5237 71.0798L65.6516 66.0195L72.1569 67.8246L77.0802 73.4071L80.7005 67.2973L81.1365 67.5559L77.1613 74.2691Z" fill="#6F5CE0" />
		<path d="M51.6808 60.7591L51.2412 61.0117L54.3911 66.494L54.8308 66.2414L51.6808 60.7591Z" fill="#6F5CE0" />
		<path d="M71.8215 67.8967L67.0747 73.9941L67.4748 74.3056L72.2216 68.2081L71.8215 67.8967Z" fill="#6F5CE0" />
		<path d="M65.3785 66.6052L64.8867 66.7168L66.5176 73.9073L67.0094 73.7958L65.3785 66.6052Z" fill="#6F5CE0" />
		<path d="M68.5315 87.2684L65.1597 79.2116L65.6261 79.0138L68.4808 85.8335L70.8334 78.8516L71.3151 79.0138L68.5315 87.2684Z" fill="#6F5CE0" />
		<path d="M76.0094 72.4954L67.105 74.1309L67.1962 74.6278L76.1007 72.9923L76.0094 72.4954Z" fill="#6F5CE0" />
		<path d="M66.5976 74.3044L60.0381 81.0098L60.4005 81.3643L66.96 74.659L66.5976 74.3044Z" fill="#6F5CE0" />
		<path d="M61.9956 87.0255L66.6452 74.0909L54.7095 66.4854L54.7399 66.318L56.8086 54.3266L77.0902 45.3672L98.8218 56.3243L88.9447 70.42L77.004 72.8943L61.9956 87.0255ZM55.2672 66.2369L67.2587 73.878L63.2024 85.2052L76.7606 72.4279L88.6456 69.9434L98.0816 56.4815L77.0902 45.9199L57.2649 54.6714L55.2672 66.2369Z" fill="#6F5CE0" />
		<path d="M88.7706 47.201L88.2783 47.3223L90.6435 56.9225L91.1358 56.8012L88.7706 47.201Z" fill="#6F5CE0" />
	</g>
	<defs>
		<clipPath id="clip0_1750_2064">
			<rect width="69.7635" height="85" fill="white" transform="translate(45 38)" />
		</clipPath>
	</defs>
</svg>
