<svg width="160" height="160" viewBox="0 0 160 160" fill="none"
	xmlns="http://www.w3.org/2000/svg">
	<circle cx="80" cy="80" r="80" fill="#F4F4F4" />
	<g clip-path="url(#clip0_1750_2475)">
		<path d="M62.2953 88.2213L59.6907 91.0949V89.2373H50.6426V88.2063L62.2953 88.2213Z" fill="#1A1344" />
		<path d="M50.6426 86.1745L53.2472 83.304V85.1615H62.2953V86.1895L50.6426 86.1745Z" fill="#1A1344" />
		<path d="M109.566 88.2213L106.961 91.0949V89.2373H97.9102V88.2063L109.566 88.2213Z" fill="#1A1344" />
		<path d="M97.9102 86.1745L100.515 83.304V85.1615H109.566V86.1895L97.9102 86.1745Z" fill="#1A1344" />
		<path d="M125.339 89.613C127.846 89.613 129.879 87.5931 129.879 85.1013C129.879 82.6096 127.846 80.5896 125.339 80.5896C122.831 80.5896 120.798 82.6096 120.798 85.1013C120.798 87.5931 122.831 89.613 125.339 89.613Z" fill="#1A1344" />
		<path d="M120.937 91.1702H129.743C130.929 91.1702 132.066 91.6382 132.905 92.4714C133.743 93.3045 134.214 94.4345 134.214 95.6128V102H116.451V95.6128C116.451 95.0281 116.567 94.4492 116.792 93.9092C117.018 93.3692 117.349 92.8788 117.766 92.4661C118.182 92.0533 118.677 91.7264 119.221 91.504C119.765 91.2817 120.348 91.1682 120.937 91.1702Z" fill="#1A1344" />
		<path d="M39.4161 85.1105C39.4147 85.8622 39.224 86.6016 38.8616 87.2615C38.4992 87.9213 37.9765 88.4806 37.3411 88.8886C36.7056 89.2965 35.9776 89.5401 35.2233 89.5973C34.469 89.6544 33.7122 89.5232 33.0219 89.2156C32.3316 88.9081 31.7296 88.4339 31.2708 87.8363C30.8119 87.2386 30.5107 86.5364 30.3946 85.7937C30.2785 85.0509 30.3511 84.291 30.6059 83.5832C30.8607 82.8754 31.2895 82.2421 31.8534 81.741C31.8659 81.7326 31.8771 81.7225 31.8866 81.7109L31.929 81.753H37.828L37.8703 81.7109L37.9036 81.741C38.3608 82.1426 38.7296 82.6338 38.9866 83.1838H30.7674C31.805 84.6867 33.2661 85.2458 34.8785 85.2458C36.4909 85.2458 37.955 84.6777 38.9836 83.1748C39.2716 83.7798 39.4194 84.4412 39.4161 85.1105Z" fill="#1A1344" />
		<path d="M32.5102 97.873L36.1403 102H29.9902C30.0118 101.154 30.2557 100.327 30.6977 99.6035C31.1398 98.8796 31.7645 98.283 32.5102 97.873Z" fill="#1A1344" />
		<path d="M37.6525 102L33.6382 97.4342C34.0408 97.3277 34.4558 97.2741 34.8724 97.2749C36.1452 97.2768 37.367 97.7718 38.2782 98.6548C39.1894 99.5377 39.7181 100.739 39.7519 102.003L37.6525 102Z" fill="#1A1344" />
		<path d="M27.57 92.2341L31.7628 97.0074C30.8944 97.5287 30.1727 98.2599 29.6649 99.1328C29.1572 100.006 28.8799 100.992 28.8587 102H26V95.6127C25.9985 94.9699 26.1382 94.3346 26.4093 93.751C26.6805 93.1675 27.0766 92.6498 27.57 92.2341Z" fill="#1A1344" />
		<path d="M43.7485 95.6128V102H40.8898C40.8707 101.049 40.6235 100.116 40.1686 99.2789C39.7137 98.4418 39.0644 97.7246 38.2745 97.187C37.4846 96.6493 36.5769 96.3068 35.627 96.1877C34.6771 96.0687 33.7123 96.1766 32.8128 96.5025L28.5322 91.612C29.136 91.3192 29.7994 91.1681 30.4713 91.1702H39.2774C39.8647 91.1698 40.4463 91.2844 40.9889 91.5076C41.5316 91.7307 42.0246 92.0579 42.4399 92.4705C42.8551 92.8831 43.1845 93.373 43.409 93.9122C43.6336 94.4514 43.7489 95.0293 43.7485 95.6128Z" fill="#1A1344" />
		<path d="M30.7708 83.1717L30.2082 82.5224C30.1242 82.422 30.0631 82.3047 30.0293 82.1786C29.9954 82.0525 29.9894 81.9206 30.0119 81.792C30.0343 81.6634 30.0846 81.5411 30.1592 81.4337C30.2338 81.3263 30.331 81.2362 30.4441 81.1698L34.5704 78.8523C34.7105 78.7768 34.8681 78.7393 35.0274 78.7435C35.1867 78.7477 35.3421 78.7935 35.4779 78.8764L39.1927 81.2029C39.3915 81.3311 39.5319 81.5315 39.5839 81.7612C39.6359 81.991 39.5954 82.2318 39.4711 82.4322L38.9931 83.1717H30.7708Z" fill="#1A1344" />
		<path d="M91.1217 65.3352V59.9247C91.1225 59.5393 91.0468 59.1576 90.899 58.8014C90.7511 58.4451 90.534 58.1213 90.26 57.8485C89.986 57.5758 89.6606 57.3594 89.3024 57.2117C88.9441 57.064 88.5601 56.988 88.1723 56.988H72.0454C71.6571 56.9876 71.2726 57.0633 70.9139 57.2108C70.5551 57.3582 70.2291 57.5745 69.9546 57.8473C69.6801 58.1201 69.4624 58.444 69.314 58.8004C69.1656 59.1569 69.0894 59.539 69.0898 59.9247V99.0664C69.0906 99.8447 69.4024 100.591 69.9566 101.141C70.5108 101.691 71.262 102 72.0454 102H88.1723C88.5598 102 88.9436 101.924 89.3017 101.777C89.6597 101.629 89.985 101.413 90.2589 101.141C90.5329 100.868 90.75 100.545 90.8981 100.189C91.0461 99.8329 91.1221 99.4515 91.1217 99.0664V78.8283H89.5215V95.6608H70.6962V61.1661H89.5215V65.3352H91.1217ZM80.1073 97.0585C80.4498 97.0579 80.7848 97.1583 81.0698 97.347C81.3548 97.5357 81.5771 97.8042 81.7084 98.1185C81.8397 98.4328 81.8743 98.7787 81.8076 99.1125C81.7409 99.4463 81.5761 99.7529 81.3339 99.9936C81.0917 100.234 80.7831 100.398 80.4472 100.464C80.1112 100.531 79.7631 100.496 79.4468 100.366C79.1304 100.235 78.8602 100.014 78.6703 99.7312C78.4804 99.448 78.3794 99.1151 78.38 98.7748C78.38 98.3196 78.562 97.8831 78.8859 97.5612C79.2098 97.2393 79.6492 97.0585 80.1073 97.0585ZM83.1324 59.2093H77.0822C77.0108 59.2093 76.9423 59.1811 76.8918 59.131C76.8413 59.0808 76.813 59.0128 76.813 58.9418C76.813 58.8709 76.8413 58.8028 76.8918 58.7527C76.9423 58.7025 77.0108 58.6743 77.0822 58.6743H83.1324C83.2038 58.6743 83.2723 58.7025 83.3228 58.7527C83.3733 58.8028 83.4017 58.8709 83.4017 58.9418C83.4017 59.0128 83.3733 59.0808 83.3228 59.131C83.2723 59.1811 83.2038 59.2093 83.1324 59.2093ZM87.3676 59.2093C87.3143 59.2093 87.2623 59.1936 87.218 59.1642C87.1737 59.1349 87.1392 59.0931 87.1188 59.0442C87.0985 58.9953 87.0931 58.9415 87.1035 58.8896C87.1139 58.8377 87.1395 58.7901 87.1772 58.7527C87.2149 58.7152 87.2628 58.6898 87.315 58.6794C87.3673 58.6691 87.4214 58.6744 87.4706 58.6947C87.5198 58.7149 87.5618 58.7492 87.5914 58.7932C87.621 58.8372 87.6368 58.8889 87.6368 58.9418C87.6369 59.0107 87.6102 59.077 87.5623 59.1269C87.5144 59.1767 87.449 59.2062 87.3797 59.2093H87.3676Z" fill="#1A1344" />
		<path d="M84.3179 66.5706V80.5837L87.1827 77.7371H103.845V66.5706H84.3179ZM90.0172 72.9309C89.7969 72.9314 89.5813 72.8671 89.3979 72.7459C89.2144 72.6247 89.0713 72.4522 88.9865 72.2501C88.9018 72.048 88.8793 71.8255 88.9219 71.6108C88.9646 71.396 89.0703 71.1986 89.2259 71.0436C89.3815 70.8886 89.5798 70.783 89.7959 70.7401C90.0119 70.6971 90.2359 70.7189 90.4395 70.8025C90.6431 70.8861 90.8171 71.0279 90.9396 71.2099C91.062 71.3918 91.1274 71.6058 91.1274 71.8247C91.1278 71.9698 91.0994 72.1136 91.0438 72.2478C90.9881 72.382 90.9064 72.5039 90.8033 72.6067C90.7002 72.7094 90.5776 72.791 90.4427 72.8466C90.3078 72.9022 90.1632 72.9309 90.0172 72.9309ZM94.0829 72.9309C93.8626 72.9314 93.6471 72.8671 93.4636 72.7459C93.2802 72.6247 93.137 72.4522 93.0523 72.2501C92.9676 72.048 92.9451 71.8255 92.9877 71.6108C93.0303 71.396 93.1361 71.1986 93.2917 71.0436C93.4472 70.8886 93.6456 70.783 93.8616 70.7401C94.0776 70.6971 94.3016 70.7189 94.5052 70.8025C94.7088 70.8861 94.8829 71.0279 95.0053 71.2099C95.1278 71.3918 95.1931 71.6058 95.1931 71.8247C95.1931 72.1176 95.0763 72.3985 94.8682 72.6058C94.66 72.8132 94.3777 72.9301 94.0829 72.9309ZM98.1457 72.9309C97.9253 72.9314 97.7098 72.8671 97.5264 72.7459C97.3429 72.6247 97.1997 72.4522 97.115 72.2501C97.0303 72.048 97.0078 71.8255 97.0504 71.6108C97.093 71.396 97.1988 71.1986 97.3544 71.0436C97.5099 70.8886 97.7083 70.783 97.9243 70.7401C98.1404 70.6971 98.3644 70.7189 98.5679 70.8025C98.7715 70.8861 98.9456 71.0279 99.068 71.2099C99.1905 71.3918 99.2559 71.6058 99.2559 71.8247C99.2567 72.1162 99.1413 72.3962 98.935 72.6035C98.7286 72.8108 98.4481 72.9285 98.1547 72.9309H98.1457Z" fill="#1A1344" />
	</g>
	<defs>
		<clipPath id="clip0_1750_2475">
			<rect width="108.214" height="45" fill="white" transform="translate(26 57)" />
		</clipPath>
	</defs>
</svg>
