<svg width="160" height="160" viewBox="0 0 160 160" fill="none"
	xmlns="http://www.w3.org/2000/svg">
	<circle cx="80" cy="80" r="80" fill="#221B4F" />
	<path d="M45.7814 73.2601C47.7371 73.2601 49.3226 71.6746 49.3226 69.7189C49.3226 67.7632 47.7371 66.1777 45.7814 66.1777C43.8257 66.1777 42.2402 67.7632 42.2402 69.7189C42.2402 71.6746 43.8257 73.2601 45.7814 73.2601Z" fill="#6F5CE0" />
	<path d="M45.7814 61.5371C43.7201 61.5386 41.7435 62.3574 40.2848 63.8139C38.8262 65.2704 38.0045 67.2458 38 69.3071C38 73.6104 45.7929 90.5083 45.7929 90.5083C45.7929 90.5083 53.58 73.5874 53.58 69.3071C53.5785 68.2847 53.3756 67.2727 52.9828 66.3288C52.59 65.3849 52.015 64.5277 51.2908 63.8061C50.5665 63.0845 49.7072 62.5127 48.7619 62.1234C47.8166 61.7341 46.8038 61.5349 45.7814 61.5371ZM45.7814 75.0257C44.7354 75.0257 43.7128 74.7155 42.8431 74.1344C41.9734 73.5532 41.2955 72.7272 40.8952 71.7608C40.4949 70.7944 40.3901 69.731 40.5942 68.705C40.7983 67.6791 41.302 66.7367 42.0416 65.9971C42.7813 65.2574 43.7237 64.7537 44.7496 64.5496C45.7756 64.3456 46.839 64.4503 47.8054 64.8506C48.7718 65.2509 49.5978 65.9288 50.1789 66.7985C50.7601 67.6683 51.0703 68.6908 51.0703 69.7368C51.0642 71.1361 50.5045 72.476 49.5135 73.4638C48.5224 74.4517 47.1807 75.007 45.7814 75.0085V75.0257Z" fill="#6F5CE0" />
	<path d="M45.7814 73.2601C47.7371 73.2601 49.3226 71.6746 49.3226 69.7189C49.3226 67.7632 47.7371 66.1777 45.7814 66.1777C43.8257 66.1777 42.2402 67.7632 42.2402 69.7189C42.2402 71.6746 43.8257 73.2601 45.7814 73.2601Z" fill="#6F5CE0" />
	<path d="M45.7814 73.2601C47.7371 73.2601 49.3226 71.6746 49.3226 69.7189C49.3226 67.7632 47.7371 66.1777 45.7814 66.1777C43.8257 66.1777 42.2402 67.7632 42.2402 69.7189C42.2402 71.6746 43.8257 73.2601 45.7814 73.2601Z" fill="#6F5CE0" />
	<path d="M109.385 94.0372C109.385 94.9778 109.106 95.8974 108.583 96.6795C108.061 97.4616 107.318 98.0712 106.449 98.4311C105.58 98.7911 104.624 98.8853 103.701 98.7018C102.779 98.5183 101.931 98.0653 101.266 97.4002C100.601 96.735 100.148 95.8876 99.9644 94.965C99.7809 94.0425 99.8751 93.0862 100.235 92.2172C100.595 91.3481 101.205 90.6054 101.987 90.0828C102.769 89.5602 103.688 89.2813 104.629 89.2812C105.89 89.2828 107.099 89.7843 107.99 90.6759C108.882 91.5675 109.383 92.7763 109.385 94.0372Z" fill="#6F5CE0" />
	<path d="M104.629 83.0176C103.254 83.0168 101.892 83.2871 100.621 83.8128C99.3505 84.3386 98.1958 85.1096 97.2231 86.0818C96.2503 87.054 95.4787 88.2083 94.9522 89.4788C94.4258 90.7493 94.1548 92.1111 94.1548 93.4864C94.1548 99.268 104.624 121.999 104.624 121.999C104.624 121.999 115.087 99.268 115.087 93.4864C115.087 92.1124 114.818 90.7516 114.292 89.4819C113.767 88.2122 112.997 87.0583 112.026 86.0862C111.055 85.1141 109.902 84.3427 108.633 83.8162C107.364 83.2897 106.003 83.0183 104.629 83.0176ZM104.629 101.147C103.223 101.149 101.847 100.733 100.677 99.9518C99.507 99.1712 98.5946 98.061 98.0555 96.7617C97.5164 95.4624 97.3748 94.0325 97.6485 92.6527C97.9223 91.2729 98.5991 90.0053 99.5933 89.0103C100.588 88.0152 101.855 87.3374 103.234 87.0625C104.614 86.7877 106.044 86.9282 107.344 87.4662C108.643 88.0043 109.754 88.9157 110.536 90.0852C111.317 91.2548 111.735 92.6298 111.735 94.0365C111.735 95.9214 110.986 97.7293 109.654 99.0627C108.322 100.396 106.514 101.146 104.629 101.147Z" fill="#6F5CE0" />
	<path d="M109.385 94.0372C109.385 94.9778 109.106 95.8974 108.583 96.6795C108.061 97.4616 107.318 98.0712 106.449 98.4311C105.58 98.7911 104.624 98.8853 103.701 98.7018C102.779 98.5183 101.931 98.0653 101.266 97.4002C100.601 96.735 100.148 95.8876 99.9644 94.965C99.7809 94.0425 99.8751 93.0862 100.235 92.2172C100.595 91.3481 101.205 90.6054 101.987 90.0828C102.769 89.5602 103.688 89.2813 104.629 89.2812C105.89 89.2828 107.099 89.7843 107.99 90.6759C108.882 91.5675 109.383 92.7763 109.385 94.0372Z" fill="#6F5CE0" />
	<path d="M109.385 94.0372C109.385 94.9778 109.106 95.8974 108.583 96.6795C108.061 97.4616 107.318 98.0712 106.449 98.4311C105.58 98.7911 104.624 98.8853 103.701 98.7018C102.779 98.5183 101.931 98.0653 101.266 97.4002C100.601 96.735 100.148 95.8876 99.9644 94.965C99.7809 94.0425 99.8751 93.0862 100.235 92.2172C100.595 91.3481 101.205 90.6054 101.987 90.0828C102.769 89.5602 103.688 89.2813 104.629 89.2812C105.89 89.2828 107.099 89.7843 107.99 90.6759C108.882 91.5675 109.383 92.7763 109.385 94.0372Z" fill="#6F5CE0" />
	<path d="M49.9072 89.9641C49.9072 90.0887 49.8577 90.2083 49.7696 90.2964C49.6814 90.3845 49.5619 90.434 49.4373 90.434H47.0708C47.1396 90.285 47.2828 89.9584 47.4948 89.5H49.4602C49.5799 89.5058 49.6927 89.5571 49.7758 89.6434C49.8589 89.7297 49.9059 89.8444 49.9072 89.9641Z" fill="#6F5CE0" />
	<path d="M60.2671 89.5H54.0786C53.954 89.5 53.8345 89.5495 53.7464 89.6376C53.6583 89.7257 53.6088 89.8452 53.6088 89.9699C53.6088 90.0945 53.6583 90.214 53.7464 90.3021C53.8345 90.3902 53.954 90.4397 54.0786 90.4397H60.2671C60.3917 90.4397 60.5112 90.3902 60.5993 90.3021C60.6875 90.214 60.737 90.0945 60.737 89.9699C60.737 89.8452 60.6875 89.7257 60.5993 89.6376C60.5112 89.5495 60.3917 89.5 60.2671 89.5ZM71.0969 89.5H64.9314C64.8067 89.5 64.6872 89.5495 64.5991 89.6376C64.511 89.7257 64.4615 89.8452 64.4615 89.9699C64.4615 90.0945 64.511 90.214 64.5991 90.3021C64.6872 90.3902 64.8067 90.4397 64.9314 90.4397H71.1256C71.2502 90.4397 71.3697 90.3902 71.4578 90.3021C71.5459 90.214 71.5954 90.0945 71.5954 89.9699C71.5954 89.8452 71.5459 89.7257 71.4578 89.6376C71.3697 89.5495 71.2502 89.5 71.1256 89.5H71.0969ZM75.8242 90.4168C75.7727 90.3806 75.7145 90.3551 75.6529 90.3418C75.5914 90.3286 75.5278 90.3278 75.466 90.3396C75.4041 90.3514 75.3453 90.3755 75.2929 90.4104C75.2406 90.4454 75.1958 90.4905 75.1612 90.5432C75.1266 90.5958 75.103 90.6548 75.0917 90.7167C75.0804 90.7787 75.0816 90.8422 75.0954 90.9037C75.1091 90.9651 75.1351 91.0232 75.1717 91.0744C75.2083 91.1256 75.2548 91.1689 75.3085 91.2018C75.9616 91.6274 76.4981 92.2093 76.8694 92.8947C77.2406 93.5801 77.4348 94.3474 77.4344 95.1269C77.4334 95.4502 77.4008 95.7726 77.3369 96.0896C77.3209 96.151 77.3176 96.215 77.3273 96.2778C77.337 96.3405 77.3595 96.4006 77.3933 96.4543C77.4271 96.508 77.4716 96.5542 77.524 96.59C77.5764 96.6258 77.6356 96.6505 77.6979 96.6626H77.7896C77.8971 96.6623 78.0012 96.6252 78.0847 96.5574C78.1681 96.4896 78.2257 96.3953 78.248 96.2901C78.33 95.9137 78.3703 95.5294 78.3684 95.1441C78.3721 94.2058 78.1407 93.2816 77.6953 92.4558C77.2498 91.63 76.6046 90.929 75.8185 90.4168H75.8242ZM64.3125 99.8141H58.124C58.0584 99.8068 57.9919 99.8135 57.929 99.8336C57.8661 99.8538 57.8081 99.887 57.7588 99.931C57.7096 99.9751 57.6702 100.029 57.6433 100.089C57.6163 100.15 57.6024 100.215 57.6024 100.281C57.6024 100.347 57.6163 100.413 57.6433 100.473C57.6702 100.533 57.7096 100.587 57.7588 100.631C57.8081 100.675 57.8661 100.708 57.929 100.729C57.9919 100.749 58.0584 100.755 58.124 100.748H64.3125C64.3782 100.755 64.4447 100.749 64.5076 100.729C64.5705 100.708 64.6285 100.675 64.6777 100.631C64.7269 100.587 64.7663 100.533 64.7933 100.473C64.8203 100.413 64.8342 100.347 64.8342 100.281C64.8342 100.215 64.8203 100.15 64.7933 100.089C64.7663 100.029 64.7269 99.9751 64.6777 99.931C64.6285 99.887 64.5705 99.8538 64.5076 99.8336C64.4447 99.8135 64.3782 99.8068 64.3125 99.8141ZM75.4689 99.5276C75.4135 99.4173 75.317 99.3333 75.2001 99.2936C75.0832 99.2539 74.9555 99.2618 74.8444 99.3156C74.1949 99.6461 73.4759 99.817 72.7472 99.8141H68.9424C68.8767 99.8068 68.8103 99.8135 68.7473 99.8336C68.6844 99.8538 68.6264 99.887 68.5772 99.931C68.528 99.9751 68.4886 100.029 68.4616 100.089C68.4347 100.15 68.4207 100.215 68.4207 100.281C68.4207 100.347 68.4347 100.413 68.4616 100.473C68.4886 100.533 68.528 100.587 68.5772 100.631C68.6264 100.675 68.6844 100.708 68.7473 100.729C68.8103 100.749 68.8767 100.755 68.9424 100.748H72.7357C73.6079 100.76 74.4703 100.564 75.2512 100.175C75.3104 100.15 75.3636 100.112 75.4073 100.065C75.451 100.017 75.4842 99.9611 75.5048 99.9C75.5253 99.8389 75.5328 99.7742 75.5266 99.71C75.5204 99.6458 75.5008 99.5837 75.4689 99.5276ZM53.4827 99.8141H50.2911C49.2477 99.8136 48.2096 99.9622 47.2083 100.255C47.0914 100.291 46.9928 100.371 46.9331 100.478C46.8733 100.584 46.857 100.71 46.8874 100.828C46.9166 100.926 46.9762 101.012 47.0576 101.074C47.139 101.136 47.2379 101.17 47.3401 101.172C47.3858 101.177 47.4319 101.177 47.4776 101.172C48.3909 100.902 49.3385 100.765 50.2911 100.765H53.4712C53.5369 100.773 53.6034 100.766 53.6663 100.746C53.7292 100.726 53.7872 100.692 53.8364 100.648C53.8857 100.604 53.9251 100.55 53.952 100.49C53.979 100.43 53.9929 100.364 53.9929 100.298C53.9929 100.232 53.979 100.167 53.952 100.107C53.9251 100.046 53.8857 99.9923 53.8364 99.9482C53.7872 99.9041 53.7292 99.8709 53.6663 99.8508C53.6034 99.8307 53.5369 99.824 53.4712 99.8313L53.4827 99.8141ZM43.6728 102.639C43.632 102.593 43.5825 102.556 43.5272 102.529C43.4719 102.503 43.4118 102.488 43.3505 102.484C43.2893 102.481 43.2279 102.49 43.1702 102.511C43.1124 102.531 43.0593 102.563 43.0139 102.605C41.3958 104.052 40.2499 105.953 39.7248 108.06C39.6953 108.181 39.7148 108.309 39.7791 108.417C39.8435 108.524 39.9475 108.602 40.0686 108.633H40.1832C40.2874 108.632 40.3884 108.597 40.4703 108.532C40.5523 108.468 40.6105 108.378 40.6359 108.277C41.1175 106.355 42.1632 104.621 43.6385 103.298C43.7296 103.215 43.7844 103.099 43.7908 102.976C43.7972 102.852 43.7548 102.731 43.6728 102.639ZM43.3118 117.795C41.8925 116.408 40.9257 114.624 40.5385 112.678C40.5265 112.618 40.5026 112.56 40.4683 112.509C40.434 112.457 40.3899 112.413 40.3386 112.379C40.2872 112.344 40.2296 112.321 40.169 112.309C40.1085 112.296 40.0461 112.296 39.9855 112.308C39.925 112.321 39.8674 112.344 39.816 112.379C39.7646 112.413 39.7206 112.457 39.6862 112.508C39.6519 112.56 39.628 112.617 39.616 112.678C39.6039 112.739 39.6039 112.801 39.616 112.861C40.0419 114.991 41.1003 116.942 42.6529 118.46C42.6965 118.503 42.7483 118.538 42.8054 118.562C42.8624 118.585 42.9235 118.597 42.9852 118.597C43.047 118.597 43.1081 118.585 43.1651 118.562C43.2221 118.538 43.2739 118.503 43.3176 118.46C43.4036 118.37 43.4512 118.25 43.4501 118.126C43.449 118.002 43.3994 117.883 43.3118 117.795ZM53.0128 120.66H50.2911C49.1871 120.662 48.0908 120.478 47.0478 120.116C46.9301 120.075 46.8008 120.082 46.6885 120.136C46.5762 120.191 46.4901 120.287 46.4491 120.405C46.408 120.523 46.4155 120.652 46.4697 120.764C46.524 120.877 46.6206 120.963 46.7384 121.004C47.8824 121.392 49.0832 121.585 50.2911 121.577H53.0128C53.1375 121.577 53.257 121.527 53.3451 121.439C53.4332 121.351 53.4827 121.232 53.4827 121.107C53.4827 120.982 53.4332 120.863 53.3451 120.775C53.257 120.687 53.1375 120.637 53.0128 120.637V120.66ZM63.8427 120.66H57.6542C57.5925 120.66 57.5314 120.672 57.4744 120.696C57.4174 120.719 57.3656 120.754 57.3219 120.798C57.2783 120.841 57.2437 120.893 57.2201 120.95C57.1965 121.007 57.1843 121.068 57.1843 121.13C57.1843 121.192 57.1965 121.253 57.2201 121.31C57.2437 121.367 57.2783 121.419 57.3219 121.462C57.3656 121.506 57.4174 121.54 57.4744 121.564C57.5314 121.588 57.5925 121.6 57.6542 121.6H63.8427C63.9044 121.6 63.9655 121.588 64.0225 121.564C64.0795 121.54 64.1313 121.506 64.1749 121.462C64.2185 121.419 64.2531 121.367 64.2767 121.31C64.3004 121.253 64.3125 121.192 64.3125 121.13C64.3125 121.068 64.3004 121.007 64.2767 120.95C64.2531 120.893 64.2185 120.841 64.1749 120.798C64.1313 120.754 64.0795 120.719 64.0225 120.696C63.9655 120.672 63.9044 120.66 63.8427 120.66ZM74.6667 120.66H68.484C68.4223 120.66 68.3612 120.672 68.3042 120.696C68.2472 120.719 68.1954 120.754 68.1518 120.798C68.1081 120.841 68.0735 120.893 68.0499 120.95C68.0263 121.007 68.0141 121.068 68.0141 121.13C68.0141 121.192 68.0263 121.253 68.0499 121.31C68.0735 121.367 68.1081 121.419 68.1518 121.462C68.1954 121.506 68.2472 121.54 68.3042 121.564C68.3612 121.588 68.4223 121.6 68.484 121.6H74.6725C74.7971 121.6 74.9166 121.55 75.0047 121.462C75.0928 121.374 75.1423 121.255 75.1423 121.13C75.1423 121.005 75.0928 120.886 75.0047 120.798C74.9166 120.71 74.7971 120.66 74.6725 120.66H74.6667ZM85.4965 120.66H79.3081C79.2464 120.66 79.1853 120.672 79.1283 120.696C79.0713 120.719 79.0195 120.754 78.9758 120.798C78.9322 120.841 78.8976 120.893 78.874 120.95C78.8504 121.007 78.8382 121.068 78.8382 121.13C78.8382 121.192 78.8504 121.253 78.874 121.31C78.8976 121.367 78.9322 121.419 78.9758 121.462C79.0195 121.506 79.0713 121.54 79.1283 121.564C79.1853 121.588 79.2464 121.6 79.3081 121.6H85.4965C85.6212 121.6 85.7407 121.55 85.8288 121.462C85.9169 121.374 85.9664 121.255 85.9664 121.13C85.9664 121.005 85.9169 120.886 85.8288 120.798C85.7407 120.71 85.6212 120.66 85.4965 120.66ZM96.3206 120.66H90.1436C90.019 120.66 89.8995 120.71 89.8114 120.798C89.7233 120.886 89.6738 121.005 89.6738 121.13C89.6738 121.255 89.7233 121.374 89.8114 121.462C89.8995 121.55 90.019 121.6 90.1436 121.6H96.3321C96.3938 121.6 96.4549 121.588 96.5119 121.564C96.5689 121.54 96.6207 121.506 96.6643 121.462C96.708 121.419 96.7426 121.367 96.7662 121.31C96.7898 121.253 96.8019 121.192 96.8019 121.13C96.8019 121.068 96.7898 121.007 96.7662 120.95C96.7426 120.893 96.708 120.841 96.6643 120.798C96.6207 120.754 96.5689 120.719 96.5119 120.696C96.4549 120.672 96.3938 120.66 96.3321 120.66H96.3206Z" fill="#6F5CE0" />
	<path d="M103.661 121.587H100.99C100.925 121.595 100.858 121.588 100.795 121.568C100.732 121.548 100.674 121.514 100.625 121.47C100.576 121.426 100.537 121.372 100.51 121.312C100.483 121.252 100.469 121.186 100.469 121.12C100.469 121.054 100.483 120.989 100.51 120.929C100.537 120.868 100.576 120.814 100.625 120.77C100.674 120.726 100.732 120.693 100.795 120.673C100.858 120.653 100.925 120.646 100.99 120.653H103.237L103.661 121.587Z" fill="#6F5CE0" />
	<path d="M102.532 47.5322L102.022 49.0105H103.042L102.532 47.5322ZM107.059 47.6353C107.033 47.5349 106.974 47.4466 106.89 47.3859C106.806 47.3251 106.703 47.2958 106.6 47.303H105.941V48.3229H106.6C106.725 48.3251 106.846 48.2801 106.938 48.1968C106.995 48.1396 107.037 48.0685 107.059 47.9906C107.068 47.9355 107.068 47.8794 107.059 47.8244C107.069 47.7618 107.069 47.6979 107.059 47.6353ZM107.059 47.6353C107.033 47.5349 106.974 47.4466 106.89 47.3859C106.806 47.3251 106.703 47.2958 106.6 47.303H105.941V48.3229H106.6C106.725 48.3251 106.846 48.2801 106.938 48.1968C106.995 48.1396 107.037 48.0685 107.059 47.9906C107.068 47.9355 107.068 47.8794 107.059 47.8244C107.069 47.7618 107.069 47.6979 107.059 47.6353ZM102.532 47.5322L102.022 49.0105H103.042L102.532 47.5322ZM116.141 43.8019C115.934 42.1456 115.199 40.6 114.044 39.3944C112.89 38.1888 111.378 37.3873 109.732 37.1088C108.086 36.8303 106.394 37.0897 104.907 37.8484C103.421 38.6071 102.218 39.8247 101.478 41.3208C101.1 41.239 100.717 41.1892 100.332 41.1718H100.022C98.4275 41.1712 96.8831 41.73 95.6581 42.7509C94.4331 43.7718 93.6049 45.19 93.3179 46.7586H93.2148C93.0736 46.75 92.932 46.75 92.7908 46.7586C92.2066 46.7578 91.6281 46.8723 91.0883 47.0955C90.5484 47.3187 90.058 47.6462 89.6449 48.0593C89.2319 48.4723 88.9044 48.9628 88.6812 49.5026C88.458 50.0424 88.3435 50.621 88.3442 51.2051V51.2223C88.3563 52.0152 88.6809 52.7712 89.2475 53.326C89.8141 53.8807 90.5768 54.1894 91.3697 54.1848H118.874C119.503 54.1908 120.117 53.9994 120.631 53.6375C121.145 53.2756 121.533 52.7616 121.739 52.1678C121.958 51.5139 122.07 50.829 122.071 50.1393C122.076 48.5263 121.465 46.9723 120.363 45.7945C119.261 44.6168 117.751 43.9041 116.141 43.8019ZM103.466 50.2425L103.231 49.5721H101.821L101.598 50.2425H100.853L102.119 46.7128H102.944L104.211 50.2425H103.466ZM107.672 48.3401C107.576 48.5129 107.43 48.6527 107.253 48.7412C107.192 48.7748 107.126 48.8017 107.059 48.8214C106.91 48.864 106.755 48.8852 106.6 48.8844H105.941V50.2367H105.236V46.7128H106.6C106.756 46.7156 106.91 46.7407 107.059 46.7872C107.12 46.8022 107.179 46.8233 107.236 46.8503C107.413 46.938 107.56 47.0754 107.66 47.2456C107.754 47.4117 107.804 47.5992 107.804 47.79C107.804 47.9808 107.754 48.1683 107.66 48.3344L107.672 48.3401ZM109.563 50.2425H108.852V46.7185H109.563V50.2425ZM106.6 47.303H105.941V48.3229H106.6C106.725 48.3251 106.846 48.2801 106.938 48.1968C106.995 48.1396 107.037 48.0685 107.059 47.9906C107.068 47.9355 107.068 47.8794 107.059 47.8244C107.068 47.7655 107.068 47.7056 107.059 47.6468C107.036 47.5443 106.977 47.4533 106.893 47.3903C106.809 47.3273 106.705 47.2963 106.6 47.303ZM102.016 49.022H103.036L102.526 47.5436L102.016 49.022ZM102.526 47.5436L102.016 49.022H103.036L102.526 47.5436ZM102.526 47.5436L102.016 49.022H103.036L102.526 47.5436Z" fill="#6F5CE0" />
	<path d="M94.1547 69.2198H93.6963V65.8735L96.3894 63.6388V48.9297H96.8478V63.8508L94.1547 66.0855V69.2198Z" fill="#6F5CE0" />
	<path d="M94.1547 68.9849C94.0918 68.9792 94.0285 68.9792 93.9656 68.9849C93.8759 68.979 93.7859 68.979 93.6963 68.9849C93.396 69.05 93.1268 69.2154 92.9331 69.4539C92.7393 69.6924 92.6326 69.9898 92.6305 70.2971C92.6274 70.5551 92.6988 70.8086 92.8362 71.027C92.9736 71.2454 93.1711 71.4196 93.405 71.5285C93.6389 71.6375 93.8992 71.6767 94.1549 71.6413C94.4105 71.606 94.6505 71.4976 94.846 71.3293C95.0416 71.1609 95.1844 70.9397 95.2573 70.6922C95.3303 70.4447 95.3303 70.1814 95.2573 69.9339C95.1843 69.6864 95.0414 69.4652 94.8459 69.2969C94.6503 69.1285 94.4103 69.0202 94.1547 68.9849ZM93.9656 71.191C93.7913 71.191 93.6209 71.1394 93.4759 71.0427C93.3309 70.9459 93.2178 70.8085 93.1509 70.6475C93.0839 70.4866 93.0661 70.3095 93.0997 70.1385C93.1333 69.9675 93.2168 69.8102 93.3396 69.6866C93.4624 69.563 93.6191 69.4785 93.7899 69.4438C93.9607 69.4091 94.138 69.4257 94.2993 69.4917C94.4607 69.5576 94.5989 69.6698 94.6965 69.8141C94.7942 69.9585 94.8469 70.1285 94.848 70.3028C94.8511 70.4206 94.8305 70.5378 94.7875 70.6476C94.7446 70.7573 94.68 70.8573 94.5978 70.9417C94.5155 71.026 94.4172 71.0931 94.3086 71.1389C94.2001 71.1846 94.0834 71.2082 93.9656 71.2082V71.191Z" fill="#6F5CE0" />
	<path d="M105.001 66.6712H104.549V62.2075L106.6 59.967V49.2461H107.059V60.1504L105.001 62.3851V66.6712Z" fill="#6F5CE0" />
	<path d="M105.001 66.4536C104.939 66.4474 104.875 66.4474 104.812 66.4536C104.725 66.4452 104.636 66.4452 104.549 66.4536C104.302 66.5055 104.075 66.6262 103.894 66.8016C103.713 66.9771 103.586 67.2002 103.526 67.4451C103.467 67.69 103.478 67.9468 103.558 68.1856C103.639 68.4245 103.785 68.6358 103.98 68.795C104.176 68.9542 104.412 69.0549 104.662 69.0854C104.913 69.1158 105.166 69.0749 105.394 68.9672C105.622 68.8596 105.815 68.6896 105.95 68.477C106.085 68.2644 106.158 68.0178 106.159 67.7658C106.158 67.444 106.039 67.1337 105.827 66.8924C105.614 66.6511 105.321 66.4952 105.001 66.4536ZM104.812 68.6539C104.591 68.6361 104.385 68.5357 104.235 68.3727C104.084 68.2097 104.001 67.9961 104.001 67.7744C104.001 67.5526 104.084 67.339 104.235 67.1761C104.385 67.0131 104.591 66.9127 104.812 66.8948C104.934 66.885 105.056 66.9004 105.171 66.9402C105.286 66.9799 105.392 67.0431 105.482 67.1258C105.571 67.2084 105.643 67.3087 105.692 67.4203C105.741 67.532 105.766 67.6525 105.766 67.7744C105.766 67.8962 105.741 68.0168 105.692 68.1284C105.643 68.2401 105.571 68.3403 105.482 68.423C105.392 68.5056 105.286 68.5688 105.171 68.6085C105.056 68.6483 104.934 68.6637 104.812 68.6539Z" fill="#6F5CE0" />
	<path d="M119.453 66.8019H119V62.5158L116.943 60.2811V46.5117H117.401V60.1034L119.453 62.3381V66.8019Z" fill="#6F5CE0" />
	<path d="M119.453 66.5954C119.365 66.5739 119.274 66.5643 119.184 66.5667C119.123 66.5585 119.061 66.5585 119 66.5667C118.669 66.6199 118.37 66.795 118.162 67.0576C117.954 67.3202 117.852 67.6512 117.875 67.9855C117.899 68.3198 118.047 68.633 118.29 68.8636C118.534 69.0942 118.854 69.2253 119.189 69.2312C119.52 69.2297 119.839 69.1057 120.084 68.8831C120.329 68.6606 120.484 68.3552 120.517 68.0258C120.55 67.6964 120.461 67.3663 120.265 67.0991C120.07 66.8318 119.783 66.6463 119.459 66.5782L119.453 66.5954ZM119.184 68.79C119.062 68.7998 118.94 68.7844 118.825 68.7446C118.709 68.7049 118.604 68.6417 118.514 68.559C118.425 68.4764 118.353 68.3761 118.304 68.2645C118.255 68.1529 118.23 68.0323 118.23 67.9104C118.23 67.7886 118.255 67.668 118.304 67.5564C118.353 67.4448 118.425 67.3445 118.514 67.2618C118.604 67.1792 118.709 67.116 118.825 67.0763C118.94 67.0365 119.062 67.0211 119.184 67.0309C119.305 67.0211 119.427 67.0365 119.542 67.0763C119.658 67.116 119.763 67.1792 119.853 67.2618C119.942 67.3445 120.014 67.4448 120.063 67.5564C120.112 67.668 120.137 67.7886 120.137 67.9104C120.137 68.0323 120.112 68.1529 120.063 68.2645C120.014 68.3761 119.942 68.4764 119.853 68.559C119.763 68.6417 119.658 68.7049 119.542 68.7446C119.427 68.7844 119.305 68.7998 119.184 68.79Z" fill="#6F5CE0" />
	<path d="M103.644 58.0982C103.569 58.0925 103.494 58.0925 103.42 58.0982C103.344 58.0923 103.267 58.0923 103.191 58.0982C102.862 58.1555 102.566 58.3343 102.362 58.5991C102.158 58.8639 102.061 59.1955 102.09 59.5285C102.119 59.8614 102.271 60.1714 102.518 60.3973C102.764 60.6232 103.086 60.7486 103.42 60.7486C103.754 60.7486 104.076 60.6232 104.323 60.3973C104.569 60.1714 104.721 59.8614 104.75 59.5285C104.779 59.1955 104.682 58.8639 104.478 58.5991C104.274 58.3343 103.978 58.1555 103.649 58.0982H103.644ZM103.414 60.3042C103.238 60.3054 103.066 60.2543 102.919 60.1574C102.773 60.0605 102.658 59.9221 102.59 59.7599C102.522 59.5978 102.503 59.419 102.537 59.2463C102.57 59.0737 102.655 58.9149 102.779 58.7901C102.903 58.6653 103.061 58.5802 103.233 58.5454C103.406 58.5107 103.585 58.5279 103.747 58.595C103.91 58.662 104.049 58.7759 104.147 58.9221C104.245 59.0682 104.297 59.2402 104.297 59.4161C104.3 59.5339 104.279 59.6511 104.236 59.7608C104.193 59.8705 104.129 59.9705 104.047 60.0549C103.964 60.1393 103.866 60.2064 103.757 60.2521C103.649 60.2979 103.532 60.3215 103.414 60.3214V60.3042Z" fill="#6F5CE0" />
	<path d="M103.643 51.8535H103.185V58.2425H103.643V51.8535Z" fill="#6F5CE0" />
	<path d="M93.467 59.313C93.3907 59.3071 93.3141 59.3071 93.2378 59.313C93.1615 59.3073 93.0849 59.3073 93.0086 59.313C92.6779 59.3704 92.3807 59.5498 92.1757 59.8157C91.9708 60.0816 91.8731 60.4147 91.9019 60.7491C91.9307 61.0836 92.0839 61.3951 92.3313 61.6221C92.5786 61.849 92.9021 61.9749 93.2378 61.9749C93.5735 61.9749 93.897 61.849 94.1443 61.6221C94.3917 61.3951 94.5449 61.0836 94.5737 60.7491C94.6025 60.4147 94.5048 60.0816 94.2999 59.8157C94.095 59.5498 93.7978 59.3704 93.467 59.313ZM93.2378 61.5134C93.0633 61.5134 92.8927 61.4616 92.7476 61.3646C92.6024 61.2677 92.4893 61.1299 92.4226 60.9686C92.3558 60.8074 92.3383 60.6299 92.3723 60.4588C92.4064 60.2876 92.4904 60.1304 92.6138 60.007C92.7372 59.8835 92.8945 59.7995 93.0657 59.7655C93.2368 59.7314 93.4143 59.7489 93.5755 59.8157C93.7367 59.8825 93.8746 59.9956 93.9715 60.1407C94.0685 60.2858 94.1202 60.4564 94.1202 60.6309C94.1233 60.7487 94.1027 60.8659 94.0598 60.9757C94.0168 61.0854 93.9523 61.1854 93.87 61.2698C93.7878 61.3542 93.6895 61.4212 93.5809 61.467C93.4723 61.5128 93.3556 61.5363 93.2378 61.5363V61.5134Z" fill="#6F5CE0" />
	<path d="M93.4672 50.7578H93.0088V59.4389H93.4672V50.7578Z" fill="#6F5CE0" />
	<path d="M100.263 69.3171C100.189 69.3084 100.114 69.3084 100.04 69.3171C99.9634 69.3086 99.8865 69.3086 99.8104 69.3171C99.4796 69.3745 99.1824 69.5538 98.9775 69.8197C98.7726 70.0857 98.6749 70.4188 98.7037 70.7532C98.7325 71.0877 98.8857 71.3992 99.133 71.6261C99.3804 71.8531 99.7039 71.979 100.04 71.979C100.375 71.979 100.699 71.8531 100.946 71.6261C101.193 71.3992 101.347 71.0877 101.375 70.7532C101.404 70.4188 101.307 70.0857 101.102 69.8197C100.897 69.5538 100.6 69.3745 100.269 69.3171H100.263ZM100.034 71.5117C99.8593 71.5117 99.6887 71.46 99.5436 71.363C99.3985 71.266 99.2854 71.1282 99.2186 70.967C99.1518 70.8057 99.1343 70.6283 99.1684 70.4571C99.2024 70.2859 99.2865 70.1287 99.4099 70.0053C99.5333 69.8819 99.6905 69.7978 99.8617 69.7638C100.033 69.7298 100.21 69.7472 100.372 69.814C100.533 69.8808 100.671 69.9939 100.768 70.139C100.865 70.2841 100.916 70.4547 100.916 70.6293C100.917 70.7454 100.895 70.8605 100.851 70.9679C100.807 71.0753 100.742 71.1728 100.66 71.2549C100.577 71.337 100.48 71.402 100.372 71.4461C100.265 71.4902 100.15 71.5125 100.034 71.5117Z" fill="#6F5CE0" />
	<path d="M100.263 52.5176H99.8042V69.4384H100.263V52.5176Z" fill="#6F5CE0" />
	<path d="M113.952 68.2114C113.876 68.203 113.799 68.203 113.723 68.2114C113.649 68.203 113.574 68.203 113.499 68.2114C113.169 68.2695 112.872 68.4493 112.668 68.7153C112.464 68.9814 112.367 69.3143 112.396 69.6485C112.425 69.9827 112.578 70.2938 112.825 70.5205C113.073 70.7471 113.396 70.8729 113.731 70.8729C114.067 70.8729 114.39 70.7471 114.637 70.5205C114.885 70.2938 115.038 69.9827 115.067 69.6485C115.096 69.3143 114.999 68.9814 114.795 68.7153C114.591 68.4493 114.294 68.2695 113.964 68.2114H113.952ZM113.717 70.4118C113.543 70.4118 113.372 70.36 113.227 70.2631C113.082 70.1661 112.969 70.0283 112.902 69.867C112.835 69.7058 112.818 69.5284 112.852 69.3572C112.886 69.186 112.97 69.0288 113.093 68.9054C113.217 68.782 113.374 68.6979 113.545 68.6639C113.716 68.6298 113.894 68.6473 114.055 68.7141C114.216 68.7809 114.354 68.894 114.451 69.0391C114.548 69.1842 114.6 69.3548 114.6 69.5293C114.6 69.6452 114.577 69.76 114.532 69.867C114.488 69.9741 114.423 70.0714 114.341 70.1533C114.259 70.2353 114.162 70.3003 114.055 70.3446C113.948 70.389 113.833 70.4118 113.717 70.4118Z" fill="#6F5CE0" />
	<path d="M113.946 51.4121H113.488V68.333H113.946V51.4121Z" fill="#6F5CE0" />
	<path d="M110.485 62.8993C110.411 62.8906 110.336 62.8906 110.262 62.8993C110.185 62.8903 110.108 62.8903 110.032 62.8993C109.7 62.9561 109.4 63.1356 109.194 63.4025C108.987 63.6694 108.888 64.0041 108.917 64.3403C108.945 64.6766 109.099 64.9899 109.348 65.2183C109.596 65.4466 109.921 65.5733 110.259 65.5733C110.596 65.5733 110.921 65.4466 111.17 65.2183C111.418 64.9899 111.572 64.6766 111.6 64.3403C111.629 64.0041 111.53 63.6694 111.323 63.4025C111.117 63.1356 110.818 62.9561 110.485 62.8993ZM110.262 65.0997C110.085 65.1008 109.913 65.0495 109.766 64.9524C109.619 64.8552 109.504 64.7166 109.436 64.5541C109.368 64.3915 109.35 64.2125 109.384 64.0397C109.419 63.8669 109.503 63.7081 109.628 63.5835C109.752 63.459 109.911 63.3743 110.084 63.3402C110.257 63.3061 110.436 63.3242 110.598 63.3921C110.761 63.46 110.9 63.5747 110.997 63.7217C111.094 63.8686 111.145 64.0411 111.144 64.2172C111.141 64.4504 111.047 64.6731 110.882 64.8379C110.717 65.0028 110.495 65.0967 110.262 65.0997Z" fill="#6F5CE0" />
	<path d="M110.491 46.0996H110.033V63.0205H110.491V46.0996Z" fill="#6F5CE0" />
</svg>
