<svg width="160" height="160" viewBox="0 0 160 160" fill="none"
	xmlns="http://www.w3.org/2000/svg">
	<circle cx="80" cy="80" r="80" fill="#F4F4F4" />
	<g clip-path="url(#clip0_1750_2419)">
		<path d="M92.55 122.746H55.0849L56.6618 109.827C57.3666 104.223 56.3161 98.5383 53.655 93.5563C52.5395 91.4723 51.7739 89.9715 51.3683 89.1045C47.028 79.7952 43.3723 70.5925 46.3131 60.4111C49.4568 49.5605 58.842 41.1437 70.2251 38.9786C77.3149 37.6602 84.6225 38.1467 91.4751 40.3932C97.7319 42.4772 102.802 45.9605 106.113 50.463C110.129 55.9188 113.308 64.7767 111.356 72.2657C111.239 72.7119 111.108 73.1581 110.966 73.6144C110.509 75.1355 110.033 76.7175 110.332 78.2285V78.3552C110.643 79.964 111.154 81.5276 111.853 83.0098C112.122 83.5524 112.426 84.0848 112.72 84.5969C113.397 85.6668 113.93 86.8209 114.307 88.0295C114.52 88.6839 114.566 89.3813 114.439 90.0577C114.124 91.4115 112.887 92.2025 111.833 92.4915C110.92 92.6985 109.979 92.7483 109.049 92.6385C109.166 96.0002 109.145 98.9562 108.983 101.654C108.983 101.917 108.958 102.222 108.948 102.546C108.877 104.574 108.775 107.358 107.35 108.631C105.667 110.152 97.9347 109.472 91.7438 108.631C91.6075 108.611 91.4684 108.623 91.3381 108.668C91.2077 108.712 91.0898 108.787 90.9941 108.886C90.8985 108.985 90.8278 109.106 90.788 109.238C90.7482 109.37 90.7404 109.509 90.7652 109.645L92.55 122.746ZM56.2308 121.732H91.3889L89.7511 109.782C89.711 109.493 89.7382 109.198 89.8307 108.922C89.9231 108.645 90.0782 108.394 90.2839 108.187C90.4896 107.981 90.7403 107.824 91.0164 107.73C91.2926 107.637 91.5866 107.608 91.8756 107.647C99.9578 108.742 105.627 108.838 106.671 107.9C107.716 106.962 107.868 104.27 107.928 102.521C107.928 102.186 107.928 101.877 107.964 101.603C108.139 98.4418 108.154 95.2739 108.01 92.1112V91.5332L108.588 91.5889C109.584 91.7427 110.6 91.7204 111.589 91.523C112.024 91.4316 112.427 91.2274 112.758 90.9311C113.089 90.6348 113.337 90.2566 113.475 89.8346C113.554 89.3247 113.51 88.8034 113.349 88.3135C112.996 87.1881 112.496 86.1141 111.863 85.1191C111.559 84.6121 111.244 84.0442 110.961 83.4713C110.233 81.9112 109.705 80.2655 109.389 78.5733L109.358 78.4364C109.014 76.682 109.526 74.9784 110.023 73.3355C110.154 72.8944 110.286 72.4584 110.403 72.0274C112.269 64.8528 109.191 56.3345 105.332 51.0715C101.281 45.6056 95.3793 42.7611 91.1404 41.3566C84.4581 39.165 77.3316 38.6907 70.4177 39.9775C59.3998 42.0563 50.3238 50.2044 47.2917 60.6951C44.4421 70.5367 48.0421 79.5468 52.3012 88.6735C52.6967 89.5304 53.4573 91.0109 54.5626 93.0796C57.3185 98.2459 58.4061 104.139 57.6759 109.949L56.2308 121.732Z" fill="#1A1344" stroke="#1A1344" stroke-miterlimit="10" />
		<path d="M76.9939 48.6174C78.6377 48.6174 79.9702 47.2849 79.9702 45.6411C79.9702 43.9973 78.6377 42.6648 76.9939 42.6648C75.3501 42.6648 74.0176 43.9973 74.0176 45.6411C74.0176 47.2849 75.3501 48.6174 76.9939 48.6174Z" fill="#1A1344" />
		<path d="M98.4568 59.3818C100.101 59.3818 101.433 58.0493 101.433 56.4055C101.433 54.7617 100.101 53.4292 98.4568 53.4292C96.813 53.4292 95.4805 54.7617 95.4805 56.4055C95.4805 58.0493 96.813 59.3818 98.4568 59.3818Z" fill="#1A1344" />
		<path d="M88.8132 73.2949C90.457 73.2949 91.7895 71.9624 91.7895 70.3186C91.7895 68.6748 90.457 67.3423 88.8132 67.3423C87.1695 67.3423 85.8369 68.6748 85.8369 70.3186C85.8369 71.9624 87.1695 73.2949 88.8132 73.2949Z" fill="#1A1344" />
		<path d="M65.3928 68.7822C67.0366 68.7822 68.3691 67.4497 68.3691 65.8059C68.3691 64.1621 67.0366 62.8296 65.3928 62.8296C63.749 62.8296 62.4165 64.1621 62.4165 65.8059C62.4165 67.4497 63.749 68.7822 65.3928 68.7822Z" fill="#1A1344" />
		<path d="M79.676 64.0566C81.3198 64.0566 82.6523 62.7241 82.6523 61.0803C82.6523 59.4365 81.3198 58.104 79.676 58.104C78.0322 58.104 76.6997 59.4365 76.6997 61.0803C76.6997 62.7241 78.0322 64.0566 79.676 64.0566Z" fill="#1A1344" />
		<path d="M54.8516 68.1587C55.5881 68.1587 56.1851 67.5617 56.1851 66.8252C56.1851 66.0887 55.5881 65.4917 54.8516 65.4917C54.1151 65.4917 53.5181 66.0887 53.5181 66.8252C53.5181 67.5617 54.1151 68.1587 54.8516 68.1587Z" fill="#1A1344" />
		<path d="M63.2534 61.4759C63.9899 61.4759 64.5869 60.8788 64.5869 60.1423C64.5869 59.4059 63.9899 58.8088 63.2534 58.8088C62.517 58.8088 61.9199 59.4059 61.9199 60.1423C61.9199 60.8788 62.517 61.4759 63.2534 61.4759Z" fill="#1A1344" />
		<path d="M63.3902 49.7989C64.1266 49.7989 64.7237 49.2018 64.7237 48.4653C64.7237 47.7289 64.1266 47.1318 63.3902 47.1318C62.6537 47.1318 62.0566 47.7289 62.0566 48.4653C62.0566 49.2018 62.6537 49.7989 63.3902 49.7989Z" fill="#1A1344" />
		<path d="M71.5381 52.9373C72.2746 52.9373 72.8716 52.3403 72.8716 51.6038C72.8716 50.8673 72.2746 50.2703 71.5381 50.2703C70.8016 50.2703 70.2046 50.8673 70.2046 51.6038C70.2046 52.3403 70.8016 52.9373 71.5381 52.9373Z" fill="#1A1344" />
		<path d="M69.875 61.2681C70.6115 61.2681 71.2085 60.6711 71.2085 59.9346C71.2085 59.1981 70.6115 58.6011 69.875 58.6011C69.1385 58.6011 68.5415 59.1981 68.5415 59.9346C68.5415 60.6711 69.1385 61.2681 69.875 61.2681Z" fill="#1A1344" />
		<path d="M98.8423 63.1338C99.5788 63.1338 100.176 62.5368 100.176 61.8003C100.176 61.0638 99.5788 60.4668 98.8423 60.4668C98.1058 60.4668 97.5088 61.0638 97.5088 61.8003C97.5088 62.5368 98.1058 63.1338 98.8423 63.1338Z" fill="#1A1344" />
		<path d="M92.479 66.313C93.2155 66.313 93.8125 65.716 93.8125 64.9795C93.8125 64.243 93.2155 63.646 92.479 63.646C91.7425 63.646 91.1455 64.243 91.1455 64.9795C91.1455 65.716 91.7425 66.313 92.479 66.313Z" fill="#1A1344" />
		<path d="M91.0899 58.6214C91.8263 58.6214 92.4234 58.0243 92.4234 57.2879C92.4234 56.5514 91.8263 55.9543 91.0899 55.9543C90.3534 55.9543 89.7563 56.5514 89.7563 57.2879C89.7563 58.0243 90.3534 58.6214 91.0899 58.6214Z" fill="#1A1344" />
		<path d="M83.981 55.2242C84.7175 55.2242 85.3145 54.6271 85.3145 53.8906C85.3145 53.1542 84.7175 52.5571 83.981 52.5571C83.2445 52.5571 82.6475 53.1542 82.6475 53.8906C82.6475 54.6271 83.2445 55.2242 83.981 55.2242Z" fill="#1A1344" />
		<path d="M76.0254 58.4539C76.7619 58.4539 77.3589 57.8569 77.3589 57.1204C77.3589 56.3839 76.7619 55.7869 76.0254 55.7869C75.2889 55.7869 74.6919 56.3839 74.6919 57.1204C74.6919 57.8569 75.2889 58.4539 76.0254 58.4539Z" fill="#1A1344" />
		<path d="M77.7241 53.044C78.4606 53.044 79.0576 52.4469 79.0576 51.7105C79.0576 50.974 78.4606 50.377 77.7241 50.377C76.9877 50.377 76.3906 50.974 76.3906 51.7105C76.3906 52.4469 76.9877 53.044 77.7241 53.044Z" fill="#1A1344" />
		<path d="M65.2915 55.1177C66.028 55.1177 66.625 54.5207 66.625 53.7842C66.625 53.0477 66.028 52.4507 65.2915 52.4507C64.555 52.4507 63.958 53.0477 63.958 53.7842C63.958 54.5207 64.555 55.1177 65.2915 55.1177Z" fill="#1A1344" />
		<path d="M66.8838 75.8099C67.6203 75.8099 68.2173 75.2128 68.2173 74.4763C68.2173 73.7399 67.6203 73.1428 66.8838 73.1428C66.1473 73.1428 65.5503 73.7399 65.5503 74.4763C65.5503 75.2128 66.1473 75.8099 66.8838 75.8099Z" fill="#1A1344" />
		<path d="M68.5923 87.4261C69.3288 87.4261 69.9258 86.829 69.9258 86.0925C69.9258 85.3561 69.3288 84.759 68.5923 84.759C67.8558 84.759 67.2588 85.3561 67.2588 86.0925C67.2588 86.829 67.8558 87.4261 68.5923 87.4261Z" fill="#1A1344" />
		<path d="M77.126 74.1519C77.8625 74.1519 78.4595 73.5549 78.4595 72.8184C78.4595 72.0819 77.8625 71.4849 77.126 71.4849C76.3895 71.4849 75.7925 72.0819 75.7925 72.8184C75.7925 73.5549 76.3895 74.1519 77.126 74.1519Z" fill="#1A1344" />
		<path d="M80.9082 68.4729C81.6447 68.4729 82.2417 67.8759 82.2417 67.1394C82.2417 66.4029 81.6447 65.8059 80.9082 65.8059C80.1717 65.8059 79.5747 66.4029 79.5747 67.1394C79.5747 67.8759 80.1717 68.4729 80.9082 68.4729Z" fill="#1A1344" />
		<path d="M86.7036 62.1858C87.4401 62.1858 88.0371 61.5888 88.0371 60.8523C88.0371 60.1158 87.4401 59.5188 86.7036 59.5188C85.9671 59.5188 85.3701 60.1158 85.3701 60.8523C85.3701 61.5888 85.9671 62.1858 86.7036 62.1858Z" fill="#1A1344" />
		<path d="M88.5142 48.2522C89.2507 48.2522 89.8477 47.6552 89.8477 46.9187C89.8477 46.1822 89.2507 45.5852 88.5142 45.5852C87.7777 45.5852 87.1807 46.1822 87.1807 46.9187C87.1807 47.6552 87.7777 48.2522 88.5142 48.2522Z" fill="#1A1344" />
		<path d="M72.314 69.198C73.0505 69.198 73.6475 68.601 73.6475 67.8645C73.6475 67.128 73.0505 66.531 72.314 66.531C71.5775 66.531 70.9805 67.128 70.9805 67.8645C70.9805 68.601 71.5775 69.198 72.314 69.198Z" fill="#1A1344" />
		<path d="M71.0415 80.5406C71.778 80.5406 72.375 79.9435 72.375 79.207C72.375 78.4706 71.778 77.8735 71.0415 77.8735C70.305 77.8735 69.708 78.4706 69.708 79.207C69.708 79.9435 70.305 80.5406 71.0415 80.5406Z" fill="#1A1344" />
		<path d="M64.7744 80.7383C65.5109 80.7383 66.1079 80.1413 66.1079 79.4048C66.1079 78.6683 65.5109 78.0713 64.7744 78.0713C64.038 78.0713 63.4409 78.6683 63.4409 79.4048C63.4409 80.1413 64.038 80.7383 64.7744 80.7383Z" fill="#1A1344" />
		<path d="M62.3965 87.4566C63.133 87.4566 63.73 86.8595 63.73 86.1231C63.73 85.3866 63.133 84.7896 62.3965 84.7896C61.66 84.7896 61.063 85.3866 61.063 86.1231C61.063 86.8595 61.66 87.4566 62.3965 87.4566Z" fill="#1A1344" />
		<path d="M59.8613 83.2076C60.5978 83.2076 61.1949 82.6105 61.1949 81.874C61.1949 81.1376 60.5978 80.5405 59.8613 80.5405C59.1249 80.5405 58.5278 81.1376 58.5278 81.874C58.5278 82.6105 59.1249 83.2076 59.8613 83.2076Z" fill="#1A1344" />
		<path d="M65.6821 67.3423C66.4186 67.3423 67.0157 66.7453 67.0157 66.0088C67.0157 65.2723 66.4186 64.6753 65.6821 64.6753C64.9457 64.6753 64.3486 65.2723 64.3486 66.0088C64.3486 66.7453 64.9457 67.3423 65.6821 67.3423Z" fill="#1A1344" />
		<path d="M57.2954 72.9856C58.0319 72.9856 58.6289 72.3886 58.6289 71.6521C58.6289 70.9156 58.0319 70.3186 57.2954 70.3186C56.5589 70.3186 55.9619 70.9156 55.9619 71.6521C55.9619 72.3886 56.5589 72.9856 57.2954 72.9856Z" fill="#1A1344" />
		<path d="M51.6118 62.2061C52.3483 62.2061 52.9453 61.6091 52.9453 60.8726C52.9453 60.1361 52.3483 59.5391 51.6118 59.5391C50.8754 59.5391 50.2783 60.1361 50.2783 60.8726C50.2783 61.6091 50.8754 62.2061 51.6118 62.2061Z" fill="#1A1344" />
		<path d="M56.885 57.7339C58.5288 57.7339 59.8613 56.4013 59.8613 54.7576C59.8613 53.1138 58.5288 51.7812 56.885 51.7812C55.2412 51.7812 53.9087 53.1138 53.9087 54.7576C53.9087 56.4013 55.2412 57.7339 56.885 57.7339Z" fill="#1A1344" />
		<path d="M65.9408 66.5006L62.5183 60.0561H62.7515L56.7178 55.2392L64.4755 53.5609L64.5819 54.068L57.8688 55.5029L62.7921 59.4223L64.9572 53.6319L63.0507 48.9317L57.7369 54.4432L57.3719 54.0933L63.2535 48.0139L65.4541 53.4443L71.5081 50.8178L77.0855 51.4314L78.0996 50.2804L77.7193 51.5683L84.2449 53.8854L75.4224 57.5665L76.9436 52.3085L70.2608 59.8634L65.9408 66.5006ZM63.3245 60.4972L65.9864 65.5017L69.5712 60.0003L63.3245 60.4972ZM65.1549 54.5496L63.1267 60.0105L69.2112 59.5034L65.1549 54.5496ZM65.378 54.0173L69.845 59.5592L76.6495 51.9029L71.5588 51.335L65.378 54.0173ZM77.5824 52.055L76.2185 56.6894L82.8404 53.926L77.5824 52.055Z" fill="#1A1344" />
		<path d="M54.9123 66.9011C54.6284 66.9011 54.6233 66.8301 54.603 66.7085L54.5675 66.4803L54.7551 66.4296C55.1608 66.1659 59.4655 62.9817 62.6954 60.5834L50.8813 61.1615L55.6475 55.6753L56.0278 56.0049L52.0425 60.5936L64.3382 59.9648L63.6638 60.4719C58.7962 64.0769 56.6616 65.6538 55.6982 66.3434C57.7568 66.2268 62.9945 65.8871 65.2812 65.7704L65.3117 66.2775L60.0942 66.5918L56.5095 66.8048C55.6678 66.8504 55.2064 66.8808 54.9529 66.8707L54.9123 66.9011Z" fill="#1A1344" />
		<path d="M72.6995 68.6404L69.6572 60.2388L70.1338 60.0664L72.9226 67.748L79.0374 62.0236L81.6842 67.0382L73.0747 68.4224V68.2956L72.6995 68.6404ZM78.9005 62.845L73.5513 67.8444L80.9084 66.6528L78.9005 62.845Z" fill="#1A1344" />
		<path d="M77.993 62.708L69.8804 60.2184L75.5186 56.5576L79.0983 60.4314L78.7231 60.7762L75.4375 57.2168L71.0668 60.0511L78.14 62.2212L77.993 62.708Z" fill="#1A1344" />
		<path d="M88.2198 69.4009L80.6142 66.962L86.866 61.2173L80.3911 59.8888L83.768 53.997L84.2091 54.2455L81.1669 59.5288L87.5404 60.8167L90.9477 57.1508L84.5488 54.0984L84.7719 53.6421L91.7995 57.0088L87.6266 61.5012L88.2198 69.4009ZM81.6283 66.744L87.6671 68.6859L87.1195 61.6736L81.6283 66.744Z" fill="#1A1344" />
		<path d="M83.768 53.6321L83.5601 53.5307L83.2964 53.627C83.2356 53.4648 83.2204 53.4191 87.6367 47.1065L77.6328 45.2761L77.7241 44.769L88.5037 46.7516L88.2756 47.0761C86.5415 49.5606 83.9049 53.3583 83.768 53.6321Z" fill="#1A1344" />
		<path d="M92.8087 65.3548L86.562 61.0653L86.846 60.6444L92.1394 64.2799L91.1254 57.3132L91.6273 57.2422L92.8087 65.3548Z" fill="#1A1344" />
		<path d="M98.9944 62.1857L91.2012 57.1306L98.6597 55.7463L99.542 61.5317L99.04 61.6077L98.2389 56.3396L92.5448 57.3942L99.2732 61.7598L98.9944 62.1857Z" fill="#1A1344" />
		<path d="M98.5336 62.2128L93.1128 64.9084L93.3386 65.3625L98.7594 62.6668L98.5336 62.2128Z" fill="#1A1344" />
		<path d="M77.1613 74.2686L71.878 68.2754L65.7276 66.5666L57.3513 71.7841L54.6387 67.1092L55.0798 66.8557L57.5237 71.0793L65.6516 66.019L72.1569 67.8241L77.0802 73.4066L80.7005 67.2968L81.1365 67.5554L77.1613 74.2686Z" fill="#1A1344" />
		<path d="M51.6808 60.7589L51.2412 61.0115L54.3911 66.4938L54.8308 66.2412L51.6808 60.7589Z" fill="#1A1344" />
		<path d="M71.8215 67.8967L67.0747 73.9941L67.4748 74.3056L72.2216 68.2081L71.8215 67.8967Z" fill="#1A1344" />
		<path d="M65.3785 66.6055L64.8867 66.717L66.5176 73.9076L67.0094 73.796L65.3785 66.6055Z" fill="#1A1344" />
		<path d="M68.5315 87.2689L65.1597 79.212L65.6261 79.0143L68.4808 85.834L70.8334 78.8521L71.3151 79.0143L68.5315 87.2689Z" fill="#1A1344" />
		<path d="M76.0094 72.4961L67.105 74.1316L67.1962 74.6285L76.1007 72.993L76.0094 72.4961Z" fill="#1A1344" />
		<path d="M66.5976 74.3039L60.0381 81.0093L60.4005 81.3638L66.96 74.6585L66.5976 74.3039Z" fill="#1A1344" />
		<path d="M61.9956 87.0255L66.6452 74.0909L54.7095 66.4854L54.7399 66.318L56.8086 54.3266L77.0902 45.3672L98.8218 56.3243L88.9447 70.42L77.004 72.8943L61.9956 87.0255ZM55.2672 66.2369L67.2587 73.878L63.2024 85.2052L76.7606 72.4279L88.6456 69.9434L98.0816 56.4815L77.0902 45.9199L57.2649 54.6714L55.2672 66.2369Z" fill="#1A1344" />
		<path d="M88.7706 47.2012L88.2783 47.3225L90.6435 56.9227L91.1358 56.8014L88.7706 47.2012Z" fill="#1A1344" />
	</g>
	<defs>
		<clipPath id="clip0_1750_2419">
			<rect width="69.7635" height="85" fill="white" transform="translate(45 38)" />
		</clipPath>
	</defs>
</svg>
