<svg width="160" height="160" viewBox="0 0 160 160" fill="none"
	xmlns="http://www.w3.org/2000/svg">
	<circle cx="80" cy="80" r="80" fill="#221B4F" />
	<g clip-path="url(#clip0_1750_2121)">
		<path d="M62.2953 88.2221L59.6907 91.0956V89.238H50.6426V88.207L62.2953 88.2221Z" fill="#6F5CE0" />
		<path d="M50.6426 86.1752L53.2472 83.3047V85.1623H62.2953V86.1903L50.6426 86.1752Z" fill="#6F5CE0" />
		<path d="M109.566 88.2221L106.961 91.0956V89.238H97.9102V88.207L109.566 88.2221Z" fill="#6F5CE0" />
		<path d="M97.9102 86.1752L100.515 83.3047V85.1623H109.566V86.1903L97.9102 86.1752Z" fill="#6F5CE0" />
		<path d="M125.339 89.6133C127.846 89.6133 129.879 87.5933 129.879 85.1016C129.879 82.6098 127.846 80.5898 125.339 80.5898C122.831 80.5898 120.798 82.6098 120.798 85.1016C120.798 87.5933 122.831 89.6133 125.339 89.6133Z" fill="#6F5CE0" />
		<path d="M120.937 91.1699H129.743C130.929 91.1699 132.066 91.638 132.905 92.4712C133.743 93.3043 134.214 94.4343 134.214 95.6125V102H116.451V95.6125C116.451 95.0279 116.567 94.4489 116.792 93.909C117.018 93.369 117.349 92.8786 117.766 92.4658C118.182 92.0531 118.677 91.7262 119.221 91.5038C119.765 91.2814 120.348 91.168 120.937 91.1699Z" fill="#6F5CE0" />
		<path d="M39.4161 85.1105C39.4147 85.8622 39.224 86.6016 38.8616 87.2615C38.4992 87.9213 37.9765 88.4806 37.3411 88.8886C36.7056 89.2965 35.9776 89.5401 35.2233 89.5973C34.469 89.6544 33.7122 89.5232 33.0219 89.2156C32.3316 88.9081 31.7296 88.4339 31.2708 87.8363C30.8119 87.2386 30.5107 86.5364 30.3946 85.7937C30.2785 85.0509 30.3511 84.291 30.6059 83.5832C30.8607 82.8754 31.2895 82.2421 31.8534 81.741C31.8659 81.7326 31.8771 81.7225 31.8866 81.7109L31.929 81.753H37.828L37.8703 81.7109L37.9036 81.741C38.3608 82.1426 38.7296 82.6338 38.9866 83.1838H30.7674C31.805 84.6867 33.2661 85.2458 34.8785 85.2458C36.4909 85.2458 37.955 84.6777 38.9836 83.1748C39.2716 83.7798 39.4194 84.4412 39.4161 85.1105Z" fill="#6F5CE0" />
		<path d="M32.5102 97.873L36.1403 102H29.9902C30.0118 101.154 30.2557 100.327 30.6977 99.6035C31.1398 98.8796 31.7645 98.283 32.5102 97.873Z" fill="#6F5CE0" />
		<path d="M37.6525 102.001L33.6382 97.4347C34.0408 97.3282 34.4558 97.2746 34.8724 97.2754C36.1452 97.2773 37.367 97.7723 38.2782 98.6552C39.1894 99.5382 39.7181 100.739 39.7519 102.004L37.6525 102.001Z" fill="#6F5CE0" />
		<path d="M27.57 92.2344L31.7628 97.0076C30.8944 97.529 30.1727 98.2601 29.6649 99.133C29.1572 100.006 28.8799 100.992 28.8587 102H26V95.6129C25.9985 94.9702 26.1382 94.3348 26.4093 93.7513C26.6805 93.1677 27.0766 92.65 27.57 92.2344Z" fill="#6F5CE0" />
		<path d="M43.7485 95.6125V102H40.8898C40.8707 101.049 40.6235 100.116 40.1686 99.2787C39.7137 98.4416 39.0644 97.7244 38.2745 97.1867C37.4846 96.6491 36.5769 96.3065 35.627 96.1875C34.6771 96.0684 33.7123 96.1763 32.8128 96.5022L28.5322 91.6118C29.136 91.319 29.7994 91.1678 30.4713 91.1699H39.2774C39.8647 91.1695 40.4463 91.2842 40.9889 91.5073C41.5316 91.7304 42.0246 92.0577 42.4399 92.4703C42.8551 92.8829 43.1845 93.3728 43.409 93.912C43.6336 94.4511 43.7489 95.029 43.7485 95.6125Z" fill="#6F5CE0" />
		<path d="M30.7708 83.1726L30.2082 82.5234C30.1242 82.423 30.0631 82.3057 30.0293 82.1796C29.9954 82.0535 29.9894 81.9216 30.0119 81.793C30.0343 81.6643 30.0846 81.5421 30.1592 81.4347C30.2338 81.3273 30.331 81.2372 30.4441 81.1708L34.5704 78.8533C34.7105 78.7778 34.8681 78.7402 35.0274 78.7445C35.1867 78.7487 35.3421 78.7945 35.4779 78.8773L39.1927 81.2038C39.3915 81.3321 39.5319 81.5325 39.5839 81.7622C39.6359 81.9919 39.5954 82.2328 39.4711 82.4332L38.9931 83.1726H30.7708Z" fill="#6F5CE0" />
		<path d="M91.1217 65.3354V59.925C91.1225 59.5396 91.0468 59.1579 90.899 58.8016C90.7511 58.4453 90.534 58.1216 90.26 57.8488C89.986 57.576 89.6606 57.3596 89.3024 57.2119C88.9441 57.0643 88.5601 56.9883 88.1723 56.9883H72.0454C71.6571 56.9879 71.2726 57.0636 70.9139 57.211C70.5551 57.3585 70.2291 57.5748 69.9546 57.8475C69.6801 58.1203 69.4624 58.4442 69.314 58.8007C69.1656 59.1571 69.0894 59.5392 69.0898 59.925V99.0666C69.0906 99.845 69.4024 100.591 69.9566 101.141C70.5108 101.691 71.262 102 72.0454 102H88.1723C88.5598 102 88.9436 101.924 89.3017 101.777C89.6597 101.629 89.985 101.413 90.2589 101.141C90.5329 100.868 90.75 100.545 90.8981 100.189C91.0461 99.8332 91.1221 99.4517 91.1217 99.0666V78.8285H89.5215V95.661H70.6962V61.1664H89.5215V65.3354H91.1217ZM80.1073 97.0587C80.4498 97.0582 80.7848 97.1586 81.0698 97.3473C81.3548 97.5359 81.5771 97.8044 81.7084 98.1187C81.8397 98.433 81.8743 98.779 81.8076 99.1128C81.7409 99.4466 81.5761 99.7532 81.3339 99.9938C81.0917 100.234 80.7831 100.398 80.4472 100.465C80.1112 100.531 79.7631 100.496 79.4468 100.366C79.1304 100.235 78.8602 100.015 78.6703 99.7314C78.4804 99.4482 78.3794 99.1154 78.38 98.7751C78.38 98.3199 78.562 97.8833 78.8859 97.5614C79.2098 97.2396 79.6492 97.0587 80.1073 97.0587ZM83.1324 59.2096H77.0822C77.0108 59.2096 76.9423 59.1814 76.8918 59.1312C76.8413 59.0811 76.813 59.013 76.813 58.9421C76.813 58.8711 76.8413 58.8031 76.8918 58.7529C76.9423 58.7027 77.0108 58.6745 77.0822 58.6745H83.1324C83.2038 58.6745 83.2723 58.7027 83.3228 58.7529C83.3733 58.8031 83.4017 58.8711 83.4017 58.9421C83.4017 59.013 83.3733 59.0811 83.3228 59.1312C83.2723 59.1814 83.2038 59.2096 83.1324 59.2096ZM87.3676 59.2096C87.3143 59.2096 87.2623 59.1939 87.218 59.1645C87.1737 59.1351 87.1392 59.0933 87.1188 59.0444C87.0985 58.9956 87.0931 58.9418 87.1035 58.8899C87.1139 58.838 87.1395 58.7903 87.1772 58.7529C87.2149 58.7155 87.2628 58.69 87.315 58.6797C87.3673 58.6694 87.4214 58.6747 87.4706 58.6949C87.5198 58.7152 87.5618 58.7494 87.5914 58.7934C87.621 58.8374 87.6368 58.8892 87.6368 58.9421C87.6369 59.011 87.6102 59.0773 87.5623 59.1271C87.5144 59.1769 87.449 59.2065 87.3797 59.2096H87.3676Z" fill="#6F5CE0" />
		<path d="M84.3179 66.5703V80.5834L87.1827 77.7369H103.845V66.5703H84.3179ZM90.0172 72.9306C89.7969 72.9312 89.5813 72.8668 89.3979 72.7457C89.2144 72.6245 89.0713 72.4519 88.9865 72.2499C88.9018 72.0478 88.8793 71.8253 88.9219 71.6105C88.9646 71.3958 89.0703 71.1984 89.2259 71.0434C89.3815 70.8884 89.5798 70.7827 89.7959 70.7398C90.0119 70.6969 90.2359 70.7186 90.4395 70.8022C90.6431 70.8859 90.8171 71.0277 90.9396 71.2096C91.062 71.3916 91.1274 71.6056 91.1274 71.8245C91.1278 71.9696 91.0994 72.1134 91.0438 72.2475C90.9881 72.3817 90.9064 72.5037 90.8033 72.6064C90.7002 72.7092 90.5776 72.7907 90.4427 72.8464C90.3078 72.902 90.1632 72.9306 90.0172 72.9306ZM94.0829 72.9306C93.8626 72.9312 93.6471 72.8668 93.4636 72.7457C93.2802 72.6245 93.137 72.4519 93.0523 72.2499C92.9676 72.0478 92.9451 71.8253 92.9877 71.6105C93.0303 71.3958 93.1361 71.1984 93.2917 71.0434C93.4472 70.8884 93.6456 70.7827 93.8616 70.7398C94.0776 70.6969 94.3016 70.7186 94.5052 70.8022C94.7088 70.8859 94.8829 71.0277 95.0053 71.2096C95.1278 71.3916 95.1931 71.6056 95.1931 71.8245C95.1931 72.1173 95.0763 72.3982 94.8682 72.6056C94.66 72.8129 94.3777 72.9298 94.0829 72.9306ZM98.1457 72.9306C97.9253 72.9312 97.7098 72.8668 97.5264 72.7457C97.3429 72.6245 97.1997 72.4519 97.115 72.2499C97.0303 72.0478 97.0078 71.8253 97.0504 71.6105C97.093 71.3958 97.1988 71.1984 97.3544 71.0434C97.5099 70.8884 97.7083 70.7827 97.9243 70.7398C98.1404 70.6969 98.3644 70.7186 98.5679 70.8022C98.7715 70.8859 98.9456 71.0277 99.068 71.2096C99.1905 71.3916 99.2559 71.6056 99.2559 71.8245C99.2567 72.116 99.1413 72.396 98.935 72.6033C98.7286 72.8105 98.4481 72.9282 98.1547 72.9306H98.1457Z" fill="#6F5CE0" />
	</g>
	<defs>
		<clipPath id="clip0_1750_2121">
			<rect width="108.214" height="45" fill="white" transform="translate(26 57)" />
		</clipPath>
	</defs>
</svg>
