<svg width="160" height="160" viewBox="0 0 160 160" fill="none"
	xmlns="http://www.w3.org/2000/svg">
	<circle cx="80" cy="80" r="80" fill="#F4F4F4" />
	<path d="M45.7814 73.2601C47.7371 73.2601 49.3226 71.6746 49.3226 69.7189C49.3226 67.7632 47.7371 66.1777 45.7814 66.1777C43.8257 66.1777 42.2402 67.7632 42.2402 69.7189C42.2402 71.6746 43.8257 73.2601 45.7814 73.2601Z" fill="#1A1344" />
	<path d="M45.7814 61.5364C43.7201 61.5379 41.7435 62.3567 40.2848 63.8131C38.8262 65.2696 38.0045 67.245 38 69.3064C38 73.6096 45.7929 90.5076 45.7929 90.5076C45.7929 90.5076 53.58 73.5867 53.58 69.3064C53.5785 68.284 53.3756 67.272 52.9828 66.3281C52.59 65.3842 52.015 64.527 51.2908 63.8054C50.5665 63.0838 49.7072 62.512 48.7619 62.1227C47.8166 61.7334 46.8038 61.5341 45.7814 61.5364ZM45.7814 75.025C44.7354 75.025 43.7128 74.7148 42.8431 74.1336C41.9734 73.5525 41.2955 72.7265 40.8952 71.7601C40.4949 70.7937 40.3901 69.7302 40.5942 68.7043C40.7983 67.6784 41.302 66.736 42.0416 65.9963C42.7813 65.2567 43.7237 64.753 44.7496 64.5489C45.7756 64.3448 46.839 64.4496 47.8054 64.8499C48.7718 65.2502 49.5978 65.928 50.1789 66.7978C50.7601 67.6675 51.0703 68.6901 51.0703 69.7361C51.0642 71.1354 50.5045 72.4753 49.5135 73.4631C48.5224 74.4509 47.1807 75.0063 45.7814 75.0078V75.025Z" fill="#1A1344" />
	<path d="M45.7814 73.2601C47.7371 73.2601 49.3226 71.6746 49.3226 69.7189C49.3226 67.7632 47.7371 66.1777 45.7814 66.1777C43.8257 66.1777 42.2402 67.7632 42.2402 69.7189C42.2402 71.6746 43.8257 73.2601 45.7814 73.2601Z" fill="#1A1344" />
	<path d="M45.7814 73.2601C47.7371 73.2601 49.3226 71.6746 49.3226 69.7189C49.3226 67.7632 47.7371 66.1777 45.7814 66.1777C43.8257 66.1777 42.2402 67.7632 42.2402 69.7189C42.2402 71.6746 43.8257 73.2601 45.7814 73.2601Z" fill="#1A1344" />
	<path d="M109.385 94.0372C109.385 94.9778 109.106 95.8974 108.583 96.6795C108.061 97.4616 107.318 98.0712 106.449 98.4311C105.58 98.7911 104.624 98.8853 103.701 98.7018C102.779 98.5183 101.931 98.0653 101.266 97.4002C100.601 96.735 100.148 95.8876 99.9644 94.965C99.7809 94.0425 99.8751 93.0862 100.235 92.2172C100.595 91.3481 101.205 90.6054 101.987 90.0828C102.769 89.5602 103.688 89.2813 104.629 89.2812C105.89 89.2828 107.099 89.7843 107.99 90.6759C108.882 91.5675 109.383 92.7763 109.385 94.0372Z" fill="#1A1344" />
	<path d="M104.629 83.0183C103.254 83.0176 101.892 83.2878 100.621 83.8136C99.3505 84.3393 98.1958 85.1103 97.2231 86.0825C96.2503 87.0547 95.4787 88.2091 94.9522 89.4796C94.4258 90.7501 94.1548 92.1119 94.1548 93.4871C94.1548 99.2688 104.624 122 104.624 122C104.624 122 115.087 99.2688 115.087 93.4871C115.087 92.1131 114.818 90.7524 114.292 89.4826C113.767 88.2129 112.997 87.0591 112.026 86.0869C111.055 85.1148 109.902 84.3435 108.633 83.817C107.364 83.2904 106.003 83.0191 104.629 83.0183ZM104.629 101.148C103.223 101.149 101.847 100.733 100.677 99.9526C99.507 99.1719 98.5946 98.0617 98.0555 96.7624C97.5164 95.4632 97.3748 94.0332 97.6485 92.6534C97.9223 91.2737 98.5991 90.0061 99.5933 89.011C100.588 88.0159 101.855 87.3381 103.234 87.0633C104.614 86.7884 106.044 86.9289 107.344 87.467C108.643 88.005 109.754 88.9164 110.536 90.086C111.317 91.2555 111.735 92.6305 111.735 94.0372C111.735 95.9222 110.986 97.73 109.654 99.0634C108.322 100.397 106.514 101.147 104.629 101.148Z" fill="#1A1344" />
	<path d="M109.385 94.0372C109.385 94.9778 109.106 95.8974 108.583 96.6795C108.061 97.4616 107.318 98.0712 106.449 98.4311C105.58 98.7911 104.624 98.8853 103.701 98.7018C102.779 98.5183 101.931 98.0653 101.266 97.4002C100.601 96.735 100.148 95.8876 99.9644 94.965C99.7809 94.0425 99.8751 93.0862 100.235 92.2172C100.595 91.3481 101.205 90.6054 101.987 90.0828C102.769 89.5602 103.688 89.2813 104.629 89.2812C105.89 89.2828 107.099 89.7843 107.99 90.6759C108.882 91.5675 109.383 92.7763 109.385 94.0372Z" fill="#1A1344" />
	<path d="M109.385 94.0372C109.385 94.9778 109.106 95.8974 108.583 96.6795C108.061 97.4616 107.318 98.0712 106.449 98.4311C105.58 98.7911 104.624 98.8853 103.701 98.7018C102.779 98.5183 101.931 98.0653 101.266 97.4002C100.601 96.735 100.148 95.8876 99.9644 94.965C99.7809 94.0425 99.8751 93.0862 100.235 92.2172C100.595 91.3481 101.205 90.6054 101.987 90.0828C102.769 89.5602 103.688 89.2813 104.629 89.2812C105.89 89.2828 107.099 89.7843 107.99 90.6759C108.882 91.5675 109.383 92.7763 109.385 94.0372Z" fill="#1A1344" />
	<path d="M49.9072 89.9634C49.9072 90.088 49.8577 90.2075 49.7696 90.2956C49.6814 90.3838 49.5619 90.4333 49.4373 90.4333H47.0708C47.1396 90.2843 47.2828 89.9577 47.4948 89.4993H49.4602C49.5799 89.5051 49.6927 89.5564 49.7758 89.6427C49.8589 89.7289 49.9059 89.8436 49.9072 89.9634Z" fill="#1A1344" />
	<path d="M60.2671 89.4993H54.0786C53.954 89.4993 53.8345 89.5488 53.7464 89.6369C53.6583 89.725 53.6088 89.8445 53.6088 89.9691C53.6088 90.0937 53.6583 90.2133 53.7464 90.3014C53.8345 90.3895 53.954 90.439 54.0786 90.439H60.2671C60.3917 90.439 60.5112 90.3895 60.5993 90.3014C60.6875 90.2133 60.737 90.0937 60.737 89.9691C60.737 89.8445 60.6875 89.725 60.5993 89.6369C60.5112 89.5488 60.3917 89.4993 60.2671 89.4993ZM71.0969 89.4993H64.9314C64.8067 89.4993 64.6872 89.5488 64.5991 89.6369C64.511 89.725 64.4615 89.8445 64.4615 89.9691C64.4615 90.0937 64.511 90.2133 64.5991 90.3014C64.6872 90.3895 64.8067 90.439 64.9314 90.439H71.1256C71.2502 90.439 71.3697 90.3895 71.4578 90.3014C71.5459 90.2133 71.5954 90.0937 71.5954 89.9691C71.5954 89.8445 71.5459 89.725 71.4578 89.6369C71.3697 89.5488 71.2502 89.4993 71.1256 89.4993H71.0969ZM75.8242 90.4161C75.7727 90.3799 75.7145 90.3544 75.6529 90.3411C75.5914 90.3278 75.5278 90.3271 75.466 90.3389C75.4041 90.3506 75.3453 90.3747 75.2929 90.4097C75.2406 90.4447 75.1958 90.4898 75.1612 90.5424C75.1266 90.595 75.103 90.6541 75.0917 90.716C75.0804 90.7779 75.0816 90.8415 75.0954 90.903C75.1091 90.9644 75.1351 91.0224 75.1717 91.0737C75.2083 91.1249 75.2548 91.1682 75.3085 91.2011C75.9616 91.6266 76.4981 92.2085 76.8694 92.894C77.2406 93.5794 77.4348 94.3467 77.4344 95.1262C77.4334 95.4495 77.4008 95.7719 77.3369 96.0888C77.3209 96.1503 77.3176 96.2143 77.3273 96.277C77.337 96.3398 77.3595 96.3998 77.3933 96.4535C77.4271 96.5072 77.4716 96.5534 77.524 96.5893C77.5764 96.6251 77.6356 96.6498 77.6979 96.6618H77.7896C77.8971 96.6616 78.0012 96.6244 78.0847 96.5566C78.1681 96.4889 78.2257 96.3945 78.248 96.2894C78.33 95.9129 78.3703 95.5286 78.3684 95.1434C78.3721 94.2051 78.1407 93.2809 77.6953 92.4551C77.2498 91.6293 76.6046 90.9283 75.8185 90.4161H75.8242ZM64.3125 99.8134H58.124C58.0584 99.8061 57.9919 99.8127 57.929 99.8329C57.8661 99.853 57.8081 99.8862 57.7588 99.9303C57.7096 99.9744 57.6702 100.028 57.6433 100.089C57.6163 100.149 57.6024 100.214 57.6024 100.28C57.6024 100.346 57.6163 100.412 57.6433 100.472C57.6702 100.532 57.7096 100.586 57.7588 100.63C57.8081 100.675 57.8661 100.708 57.929 100.728C57.9919 100.748 58.0584 100.755 58.124 100.747H64.3125C64.3782 100.755 64.4447 100.748 64.5076 100.728C64.5705 100.708 64.6285 100.675 64.6777 100.63C64.7269 100.586 64.7663 100.532 64.7933 100.472C64.8203 100.412 64.8342 100.346 64.8342 100.28C64.8342 100.214 64.8203 100.149 64.7933 100.089C64.7663 100.028 64.7269 99.9744 64.6777 99.9303C64.6285 99.8862 64.5705 99.853 64.5076 99.8329C64.4447 99.8127 64.3782 99.8061 64.3125 99.8134ZM75.4689 99.5269C75.4135 99.4166 75.317 99.3325 75.2001 99.2929C75.0832 99.2532 74.9555 99.2611 74.8444 99.3149C74.1949 99.6454 73.4759 99.8163 72.7472 99.8134H68.9424C68.8767 99.8061 68.8103 99.8127 68.7473 99.8329C68.6844 99.853 68.6264 99.8862 68.5772 99.9303C68.528 99.9744 68.4886 100.028 68.4616 100.089C68.4347 100.149 68.4207 100.214 68.4207 100.28C68.4207 100.346 68.4347 100.412 68.4616 100.472C68.4886 100.532 68.528 100.586 68.5772 100.63C68.6264 100.675 68.6844 100.708 68.7473 100.728C68.8103 100.748 68.8767 100.755 68.9424 100.747H72.7357C73.6079 100.76 74.4703 100.563 75.2512 100.174C75.3104 100.149 75.3636 100.111 75.4073 100.064C75.451 100.016 75.4842 99.9604 75.5048 99.8993C75.5253 99.8382 75.5328 99.7734 75.5266 99.7093C75.5204 99.6451 75.5008 99.5829 75.4689 99.5269ZM53.4827 99.8134H50.2911C49.2477 99.8129 48.2096 99.9615 47.2083 100.255C47.0914 100.291 46.9928 100.37 46.9331 100.477C46.8733 100.584 46.857 100.709 46.8874 100.828C46.9166 100.926 46.9762 101.012 47.0576 101.073C47.139 101.135 47.2379 101.17 47.3401 101.171C47.3858 101.176 47.4319 101.176 47.4776 101.171C48.3909 100.901 49.3385 100.764 50.2911 100.765H53.4712C53.5369 100.772 53.6034 100.765 53.6663 100.745C53.7292 100.725 53.7872 100.692 53.8364 100.648C53.8857 100.604 53.9251 100.55 53.952 100.489C53.979 100.429 53.9929 100.364 53.9929 100.298C53.9929 100.231 53.979 100.166 53.952 100.106C53.9251 100.046 53.8857 99.9916 53.8364 99.9475C53.7872 99.9034 53.7292 99.8702 53.6663 99.8501C53.6034 99.8299 53.5369 99.8233 53.4712 99.8306L53.4827 99.8134ZM43.6728 102.638C43.632 102.592 43.5825 102.555 43.5272 102.529C43.4719 102.502 43.4118 102.487 43.3505 102.484C43.2893 102.48 43.2279 102.489 43.1702 102.51C43.1124 102.531 43.0593 102.563 43.0139 102.604C41.3958 104.052 40.2499 105.952 39.7248 108.059C39.6953 108.18 39.7148 108.309 39.7791 108.416C39.8435 108.523 39.9475 108.601 40.0686 108.632H40.1832C40.2874 108.631 40.3884 108.596 40.4703 108.532C40.5523 108.467 40.6105 108.378 40.6359 108.277C41.1175 106.354 42.1632 104.62 43.6385 103.297C43.7296 103.214 43.7844 103.098 43.7908 102.975C43.7972 102.852 43.7548 102.731 43.6728 102.638ZM43.3118 117.794C41.8925 116.407 40.9257 114.624 40.5385 112.677C40.5265 112.617 40.5026 112.559 40.4683 112.508C40.434 112.456 40.3899 112.412 40.3386 112.378C40.2872 112.344 40.2296 112.32 40.169 112.308C40.1085 112.296 40.0461 112.296 39.9855 112.308C39.925 112.32 39.8674 112.344 39.816 112.378C39.7646 112.412 39.7206 112.456 39.6862 112.508C39.6519 112.559 39.628 112.617 39.616 112.677C39.6039 112.738 39.6039 112.8 39.616 112.861C40.0419 114.99 41.1003 116.941 42.6529 118.459C42.6965 118.503 42.7483 118.537 42.8054 118.561C42.8624 118.585 42.9235 118.597 42.9852 118.597C43.047 118.597 43.1081 118.585 43.1651 118.561C43.2221 118.537 43.2739 118.503 43.3176 118.459C43.4036 118.369 43.4512 118.25 43.4501 118.125C43.449 118.001 43.3994 117.882 43.3118 117.794ZM53.0128 120.659H50.2911C49.1871 120.661 48.0908 120.477 47.0478 120.115C46.9301 120.074 46.8008 120.081 46.6885 120.136C46.5762 120.19 46.4901 120.287 46.4491 120.404C46.408 120.522 46.4155 120.651 46.4697 120.764C46.524 120.876 46.6206 120.962 46.7384 121.003C47.8824 121.391 49.0832 121.585 50.2911 121.576H53.0128C53.1375 121.576 53.257 121.527 53.3451 121.439C53.4332 121.35 53.4827 121.231 53.4827 121.106C53.4827 120.982 53.4332 120.862 53.3451 120.774C53.257 120.686 53.1375 120.636 53.0128 120.636V120.659ZM63.8427 120.659H57.6542C57.5925 120.659 57.5314 120.671 57.4744 120.695C57.4174 120.719 57.3656 120.753 57.3219 120.797C57.2783 120.841 57.2437 120.892 57.2201 120.949C57.1965 121.006 57.1843 121.067 57.1843 121.129C57.1843 121.191 57.1965 121.252 57.2201 121.309C57.2437 121.366 57.2783 121.418 57.3219 121.461C57.3656 121.505 57.4174 121.54 57.4744 121.563C57.5314 121.587 57.5925 121.599 57.6542 121.599H63.8427C63.9044 121.599 63.9655 121.587 64.0225 121.563C64.0795 121.54 64.1313 121.505 64.1749 121.461C64.2185 121.418 64.2531 121.366 64.2767 121.309C64.3004 121.252 64.3125 121.191 64.3125 121.129C64.3125 121.067 64.3004 121.006 64.2767 120.949C64.2531 120.892 64.2185 120.841 64.1749 120.797C64.1313 120.753 64.0795 120.719 64.0225 120.695C63.9655 120.671 63.9044 120.659 63.8427 120.659ZM74.6667 120.659H68.484C68.4223 120.659 68.3612 120.671 68.3042 120.695C68.2472 120.719 68.1954 120.753 68.1518 120.797C68.1081 120.841 68.0735 120.892 68.0499 120.949C68.0263 121.006 68.0141 121.067 68.0141 121.129C68.0141 121.191 68.0263 121.252 68.0499 121.309C68.0735 121.366 68.1081 121.418 68.1518 121.461C68.1954 121.505 68.2472 121.54 68.3042 121.563C68.3612 121.587 68.4223 121.599 68.484 121.599H74.6725C74.7971 121.599 74.9166 121.55 75.0047 121.461C75.0928 121.373 75.1423 121.254 75.1423 121.129C75.1423 121.005 75.0928 120.885 75.0047 120.797C74.9166 120.709 74.7971 120.659 74.6725 120.659H74.6667ZM85.4965 120.659H79.3081C79.2464 120.659 79.1853 120.671 79.1283 120.695C79.0713 120.719 79.0195 120.753 78.9758 120.797C78.9322 120.841 78.8976 120.892 78.874 120.949C78.8504 121.006 78.8382 121.067 78.8382 121.129C78.8382 121.191 78.8504 121.252 78.874 121.309C78.8976 121.366 78.9322 121.418 78.9758 121.461C79.0195 121.505 79.0713 121.54 79.1283 121.563C79.1853 121.587 79.2464 121.599 79.3081 121.599H85.4965C85.6212 121.599 85.7407 121.55 85.8288 121.461C85.9169 121.373 85.9664 121.254 85.9664 121.129C85.9664 121.005 85.9169 120.885 85.8288 120.797C85.7407 120.709 85.6212 120.659 85.4965 120.659ZM96.3206 120.659H90.1436C90.019 120.659 89.8995 120.709 89.8114 120.797C89.7233 120.885 89.6738 121.005 89.6738 121.129C89.6738 121.254 89.7233 121.373 89.8114 121.461C89.8995 121.55 90.019 121.599 90.1436 121.599H96.3321C96.3938 121.599 96.4549 121.587 96.5119 121.563C96.5689 121.54 96.6207 121.505 96.6643 121.461C96.708 121.418 96.7426 121.366 96.7662 121.309C96.7898 121.252 96.8019 121.191 96.8019 121.129C96.8019 121.067 96.7898 121.006 96.7662 120.949C96.7426 120.892 96.708 120.841 96.6643 120.797C96.6207 120.753 96.5689 120.719 96.5119 120.695C96.4549 120.671 96.3938 120.659 96.3321 120.659H96.3206Z" fill="#1A1344" />
	<path d="M103.661 121.587H100.99C100.925 121.595 100.858 121.588 100.795 121.568C100.732 121.548 100.674 121.515 100.625 121.471C100.576 121.426 100.537 121.373 100.51 121.312C100.483 121.252 100.469 121.187 100.469 121.12C100.469 121.054 100.483 120.989 100.51 120.929C100.537 120.868 100.576 120.814 100.625 120.77C100.674 120.726 100.732 120.693 100.795 120.673C100.858 120.653 100.925 120.646 100.99 120.654H103.237L103.661 121.587Z" fill="#1A1344" />
	<path d="M102.532 47.5322L102.022 49.0105H103.042L102.532 47.5322ZM107.059 47.6353C107.033 47.5349 106.974 47.4466 106.89 47.3859C106.806 47.3251 106.703 47.2958 106.6 47.303H105.941V48.3229H106.6C106.725 48.3251 106.846 48.2801 106.938 48.1968C106.995 48.1396 107.037 48.0685 107.059 47.9906C107.068 47.9355 107.068 47.8794 107.059 47.8244C107.069 47.7618 107.069 47.6979 107.059 47.6353ZM107.059 47.6353C107.033 47.5349 106.974 47.4466 106.89 47.3859C106.806 47.3251 106.703 47.2958 106.6 47.303H105.941V48.3229H106.6C106.725 48.3251 106.846 48.2801 106.938 48.1968C106.995 48.1396 107.037 48.0685 107.059 47.9906C107.068 47.9355 107.068 47.8794 107.059 47.8244C107.069 47.7618 107.069 47.6979 107.059 47.6353ZM102.532 47.5322L102.022 49.0105H103.042L102.532 47.5322ZM116.141 43.8019C115.934 42.1456 115.199 40.6 114.044 39.3944C112.89 38.1888 111.378 37.3873 109.732 37.1088C108.086 36.8303 106.394 37.0897 104.907 37.8484C103.421 38.6071 102.218 39.8247 101.478 41.3208C101.1 41.239 100.717 41.1892 100.332 41.1718H100.022C98.4275 41.1712 96.8831 41.73 95.6581 42.7509C94.4331 43.7718 93.6049 45.19 93.3179 46.7586H93.2148C93.0736 46.75 92.932 46.75 92.7908 46.7586C92.2066 46.7578 91.6281 46.8723 91.0883 47.0955C90.5484 47.3187 90.058 47.6462 89.6449 48.0593C89.2319 48.4723 88.9044 48.9628 88.6812 49.5026C88.458 50.0424 88.3435 50.621 88.3442 51.2051V51.2223C88.3563 52.0152 88.6809 52.7712 89.2475 53.326C89.8141 53.8807 90.5768 54.1894 91.3697 54.1848H118.874C119.503 54.1908 120.117 53.9994 120.631 53.6375C121.145 53.2756 121.533 52.7616 121.739 52.1678C121.958 51.5139 122.07 50.829 122.071 50.1393C122.076 48.5263 121.465 46.9723 120.363 45.7945C119.261 44.6168 117.751 43.9041 116.141 43.8019ZM103.466 50.2425L103.231 49.5721H101.821L101.598 50.2425H100.853L102.119 46.7128H102.944L104.211 50.2425H103.466ZM107.672 48.3401C107.576 48.5129 107.43 48.6527 107.253 48.7412C107.192 48.7748 107.126 48.8017 107.059 48.8214C106.91 48.864 106.755 48.8852 106.6 48.8844H105.941V50.2367H105.236V46.7128H106.6C106.756 46.7156 106.91 46.7407 107.059 46.7872C107.12 46.8022 107.179 46.8233 107.236 46.8503C107.413 46.938 107.56 47.0754 107.66 47.2456C107.754 47.4117 107.804 47.5992 107.804 47.79C107.804 47.9808 107.754 48.1683 107.66 48.3344L107.672 48.3401ZM109.563 50.2425H108.852V46.7185H109.563V50.2425ZM106.6 47.303H105.941V48.3229H106.6C106.725 48.3251 106.846 48.2801 106.938 48.1968C106.995 48.1396 107.037 48.0685 107.059 47.9906C107.068 47.9355 107.068 47.8794 107.059 47.8244C107.068 47.7655 107.068 47.7056 107.059 47.6468C107.036 47.5443 106.977 47.4533 106.893 47.3903C106.809 47.3273 106.705 47.2963 106.6 47.303ZM102.016 49.022H103.036L102.526 47.5436L102.016 49.022ZM102.526 47.5436L102.016 49.022H103.036L102.526 47.5436ZM102.526 47.5436L102.016 49.022H103.036L102.526 47.5436Z" fill="#1A1344" />
	<path d="M94.1547 69.2206H93.6963V65.8742L96.3894 63.6395V48.9304H96.8478V63.8515L94.1547 66.0862V69.2206Z" fill="#1A1344" />
	<path d="M94.1547 68.9854C94.0918 68.9797 94.0285 68.9797 93.9656 68.9854C93.8759 68.9795 93.7859 68.9795 93.6963 68.9854C93.396 69.0505 93.1268 69.2159 92.9331 69.4544C92.7393 69.6929 92.6326 69.9903 92.6305 70.2976C92.6274 70.5556 92.6988 70.809 92.8362 71.0275C92.9736 71.2459 93.1711 71.4201 93.405 71.529C93.6389 71.638 93.8992 71.6772 94.1549 71.6418C94.4105 71.6065 94.6505 71.4981 94.846 71.3298C95.0416 71.1614 95.1844 70.9402 95.2573 70.6927C95.3303 70.4452 95.3303 70.1819 95.2573 69.9344C95.1843 69.6869 95.0414 69.4657 94.8459 69.2973C94.6503 69.129 94.4103 69.0207 94.1547 68.9854ZM93.9656 71.1915C93.7913 71.1915 93.6209 71.1399 93.4759 71.0431C93.3309 70.9464 93.2178 70.8089 93.1509 70.648C93.0839 70.4871 93.0661 70.31 93.0997 70.139C93.1333 69.968 93.2168 69.8107 93.3396 69.6871C93.4624 69.5634 93.6191 69.479 93.7899 69.4443C93.9607 69.4096 94.138 69.4262 94.2993 69.4921C94.4607 69.5581 94.5989 69.6703 94.6965 69.8146C94.7942 69.959 94.8469 70.129 94.848 70.3033C94.8511 70.4211 94.8305 70.5383 94.7875 70.648C94.7446 70.7578 94.68 70.8578 94.5978 70.9422C94.5155 71.0265 94.4172 71.0936 94.3086 71.1394C94.2001 71.1851 94.0834 71.2087 93.9656 71.2087V71.1915Z" fill="#1A1344" />
	<path d="M105.001 66.6707H104.549V62.207L106.6 59.9665V49.2456H107.059V60.1499L105.001 62.3846V66.6707Z" fill="#1A1344" />
	<path d="M105.001 66.4529C104.939 66.4467 104.875 66.4467 104.812 66.4529C104.725 66.4444 104.636 66.4444 104.549 66.4529C104.302 66.5048 104.075 66.6254 103.894 66.8009C103.713 66.9764 103.586 67.1995 103.526 67.4444C103.467 67.6893 103.478 67.946 103.558 68.1849C103.639 68.4238 103.785 68.6351 103.98 68.7943C104.176 68.9535 104.412 69.0542 104.662 69.0846C104.913 69.1151 105.166 69.0741 105.394 68.9665C105.622 68.8588 105.815 68.6889 105.95 68.4763C106.085 68.2636 106.158 68.0171 106.159 67.765C106.158 67.4433 106.039 67.133 105.827 66.8917C105.614 66.6504 105.321 66.4945 105.001 66.4529ZM104.812 68.6532C104.591 68.6354 104.385 68.5349 104.235 68.372C104.084 68.209 104.001 67.9954 104.001 67.7736C104.001 67.5519 104.084 67.3383 104.235 67.1753C104.385 67.0123 104.591 66.9119 104.812 66.8941C104.934 66.8843 105.056 66.8997 105.171 66.9395C105.286 66.9792 105.392 67.0424 105.482 67.125C105.571 67.2077 105.643 67.308 105.692 67.4196C105.741 67.5312 105.766 67.6518 105.766 67.7736C105.766 67.8955 105.741 68.0161 105.692 68.1277C105.643 68.2393 105.571 68.3396 105.482 68.4222C105.392 68.5049 105.286 68.5681 105.171 68.6078C105.056 68.6476 104.934 68.663 104.812 68.6532Z" fill="#1A1344" />
	<path d="M119.453 66.8023H119V62.5163L116.943 60.2815V46.5122H117.401V60.1039L119.453 62.3386V66.8023Z" fill="#1A1344" />
	<path d="M119.453 66.5959C119.365 66.5744 119.274 66.5648 119.184 66.5672C119.123 66.559 119.061 66.559 119 66.5672C118.669 66.6204 118.37 66.7955 118.162 67.0581C117.954 67.3207 117.852 67.6517 117.875 67.986C117.899 68.3203 118.047 68.6335 118.29 68.8641C118.534 69.0946 118.854 69.2258 119.189 69.2317C119.52 69.2301 119.839 69.1062 120.084 68.8836C120.329 68.6611 120.484 68.3557 120.517 68.0263C120.55 67.6969 120.461 67.3668 120.265 67.0995C120.07 66.8323 119.783 66.6467 119.459 66.5787L119.453 66.5959ZM119.184 68.7905C119.062 68.8003 118.94 68.7848 118.825 68.7451C118.709 68.7053 118.604 68.6422 118.514 68.5595C118.425 68.4769 118.353 68.3766 118.304 68.265C118.255 68.1533 118.23 68.0328 118.23 67.9109C118.23 67.7891 118.255 67.6685 118.304 67.5569C118.353 67.4453 118.425 67.345 118.514 67.2623C118.604 67.1797 118.709 67.1165 118.825 67.0768C118.94 67.037 119.062 67.0215 119.184 67.0314C119.305 67.0215 119.427 67.037 119.542 67.0768C119.658 67.1165 119.763 67.1797 119.853 67.2623C119.942 67.345 120.014 67.4453 120.063 67.5569C120.112 67.6685 120.137 67.7891 120.137 67.9109C120.137 68.0328 120.112 68.1533 120.063 68.265C120.014 68.3766 119.942 68.4769 119.853 68.5595C119.763 68.6422 119.658 68.7053 119.542 68.7451C119.427 68.7848 119.305 68.8003 119.184 68.7905Z" fill="#1A1344" />
	<path d="M103.644 58.0984C103.569 58.0927 103.494 58.0927 103.42 58.0984C103.344 58.0925 103.267 58.0925 103.191 58.0984C102.862 58.1558 102.566 58.3345 102.362 58.5993C102.158 58.8642 102.061 59.1958 102.09 59.5287C102.119 59.8617 102.271 60.1717 102.518 60.3976C102.764 60.6235 103.086 60.7488 103.42 60.7488C103.754 60.7488 104.076 60.6235 104.323 60.3976C104.569 60.1717 104.721 59.8617 104.75 59.5287C104.779 59.1958 104.682 58.8642 104.478 58.5993C104.274 58.3345 103.978 58.1558 103.649 58.0984H103.644ZM103.414 60.3045C103.238 60.3056 103.066 60.2545 102.919 60.1576C102.773 60.0607 102.658 59.9224 102.59 59.7602C102.522 59.598 102.503 59.4193 102.537 59.2466C102.57 59.0739 102.655 58.9151 102.779 58.7904C102.903 58.6656 103.061 58.5804 103.233 58.5457C103.406 58.5109 103.585 58.5282 103.747 58.5952C103.91 58.6623 104.049 58.7761 104.147 58.9223C104.245 59.0685 104.297 59.2404 104.297 59.4163C104.3 59.5341 104.279 59.6513 104.236 59.7611C104.193 59.8708 104.129 59.9708 104.047 60.0552C103.964 60.1396 103.866 60.2066 103.757 60.2524C103.649 60.2981 103.532 60.3217 103.414 60.3217V60.3045Z" fill="#1A1344" />
	<path d="M103.643 51.8525H103.185V58.2416H103.643V51.8525Z" fill="#1A1344" />
	<path d="M93.467 59.3133C93.3907 59.3074 93.3141 59.3074 93.2378 59.3133C93.1615 59.3076 93.0849 59.3076 93.0086 59.3133C92.6779 59.3706 92.3807 59.55 92.1757 59.8159C91.9708 60.0818 91.8731 60.4149 91.9019 60.7494C91.9307 61.0838 92.0839 61.3953 92.3313 61.6223C92.5786 61.8493 92.9021 61.9752 93.2378 61.9752C93.5735 61.9752 93.897 61.8493 94.1443 61.6223C94.3917 61.3953 94.5449 61.0838 94.5737 60.7494C94.6025 60.4149 94.5048 60.0818 94.2999 59.8159C94.095 59.55 93.7978 59.3706 93.467 59.3133ZM93.2378 61.5136C93.0633 61.5136 92.8927 61.4618 92.7476 61.3649C92.6024 61.2679 92.4893 61.1301 92.4226 60.9689C92.3558 60.8076 92.3383 60.6302 92.3723 60.459C92.4064 60.2878 92.4904 60.1306 92.6138 60.0072C92.7372 59.8838 92.8945 59.7997 93.0657 59.7657C93.2368 59.7316 93.4143 59.7491 93.5755 59.8159C93.7367 59.8827 93.8746 59.9958 93.9715 60.1409C94.0685 60.286 94.1202 60.4566 94.1202 60.6312C94.1233 60.749 94.1027 60.8662 94.0598 60.9759C94.0168 61.0856 93.9523 61.1856 93.87 61.27C93.7878 61.3544 93.6895 61.4215 93.5809 61.4672C93.4723 61.513 93.3556 61.5366 93.2378 61.5365V61.5136Z" fill="#1A1344" />
	<path d="M93.4672 50.7581H93.0088V59.4391H93.4672V50.7581Z" fill="#1A1344" />
	<path d="M100.263 69.3178C100.189 69.3091 100.114 69.3091 100.04 69.3178C99.9634 69.3094 99.8865 69.3094 99.8104 69.3178C99.4796 69.3752 99.1824 69.5546 98.9775 69.8205C98.7726 70.0864 98.6749 70.4195 98.7037 70.754C98.7325 71.0884 98.8857 71.3999 99.133 71.6269C99.3804 71.8538 99.7039 71.9798 100.04 71.9798C100.375 71.9798 100.699 71.8538 100.946 71.6269C101.193 71.3999 101.347 71.0884 101.375 70.754C101.404 70.4195 101.307 70.0864 101.102 69.8205C100.897 69.5546 100.6 69.3752 100.269 69.3178H100.263ZM100.034 71.5124C99.8593 71.5124 99.6887 71.4607 99.5436 71.3637C99.3985 71.2668 99.2854 71.1289 99.2186 70.9677C99.1518 70.8065 99.1343 70.629 99.1684 70.4579C99.2024 70.2867 99.2865 70.1294 99.4099 70.006C99.5333 69.8826 99.6905 69.7986 99.8617 69.7645C100.033 69.7305 100.21 69.748 100.372 69.8147C100.533 69.8815 100.671 69.9946 100.768 70.1398C100.865 70.2849 100.916 70.4555 100.916 70.63C100.917 70.7461 100.895 70.8612 100.851 70.9686C100.807 71.076 100.742 71.1736 100.66 71.2557C100.577 71.3378 100.48 71.4027 100.372 71.4468C100.265 71.4909 100.15 71.5132 100.034 71.5124Z" fill="#1A1344" />
	<path d="M100.263 52.5173H99.8042V69.4382H100.263V52.5173Z" fill="#1A1344" />
	<path d="M113.952 68.2119C113.876 68.2035 113.799 68.2035 113.723 68.2119C113.649 68.2034 113.574 68.2034 113.499 68.2119C113.169 68.27 112.872 68.4498 112.668 68.7158C112.464 68.9819 112.367 69.3148 112.396 69.649C112.425 69.9832 112.578 70.2943 112.825 70.521C113.073 70.7476 113.396 70.8734 113.731 70.8734C114.067 70.8734 114.39 70.7476 114.637 70.521C114.885 70.2943 115.038 69.9832 115.067 69.649C115.096 69.3148 114.999 68.9819 114.795 68.7158C114.591 68.4498 114.294 68.27 113.964 68.2119H113.952ZM113.717 70.4123C113.543 70.4123 113.372 70.3605 113.227 70.2636C113.082 70.1666 112.969 70.0288 112.902 69.8675C112.835 69.7063 112.818 69.5289 112.852 69.3577C112.886 69.1865 112.97 69.0293 113.093 68.9059C113.217 68.7825 113.374 68.6984 113.545 68.6644C113.716 68.6303 113.894 68.6478 114.055 68.7146C114.216 68.7814 114.354 68.8945 114.451 69.0396C114.548 69.1847 114.6 69.3553 114.6 69.5298C114.6 69.6457 114.577 69.7605 114.532 69.8675C114.488 69.9746 114.423 70.0719 114.341 70.1538C114.259 70.2357 114.162 70.3007 114.055 70.3451C113.948 70.3894 113.833 70.4123 113.717 70.4123Z" fill="#1A1344" />
	<path d="M113.946 51.4114H113.488V68.3322H113.946V51.4114Z" fill="#1A1344" />
	<path d="M110.485 62.9001C110.411 62.8913 110.336 62.8913 110.262 62.9001C110.185 62.8911 110.108 62.8911 110.032 62.9001C109.7 62.9568 109.4 63.1364 109.194 63.4032C108.987 63.6701 108.888 64.0048 108.917 64.3411C108.945 64.6773 109.099 64.9906 109.348 65.219C109.596 65.4473 109.921 65.574 110.259 65.574C110.596 65.574 110.921 65.4473 111.17 65.219C111.418 64.9906 111.572 64.6773 111.6 64.3411C111.629 64.0048 111.53 63.6701 111.323 63.4032C111.117 63.1364 110.818 62.9568 110.485 62.9001ZM110.262 65.1004C110.085 65.1015 109.913 65.0503 109.766 64.9531C109.619 64.856 109.504 64.7173 109.436 64.5548C109.368 64.3923 109.35 64.2132 109.384 64.0404C109.419 63.8676 109.503 63.7088 109.628 63.5843C109.752 63.4597 109.911 63.375 110.084 63.3409C110.257 63.3068 110.436 63.3249 110.598 63.3928C110.761 63.4607 110.9 63.5755 110.997 63.7224C111.094 63.8693 111.145 64.0418 111.144 64.218C111.141 64.4511 111.047 64.6738 110.882 64.8387C110.717 65.0035 110.495 65.0974 110.262 65.1004Z" fill="#1A1344" />
	<path d="M110.491 46.0996H110.033V63.0205H110.491V46.0996Z" fill="#1A1344" />
</svg>
