<svg width="160" height="160" viewBox="0 0 160 160" fill="none"
	xmlns="http://www.w3.org/2000/svg">
	<circle cx="80" cy="80" r="80" fill="#F4F4F4" />
	<g clip-path="url(#clip0_1750_2516)">
		<path d="M126.212 59.923C126.212 59.0104 125.249 58.2679 124.058 58.2679H62.6468C62.3142 58.2594 61.9835 58.3207 61.676 58.4476C61.3684 58.5744 61.0908 58.7642 60.8609 59.0047L59.9368 60.0647L59.2621 60.8299L58.3891 61.8388L53.6721 67.0592L50.9564 70.0633L50.2988 70.7945L47.6171 73.7363L47.277 74.1217C47.277 74.1217 46.642 74.2011 45.6385 74.3825C42.4296 74.9493 35.4335 76.5931 33.3245 79.8013C32.775 80.7095 32.366 81.6956 32.1112 82.726C31.778 84.0505 31.5411 85.3974 31.4026 86.7561C31.2892 87.8161 31.2211 88.876 31.1815 89.8623C31.1248 91.319 31.1304 92.6283 31.1474 93.5636C31.1645 94.4988 31.2041 95.0317 31.2041 95.0317H44.5727C44.816 94.5831 45.176 94.2086 45.6145 93.9477C46.0531 93.6867 46.554 93.5489 47.0644 93.5489C47.5747 93.5489 48.0756 93.6867 48.5142 93.9477C48.9528 94.2086 49.3127 94.5831 49.5561 95.0317H109.652C109.896 94.5845 110.256 94.2114 110.694 93.9513C111.132 93.6913 111.632 93.5541 112.141 93.5541C112.65 93.5541 113.15 93.6913 113.588 93.9513C114.026 94.2114 114.386 94.5845 114.63 95.0317H121.717L126.28 94.8673C126.428 94.4365 126.57 94 126.706 93.5636C126.842 93.1271 126.978 92.6567 127.108 92.2032C130.079 81.6009 129.773 70.348 126.229 59.923H126.212ZM72.4379 73.0335C72.4379 73.283 72.3387 73.5223 72.1622 73.6988C71.9858 73.8752 71.7464 73.9744 71.4968 73.9744H50.6843C50.5903 73.9752 50.4992 73.9417 50.4283 73.8801C50.3573 73.8185 50.3112 73.7331 50.2988 73.6399C50.2898 73.5832 50.2938 73.5251 50.3105 73.4702C50.3272 73.4152 50.3561 73.3647 50.3952 73.3225L59.6647 63.0745L60.4754 62.1449L60.8042 61.7708C60.8927 61.6698 61.0016 61.5887 61.1238 61.533C61.246 61.4773 61.3786 61.4482 61.5129 61.4477H71.4968C71.7464 61.4477 71.9858 61.5468 72.1622 61.7233C72.3387 61.8997 72.4379 62.1391 72.4379 62.3886V73.0335Z" stroke="#1A1344" stroke-width="0.5" stroke-miterlimit="10" />
		<path d="M51.0186 75.1194V86.059C51.4948 86.8752 51.7386 87.6687 52.1921 88.3262L55.7469 93.6147" stroke="#1A1344" stroke-width="0.21" stroke-miterlimit="10" />
		<path d="M75.0176 58.2678V95.0316V58.2678Z" stroke="#1A1344" stroke-width="0.21" stroke-miterlimit="10" />
		<path d="M126.683 93.5637C126.553 94.0002 126.411 94.4367 126.264 94.8731L126.207 95.0318H114.613C114.369 94.5847 114.009 94.2115 113.571 93.9515C113.133 93.6915 112.633 93.5543 112.124 93.5543C111.615 93.5543 111.115 93.6915 110.677 93.9515C110.239 94.2115 109.879 94.5847 109.635 95.0318H49.5393C49.2959 94.5833 48.936 94.2088 48.4974 93.9478C48.0588 93.6868 47.5579 93.5491 47.0476 93.5491C46.5372 93.5491 46.0363 93.6868 45.5977 93.9478C45.1592 94.2088 44.7992 94.5833 44.5558 95.0318H31.21C31.21 95.0318 31.176 94.465 31.1533 93.5637H126.683Z" fill="#1A1344" />
		<path d="M119.795 95.0318C119.738 95.1288 119.663 95.2136 119.574 95.2812C119.44 95.3837 119.277 95.4395 119.109 95.4399H117.878C117.878 95.4399 117.878 95.4739 117.878 95.4853H114.8C114.748 95.3283 114.681 95.1765 114.601 95.0318C114.358 94.5847 113.998 94.2115 113.56 93.9515C113.122 93.6915 112.622 93.5543 112.113 93.5543C111.603 93.5543 111.103 93.6915 110.665 93.9515C110.227 94.2115 109.868 94.5847 109.624 95.0318C109.544 95.1775 109.476 95.3291 109.42 95.4853H106.347C106.347 95.4853 106.347 95.4512 106.347 95.4399H105.117C104.947 95.4387 104.782 95.3831 104.646 95.2812C104.557 95.215 104.483 95.1298 104.431 95.0318C104.334 94.8593 104.309 94.6555 104.362 94.465C104.442 94.16 104.543 93.8607 104.663 93.5694C104.771 93.3087 104.89 93.0536 105.02 92.7985L105.105 92.6455L105.236 92.4188C105.366 92.2034 105.508 91.9993 105.655 91.7953C106.403 90.7915 107.375 89.9763 108.493 89.4146C109.612 88.853 110.847 88.5605 112.098 88.5605C113.35 88.5605 114.585 88.853 115.703 89.4146C116.822 89.9763 117.794 90.7915 118.542 91.7953C118.689 91.9993 118.831 92.2034 118.961 92.4188L119.092 92.6455L119.177 92.7985C119.307 93.0536 119.426 93.3087 119.54 93.5694C119.655 93.8626 119.755 94.1615 119.84 94.465C119.9 94.6525 119.884 94.8562 119.795 95.0318Z" fill="#1A1344" />
		<path d="M117.555 95.8706C117.555 95.7402 117.527 95.6155 117.504 95.4908C117.504 95.4568 117.504 95.4171 117.504 95.3774V95.2867C117.504 95.2017 117.464 95.1224 117.447 95.043C117.31 94.523 117.096 94.0263 116.812 93.5693C116.649 93.2873 116.459 93.0215 116.245 92.7757C116.137 92.6499 116.022 92.5306 115.9 92.4186C114.891 91.4853 113.567 90.9668 112.192 90.9668C110.817 90.9668 109.493 91.4853 108.484 92.4186C108.36 92.5305 108.242 92.6498 108.133 92.7757C107.918 93.0214 107.729 93.2871 107.566 93.5693C107.28 94.0251 107.065 94.5221 106.931 95.043C106.931 95.1224 106.885 95.2017 106.868 95.2867V95.3774V95.4908C106.868 95.6155 106.829 95.7402 106.812 95.8706C106.795 96.0009 106.783 96.2333 106.783 96.4374C106.773 97.168 106.91 97.8931 107.186 98.5699C107.461 99.2467 107.869 99.8614 108.387 100.378C108.904 100.894 109.519 101.301 110.197 101.575C110.874 101.85 111.6 101.985 112.33 101.974C113.061 101.963 113.782 101.806 114.451 101.511C115.12 101.217 115.723 100.791 116.224 100.26C116.726 99.7281 117.115 99.1014 117.37 98.4167C117.625 97.7319 117.74 97.003 117.708 96.273C117.578 96.1256 117.572 96.0123 117.555 95.8706ZM112.124 99.2715C111.372 99.2715 110.651 98.9729 110.119 98.4414C109.588 97.9099 109.289 97.189 109.289 96.4374C109.29 96.1208 109.343 95.8066 109.448 95.5078C109.502 95.3508 109.57 95.199 109.652 95.0543C109.896 94.6072 110.256 94.234 110.694 93.974C111.132 93.714 111.631 93.5768 112.141 93.5768C112.65 93.5768 113.15 93.714 113.588 93.974C114.026 94.234 114.386 94.6072 114.63 95.0543C114.712 95.198 114.778 95.35 114.828 95.5078C114.936 95.8058 114.99 96.1206 114.987 96.4374C114.987 96.812 114.913 97.1828 114.768 97.5285C114.624 97.8742 114.413 98.1879 114.147 98.4515C113.88 98.715 113.565 98.9232 113.217 99.0639C112.87 99.2047 112.498 99.2752 112.124 99.2715Z" fill="#1A1344" />
		<path d="M54.7378 95.0318C54.6852 95.1298 54.6116 95.215 54.5223 95.2812C54.3873 95.3845 54.2218 95.4403 54.0518 95.4399H52.8272C52.8272 95.4399 52.8272 95.4739 52.8272 95.4853H52.4416C52.4416 95.61 52.4813 95.7403 52.4927 95.865H49.8847C49.8266 95.5739 49.7253 95.293 49.5842 95.0318C49.3409 94.5833 48.9809 94.2088 48.5424 93.9478C48.1038 93.6868 47.6029 93.5491 47.0925 93.5491C46.5822 93.5491 46.0813 93.6868 45.6427 93.9478C45.2041 94.2088 44.8442 94.5833 44.6008 95.0318C44.4556 95.2917 44.3523 95.5729 44.2947 95.865H41.6584C41.6584 95.7403 41.6584 95.61 41.7094 95.4853H41.3296C41.3296 95.4853 41.3296 95.4512 41.3296 95.4399H40.105C39.9333 95.4395 39.7663 95.3839 39.6287 95.2812L39.5437 95.1962C39.4929 95.149 39.4507 95.0934 39.419 95.0318C39.3689 94.9472 39.3366 94.8534 39.3239 94.7559C39.3113 94.6585 39.3185 94.5595 39.3453 94.465C39.4249 94.16 39.5253 93.8607 39.6457 93.5694C39.7485 93.3052 39.8678 93.0478 40.0029 92.7985C40.0029 92.7475 40.0596 92.6965 40.0823 92.6455L40.2183 92.4188C40.9322 91.2384 41.9388 90.2622 43.1405 89.5846C44.3423 88.907 45.6987 88.551 47.0784 88.551C48.4581 88.551 49.8144 88.907 51.0162 89.5846C52.218 90.2622 53.2245 91.2384 53.9384 92.4188L54.0744 92.6455L54.1595 92.7985C54.4381 93.3294 54.6604 93.8879 54.8228 94.465C54.8479 94.5603 54.8533 94.6597 54.8386 94.7571C54.824 94.8546 54.7897 94.948 54.7378 95.0318Z" fill="#1A1344" />
		<path d="M52.5042 95.8706C52.5042 95.7402 52.4702 95.6155 52.4475 95.4908V95.3774C52.4475 95.3434 52.4475 95.3151 52.4475 95.2867C52.4475 95.2584 52.4135 95.1224 52.3908 95.043C52.2555 94.5232 52.0434 94.0265 51.7615 93.5693C51.5875 93.2873 51.3883 93.0217 51.1662 92.7757C51.0563 92.6498 50.9389 92.5305 50.8147 92.4186C49.8057 91.4853 48.4816 90.9668 47.1069 90.9668C45.7322 90.9668 44.4081 91.4853 43.3991 92.4186C43.28 92.532 43.161 92.6454 43.0476 92.7757C42.8335 93.0214 42.6436 93.2871 42.4806 93.5693C42.1947 94.0251 41.9805 94.5221 41.8457 95.043C41.8457 95.1224 41.806 95.2017 41.789 95.2867V95.3774C41.7863 95.4152 41.7863 95.453 41.789 95.4908C41.789 95.6155 41.7493 95.7402 41.7379 95.8706C41.7266 96.0009 41.7379 96.2333 41.7379 96.4374C41.7281 97.168 41.865 97.8931 42.1404 98.5699C42.4158 99.2467 42.8242 99.8614 43.3413 100.378C43.8585 100.894 44.474 101.301 45.1514 101.575C45.8288 101.85 46.5543 101.985 47.285 101.974C48.0158 101.963 48.7369 101.806 49.4057 101.511C50.0745 101.217 50.6775 100.791 51.1789 100.26C51.6803 99.7281 52.07 99.1014 52.3249 98.4167C52.5798 97.7319 52.6947 97.003 52.6629 96.273C52.5269 96.1256 52.5155 96.0123 52.5042 95.8706ZM47.0672 99.2715C46.3154 99.2715 45.5944 98.9729 45.0628 98.4414C44.5312 97.9099 44.2325 97.189 44.2325 96.4374C44.2329 96.247 44.2519 96.0572 44.2892 95.8706C44.3458 95.5782 44.4492 95.2968 44.5953 95.0373C44.8392 94.5902 45.199 94.217 45.6369 93.957C46.0749 93.697 46.5749 93.5598 47.0842 93.5598C47.5936 93.5598 48.0935 93.697 48.5315 93.957C48.9695 94.217 49.3293 94.5902 49.5731 95.0373C49.7193 95.2968 49.8226 95.5782 49.8793 95.8706C49.9196 96.0567 49.9386 96.2469 49.9359 96.4374C49.936 96.8139 49.861 97.1866 49.7154 97.5338C49.5698 97.8811 49.3564 98.1958 49.0877 98.4596C48.8191 98.7235 48.5005 98.9312 48.1507 99.0706C47.8008 99.2099 47.4267 99.2782 47.0502 99.2715H47.0672Z" fill="#1A1344" />
		<path d="M51.4157 69.9727H51.41C50.7556 69.9727 50.2251 70.503 50.2251 71.1573V74.1331C50.2251 74.7874 50.7556 75.3177 51.41 75.3177H51.4157C52.0701 75.3177 52.6006 74.7874 52.6006 74.1331V71.1573C52.6006 70.503 52.0701 69.9727 51.4157 69.9727Z" fill="#1A1344" />
		<path d="M123.82 88.5529V92.2032H127.085C127.58 90.4455 127.983 88.6633 128.293 86.8638H125.509C125.062 86.8667 124.634 87.0457 124.318 87.3618C124.002 87.6779 123.823 88.1058 123.82 88.5529Z" fill="#1A1344" />
		<path d="M31.1757 93.5636C31.1757 94.4762 31.2324 95.0317 31.2324 95.0317H39.4248C39.4566 95.0933 39.4987 95.1489 39.5495 95.1961H40.7628L40.8648 95.0317L41.7662 93.5636L44.034 89.8623H31.1757C31.1247 91.319 31.1361 92.6114 31.1757 93.5636Z" fill="#1A1344" />
		<path d="M31.4082 86.7561H36.0004V86.6484C36.0005 85.615 35.5926 84.6233 34.8654 83.8888C34.1382 83.1544 33.1505 82.7365 32.1169 82.7261C31.7781 84.0494 31.5412 85.3967 31.4082 86.7561Z" fill="#1A1344" />
		<path d="M59.744 81.2013C61.7824 81.2013 63.4348 79.5492 63.4348 77.5113C63.4348 75.4734 61.7824 73.8213 59.744 73.8213C57.7057 73.8213 56.0532 75.4734 56.0532 77.5113C56.0532 79.5492 57.7057 81.2013 59.744 81.2013Z" fill="#1A1344" />
		<path d="M66.4738 108.335C66.1166 109.769 63.5597 117.812 63.1968 119.104C63.1079 119.415 62.9026 119.679 62.6237 119.841C62.3449 120.004 62.014 120.053 61.7001 119.977C61.3792 119.902 61.1008 119.703 60.9248 119.424C60.7488 119.146 60.6893 118.809 60.759 118.487C61.2976 116.061 62.6412 110.733 63.0835 106.72C63.2463 105.916 63.3637 105.104 63.435 104.288C63.2252 102.021 62.6186 98.0529 62.1763 96.8002C61.7908 95.7006 60.8894 95.9557 60.844 97.1176C60.7363 99.9234 60.7647 106.079 58.9731 107.4C56.677 109.1 51.1606 106.357 48.7228 104.996C48.5697 104.911 48.4362 104.794 48.3311 104.654C48.2259 104.513 48.1515 104.352 48.1124 104.181C48.0734 104.011 48.0708 103.833 48.1046 103.661C48.1384 103.489 48.2081 103.326 48.3089 103.183L48.4223 103.013C48.5739 102.796 48.7894 102.633 49.0385 102.546C49.2876 102.458 49.5579 102.451 49.8113 102.525L56.9321 104.719C57.1461 100.256 57.0438 95.7841 56.626 91.3361C56.4737 89.828 56.162 88.3403 55.6962 86.8979C55.5204 86.3821 53.315 83.684 53.315 83.1399L55.4184 85.2938C55.4184 84.5422 55.717 83.8213 56.2487 83.2898C56.7803 82.7583 57.5013 82.4597 58.2531 82.4597H61.2692C62.8227 82.4597 64.3874 83.2533 64.3874 84.8063C64.3874 84.8063 64.8523 89.0065 65.1301 91.5458C65.1301 91.5458 67.0521 100.4 67.0521 104.435C67.0206 105.754 66.8264 107.064 66.4738 108.335Z" fill="#1A1344" />
		<path d="M60.3225 84.3981C60.4926 84.3981 64.036 84.2621 65.8445 77.0748C67.7608 69.4681 66.3151 66.7644 68.271 66.3053C70.0229 65.9028 71.0321 71.7524 68.838 78.0214C66.6439 84.2904 64.104 87.7707 60.3338 87.3739C56.5637 86.9771 60.3225 84.3981 60.3225 84.3981Z" fill="#1A1344" />
		<path d="M58.5647 83.6839C58.4003 83.6839 54.8909 83.1171 53.9158 75.7768C52.8783 68.0058 54.6188 65.4834 52.7309 64.8146C51.03 64.2137 49.3689 69.9159 50.8373 76.389C52.3056 82.862 54.4317 86.5917 58.2075 86.6484C61.9834 86.7051 58.5647 83.6839 58.5647 83.6839Z" fill="#1A1344" />
		<path d="M95.9261 81.1899C95.7243 81.6411 95.62 82.1298 95.62 82.624L95.3592 85.5714H86.084V81.1899H95.9261Z" fill="#1A1344" />
		<path d="M94.985 89.8113L94.8603 91.302L94.5825 92.9571H86.084V89.8113H94.985Z" fill="#1A1344" />
		<path d="M97.8428 81.1899V92.9571H95.3596L95.5126 91.3019L95.643 89.8112L95.6827 89.3918H86.6626C86.4692 89.3902 86.2775 89.3557 86.0957 89.2897V86.0872H86.1297C86.3122 86.0256 86.5041 85.9968 86.6967 86.0022H91.442H95.9775L96.0115 85.6394V85.5487L96.2723 82.6013C96.2706 82.1063 96.3771 81.6169 96.5841 81.1672L97.8428 81.1899Z" fill="#1A1344" />
		<path d="M91.9405 80.0281V85.5716H91.4189V80.3625L91.5607 80.6346C91.6627 80.4589 91.7875 80.2491 91.9405 80.0281Z" fill="#1A1344" />
		<path d="M91.9405 86.0249H91.4189V89.3918H91.9405V86.0249Z" fill="#1A1344" />
		<path d="M91.9405 89.8113H91.4189V92.9571H91.9405V89.8113Z" fill="#1A1344" />
		<path d="M97.8481 86.8127H91.9405H91.4189H86.084V87.3342H91.4189H91.9405H97.8481V86.8127Z" fill="#1A1344" />
		<path d="M91.9067 81.3715L91.8727 81.3091L91.8387 81.2354V81.2014C91.7933 81.1221 91.7479 81.0257 91.6913 80.9237C91.6604 80.8597 91.6264 80.7972 91.5892 80.7367L91.5608 80.68C91.5212 80.6119 91.4872 80.5383 91.4418 80.4646C90.8749 79.4046 89.9734 78.0443 89.4235 78.1293C89.208 78.1576 89.072 78.3447 89.0153 78.6961C88.7942 79.9714 90.0868 80.8217 90.9372 81.2354L91.1923 81.3545H91.232L91.4418 81.4395C91.4892 81.4627 91.5385 81.4817 91.5892 81.4962H91.6799L91.918 81.5755V81.4168L91.9067 81.3715ZM89.3554 78.7188C89.3554 78.5261 89.4348 78.4807 89.4462 78.4807C89.7183 78.4807 90.5177 79.5803 91.2604 80.9577C90.529 80.6176 89.157 79.8354 89.3554 78.7188Z" fill="#1A1344" />
		<path d="M94.6735 78.5883C94.6338 78.458 94.5091 78.3049 94.1405 78.3163C93.2618 78.3446 92.4397 79.2572 91.9408 80.0167C91.7934 80.2378 91.663 80.4475 91.5666 80.6232V80.6572C91.5229 80.7287 91.4831 80.8025 91.4476 80.8783L91.3568 81.0653L91.3002 81.173L91.2378 81.3091L91.4532 81.3884V81.5755L91.629 81.4564L91.7367 81.3828L91.9011 81.2751L91.9408 81.2467L92.0202 81.19C94.8719 79.2232 94.7188 78.747 94.6735 78.5883ZM92.4057 80.2888C92.8649 79.6143 93.4942 78.9171 94.1065 78.8491C93.5876 79.3813 93.018 79.8616 92.4057 80.2831V80.2888Z" fill="#1A1344" />
		<path d="M97.9616 85.5715V86.0873H86.1182C86.3006 86.0257 86.4926 85.9969 86.6851 86.0023H91.4304H95.966L96 85.6395V85.5488L97.9616 85.5715Z" fill="#1A1344" />
		<path d="M97.8428 89.2898V89.8113H95.643L95.6827 89.3918H86.6626C86.4692 89.3903 86.2775 89.3558 86.0957 89.2898H97.8428Z" fill="#1A1344" />
		<path d="M99.4246 78.2991C101.585 78.2991 103.337 76.5481 103.337 74.3881C103.337 72.2281 101.585 70.4771 99.4246 70.4771C97.2641 70.4771 95.5127 72.2281 95.5127 74.3881C95.5127 76.5481 97.2641 78.2991 99.4246 78.2991Z" fill="#1A1344" />
		<path d="M91.4416 116.9V116.996C91.3962 116.815 91.4019 116.809 91.4416 116.9Z" fill="#1A1344" />
		<path d="M104.034 117.795C103.923 117.794 103.812 117.779 103.705 117.75C103.57 117.704 103.444 117.637 103.331 117.551C103.13 117.391 102.99 117.167 102.934 116.916L100.49 106.277L99.4188 95.3604L98.9596 97.0608L93.8174 117.466C93.7526 117.707 93.6103 117.919 93.4125 118.071C93.2147 118.223 92.9724 118.305 92.7232 118.305H92.5418C92.4626 118.314 92.3828 118.314 92.3037 118.305C91.8728 118.209 91.5439 117.172 91.4419 116.911L95.2404 94.2551L95.3651 92.9571L95.5182 91.302L95.6486 89.8112L95.6883 89.3918V89.2898L95.8584 87.3342L95.9094 86.8128L95.9718 86.0872V86.0249L96.0058 85.6621V85.5714L96.2666 82.624C96.2649 82.129 96.3713 81.6396 96.5784 81.1899C96.7585 80.7491 97.0617 80.3693 97.4517 80.096C97.8418 79.8226 98.3022 79.6672 98.7781 79.6482H101.477C102.86 79.6482 103.988 80.9802 103.988 82.624C103.988 82.624 103.949 91.3643 103.988 93.3935V105.977L105.151 116.537C105.168 116.694 105.152 116.854 105.104 117.005C105.056 117.156 104.977 117.295 104.872 117.414C104.766 117.532 104.637 117.628 104.493 117.693C104.349 117.759 104.192 117.794 104.034 117.795Z" fill="#1A1344" />
		<path d="M97.8426 85.9854V89.3863H86.6625C86.4691 89.3847 86.2774 89.3502 86.0956 89.2842C85.86 89.2043 85.6464 89.0704 85.4719 88.8931C85.2724 88.6906 85.1269 88.4413 85.0486 88.1681C84.9704 87.8948 84.9619 87.6063 85.0239 87.3289C85.0859 87.0515 85.2165 86.7941 85.4037 86.5802C85.5909 86.3663 85.8288 86.2027 86.0956 86.1044H86.1296C86.312 86.0427 86.504 86.0139 86.6965 86.0194H91.4419H95.9774C96.9412 86.0194 97.6499 86.008 97.8426 85.9854Z" fill="#1A1344" />
		<path d="M100.853 40.2714C100.613 40.271 100.382 40.1752 100.212 40.005C98.1646 37.9639 95.3908 36.8177 92.4992 36.8177C89.6075 36.8177 86.8338 37.9639 84.7859 40.005C84.7016 40.0899 84.6013 40.1572 84.4909 40.2031C84.3805 40.2491 84.262 40.2727 84.1424 40.2727C84.0228 40.2727 83.9044 40.2491 83.7939 40.2031C83.6835 40.1572 83.5832 40.0899 83.4989 40.005C83.3303 39.8333 83.2358 39.6023 83.2358 39.3617C83.2358 39.1211 83.3303 38.8901 83.4989 38.7184C85.8881 36.3359 89.1248 34.998 92.4992 34.998C95.8735 34.998 99.1102 36.3359 101.499 38.7184C101.625 38.8463 101.711 39.0086 101.745 39.1848C101.779 39.3611 101.761 39.5436 101.692 39.7094C101.623 39.8752 101.507 40.017 101.357 40.117C101.208 40.2169 101.033 40.2707 100.853 40.2714Z" fill="#1A1344" />
		<path d="M86.7363 42.8447C86.5572 42.8429 86.3825 42.7883 86.2342 42.6879C86.0858 42.5876 85.9703 42.4457 85.902 42.2801C85.8336 42.1145 85.8156 41.9325 85.85 41.7568C85.8845 41.581 85.9699 41.4192 86.0957 41.2917C86.9384 40.4459 87.9399 39.7748 89.0427 39.3169C90.1455 38.859 91.3279 38.6233 92.522 38.6233C93.7161 38.6233 94.8984 38.859 96.0012 39.3169C97.104 39.7748 98.1055 40.4459 98.9483 41.2917C99.0328 41.3758 99.0999 41.4757 99.1457 41.5857C99.1916 41.6958 99.2154 41.8138 99.2156 41.933C99.2159 42.0522 99.1927 42.1703 99.1473 42.2805C99.1019 42.3908 99.0352 42.491 98.9511 42.5755C98.867 42.66 98.767 42.7271 98.6569 42.7729C98.5469 42.8188 98.4289 42.8425 98.3096 42.8428C98.1904 42.8431 98.0723 42.8198 97.962 42.7745C97.8517 42.7291 97.7515 42.6624 97.667 42.5783C96.3022 41.2167 94.4529 40.4519 92.5248 40.4519C90.5967 40.4519 88.7474 41.2167 87.3826 42.5783C87.21 42.7478 86.9782 42.8434 86.7363 42.8447Z" fill="#1A1344" />
		<path d="M95.7108 45.4124C95.4704 45.412 95.24 45.3162 95.0702 45.146C94.3871 44.4665 93.4627 44.0851 92.4991 44.0851C91.5355 44.0851 90.6111 44.4665 89.928 45.146C89.8437 45.2308 89.7434 45.2982 89.633 45.3441C89.5226 45.39 89.4041 45.4137 89.2845 45.4137C89.1649 45.4137 89.0465 45.39 88.936 45.3441C88.8256 45.2982 88.7253 45.2308 88.641 45.146C88.4724 44.9743 88.3779 44.7433 88.3779 44.5027C88.3779 44.262 88.4724 44.031 88.641 43.8593C89.149 43.3517 89.752 42.9492 90.4157 42.6747C91.0793 42.4002 91.7906 42.2592 92.5088 42.2598C93.2269 42.2603 93.938 42.4023 94.6012 42.6778C95.2645 42.9532 95.8669 43.3566 96.3741 43.865C96.5002 43.9929 96.5857 44.1552 96.62 44.3315C96.6542 44.5078 96.6357 44.6902 96.5667 44.8561C96.4977 45.0219 96.3813 45.1636 96.2321 45.2636C96.0829 45.3636 95.9074 45.4173 95.7278 45.4181L95.7108 45.4124Z" fill="#1A1344" />
		<path d="M92.5022 49.5332C92.263 49.5348 92.0259 49.4884 91.8048 49.3969C91.5838 49.3054 91.3833 49.1706 91.2153 49.0003C91.0464 48.8319 90.9125 48.6318 90.8211 48.4115C90.7297 48.1912 90.6826 47.955 90.6826 47.7165C90.6826 47.478 90.7297 47.2418 90.8211 47.0215C90.9125 46.8013 91.0464 46.6011 91.2153 46.4327C91.3839 46.2641 91.5841 46.1303 91.8044 46.0391C92.0248 45.9478 92.2609 45.9009 92.4994 45.9009C92.7379 45.9009 92.974 45.9478 93.1944 46.0391C93.4147 46.1303 93.6149 46.2641 93.7835 46.4327C93.9522 46.6013 94.0859 46.8014 94.1772 47.0217C94.2685 47.242 94.3154 47.4781 94.3154 47.7165C94.3154 47.9549 94.2685 48.191 94.1772 48.4113C94.0859 48.6316 93.9522 48.8317 93.7835 49.0003C93.6163 49.1701 93.4168 49.3048 93.1968 49.3963C92.9767 49.4878 92.7406 49.5343 92.5022 49.5332Z" fill="#1A1344" />
	</g>
	<defs>
		<clipPath id="clip0_1750_2516">
			<rect width="98.2569" height="85" fill="white" transform="translate(31 35)" />
		</clipPath>
	</defs>
</svg>
