<svg width="160" height="160" viewBox="0 0 160 160" fill="none"
	xmlns="http://www.w3.org/2000/svg">
	<circle cx="80" cy="80" r="80" fill="#221B4F" />
	<g clip-path="url(#clip0_1750_2165)">
		<path d="M126.212 59.9234C126.212 59.0109 125.249 58.2683 124.058 58.2683H62.6468C62.3142 58.2599 61.9835 58.3211 61.676 58.448C61.3684 58.5749 61.0908 58.7647 60.8609 59.0052L59.9368 60.0652L59.2621 60.8304L58.3891 61.8393L53.6721 67.0597L50.9564 70.0638L50.2988 70.795L47.6171 73.7368L47.277 74.1222C47.277 74.1222 46.642 74.2016 45.6385 74.383C42.4296 74.9498 35.4335 76.5936 33.3245 79.8017C32.775 80.71 32.366 81.6961 32.1112 82.7265C31.778 84.051 31.5411 85.3979 31.4026 86.7566C31.2892 87.8165 31.2211 88.8765 31.1815 89.8628C31.1248 91.3195 31.1304 92.6288 31.1474 93.5641C31.1645 94.4993 31.2041 95.0321 31.2041 95.0321H44.5727C44.816 94.5836 45.176 94.2091 45.6145 93.9481C46.0531 93.6872 46.554 93.5494 47.0644 93.5494C47.5747 93.5494 48.0756 93.6872 48.5142 93.9481C48.9528 94.2091 49.3127 94.5836 49.5561 95.0321H109.652C109.896 94.585 110.256 94.2118 110.694 93.9518C111.132 93.6918 111.632 93.5546 112.141 93.5546C112.65 93.5546 113.15 93.6918 113.588 93.9518C114.026 94.2118 114.386 94.585 114.63 95.0321H121.717L126.28 94.8678C126.428 94.437 126.57 94.0005 126.706 93.5641C126.842 93.1276 126.978 92.6572 127.108 92.2037C130.079 81.6014 129.773 70.3485 126.229 59.9234H126.212ZM72.4379 73.0339C72.4379 73.2835 72.3387 73.5228 72.1622 73.6993C71.9858 73.8757 71.7464 73.9749 71.4968 73.9749H50.6843C50.5903 73.9757 50.4992 73.9422 50.4283 73.8806C50.3573 73.819 50.3112 73.7336 50.2988 73.6404C50.2898 73.5837 50.2938 73.5256 50.3105 73.4706C50.3272 73.4157 50.3561 73.3652 50.3952 73.323L59.6647 63.075L60.4754 62.1454L60.8042 61.7713C60.8927 61.6703 61.0016 61.5892 61.1238 61.5335C61.246 61.4778 61.3786 61.4487 61.5129 61.4482H71.4968C71.7464 61.4482 71.9858 61.5473 72.1622 61.7238C72.3387 61.9002 72.4379 62.1396 72.4379 62.3891V73.0339Z" stroke="#6F5CE0" stroke-width="0.5" stroke-miterlimit="10" />
		<path d="M51.0186 75.1191V86.0587C51.4948 86.8749 51.7386 87.6685 52.1921 88.326L55.7469 93.6144" stroke="#6F5CE0" stroke-width="0.21" stroke-miterlimit="10" />
		<path d="M75.0176 58.2676V95.0314V58.2676Z" stroke="#6F5CE0" stroke-width="0.21" stroke-miterlimit="10" />
		<path d="M126.683 93.5635C126.553 93.9999 126.411 94.4364 126.264 94.8729L126.207 95.0316H114.613C114.369 94.5844 114.009 94.2113 113.571 93.9513C113.133 93.6913 112.633 93.554 112.124 93.554C111.615 93.554 111.115 93.6913 110.677 93.9513C110.239 94.2113 109.879 94.5844 109.635 95.0316H49.5393C49.2959 94.583 48.936 94.2085 48.4974 93.9476C48.0588 93.6866 47.5579 93.5488 47.0476 93.5488C46.5372 93.5488 46.0363 93.6866 45.5977 93.9476C45.1592 94.2085 44.7992 94.583 44.5558 95.0316H31.21C31.21 95.0316 31.176 94.4647 31.1533 93.5635H126.683Z" fill="#6F5CE0" />
		<path d="M119.795 95.0318C119.738 95.1288 119.663 95.2136 119.574 95.2812C119.44 95.3837 119.277 95.4395 119.109 95.4399H117.878C117.878 95.4399 117.878 95.4739 117.878 95.4853H114.8C114.748 95.3283 114.681 95.1765 114.601 95.0318C114.358 94.5847 113.998 94.2115 113.56 93.9515C113.122 93.6915 112.622 93.5543 112.113 93.5543C111.603 93.5543 111.103 93.6915 110.665 93.9515C110.227 94.2115 109.868 94.5847 109.624 95.0318C109.544 95.1775 109.476 95.3291 109.42 95.4853H106.347C106.347 95.4853 106.347 95.4512 106.347 95.4399H105.117C104.947 95.4387 104.782 95.3831 104.646 95.2812C104.557 95.215 104.483 95.1298 104.431 95.0318C104.334 94.8593 104.309 94.6555 104.362 94.465C104.442 94.16 104.543 93.8607 104.663 93.5694C104.771 93.3087 104.89 93.0536 105.02 92.7985L105.105 92.6455L105.236 92.4188C105.366 92.2034 105.508 91.9993 105.655 91.7953C106.403 90.7915 107.375 89.9763 108.493 89.4146C109.612 88.853 110.847 88.5605 112.098 88.5605C113.35 88.5605 114.585 88.853 115.703 89.4146C116.822 89.9763 117.794 90.7915 118.542 91.7953C118.689 91.9993 118.831 92.2034 118.961 92.4188L119.092 92.6455L119.177 92.7985C119.307 93.0536 119.426 93.3087 119.54 93.5694C119.655 93.8626 119.755 94.1615 119.84 94.465C119.9 94.6525 119.884 94.8562 119.795 95.0318Z" fill="#6F5CE0" />
		<path d="M117.555 95.8706C117.555 95.7402 117.527 95.6155 117.504 95.4908C117.504 95.4568 117.504 95.4171 117.504 95.3774V95.2867C117.504 95.2017 117.464 95.1224 117.447 95.043C117.31 94.523 117.096 94.0263 116.812 93.5693C116.649 93.2873 116.459 93.0215 116.245 92.7757C116.137 92.6499 116.022 92.5306 115.9 92.4186C114.891 91.4853 113.567 90.9668 112.192 90.9668C110.817 90.9668 109.493 91.4853 108.484 92.4186C108.36 92.5305 108.242 92.6498 108.133 92.7757C107.918 93.0214 107.729 93.2871 107.566 93.5693C107.28 94.0251 107.065 94.5221 106.931 95.043C106.931 95.1224 106.885 95.2017 106.868 95.2867V95.3774V95.4908C106.868 95.6155 106.829 95.7402 106.812 95.8706C106.795 96.0009 106.783 96.2333 106.783 96.4374C106.773 97.168 106.91 97.8931 107.186 98.5699C107.461 99.2467 107.869 99.8614 108.387 100.378C108.904 100.894 109.519 101.301 110.197 101.575C110.874 101.85 111.6 101.985 112.33 101.974C113.061 101.963 113.782 101.806 114.451 101.511C115.12 101.217 115.723 100.791 116.224 100.26C116.726 99.7281 117.115 99.1014 117.37 98.4167C117.625 97.7319 117.74 97.003 117.708 96.273C117.578 96.1256 117.572 96.0123 117.555 95.8706ZM112.124 99.2715C111.372 99.2715 110.651 98.9729 110.119 98.4414C109.588 97.9099 109.289 97.189 109.289 96.4374C109.29 96.1208 109.343 95.8066 109.448 95.5078C109.502 95.3508 109.57 95.199 109.652 95.0543C109.896 94.6072 110.256 94.234 110.694 93.974C111.132 93.714 111.631 93.5768 112.141 93.5768C112.65 93.5768 113.15 93.714 113.588 93.974C114.026 94.234 114.386 94.6072 114.63 95.0543C114.712 95.198 114.778 95.35 114.828 95.5078C114.936 95.8058 114.99 96.1206 114.987 96.4374C114.987 96.812 114.913 97.1828 114.768 97.5285C114.624 97.8742 114.413 98.1879 114.147 98.4515C113.88 98.715 113.565 98.9232 113.217 99.0639C112.87 99.2047 112.498 99.2752 112.124 99.2715Z" fill="#6F5CE0" />
		<path d="M54.7378 95.0316C54.6852 95.1296 54.6116 95.2147 54.5223 95.281C54.3873 95.3843 54.2218 95.4401 54.0518 95.4397H52.8272C52.8272 95.4397 52.8272 95.4737 52.8272 95.485H52.4416C52.4416 95.6097 52.4813 95.7401 52.4927 95.8648H49.8847C49.8266 95.5736 49.7253 95.2928 49.5842 95.0316C49.3409 94.583 48.9809 94.2085 48.5424 93.9476C48.1038 93.6866 47.6029 93.5488 47.0925 93.5488C46.5822 93.5488 46.0813 93.6866 45.6427 93.9476C45.2041 94.2085 44.8442 94.583 44.6008 95.0316C44.4556 95.2915 44.3523 95.5727 44.2947 95.8648H41.6584C41.6584 95.7401 41.6584 95.6097 41.7094 95.485H41.3296C41.3296 95.485 41.3296 95.451 41.3296 95.4397H40.105C39.9333 95.4393 39.7663 95.3836 39.6287 95.281L39.5437 95.1959C39.4929 95.1487 39.4507 95.0931 39.419 95.0316C39.3689 94.947 39.3366 94.8531 39.3239 94.7557C39.3113 94.6583 39.3185 94.5593 39.3453 94.4647C39.4249 94.1597 39.5253 93.8605 39.6457 93.5692C39.7485 93.305 39.8678 93.0475 40.0029 92.7983C40.0029 92.7473 40.0596 92.6963 40.0823 92.6452L40.2183 92.4185C40.9322 91.2381 41.9388 90.2619 43.1405 89.5844C44.3423 88.9068 45.6987 88.5508 47.0784 88.5508C48.4581 88.5508 49.8144 88.9068 51.0162 89.5844C52.218 90.2619 53.2245 91.2381 53.9384 92.4185L54.0744 92.6452L54.1595 92.7983C54.4381 93.3291 54.6604 93.8877 54.8228 94.4647C54.8479 94.56 54.8533 94.6594 54.8386 94.7569C54.824 94.8543 54.7897 94.9478 54.7378 95.0316Z" fill="#6F5CE0" />
		<path d="M52.5042 95.8706C52.5042 95.7402 52.4702 95.6155 52.4475 95.4908V95.3774C52.4475 95.3434 52.4475 95.3151 52.4475 95.2867C52.4475 95.2584 52.4135 95.1224 52.3908 95.043C52.2555 94.5232 52.0434 94.0265 51.7615 93.5693C51.5875 93.2873 51.3883 93.0217 51.1662 92.7757C51.0563 92.6498 50.9389 92.5305 50.8147 92.4186C49.8057 91.4853 48.4816 90.9668 47.1069 90.9668C45.7322 90.9668 44.4081 91.4853 43.3991 92.4186C43.28 92.532 43.161 92.6454 43.0476 92.7757C42.8335 93.0214 42.6436 93.2871 42.4806 93.5693C42.1947 94.0251 41.9805 94.5221 41.8457 95.043C41.8457 95.1224 41.806 95.2017 41.789 95.2867V95.3774C41.7863 95.4152 41.7863 95.453 41.789 95.4908C41.789 95.6155 41.7493 95.7402 41.7379 95.8706C41.7266 96.0009 41.7379 96.2333 41.7379 96.4374C41.7281 97.168 41.865 97.8931 42.1404 98.5699C42.4158 99.2467 42.8242 99.8614 43.3413 100.378C43.8585 100.894 44.474 101.301 45.1514 101.575C45.8288 101.85 46.5543 101.985 47.285 101.974C48.0158 101.963 48.7369 101.806 49.4057 101.511C50.0745 101.217 50.6775 100.791 51.1789 100.26C51.6803 99.7281 52.07 99.1014 52.3249 98.4167C52.5798 97.7319 52.6947 97.003 52.6629 96.273C52.5269 96.1256 52.5155 96.0123 52.5042 95.8706ZM47.0672 99.2715C46.3154 99.2715 45.5944 98.9729 45.0628 98.4414C44.5312 97.9099 44.2325 97.189 44.2325 96.4374C44.2329 96.247 44.2519 96.0572 44.2892 95.8706C44.3458 95.5782 44.4492 95.2968 44.5953 95.0373C44.8392 94.5902 45.199 94.217 45.6369 93.957C46.0749 93.697 46.5749 93.5598 47.0842 93.5598C47.5936 93.5598 48.0935 93.697 48.5315 93.957C48.9695 94.217 49.3293 94.5902 49.5731 95.0373C49.7193 95.2968 49.8226 95.5782 49.8793 95.8706C49.9196 96.0567 49.9386 96.2469 49.9359 96.4374C49.936 96.8139 49.861 97.1866 49.7154 97.5338C49.5698 97.8811 49.3564 98.1958 49.0877 98.4596C48.8191 98.7235 48.5005 98.9312 48.1507 99.0706C47.8008 99.2099 47.4267 99.2782 47.0502 99.2715H47.0672Z" fill="#6F5CE0" />
		<path d="M51.4157 69.9727H51.41C50.7556 69.9727 50.2251 70.503 50.2251 71.1573V74.1331C50.2251 74.7874 50.7556 75.3177 51.41 75.3177H51.4157C52.0701 75.3177 52.6006 74.7874 52.6006 74.1331V71.1573C52.6006 70.503 52.0701 69.9727 51.4157 69.9727Z" fill="#6F5CE0" />
		<path d="M123.82 88.5524V92.2027H127.085C127.58 90.4451 127.983 88.6628 128.293 86.8633H125.509C125.062 86.8663 124.634 87.0452 124.318 87.3613C124.002 87.6774 123.823 88.1053 123.82 88.5524Z" fill="#6F5CE0" />
		<path d="M31.1757 93.5646C31.1757 94.4772 31.2324 95.0327 31.2324 95.0327H39.4248C39.4566 95.0942 39.4987 95.1498 39.5495 95.197H40.7628L40.8648 95.0327L41.7662 93.5646L44.034 89.8633H31.1757C31.1247 91.32 31.1361 92.6123 31.1757 93.5646Z" fill="#6F5CE0" />
		<path d="M31.4082 86.7566H36.0004V86.6489C36.0005 85.6155 35.5926 84.6238 34.8654 83.8893C34.1382 83.1549 33.1505 82.737 32.1169 82.7266C31.7781 84.0499 31.5412 85.3972 31.4082 86.7566Z" fill="#6F5CE0" />
		<path d="M59.744 81.2022C61.7824 81.2022 63.4348 79.5502 63.4348 77.5123C63.4348 75.4743 61.7824 73.8223 59.744 73.8223C57.7057 73.8223 56.0532 75.4743 56.0532 77.5123C56.0532 79.5502 57.7057 81.2022 59.744 81.2022Z" fill="#6F5CE0" />
		<path d="M66.4738 108.334C66.1166 109.768 63.5597 117.811 63.1968 119.104C63.1079 119.414 62.9026 119.678 62.6237 119.841C62.3449 120.003 62.014 120.052 61.7001 119.977C61.3792 119.901 61.1008 119.702 60.9248 119.424C60.7488 119.145 60.6893 118.808 60.759 118.486C61.2976 116.06 62.6412 110.732 63.0835 106.719C63.2463 105.916 63.3637 105.104 63.435 104.287C63.2252 102.02 62.6186 98.0521 62.1763 96.7995C61.7908 95.6999 60.8894 95.9549 60.844 97.1169C60.7363 99.9226 60.7647 106.078 58.9731 107.399C56.677 109.099 51.1606 106.356 48.7228 104.996C48.5697 104.91 48.4362 104.793 48.3311 104.653C48.2259 104.513 48.1515 104.352 48.1124 104.181C48.0734 104.01 48.0708 103.833 48.1046 103.66C48.1384 103.488 48.2081 103.325 48.3089 103.182L48.4223 103.012C48.5739 102.796 48.7894 102.633 49.0385 102.545C49.2876 102.458 49.5579 102.45 49.8113 102.524L56.9321 104.718C57.1461 100.255 57.0438 95.7834 56.626 91.3354C56.4737 89.8273 56.162 88.3396 55.6962 86.8972C55.5204 86.3814 53.315 83.6833 53.315 83.1392L55.4184 85.2931C55.4184 84.5414 55.717 83.8206 56.2487 83.2891C56.7803 82.7576 57.5013 82.459 58.2531 82.459H61.2692C62.8227 82.459 64.3874 83.2525 64.3874 84.8056C64.3874 84.8056 64.8523 89.0057 65.1301 91.5451C65.1301 91.5451 67.0521 100.399 67.0521 104.435C67.0206 105.753 66.8264 107.063 66.4738 108.334Z" fill="#6F5CE0" />
		<path d="M60.3225 84.3976C60.4926 84.3976 64.036 84.2616 65.8445 77.0743C67.7608 69.4676 66.3151 66.7639 68.271 66.3048C70.0229 65.9023 71.0321 71.7519 68.838 78.0209C66.6439 84.2899 64.104 87.7702 60.3338 87.3734C56.5637 86.9766 60.3225 84.3976 60.3225 84.3976Z" fill="#6F5CE0" />
		<path d="M58.5647 83.6844C58.4003 83.6844 54.8909 83.1176 53.9158 75.7773C52.8783 68.0062 54.6188 65.4839 52.7309 64.8151C51.03 64.2142 49.3689 69.9164 50.8373 76.3895C52.3056 82.8625 54.4317 86.5922 58.2075 86.6489C61.9834 86.7056 58.5647 83.6844 58.5647 83.6844Z" fill="#6F5CE0" />
		<path d="M95.9261 81.1895C95.7243 81.6406 95.62 82.1293 95.62 82.6235L95.3592 85.5709H86.084V81.1895H95.9261Z" fill="#6F5CE0" />
		<path d="M94.985 89.8105L94.8603 91.3013L94.5825 92.9564H86.084V89.8105H94.985Z" fill="#6F5CE0" />
		<path d="M97.8428 81.1906V92.9578H95.3596L95.5126 91.3027L95.643 89.8119L95.6827 89.3925H86.6626C86.4692 89.391 86.2775 89.3565 86.0957 89.2905V86.088H86.1297C86.3122 86.0263 86.5041 85.9975 86.6967 86.0029H91.442H95.9775L96.0115 85.6402V85.5495L96.2723 82.602C96.2706 82.107 96.3771 81.6176 96.5841 81.168L97.8428 81.1906Z" fill="#6F5CE0" />
		<path d="M91.9405 80.0273V85.5708H91.4189V80.3618L91.5607 80.6338C91.6627 80.4581 91.7875 80.2484 91.9405 80.0273Z" fill="#6F5CE0" />
		<path d="M91.9405 86.0254H91.4189V89.3923H91.9405V86.0254Z" fill="#6F5CE0" />
		<path d="M91.9405 89.8105H91.4189V92.9564H91.9405V89.8105Z" fill="#6F5CE0" />
		<path d="M97.8481 86.8125H91.9405H91.4189H86.084V87.334H91.4189H91.9405H97.8481V86.8125Z" fill="#6F5CE0" />
		<path d="M91.9067 81.371L91.8727 81.3086L91.8387 81.235V81.2009C91.7933 81.1216 91.7479 81.0252 91.6913 80.9232C91.6604 80.8592 91.6264 80.7967 91.5892 80.7362L91.5608 80.6795C91.5212 80.6115 91.4872 80.5378 91.4418 80.4641C90.8749 79.4041 89.9734 78.0438 89.4235 78.1288C89.208 78.1571 89.072 78.3442 89.0153 78.6956C88.7942 79.971 90.0868 80.8212 90.9372 81.235L91.1923 81.354H91.232L91.4418 81.439C91.4892 81.4622 91.5385 81.4812 91.5892 81.4957H91.6799L91.918 81.5751V81.4163L91.9067 81.371ZM89.3554 78.7183C89.3554 78.5256 89.4348 78.4802 89.4462 78.4802C89.7183 78.4802 90.5177 79.5799 91.2604 80.9572C90.529 80.6171 89.157 79.8349 89.3554 78.7183Z" fill="#6F5CE0" />
		<path d="M94.6735 78.5891C94.6338 78.4587 94.5091 78.3057 94.1405 78.317C93.2618 78.3453 92.4397 79.2579 91.9408 80.0175C91.7934 80.2385 91.663 80.4482 91.5666 80.624V80.658C91.5229 80.7294 91.4831 80.8032 91.4476 80.879L91.3568 81.0661L91.3002 81.1738L91.2378 81.3098L91.4532 81.3891V81.5762L91.629 81.4572L91.7367 81.3835L91.9011 81.2758L91.9408 81.2474L92.0202 81.1908C94.8719 79.2239 94.7188 78.7478 94.6735 78.5891ZM92.4057 80.2895C92.8649 79.615 93.4942 78.9178 94.1065 78.8498C93.5876 79.382 93.018 79.8623 92.4057 80.2839V80.2895Z" fill="#6F5CE0" />
		<path d="M97.9616 85.5715V86.0873H86.1182C86.3006 86.0257 86.4926 85.9969 86.6851 86.0023H91.4304H95.966L96 85.6395V85.5488L97.9616 85.5715Z" fill="#6F5CE0" />
		<path d="M97.8428 89.2891V89.8105H95.643L95.6827 89.3911H86.6626C86.4692 89.3896 86.2775 89.3551 86.0957 89.2891H97.8428Z" fill="#6F5CE0" />
		<path d="M99.4246 78.2986C101.585 78.2986 103.337 76.5476 103.337 74.3876C103.337 72.2276 101.585 70.4766 99.4246 70.4766C97.2641 70.4766 95.5127 72.2276 95.5127 74.3876C95.5127 76.5476 97.2641 78.2986 99.4246 78.2986Z" fill="#6F5CE0" />
		<path d="M91.4416 116.899V116.996C91.3962 116.814 91.4019 116.809 91.4416 116.899Z" fill="#6F5CE0" />
		<path d="M104.034 117.795C103.923 117.795 103.812 117.779 103.705 117.75C103.57 117.704 103.444 117.637 103.331 117.552C103.13 117.391 102.99 117.167 102.934 116.917L100.49 106.278L99.4188 95.3606L98.9596 97.0611L93.8174 117.467C93.7526 117.707 93.6103 117.92 93.4125 118.071C93.2147 118.223 92.9724 118.305 92.7232 118.305H92.5418C92.4626 118.314 92.3828 118.314 92.3037 118.305C91.8728 118.209 91.5439 117.172 91.4419 116.911L95.2404 94.2553L95.3651 92.9573L95.5182 91.3022L95.6486 89.8115L95.6883 89.392V89.29L95.8584 87.3345L95.9094 86.813L95.9718 86.0875V86.0251L96.0058 85.6624V85.5717L96.2666 82.6242C96.2649 82.1292 96.3713 81.6398 96.5784 81.1902C96.7585 80.7493 97.0617 80.3696 97.4517 80.0962C97.8418 79.8229 98.3022 79.6674 98.7781 79.6484H101.477C102.86 79.6484 103.988 80.9805 103.988 82.6242C103.988 82.6242 103.949 91.3646 103.988 93.3938V105.977L105.151 116.537C105.168 116.695 105.152 116.854 105.104 117.005C105.056 117.156 104.977 117.296 104.872 117.414C104.766 117.533 104.637 117.628 104.493 117.694C104.349 117.759 104.192 117.794 104.034 117.795Z" fill="#6F5CE0" />
		<path d="M97.8426 85.9844V89.3853H86.6625C86.4691 89.3838 86.2774 89.3493 86.0956 89.2833C85.86 89.2034 85.6464 89.0694 85.4719 88.8922C85.2724 88.6896 85.1269 88.4404 85.0486 88.1671C84.9704 87.8938 84.9619 87.6053 85.0239 87.3279C85.0859 87.0505 85.2165 86.7931 85.4037 86.5792C85.5909 86.3653 85.8288 86.2017 86.0956 86.1034H86.1296C86.312 86.0417 86.504 86.013 86.6965 86.0184H91.4419H95.9774C96.9412 86.0184 97.6499 86.007 97.8426 85.9844Z" fill="#6F5CE0" />
		<path d="M100.853 40.2714C100.613 40.271 100.382 40.1752 100.212 40.005C98.1646 37.9639 95.3908 36.8177 92.4992 36.8177C89.6075 36.8177 86.8338 37.9639 84.7859 40.005C84.7016 40.0899 84.6013 40.1572 84.4909 40.2031C84.3805 40.2491 84.262 40.2727 84.1424 40.2727C84.0228 40.2727 83.9044 40.2491 83.7939 40.2031C83.6835 40.1572 83.5832 40.0899 83.4989 40.005C83.3303 39.8333 83.2358 39.6023 83.2358 39.3617C83.2358 39.1211 83.3303 38.8901 83.4989 38.7184C85.8881 36.3359 89.1248 34.998 92.4992 34.998C95.8735 34.998 99.1102 36.3359 101.499 38.7184C101.625 38.8463 101.711 39.0086 101.745 39.1848C101.779 39.3611 101.761 39.5436 101.692 39.7094C101.623 39.8752 101.507 40.017 101.357 40.117C101.208 40.2169 101.033 40.2707 100.853 40.2714Z" fill="#6F5CE0" />
		<path d="M86.7363 42.8445C86.5572 42.8426 86.3825 42.7881 86.2342 42.6877C86.0858 42.5873 85.9703 42.4455 85.902 42.2799C85.8336 42.1143 85.8156 41.9323 85.85 41.7565C85.8845 41.5807 85.9699 41.419 86.0957 41.2914C86.9384 40.4456 87.9399 39.7746 89.0427 39.3167C90.1455 38.8588 91.3279 38.623 92.522 38.623C93.7161 38.623 94.8984 38.8588 96.0012 39.3167C97.104 39.7746 98.1055 40.4456 98.9483 41.2914C99.0328 41.3755 99.0999 41.4755 99.1457 41.5855C99.1916 41.6955 99.2154 41.8135 99.2156 41.9327C99.2159 42.052 99.1927 42.1701 99.1473 42.2803C99.1019 42.3905 99.0352 42.4908 98.9511 42.5753C98.867 42.6597 98.767 42.7268 98.6569 42.7727C98.5469 42.8186 98.4289 42.8423 98.3096 42.8426C98.1904 42.8428 98.0723 42.8196 97.962 42.7742C97.8517 42.7288 97.7515 42.6622 97.667 42.5781C96.3022 41.2164 94.4529 40.4517 92.5248 40.4517C90.5967 40.4517 88.7474 41.2164 87.3826 42.5781C87.21 42.7476 86.9782 42.8431 86.7363 42.8445Z" fill="#6F5CE0" />
		<path d="M95.7108 45.4124C95.4704 45.412 95.24 45.3162 95.0702 45.146C94.3871 44.4665 93.4627 44.0851 92.4991 44.0851C91.5355 44.0851 90.6111 44.4665 89.928 45.146C89.8437 45.2308 89.7434 45.2982 89.633 45.3441C89.5226 45.39 89.4041 45.4137 89.2845 45.4137C89.1649 45.4137 89.0465 45.39 88.936 45.3441C88.8256 45.2982 88.7253 45.2308 88.641 45.146C88.4724 44.9743 88.3779 44.7433 88.3779 44.5027C88.3779 44.262 88.4724 44.031 88.641 43.8593C89.149 43.3517 89.752 42.9492 90.4157 42.6747C91.0793 42.4002 91.7906 42.2592 92.5088 42.2598C93.2269 42.2603 93.938 42.4023 94.6012 42.6778C95.2645 42.9532 95.8669 43.3566 96.3741 43.865C96.5002 43.9929 96.5857 44.1552 96.62 44.3315C96.6542 44.5078 96.6357 44.6902 96.5667 44.8561C96.4977 45.0219 96.3813 45.1636 96.2321 45.2636C96.0829 45.3636 95.9074 45.4173 95.7278 45.4181L95.7108 45.4124Z" fill="#6F5CE0" />
		<path d="M92.5022 49.5327C92.263 49.5343 92.0259 49.4879 91.8048 49.3964C91.5838 49.3049 91.3833 49.1701 91.2153 48.9999C91.0464 48.8314 90.9125 48.6313 90.8211 48.411C90.7297 48.1907 90.6826 47.9545 90.6826 47.716C90.6826 47.4775 90.7297 47.2414 90.8211 47.0211C90.9125 46.8008 91.0464 46.6006 91.2153 46.4322C91.3839 46.2636 91.5841 46.1298 91.8044 46.0386C92.0248 45.9473 92.2609 45.9004 92.4994 45.9004C92.7379 45.9004 92.974 45.9473 93.1944 46.0386C93.4147 46.1298 93.6149 46.2636 93.7835 46.4322C93.9522 46.6008 94.0859 46.8009 94.1772 47.0212C94.2685 47.2415 94.3154 47.4776 94.3154 47.716C94.3154 47.9544 94.2685 48.1905 94.1772 48.4108C94.0859 48.6311 93.9522 48.8313 93.7835 48.9999C93.6163 49.1696 93.4168 49.3043 93.1968 49.3958C92.9767 49.4873 92.7406 49.5338 92.5022 49.5327Z" fill="#6F5CE0" />
	</g>
	<defs>
		<clipPath id="clip0_1750_2165">
			<rect width="98.2569" height="85" fill="white" transform="translate(31 35)" />
		</clipPath>
	</defs>
</svg>
