<svg width="160" height="160" viewBox="0 0 160 160" fill="none"
	xmlns="http://www.w3.org/2000/svg">
	<circle cx="80" cy="80" r="80" fill="#221B4F" />
	<path d="M81.0557 69.7067C80.669 69.2134 80.1504 68.8294 79.5549 68.5955C78.8054 68.3103 78.0336 68.0821 77.2468 67.913V63.538C77.7075 63.6366 78.1232 63.8743 78.4328 64.2161C78.7181 64.5338 78.8948 64.9278 78.9391 65.3449H81.5256C81.5032 64.8436 81.3781 64.3514 81.1574 63.8965C80.9367 63.4416 80.6247 63.0329 80.2392 62.6936C79.3966 62.0147 78.3458 61.6184 77.2468 61.5649V59.9199H75.8783V61.5649C74.6848 61.633 73.5508 62.0881 72.6624 62.8555C72.2618 63.2097 71.9451 63.6421 71.7334 64.1236C71.5217 64.605 71.4201 65.1244 71.4353 65.6467C71.391 66.3963 71.6094 67.1386 72.0557 67.7555C72.4465 68.2545 72.9694 68.6442 73.5701 68.8842C74.3213 69.1696 75.0926 69.4035 75.8783 69.5842V74.0554C75.3659 73.9931 74.8935 73.7573 74.5463 73.3904C74.2216 73.0221 74.0353 72.5599 74.0172 72.0779H71.4353C71.4156 72.5841 71.5157 73.0881 71.7282 73.5518C71.9408 74.0156 72.2602 74.4271 72.6624 74.7554C73.5773 75.4677 74.702 75.887 75.8783 75.9541V77.5991H77.2468V75.9585C78.0897 75.8999 78.906 75.6494 79.6279 75.2279C80.2634 74.8602 80.7896 74.3419 81.1561 73.7229C81.4993 73.1412 81.6785 72.4838 81.6761 71.8154C81.7201 71.0659 81.5017 70.3237 81.0557 69.7067ZM75.8692 67.5673C75.3265 67.4264 74.8242 67.1691 74.4004 66.8149C74.2209 66.6446 74.082 66.4392 73.993 66.2127C73.904 65.9861 73.8671 65.7438 73.8849 65.5024C73.8713 65.2433 73.9115 64.9842 74.0031 64.7401C74.0947 64.496 74.236 64.2718 74.4186 64.0805C74.812 63.7172 75.3247 63.496 75.8692 63.4549V67.5673ZM78.7111 73.3335C78.3292 73.7351 77.8094 73.9913 77.2468 74.0554V69.9342C77.7897 70.0735 78.2931 70.3276 78.7202 70.6779C78.8957 70.8409 79.0326 71.0381 79.1215 71.2563C79.2104 71.4744 79.2494 71.7084 79.2356 71.9423C79.2486 72.4527 79.0614 72.9491 78.7111 73.3335Z" fill="#6F5CE0" />
	<path d="M88.5414 47.0001H64.333C63.7501 47.0001 63.173 47.1102 62.6345 47.3241C62.096 47.538 61.6067 47.8516 61.1945 48.2469C60.7824 48.6422 60.4554 49.1114 60.2324 49.6279C60.0093 50.1444 59.8945 50.6979 59.8945 51.2569V86.5501C60.6714 86.9074 61.4787 87.2001 62.3076 87.4251V53.0419H90.5896V72.6726L92.9981 71.837V51.2744C93.0011 50.7123 92.8879 50.1552 92.665 49.6353C92.4421 49.1154 92.114 48.643 91.6995 48.2455C91.2851 47.848 90.7926 47.5333 90.2505 47.3195C89.7084 47.1057 89.1275 46.9972 88.5414 47.0001ZM80.9737 50.2026H71.9098C71.8021 50.2026 71.6989 50.1615 71.6227 50.0885C71.5466 50.0155 71.5038 49.9165 71.5038 49.8132C71.5038 49.7099 71.5466 49.6109 71.6227 49.5379C71.6989 49.4648 71.8021 49.4238 71.9098 49.4238H80.9828C81.0905 49.4238 81.1938 49.4648 81.2699 49.5379C81.3461 49.6109 81.3888 49.7099 81.3888 49.8132C81.3888 49.9165 81.3461 50.0155 81.2699 50.0885C81.1938 50.1615 81.0905 50.2026 80.9828 50.2026H80.9737ZM87.36 50.2026C87.2797 50.2026 87.2012 50.1797 87.1344 50.1369C87.0677 50.0942 87.0156 50.0333 86.9849 49.9622C86.9542 49.891 86.9461 49.8128 86.9618 49.7372C86.9775 49.6617 87.0161 49.5923 87.0729 49.5379C87.1297 49.4834 87.202 49.4463 87.2808 49.4313C87.3595 49.4163 87.4412 49.424 87.5153 49.4534C87.5895 49.4829 87.6529 49.5328 87.6975 49.5969C87.7421 49.6609 87.766 49.7362 87.766 49.8132C87.7666 49.8649 87.7564 49.9161 87.7359 49.9639C87.7154 50.0117 87.6851 50.0551 87.6468 50.0914C87.6085 50.1277 87.563 50.1563 87.5129 50.1754C87.4628 50.1945 87.4093 50.2037 87.3554 50.2026H87.36ZM90.5531 93.0164V103.039H62.3304V98.5157C61.5024 98.27 60.6956 97.9628 59.9173 97.597V107.966C59.9185 109.094 60.3867 110.176 61.2189 110.973C62.0512 111.77 63.1794 112.218 64.3558 112.218H88.5642C89.1469 112.219 89.7239 112.109 90.2624 111.896C90.8009 111.682 91.2902 111.369 91.7024 110.974C92.1146 110.579 92.4416 110.11 92.6647 109.594C92.8879 109.078 93.0027 108.525 93.0027 107.966V91.5945C92.1816 92.0845 91.3833 92.557 90.5713 93.0207L90.5531 93.0164ZM76.4121 110.035C75.8988 110.035 75.3969 109.889 74.9701 109.616C74.5433 109.342 74.2106 108.953 74.0141 108.498C73.8177 108.044 73.7663 107.543 73.8664 107.06C73.9666 106.577 74.2138 106.134 74.5768 105.785C74.9398 105.437 75.4023 105.2 75.9057 105.104C76.4092 105.008 76.9311 105.057 77.4054 105.246C77.8797 105.434 78.285 105.753 78.5702 106.163C78.8554 106.572 79.0077 107.053 79.0077 107.546C79.0077 108.201 78.738 108.831 78.2571 109.297C77.7763 109.763 77.1231 110.028 76.4395 110.035H76.4121Z" fill="#6F5CE0" />
	<path d="M108.644 67.9297L103.499 88.2078L99.7356 85.2197C93.5318 90.0059 86.5434 94.149 78.8434 96.2797C72.0603 98.1609 63.3339 98.9047 57.3719 94.5034C50.9446 89.7697 50.5294 82.0784 51.2684 74.9472C51.0677 76.9072 51.9253 79.3922 52.7874 81.1378C53.746 83.0872 55.149 84.8052 56.8929 86.1647C63.2792 91.1084 72.6213 89.8309 79.6143 86.8472C82.2851 85.7097 84.7795 84.2243 87.0269 82.4328C87.4192 82.1222 91.7254 78.3859 91.552 78.2416L87.8161 75.1266L108.644 67.9297Z" fill="#6F5CE0" />
</svg>
