<svg width="160" height="160" viewBox="0 0 160 160" fill="none"
	xmlns="http://www.w3.org/2000/svg">
	<circle cx="80" cy="80" r="80" fill="#F4F4F4" />
	<g clip-path="url(#clip0_1750_2505)">
		<path d="M51.2066 62H34.9736C34.1847 62.0008 33.4284 62.3107 32.8708 62.8617C32.3132 63.4127 32 64.1597 32 64.9385V104.068C32.0008 104.846 32.3144 105.592 32.8719 106.142C33.4293 106.693 34.1852 107.002 34.9736 107.003H51.2066C51.9947 107.002 52.7503 106.693 53.3073 106.142C53.8643 105.592 54.1771 104.846 54.1771 104.068V64.9385C54.1775 64.553 54.101 64.1712 53.952 63.8149C53.8029 63.4586 53.5842 63.1348 53.3083 62.8619C53.0325 62.5891 52.7049 62.3725 52.3443 62.2246C51.9837 62.0767 51.5971 62.0004 51.2066 62V62ZM50.4097 63.6757C50.4635 63.6757 50.516 63.6914 50.5607 63.7209C50.6054 63.7504 50.6402 63.7923 50.6608 63.8413C50.6813 63.8903 50.6867 63.9442 50.6762 63.9963C50.6657 64.0483 50.6399 64.0961 50.6019 64.1336C50.5639 64.1711 50.5154 64.1967 50.4627 64.207C50.41 64.2174 50.3554 64.2121 50.3057 64.1918C50.2561 64.1715 50.2136 64.1371 50.1838 64.093C50.1539 64.0489 50.138 63.997 50.138 63.9439C50.1376 63.9086 50.1443 63.8735 50.1578 63.8408C50.1714 63.8081 50.1914 63.7784 50.2167 63.7534C50.242 63.7284 50.2721 63.7086 50.3053 63.6953C50.3384 63.682 50.3739 63.6753 50.4097 63.6757V63.6757ZM40.0478 63.6757H46.1324C46.1991 63.6827 46.2609 63.7138 46.3057 63.7631C46.3506 63.8123 46.3754 63.8762 46.3754 63.9424C46.3754 64.0087 46.3506 64.0725 46.3057 64.1218C46.2609 64.171 46.1991 64.2022 46.1324 64.2092H40.0478C40.0099 64.2131 39.9715 64.2092 39.9353 64.1976C39.899 64.186 39.8657 64.167 39.8373 64.1419C39.809 64.1167 39.7863 64.086 39.7708 64.0516C39.7553 64.0173 39.7473 63.9801 39.7473 63.9424C39.7473 63.9048 39.7553 63.8676 39.7708 63.8333C39.7863 63.7989 39.809 63.7681 39.8373 63.743C39.8657 63.7178 39.899 63.6988 39.9353 63.6872C39.9715 63.6757 40.0099 63.6717 40.0478 63.6757V63.6757ZM43.0886 105.496C42.7443 105.496 42.4077 105.395 42.1214 105.206C41.8352 105.017 41.6122 104.749 41.4805 104.435C41.3489 104.121 41.3146 103.775 41.382 103.442C41.4494 103.109 41.6155 102.803 41.8591 102.562C42.1028 102.322 42.4132 102.159 42.7509 102.093C43.0887 102.027 43.4387 102.061 43.7566 102.192C44.0746 102.322 44.3461 102.543 44.537 102.826C44.7279 103.109 44.8294 103.441 44.8288 103.781C44.8292 104.007 44.7844 104.23 44.6971 104.439C44.6097 104.647 44.4815 104.836 44.3198 104.996C44.1581 105.155 43.9661 105.281 43.7548 105.367C43.5435 105.453 43.3171 105.497 43.0886 105.496V105.496ZM52.5529 100.674H33.615V66.1682H52.5652L52.5529 100.674Z" fill="#1A1344" />
		<path d="M98.7422 72.9161V96.0897L116.178 99.0674V69.9324L98.7422 72.9161ZM111.482 80.8606L108.466 80.9933V89.6822L106.457 89.5677V81.0837L103.435 81.2042V79.3718L111.482 78.8896V80.8606ZM117.185 81.8552V93.555C117.518 93.6274 117.643 93.6816 117.879 93.7148C118.139 93.7524 118.403 93.7706 118.666 93.769C119.077 93.7698 119.486 93.7274 119.887 93.6424C120.292 93.5607 120.679 93.4109 121.032 93.1994C121.381 92.9906 121.675 92.7036 121.89 92.3615C122.127 91.9628 122.244 91.5062 122.229 91.0445V81.8552H117.185ZM121.331 76.5146C121.061 75.8806 120.551 75.3757 119.909 75.1072C119.58 74.969 119.225 74.8983 118.868 74.8992C118.514 74.8989 118.164 74.9697 117.839 75.1072C117.595 75.2127 117.518 75.3423 117.185 75.505V79.5767C117.518 79.7395 117.595 79.8781 117.839 79.9746C118.166 80.1118 118.518 80.1826 118.874 80.1826C119.229 80.1826 119.581 80.1118 119.909 79.9746C120.233 79.8412 120.528 79.6457 120.775 79.3993C121.023 79.1529 121.218 78.8606 121.351 78.5391C121.483 78.2176 121.549 77.8735 121.546 77.5265C121.543 77.1795 121.47 76.8366 121.331 76.5177V76.5146ZM123.218 83.5098V91.4544H124.562C125.022 91.452 125.48 91.4087 125.932 91.3248C126.389 91.2454 126.829 91.0937 127.236 90.8757C127.618 90.6696 127.948 90.3824 128.204 90.0348C128.468 89.6451 128.601 89.1834 128.585 88.7148V83.5098H123.218ZM128.356 78.1693C128.074 77.535 127.549 77.036 126.897 76.78C126.244 76.524 125.516 76.5315 124.869 76.8009C124.222 77.0704 123.709 77.5801 123.439 78.2201C123.17 78.8601 123.166 79.579 123.429 80.2217C123.563 80.5364 123.758 80.8221 124.003 81.0626C124.246 81.3046 124.534 81.498 124.852 81.6322C125.518 81.901 126.264 81.901 126.931 81.6322C127.573 81.3618 128.084 80.8562 128.356 80.2217C128.495 79.897 128.567 79.548 128.567 79.1955C128.567 78.843 128.495 78.494 128.356 78.1693V78.1693Z" fill="#1A1344" />
		<path d="M85.2994 85.9392L81.6083 89.9838V87.3678H68.7856V85.9211L85.2994 85.9392Z" fill="#1A1344" />
		<path d="M68.7856 83.061L72.4767 79.0164V81.6324H85.2994V83.079L68.7856 83.061Z" fill="#1A1344" />
	</g>
	<defs>
		<clipPath id="clip0_1750_2505">
			<rect width="96.5854" height="45" fill="white" transform="translate(32 62)" />
		</clipPath>
	</defs>
</svg>
