<svg xmlns="http://www.w3.org/2000/svg" viewBox="0 0 714.1 747.28">
	<defs>
		<style>.cls-1,.cls-13,.cls-17,.cls-19,.cls-20{fill:none;stroke:#000;}.cls-1,.cls-13,.cls-17,.cls-19,.cls-20,.cls-4,.cls-5{stroke-miterlimit:10;}.cls-1{stroke-width:0.5px;}.cls-2{fill:#6f5ce0;}.cls-3{fill:#934541;}.cls-4{fill:#231204;}.cls-4,.cls-5{stroke:#071235;stroke-linecap:round;stroke-width:0.2px;}.cls-18,.cls-5{fill:#282828;}.cls-6{fill:#fc7079;}.cls-7{fill:#fff;}.cls-8{fill:#29cfbb;}.cls-9{fill:#6761aa;}.cls-10{fill:#20a4f3;}.cls-11{opacity:0.2;}.cls-12{fill:#ffcac5;}.cls-13{stroke-width:0.61px;}.cls-14{fill:#f7bea1;}.cls-15{fill:#5e1c1b;}.cls-16{opacity:0.24;}.cls-17{stroke-width:0.57px;}.cls-19{stroke-width:0.54px;}.cls-20{stroke-width:0.55px;}</style>
	</defs>
	<g id="Layer_2" data-name="Layer 2">
		<g id="Layer_1-2" data-name="Layer 1">
			<path class="cls-1" d="M648.43,405.2c.21-1.05.38-1.68.38-1.68" />
			<path class="cls-1" d="M666.88,420.14s-2.57,5.9-10.75,5.38" />
			<path class="cls-2" d="M616.25,484.41C622,484,634,467.84,638.46,461.48a28.3,28.3,0,0,0,3.53,9.79c1.36,1.76,3,21.27,3,21.27l.48,0,29.87-2.81c-5.15-14.9,2.85-34.55,2.85-34.55l24,19.24L686.84,491l4.84,5.29c8.38-6.76,20.51-16.95,22.26-20.71,2.45-5.27-23.82-34.49-28.76-39.62-.32.57-.67,1.13-1,1.69-12.47,18.42-30.08,3.65-30.08,3.65s6.38.65,12.46-14.81l-10,2.05.25,2.11a2.6,2.6,0,0,1-2.9,2.89c-4.14-.55-11.25-.53-15.88,4.83-6.86,7.95-17.88,26.56-17.88,26.56L622,441.42l-7.28,1.7C613.23,457.2,610.9,484.81,616.25,484.41Z" />
			<path class="cls-1" d="M625.51,420.32a3.7,3.7,0,0,0-.13-1.65" />
			<path class="cls-3" d="M613.23,426l0,0a6,6,0,0,0,2.48.64c2,0,0-3.08,0-3.08,6.51,2.53,4.34-1.8,4.34-1.8,2.32.35.79-2-.61-3.68h0c-.77-.94-1.5-1.69-1.5-1.69-3.21-.68-2.41,2-2.41,2a4.27,4.27,0,0,0-2.57.74c-1,.81.2,2.91.2,2.91a2.14,2.14,0,0,0-2,1.49C611,424.43,612,425.37,613.23,426Z" />
			<path class="cls-3" d="M653.69,425.2a19,19,0,0,0,2.44.32l.37,3,10-2.05c.12-.31.25-.63.37-1,6.18-16.44-7.41-26-7.41-26-1.89,4.28-8,5.34-11,5.61a45.57,45.57,0,0,0-.85,5.8v0C647.11,416.81,647.77,424,653.69,425.2Z" />
			<path class="cls-4" d="M647.58,411a45.57,45.57,0,0,1,.85-5.8c3.08-.27,9.15-1.33,11-5.61,0,0,13.59,9.52,7.41,26-.12.33-.25.65-.37,1-6.08,15.46-12.46,14.81-12.46,14.81s17.61,14.77,30.08-3.65c.38-.56.73-1.12,1-1.69,10.46-18.18-4.87-40.85-18.94-45.47C657.52,387.65,641.93,393.92,647.58,411Z" />
			<path class="cls-1" d="M642.67,448s-2.71,6.37-4,9.76a7.87,7.87,0,0,0-.17,3.76" />
			<path class="cls-3" d="M674.78,504.6s-10.84,11.65-1.76,10.16,10.57-12.06,10.57-12.06l.72-.56c1.25-1,4-3.13,7.37-5.83L686.84,491l-5.2,5.65-1.57,1.7a19.19,19.19,0,0,0-12.57,10.16C666.18,511.1,674.78,504.6,674.78,504.6Z" />
			<line class="cls-1" x1="614.22" y1="431.3" x2="614.57" y2="432.19" />
			<line class="cls-1" x1="661.16" y1="527.99" x2="661.26" y2="527.71" />
			<path class="cls-5" d="M635,540.23c-3,13.7-5.58,25.23-6,26.83-1.08,4.2-1.35,66.93-1.35,66.93h11.92s7.73-42.41,5.56-61.1l16-44.9c3.73,12.43,9.07,30,12.54,41.78,0,0,7.45,51.76,13,62.33l1.59.19,8,1,1.69.2s-3.52-66.66-7.18-75.47c-2.88-6.92,1-36.8-6.46-55.84l-.72.56S682.1,513.27,673,514.76s1.76-10.16,1.76-10.16-8.6,6.5-7.28,3.93a19.19,19.19,0,0,1,12.57-10.16l1.57-1.7a23.07,23.07,0,0,0-6.32-7l-29.87,2.81c-1.68,7.66-6.48,29.59-10.48,47.73" />
			<path class="cls-1" d="M656.9,513.27c-.1.08,1.7,6.18,4.26,14.72" />
			<path class="cls-3" d="M621.47,643.69c2.63,1.26,6.94,3,9.28,2.07,1.72-.68,3.84-1.63,5.55-2.42V634h-6.9l-.55,6.64S625.46,642,621.47,643.69Z" />
			<path d="M608.8,653.91h27.5V643.34c-1.71.79-3.83,1.74-5.55,2.42-2.34.92-6.65-.81-9.28-2.07h0c-5.68,2.41-12.58,5.5-12.66,6.29A34.33,34.33,0,0,0,608.8,653.91Z" />
			<path class="cls-3" d="M687.52,643.14s.1,1.56.37,3.62a63,63,0,0,1,10.18-1l-.12-.13-1.69-12.4-8-1Z" />
			<path d="M687.89,646.76a29.08,29.08,0,0,0,1.93,8.1c1.76,3.52,10.3,3.39,12.6.54,2.12-2.61-3.44-8.67-4.35-9.62A63,63,0,0,0,687.89,646.76Z" />
			<path class="cls-6" d="M588.55,405.2a9,9,0,0,0,4.36,1.05h0c4,0,8.67-2.22,12.66-6.07.3-.3.61-.6.91-.92.59-.62,1.17-1.29,1.73-2a9.32,9.32,0,0,1-2.74-.82c-3.33-1.57-5.09-4.59-3.92-6.74s4.82-2.61,8.17-1a9.05,9.05,0,0,1,2.63,1.83c.09-.21,2.49-1.32,2.57-1.55a11.33,11.33,0,0,0,.59-4.66,52.24,52.24,0,0,0-.59-6.74c-.67-3.09-2.48-4.87-5.27-6.37-6.21-3.34-16,1.57-21.83,11S582.33,401.86,588.55,405.2Z" />
			<path class="cls-7" d="M605.5,395.7a8.69,8.69,0,0,0,2.74.89l.33-.45c.35-.47.68-.95,1-1.45.14-.22.29-.44.43-.67l.4-.69c.19-.33.38-.67.56-1,.27-.5.53-1,.76-1.51s.46-1,.67-1.51a9.2,9.2,0,0,0-2.63-2c-3.35-1.69-7-1.19-8.17,1.12S602.17,394,605.5,395.7Z" />
			<path class="cls-8" d="M592.94,406.25c.85,0,15.87.79,27.49,6a34.89,34.89,0,0,1,5,2.7c.63.41,1.23.84,1.81,1.29l.74.55.87.65.65.49,8.4-10.66a5.32,5.32,0,0,0-.66-.53c-3.34-2.57-18.57-16.88-22.79-30.81.09.89.13,1.86.14,2.85a26.34,26.34,0,0,1-1.93,9.79c-.08.24-.17.47-.26.69-.2.5-.43,1-.67,1.51s-.49,1-.76,1.51c-.18.34-.36.68-.55,1s-.27.47-.41.69-.29.45-.43.67c-.31.5-.64,1-1,1.45l-.32.45c-.56.75-1.14,1.47-1.74,2.14-.3.35-.6.68-.91,1C601.61,403.86,597,406.25,592.94,406.25Z" />
			<path class="cls-9" d="M628.83,417.48a7,7,0,1,0,8.39-10.7,5.32,5.32,0,0,1,.66.53L629.48,418Z" />
			<line class="cls-1" x1="608.24" y1="396.59" x2="608.25" y2="396.59" />
			<path class="cls-3" d="M615.71,435.09s-.43,3.23-1,8l7.28-1.7.58-7s5.24-4.87,5.42-9.75a65.49,65.49,0,0,0-.08-7.83c-.22-2.15-.67-3.69-1.54-3.6-.52,0-.84.81-1,1.76a11.06,11.06,0,0,0,0,3.68l-10.81,13.52Z" />
			<path class="cls-9" d="M611.21,430.62a2.82,2.82,0,0,0,3.36,1.57l10.81-13.52a11.06,11.06,0,0,1,0-3.68,34.89,34.89,0,0,0-5-2.7,11,11,0,0,1,.85,3.09,14,14,0,0,1-1.8,2.7h0c1.4,1.71,2.93,4,.61,3.68,0,0,2.17,4.33-4.34,1.8,0,0,2,3.08,0,3.08a6,6,0,0,1-2.48-.64l0,0C612.68,426.47,610.4,428.65,611.21,430.62Z" />
			<path class="cls-1" d="M613.23,426l.12-.11" />
			<line class="cls-1" x1="625.38" y1="418.67" x2="625.6" y2="418.39" />
			<line class="cls-1" x1="691.68" y1="496.31" x2="692.01" y2="496.67" />
			<path class="cls-2" d="M374.41,435v32.86a45.67,45.67,0,0,1-.63,7.71,47.47,47.47,0,0,1-11.4,23.92,49.08,49.08,0,0,1-37,16.62h-36.2A49,49,0,0,1,243,483.76a45.2,45.2,0,0,1-2.13-8.21,46.73,46.73,0,0,1-.62-7.71V435Z" />
			<rect class="cls-9" x="446.9" y="159.94" width="5.32" height="5.62" />
			<path class="cls-6" d="M470.24,104.22a27.64,27.64,0,0,1-12.3,3.24,22.45,22.45,0,0,1-7.28-1.2L446.9,105v55H400a28.06,28.06,0,0,0,.5-5.36,28.57,28.57,0,1,0-57.13,0,28.07,28.07,0,0,0,.51,5.36H296V105.66L292.27,107a22.19,22.19,0,0,1-7.28,1.2,22.89,22.89,0,1,1,0-45.78,22.45,22.45,0,0,1,7.28,1.19l3.76,1.3V7.92a183.86,183.86,0,0,1,23.28-.4c65.39,3,121.87,41.54,150.79,96.43C470.15,104,470.2,104.13,470.24,104.22Z" />
			<path class="cls-8" d="M486.53,225.89c-1-1-1.95,1.11-2.86,7.24-7,47.12-76,84.69-98.59,114.19S353.84,415,353.84,415h-24.9c.6-12.33,1.93-30.77,4.81-55.06q1.25-10.51,2.83-19.3c10.21-1.32,20.21-3.68,27.28-7.77,15.27-8.83,20.84-26,16.45-36.44-2.88-6.9-9.49-9.68-17.67-7.43-13.94,3.84-22.83,18.85-28.5,49.08-6.91.8-13.87,1.13-20,1.24a195.29,195.29,0,0,1-21.23-.76q-1.51-9.07-3.63-17.94C286.58,309.3,279.68,300,270.4,295c-5.56-3-14.69-5.49-22.13-2.86a14.25,14.25,0,0,0-8.67,8.21,18.47,18.47,0,0,0-1,10c2,12.88,13.3,21.2,23.22,24.69a127.68,127.68,0,0,0,28.64,6.12c3.84,24.08,4.79,49.15,5.36,73.84H243c-4.11-35.21-21.9-67.53-49.22-90.88a179.59,179.59,0,0,1-63-136.8A182.69,182.69,0,0,1,132,165.62h50.56a28.89,28.89,0,0,0-.5,5.36,28.57,28.57,0,1,0,57.13,0,28.89,28.89,0,0,0-.5-5.36H351.52l-1.3-3.76a22.45,22.45,0,0,1-1.19-7.28,22.89,22.89,0,1,1,45.78,0,22.19,22.19,0,0,1-1.2,7.28l-1.29,3.76h59.9v-.06h.36V112.63a28.89,28.89,0,0,0,5.36.5,33.34,33.34,0,0,0,14.86-3.85q1.43,2.89,2.73,5.87,1.23,2.77,2.36,5.61,2,5,3.69,10,1.07,3.19,2,6.44a177.66,177.66,0,0,1,7.06,45.23A179.59,179.59,0,0,1,486.53,225.89Z" />
			<path class="cls-8" d="M486.53,225.89a179.6,179.6,0,0,1-58.81,98.2C396.34,351,377.5,389.57,377.5,430.88v28.06H243.93V430.88A128.52,128.52,0,0,0,243,415h52.89c-.57-24.69-1.52-49.76-5.36-73.84A127.68,127.68,0,0,1,261.85,335c-9.92-3.49-21.23-11.81-23.22-24.69a18.47,18.47,0,0,1,1-10,14.25,14.25,0,0,1,8.67-8.21c7.44-2.63,16.57-.11,22.13,2.86,9.28,5,16.18,14.28,18.91,25.59q2.13,8.85,3.63,17.94a195.29,195.29,0,0,0,21.23.76c6.1-.11,13.06-.44,20-1.24,5.67-30.23,14.56-45.24,28.5-49.08,8.18-2.25,14.79.53,17.67,7.43,4.39,10.47-1.18,27.61-16.45,36.44-7.07,4.09-17.07,6.45-27.28,7.77q-1.59,8.79-2.83,19.3c-2.88,24.29-4.21,42.73-4.81,55.06h24.9s8.68-38.19,31.24-67.67,91.58-67.07,98.59-114.19C484.58,227,485.54,224.87,486.53,225.89Z" />
			<path class="cls-10" d="M256.42,85.25A28.6,28.6,0,0,0,285,113.82a29.08,29.08,0,0,0,5.37-.5v46.62H231l1.29,3.76a22.19,22.19,0,0,1,1.2,7.28,22.9,22.9,0,1,1-45.79,0,22.45,22.45,0,0,1,1.2-7.28l1.29-3.76H132.77q1-6.88,2.62-13.59c10,.05,18,0,18,0,6.88,1.9,13.29,1.36,12.69.71s-1.19-.71-.71-.71a13.51,13.51,0,0,0,2.48-1c1.25-.53.31-2.79.31-2.79a2.84,2.84,0,0,0-.48-2.43c.12-1.72-2.08-2.31-2.08-2.31s.6-.42-.77-2.44S153.66,142,153.66,142L137,139.83a178.16,178.16,0,0,1,13.88-35.5,181.37,181.37,0,0,1,15.75-25,2.08,2.08,0,0,0,.15-.2A179.85,179.85,0,0,1,290.36,8.47V57.2a28.17,28.17,0,0,0-5.37-.51A28.6,28.6,0,0,0,256.42,85.25Z" />
			<path class="cls-6" d="M167.83,145.41a13.51,13.51,0,0,1-2.48,1c-.48,0,.11.06.71.71s-5.81,1.19-12.69-.71c0,0-8,0-18,0q.75-3.28,1.65-6.52l16.62,2.2s9.79-8.6,11.15-6.59.77,2.44.77,2.44,2.2.59,2.08,2.31a2.84,2.84,0,0,1,.48,2.43S169.08,144.88,167.83,145.41Z" />
			<path class="cls-2" d="M398.32,447.9v12.22A13.84,13.84,0,0,1,384.48,474H235.64a13.84,13.84,0,0,1-13-9.08,13.93,13.93,0,0,1-.84-4.76V447.9a13.84,13.84,0,0,1,13.84-13.84H384.48A13.84,13.84,0,0,1,398.32,447.9Z" />
			<path class="cls-7" d="M380.31,296.42c-2.88-6.9-9.49-9.68-17.67-7.43-13.94,3.84-22.83,18.85-28.5,49.08-6.91.8-13.87,1.13-20,1.24a195.29,195.29,0,0,1-21.23-.76q-1.51-9.07-3.63-17.94C286.58,309.3,279.68,300,270.4,295c-5.56-3-14.69-5.49-22.13-2.86a14.25,14.25,0,0,0-8.67,8.21,18.47,18.47,0,0,0-1,10c2,12.88,13.3,21.2,23.22,24.69a127.68,127.68,0,0,0,28.64,6.12c3.84,24.08,4.79,49.15,5.36,73.84q.12,5.33.23,10.62l.17,7.9,2.84-.06-.17-7.9q-.1-5.26-.23-10.56c-.57-24.56-1.5-49.52-5.28-73.55a199.39,199.39,0,0,0,20.81.71c5.93-.11,12.65-.43,19.4-1.17q-1.5,8.53-2.69,18.62c-2.89,24.44-4.23,43-4.84,55.39-.6,12.14-.5,18.4-.5,18.52l2.83-.05c0-.12-.09-6.36.52-18.47.6-12.33,1.93-30.77,4.81-55.06q1.25-10.51,2.83-19.3c10.21-1.32,20.21-3.68,27.28-7.77C379.13,324,384.7,306.89,380.31,296.42ZM262.79,332.36c-9.15-3.22-19.56-10.81-21.36-22.46a15.56,15.56,0,0,1,.78-8.42,11.52,11.52,0,0,1,7-6.65,17.94,17.94,0,0,1,5.91-.93,31.21,31.21,0,0,1,13.93,3.62c8.57,4.57,14.95,13.23,17.49,23.76,1.35,5.58,2.49,11.25,3.46,17A124,124,0,0,1,262.79,332.36Zm99.65-1.95c-6.52,3.77-15.76,6-25.32,7.29,5.43-28.12,13.8-42.54,26.27-46a17,17,0,0,1,4.56-.66,10,10,0,0,1,9.75,6.44C381.61,306.87,376.42,322.32,362.44,330.41Z" />
			<rect class="cls-7" x="446.9" y="159.94" width="5.32" height="5.62" />
			<rect class="cls-7" x="446.9" y="159.94" width="5.32" height="5.62" />
			<path class="cls-11" d="M376.54,474a48.74,48.74,0,0,1-11.41,24.32l-119.42-16a45.31,45.31,0,0,1-2.12-8.34Z" />
			<polygon class="cls-11" points="243.93 434.06 264.28 473.96 279.9 473.97 261.91 434.06 243.93 434.06" />
			<polygon class="cls-11" points="282.64 434.06 302.99 473.96 318.61 473.97 300.62 434.06 282.64 434.06" />
			<path class="cls-11" d="M486.53,225.89a179.6,179.6,0,0,1-58.81,98.2C396.34,351,377.5,389.57,377.5,430.88v3.17H243.93v-3.17A128.52,128.52,0,0,0,243,415H353.84s8.68-38.19,31.24-67.67,91.58-67.07,98.59-114.19C484.58,227,485.54,224.87,486.53,225.89Z" />
			<path class="cls-12" d="M360.84,503.35c-.49,0-1.58,7.41-3.52,14.39l-10-6.35,7.79-8s-10.68-14.9-7.8-15.11,5.06,4.86,5.41,5,5.83-9.11,8.08-12,9.9,3.66,11.31,7.31S361.68,503.42,360.84,503.35Z" />
			<path class="cls-12" d="M256.05,503.42a2.24,2.24,0,0,0-.47.28c-1.74,1.36-10.42,12-15.65,18.56l-3.09-2.4a103.47,103.47,0,0,1,8.43-9.42S235.9,500,235.9,496.2c0-3.49,7.69-11.24,12.37-5.43a18.57,18.57,0,0,1,4.31,11.8s3.21-3.51,4.68-3.16S256.05,503.42,256.05,503.42Z" />
			<path class="cls-8" d="M357.32,517.74c-1.46,5.21-3.39,10.17-5.9,11.61-5.9,3.37-36.75-2-36.75-2L314,588.77H259.51v-60s-13.49,15.55-21,15.55-10.31-6.37-7.69-14.43c1-3.14,3.44-6.78,6-10.07l3.09,2.4c5.23-6.52,13.91-17.2,15.65-18.56a2.24,2.24,0,0,1,.47-.28c3.63-1.74,18.36-2.25,18.36-2.25l2.81-3.66h19.39l1.13,4.22s16,.28,20.8,2.25,23.89,12.37,23.89,12.37l4.86-5Z" />
			<path class="cls-4" d="M303.08,472.78c-.52.84-1,1.61-1.39,2.33a44.5,44.5,0,0,0-2.55,5s1.13,10.12-6.74,12.08c-5.08,1.27-10.4,2.07-14.06-.7-2-1.52-3.51-4.11-4.21-8.29-2-11.8-5.06-20.24,3.79-22.49s21.5-4.77,25.16-1.4S305.89,468.28,303.08,472.78Z" />
			<path class="cls-12" d="M300.83,489.93c-2.81,5.34-4.22,7.58-4.22,7.58H277.22l1.12-6c3.66,2.77,9,2,14.06.7,7.87-2,6.74-12.08,6.74-12.08a44.5,44.5,0,0,1,2.55-5C302.2,480.18,302.45,486.84,300.83,489.93Z" />
			<path class="cls-13" d="M239.93,522.26c-2.37,3-4,5-4,5" />
			<path class="cls-5" d="M323.88,719.56H308.14s-6.75-98.94-23.61-101.19-20.24,93.32-20.24,93.32H247.43s-6.19-89.31,15.38-122.92h45.8a175.32,175.32,0,0,1,15.27,47.59C329.22,668.12,323.88,719.56,323.88,719.56Z" />
			<path d="M314.17,746.77a4.27,4.27,0,0,1-3.78-4.25V730.73l12.15-.07.21,2.53s6.89.84,9.56,9C334.31,748.3,321,747.53,314.17,746.77Z" />
			<polygon class="cls-14" points="322.54 730.66 310.39 730.73 310.39 719.56 321.63 719.56 322.54 730.66" />
			<path d="M261.71,722.38v11.3a2.58,2.58,0,0,1-2.93,2.55c-5.88-.81-18.44-3.28-16.69-9.65a6.42,6.42,0,0,1,6.74-5.06l.08-.59Z" />
			<polygon class="cls-14" points="261.71 711.69 261.71 722.38 248.91 720.93 250.22 711.69 261.71 711.69" />
			<path class="cls-10" d="M553.74,83.44l-20.62,9.33-3.91,1.77L512.7,102,502.5,80.73l1.65-2.91-10.9-4.48-2,4.78-4.71-2.2-7.78-3.65-2-.92s5.43-22.19,8.28-30.66A28.25,28.25,0,0,1,493,29.12c.29,2.89,1.52,7,6.11,5.95,5.54-1.25,7-9.86,7.4-13.29,4.68.27,13.36,1.58,17.35,7.48,1,1.48,2.58,4.14,4.52,7.52,5.49,9.57,13.78,24.91,19.37,35.37,2.23,4.17,4,7.57,5.07,9.51Z" />
			<path class="cls-1" d="M480.87,14.48l-.1-.21" />
			<line class="cls-1" x1="491.51" y1="78.24" x2="491.26" y2="78.12" />
			<polyline class="cls-1" points="503.94 43.16 491.66 72.68 493.25 73.33 493.25 73.34" />
			<path class="cls-1" d="M521.37,30.5a11.14,11.14,0,0,1,4.76,9.33c.09,6.57-16.19,40.37-16.19,40.37l-5.79-2.38" />
			<path class="cls-15" d="M504.15,77.82l-1.65,2.91h0l-.22.38a16.33,16.33,0,0,1-5.85,5.94L469.48,103l-4.29,3.28-.19.15s-.95,4.66-8,4-8.09-6.19-5-8.38a8.45,8.45,0,0,1,3.61-1.64,8.65,8.65,0,0,0,1.24,0,3,3,0,0,0-1.24,0c-1.27-.1-3.09-.49-3.33-1.89-.38-2.19,5.24-1.23,6.95-.09a7.29,7.29,0,0,0,3.82.82c.67,0,1.14-.06,1.14-.06l26.08-18.57,1-2.46,2-4.78Z" />
			<line class="cls-1" x1="493.25" y1="73.34" x2="493.25" y2="73.33" />
			<path class="cls-15" d="M486.55,75.92c-.05.51-.09,1-.14,1.58A6.16,6.16,0,0,1,482,82.9l-21,6c-.75-1.89-2.62-3.6-3.44-5.45l20.23-7.53,1-3.65Z" />
			<path class="cls-4" d="M502.15,19.69l-3-5a6,6,0,0,0-1-4.66c-1.61-2.08-2.42.75-2.42.75S486.9,15,480.87,14.48h-.14a6.15,6.15,0,0,1-4.16-2c-4.33-5-5.66-11.14,2.24-10.81s6.95.43,10.76-.81S503.47-.63,503.8,4.7,508.53,15,502.15,19.69Z" />
			<path class="cls-15" d="M506.49,21.78c-.37,3.43-1.86,12-7.4,13.29-4.59,1-5.82-3.06-6.11-5.95a23.07,23.07,0,0,1,2.3-1.86V22.88c-6.92,5.4-12.14-3.65-14.41-8.4,6,.47,14.89-3.69,14.89-3.69s.81-2.83,2.42-.75a6,6,0,0,1,1,4.66l3,5,1.22,2S504.6,21.68,506.49,21.78Z" />
			<path class="cls-1" d="M502.15,19.69c-.13.1-.26.2-.4.29" />
			<line class="cls-1" x1="502.5" y1="80.73" x2="502.43" y2="80.59" />
			<path class="cls-5" d="M588.68,188.84l-.2.1-.1.05-4,2-4.27,2.18-2.66,1.35s-42.09-33.7-44.56-50.65a124.13,124.13,0,0,1-.75-26l-.83,1-14.23,17.22c5.34,6.86,28.38,48.18,28.38,48.18l-.75.61-.07.05-6.4,5.16-.18.15-.41.32s-41.95-54.14-42.37-56.75C493.66,123.72,512.7,102,512.7,102l20.42-9.24,20.62-9.33-.94-1.78s8.84,10.25,4.08,27a219.2,219.2,0,0,1-10.28,28.75Z" />
			<path class="cls-1" d="M532.14,117.86c.32-4.56.75-7.41.75-7.41l-4.57-5" />
			<path d="M595,191.37l-9.18,15.2-16.07-1s-.43,1.73,0-2.58,10.62-5.45,10.62-5.45l-.24-4.33,4.27-2.18,4-2,.1-.05,2.08.78Z" />
			<line class="cls-1" x1="588.48" y1="188.94" x2="587.87" y2="188.71" />
			<path d="M550.79,192.65l-13.57,16.09a21,21,0,0,1-2.33-3.9c-.86-2,4.76-11.52,4.76-11.52l-1.59-3.08.18-.15,6.4-5.16.07-.05Z" />
			<path d="M588.68,188.84l-.2.1-.1.05-4,2-40.32-52.86s2.75-7.33,3.67-28.73c.55-12.73-7.78-16.05-14.61-16.66l20.62-9.33-.94-1.78s8.84,10.25,4.08,27a219.2,219.2,0,0,1-10.28,28.75Z" />
			<path d="M545.46,184.27l-.75.61-.07.05L515,135.72l17.87-25.27,0,.13-1.56,8.29-14.23,17.22C522.42,143,545.46,184.27,545.46,184.27Z" />
			<path class="cls-16" d="M553.74,83.44l-20.62,9.33-3.91,1.77c6.2-17.88.34-51.44-.85-57.76,5.49,9.57,13.78,24.91,19.37,35.37,2.23,4.17,4,7.57,5.07,9.51Z" />
			<line class="cls-17" x1="189.42" y1="489.19" x2="189.32" y2="489.73" />
			<line class="cls-17" x1="192.72" y1="471.42" x2="192.7" y2="471.52" />
			<path class="cls-5" d="M58.1,210.65c-.44,3.63-1.13,10.07-1.55,17.43,0,.52,0,1-.08,1.56-21.77,6-44.92,12.1-45.63,12.28h0l-2.56-9.54,0-.15s13-15.64,44.62-20.84Q55.39,211,58.1,210.65Z" />
			<path class="cls-14" d="M166.67,79.33a181.37,181.37,0,0,0-15.75,25c-4.7-.18-11.23-.46-17.26-.73L137,85.93c8.19,3.85,15.52,7.22,15.52,7.22l14.19-13.86S166.67,79.32,166.67,79.33Z" />
			<path class="cls-6" d="M133.66,103.6l-15.27-.69a21.34,21.34,0,0,1,.87,6.61c-.36,7.19-8.12,13.09-14.72,23.85l-5.46-17.13-19,6.65c8.06,11.27,16.27,21.1,17.76,22a3.59,3.59,0,0,0,1,.29c-.19.53-.38,1.06-.55,1.61l-2.28-.72L56.37,133.49s4.49-6.66,6-19.63a76.43,76.43,0,0,0,.4-12.41c-1-21.12,2.86-34.88,19.46-36.77h5.59c2.52.47,8.56,3,11.69,16,0,0,.56-2.92,2.23-11.39,2.61.92,9.7,3.56,13.71,6l.11.06c2.76,1.67,12.57,6.38,21.38,10.52Z" />
			<path class="cls-17" d="M114.8,50.07h0c.45-3.25.65-5.78.65-6" />
			<path class="cls-17" d="M110.71,87.45s5.5,7.53,7.69,15.46" />
			<line class="cls-17" x1="114.81" y1="50.07" x2="114.8" y2="50.07" />
			<line class="cls-17" x1="98.92" y1="145.17" x2="98.92" y2="145.16" />
			<path class="cls-4" d="M123.52,64.68c-.42,6.07-4.62,9.19-8,10.73l-.11-.06c-4-2.48-11.1-5.12-13.71-6l-1-.36V62.78s5.22,6.4,9.26,2.61c2.52-2.38,4-9.88,4.79-15.32h0L109,49.48,107.38,44,106.43,50l-7.59-1.2s-1.89-3.55-4.5,0,.47,4.27.47,4.27l-4.5,11.64H82.23c-16.6,1.89-20.41,15.65-19.46,36.77a76.43,76.43,0,0,1-.4,12.41c-4.88,1.19-12.24,1.24-17.62-6.48-8.79-12.57,4-18,4-18S30.5,86.51,32.41,76.77s13.29-20.64,24-13.52c0,0,14,4,20.88-19.21s26.81-24.45,36.06-15.67,3.32,25.86,3.32,25.86S124.24,54.47,123.52,64.68Z" />
			<path d="M58.1,210.65c-.44,3.63-1.13,10.07-1.55,17.43a133.8,133.8,0,0,0-3.71-16.68Q55.39,211,58.1,210.65Z" />
			<path class="cls-18" d="M94.57,218.2c-.58.64-5.4,3.82-12.74,4.25l-2.68,78.32,0,0-9.23-5.21A162.76,162.76,0,0,0,59.7,264.93c-3.64-8-3.87-22.74-3.23-35.29.4-8,1.16-15.11,1.63-19,.25-2,.4-3.13.4-3.13S50,195.41,45,174.3C40.43,155,53.71,136.89,56,133.92l.34-.43,39.71,12.57c.06,4.05.37,10,.71,16.69C97.87,183.84,99.29,213,94.57,218.2Z" />
			<polyline class="cls-17" points="81.83 222.46 82.95 189.97 89.09 165.29" />
			<path class="cls-14" d="M167.83,145.41a13.51,13.51,0,0,1-2.48,1c-.48,0,.11.06.71.71s-5.81,1.19-12.69-.71c0,0-8,0-18,0-14-.07-31.8-.33-36.47-1.18h0a3.59,3.59,0,0,1-1-.29c-1.48-.89-9.7-10.72-17.75-22l18.94-6.65,5.46,17.13.71,2.25L137,139.83l16.62,2.2s9.79-8.6,11.15-6.59.77,2.44.77,2.44,2.2.59,2.08,2.31a2.84,2.84,0,0,1,.48,2.43S169.08,144.88,167.83,145.41Z" />
			<path class="cls-17" d="M63.26,92.44c1,6.67,8.87,19.26,16.87,30.45h0" />
			<line class="cls-17" x1="99.09" y1="116.24" x2="91.73" y2="93.15" />
			<path class="cls-14" d="M114.79,50.07C114,55.51,112.52,63,110,65.39c-4,3.79-9.61-1.14-9.61-1.14l.35,4.7,1,.36c-1.67,8.47-2.23,11.39-2.23,11.39-3.13-13-9.17-15.55-11.69-16h2.49L94.81,53s-3.09-.7-.47-4.27,4.5,0,4.5,0l7.59,1.2.95-5.93L109,49.48l5.74.59Z" />
			<line class="cls-17" x1="80.14" y1="122.89" x2="80.13" y2="122.89" />
			<path d="M81.84,323.83c-3.91-.27-7.14-9.13-12-28.29l9.23,5.21C79.87,303.43,85.49,324.08,81.84,323.83Z" />
			<path class="cls-19" d="M79.13,300.75l-.08-.29" />
			<path d="M8.66,262.63c-3-.87-6.39-12.23-8.38-19.81-1-3.71.71-7.67,3.71-8.8l4.28-1.63,2.56,9.54h0C11.14,245,12.8,263.83,8.66,262.63Z" />
			<line class="cls-20" x1="8.67" y1="232.24" x2="8.27" y2="232.39" />
			<path class="cls-20" d="M10.85,241.92c0-.29,0-.44,0-.44" />
			<path d="M96.79,162.75c-10.74-15.26-40.64-28.32-40.64-28.32l-.12-.51.34-.43,39.71,12.57C96.14,150.11,96.45,156,96.79,162.75Z" />
		</g>
	</g>
</svg>