<svg xmlns="http://www.w3.org/2000/svg" viewBox="0 0 1017.97 526.42">
	<defs>
		<style>.cls-1{fill:#eaeaea;}.cls-2{fill:#c1c1c1;}.cls-3,.cls-33{fill:#fff;}.cls-4{fill:#dbdbdb;}.cls-11,.cls-12,.cls-20,.cls-24,.cls-26,.cls-31,.cls-32,.cls-34,.cls-36,.cls-5{fill:none;}.cls-10,.cls-12,.cls-18,.cls-29,.cls-30,.cls-31,.cls-32,.cls-33,.cls-34,.cls-35,.cls-36,.cls-5,.cls-6{stroke:#071235;}.cls-10,.cls-11,.cls-12,.cls-18,.cls-20,.cls-25,.cls-26,.cls-29,.cls-30,.cls-31,.cls-32,.cls-33,.cls-34,.cls-35,.cls-36,.cls-5,.cls-6{stroke-linecap:round;}.cls-10,.cls-11,.cls-12,.cls-18,.cls-20,.cls-22,.cls-24,.cls-25,.cls-26,.cls-29,.cls-30,.cls-31,.cls-32,.cls-33,.cls-34,.cls-35,.cls-36,.cls-5,.cls-6{stroke-miterlimit:10;}.cls-5{stroke-width:0.61px;}.cls-6{fill:#5b5b5b;}.cls-11,.cls-12,.cls-6{stroke-width:0.54px;}.cls-10,.cls-18,.cls-25,.cls-7{fill:#282828;}.cls-8{fill:#ffeb97;}.cls-9{fill:#ffd4d2;}.cls-10{stroke-width:0.54px;}.cls-11,.cls-20,.cls-25,.cls-26{stroke:#000;}.cls-13{fill:#071235;}.cls-14{fill:#f28f8f;}.cls-15{opacity:0.06;}.cls-16{fill:#ef3f65;}.cls-17{opacity:0.2;}.cls-18,.cls-30,.cls-31,.cls-33,.cls-35{stroke-width:0.55px;}.cls-19,.cls-22,.cls-29{fill:#ffd6d4;}.cls-20,.cls-25{stroke-width:0.53px;}.cls-21{fill:#0f0101;}.cls-22,.cls-24{stroke:#f28f8f;}.cls-23{fill:#e8e8e8;}.cls-26{stroke-width:0.51px;}.cls-27{fill:#1d0223;}.cls-28{fill:#c648e0;}.cls-29,.cls-34{stroke-width:0.71px;}.cls-30{fill:#c98cd2;}.cls-32{stroke-width:0.75px;}.cls-35{fill:#3d3d3d;}.cls-36{stroke-width:0.48px;}.cls-37{fill:#6a227c;}.cls-38{fill:#ffc7c7;}.cls-39{fill:#531460;}</style>
	</defs>
	<g id="Layer_2" data-name="Layer 2">
		<g id="Layer_1-2" data-name="Layer 1">
			<path class="cls-1" d="M678.52,415.92s282-88.25,327.81-48.84S956.18,461,830.28,456.2,678.52,415.92,678.52,415.92Z" />
			<path class="cls-1" d="M677.76,415.82l0,0c-.23.36-.07.67.37.71,1.45.11,146.23,10.62,233.49-6.74a1.27,1.27,0,0,0,1-.8c.06-.34-.29-.54-.78-.45-86.93,17.3-231.42,6.8-232.87,6.7A1.44,1.44,0,0,0,677.76,415.82Z" />
			<path class="cls-2" d="M743.92,396.81a.89.89,0,0,1-.41-.72.87.87,0,0,1,.85-.89c.37,0,37.06-1,78.09-19.25,37.82-16.82,87.2-52.16,107.62-125a.87.87,0,0,1,1.67.47c-9.1,32.47-24.61,60.33-46.11,82.8-17.2,18-38.23,32.57-62.53,43.36-41.35,18.37-78.33,19.37-78.7,19.38A1,1,0,0,1,743.92,396.81Z" />
			<path class="cls-2" d="M814.41,379.79c5.3-2.3,33.53-12.88,52.46,13.28C866.87,393.07,838.23,411.79,814.41,379.79Z" />
			<path class="cls-2" d="M824.39,323.66c2.55,5.9,14.3,37.24-14.75,58.26C809.64,381.92,788.85,350.12,824.39,323.66Z" />
			<path class="cls-2" d="M760.86,394.23c5.58-.62,34.82-2.36,44.91,27.35C805.77,421.58,773.82,430.77,760.86,394.23Z" />
			<path class="cls-2" d="M786.19,345c.69,6.2,2.62,38.67-30.37,49.88C755.82,394.85,745.62,359.36,786.19,345Z" />
			<path class="cls-2" d="M857.32,357.39c4.75-3.08,30.28-17.88,52.82,4.29C910.14,361.68,885.53,384.42,857.32,357.39Z" />
			<path class="cls-2" d="M895.37,322.44c2.89-4.36,19.1-26.26,46.32-15.73C941.69,306.71,929.18,335,895.37,322.44Z" />
			<path class="cls-2" d="M916.62,288.12c2.74-4.45,18.18-26.9,45.75-17.33C962.37,270.79,950.85,299.49,916.62,288.12Z" />
			<path class="cls-2" d="M930.44,253.37c-1.36-3.55-7.5-22.37,10.2-34.06C940.64,219.31,952.12,238.63,930.44,253.37Z" />
			<path class="cls-2" d="M922.71,274.39c-3.16-2.49-19-16.29-9.21-36.55C913.5,237.84,934.44,249.2,922.71,274.39Z" />
			<path class="cls-2" d="M899.67,316.89c-3.32-3.61-19.67-23.29-4-45.77C895.7,271.12,918.69,288.87,899.67,316.89Z" />
			<path class="cls-2" d="M858.83,355.79c-2.71-4.91-15.54-31.17,7.94-51.88C866.77,303.91,887.51,329.81,858.83,355.79Z" />
			<path class="cls-1" d="M680.56,408.92s208.76-64.21,150.08-191.84S780.9,312.36,680.56,408.92Z" />
			<path class="cls-3" d="M680.7,409.15c4.34-2.67,8.52-5.57,12.65-8.53s8.17-6.05,12.15-9.23q11.91-9.51,23-20.06t21-22.07c1.64-1.94,3.34-3.84,4.94-5.82l4.79-5.93c3.08-4.05,6.19-8.07,9.06-12.27a253.11,253.11,0,0,0,16.08-25.92L786.2,296l1.7-3.42c1.11-2.29,2.3-4.54,3.34-6.86l3.09-7,.77-1.74.69-1.78,1.38-3.56c1.94-4.7,3.41-9.58,5.05-14.4.73-2.44,1.38-4.9,2.07-7.35l1-3.67.83-3.73,1.66-7.45,1.26-7.53c.2-1.25.43-2.51.61-3.76l.43-3.8.84-7.59a.41.41,0,0,0-.82-.09h0v0l-.83,7.56-.41,3.78c-.19,1.25-.41,2.5-.61,3.75l-1.25,7.5-1.64,7.43-.83,3.71-1,3.66c-.69,2.44-1.33,4.9-2.06,7.33-1.63,4.8-3.08,9.66-5,14.35l-1.37,3.55-.68,1.78-.77,1.74-3.06,7c-1,2.31-2.23,4.56-3.33,6.84l-1.69,3.41L783.75,299a251.66,251.66,0,0,1-16,25.86c-2.86,4.2-6,8.21-9,12.26L753.94,343c-1.59,2-3.28,3.87-4.92,5.8q-10,11.51-21,22.05T705.15,391q-6,4.77-12.12,9.23c-4.11,3-8.29,5.86-12.6,8.52h0a.26.26,0,0,0-.08.36A.27.27,0,0,0,680.7,409.15Z" />
			<path class="cls-3" d="M737.74,361.05a.38.38,0,0,0,0,.15.41.41,0,0,0,.47.33c.24,0,23.66-4.41,36.32-12.67a.41.41,0,1,0-.45-.68c-12.52,8.17-35.78,12.5-36,12.55A.4.4,0,0,0,737.74,361.05Z" />
			<path class="cls-3" d="M775.44,314.14a.37.37,0,0,0,0,.18.41.41,0,0,0,.5.29c1.08-.27,26.62-6.89,36.09-14.24a.42.42,0,0,0,.08-.58.41.41,0,0,0-.58-.07c-9.33,7.25-35.53,14-35.8,14.1A.41.41,0,0,0,775.44,314.14Z" />
			<path class="cls-3" d="M801.29,257.15a.34.34,0,0,0,0,.24.41.41,0,0,0,.54.21c.82-.37,20.19-9.22,23.92-21a.41.41,0,0,0-.27-.51.4.4,0,0,0-.51.27c-3.62,11.46-23.28,20.43-23.48,20.52A.41.41,0,0,0,801.29,257.15Z" />
			<path class="cls-3" d="M799.25,230.13c-2.4,12.93.24,33.71.27,33.94a.4.4,0,0,0,.45.35.41.41,0,0,0,.36-.46c0-.25-3.19-25.07.55-37.1a.41.41,0,0,0-.27-.51.4.4,0,0,0-.51.27A29.59,29.59,0,0,0,799.25,230.13Z" />
			<path class="cls-3" d="M770.52,280.42a.28.28,0,0,0,0,.09c.23,9.68,8.11,25.48,8.44,26.14a.41.41,0,1,0,.73-.36c-.08-.16-8.13-16.3-8.35-25.8a.41.41,0,0,0-.42-.4A.41.41,0,0,0,770.52,280.42Z" />
			<path class="cls-3" d="M743.2,355a.4.4,0,0,0,.24.45.43.43,0,0,0,.54-.22c.07-.17,7-17.24,6.49-29.49a.41.41,0,0,0-.82,0c.51,12.08-6.36,29-6.43,29.15A.19.19,0,0,0,743.2,355Z" />
			<path class="cls-3" d="M713,383.41a.42.42,0,0,0,.21.44.41.41,0,0,0,.55-.17c.37-.71,9.08-17.28,10.44-24.64a.39.39,0,0,0-.32-.47.4.4,0,0,0-.48.33c-1.34,7.23-10.27,24.22-10.36,24.39A.28.28,0,0,0,713,383.41Z" />
			<path class="cls-3" d="M703.11,392.77s0,.05,0,.08a.41.41,0,0,0,.43.4c.48,0,11.9-.38,15.06-2.12a.4.4,0,0,0,.16-.55.41.41,0,0,0-.55-.17c-3,1.65-14.58,2-14.7,2A.42.42,0,0,0,703.11,392.77Z" />
			<path class="cls-4" d="M908.57,224.88s-20.26-36.35-10-44,23.37,4,21.26,21.61S908.57,224.88,908.57,224.88Z" />
			<path class="cls-4" d="M692.87,257.25s-3.36,42.24,7.58,37.12,17.31-24.95,9.37-34S692.87,257.25,692.87,257.25Z" />
			<path class="cls-4" d="M664.12,32.85l-69.6,197.2a1,1,0,1,1-1.88-.66h0L663.25,32.54a.46.46,0,0,1,.59-.27A.45.45,0,0,1,664.12,32.85Z" />
			<path class="cls-4" d="M624.76,140.49s-23.57-24.64-10-33.61S624.76,140.49,624.76,140.49Z" />
			<path class="cls-4" d="M616,168.73s-30.33-18.83-19-31.46S616,168.73,616,168.73Z" />
			<path class="cls-4" d="M604.27,202s-39.91-24.79-24.95-41.41S604.27,202,604.27,202Z" />
			<path class="cls-4" d="M634.61,115.32s-18.33-23.57-5.75-30.18S634.61,115.32,634.61,115.32Z" />
			<path class="cls-4" d="M645.27,85.37S630.45,66.31,640.62,61,645.27,85.37,645.27,85.37Z" />
			<path class="cls-4" d="M625.15,140.3s33.84-4.21,29-19.71S625.15,140.3,625.15,140.3Z" />
			<path class="cls-4" d="M615.49,167.25s35.41,4.56,34.58-12.41S615.49,167.25,615.49,167.25Z" />
			<path class="cls-4" d="M603.6,200.41s46.6,6,45.5-16.34S603.6,200.41,603.6,200.41Z" />
			<path class="cls-4" d="M634.8,114.09s29.1-6.7,23.52-19.77S634.8,114.09,634.8,114.09Z" />
			<path class="cls-4" d="M645.46,84.14s23.52-5.42,19-16S645.46,84.14,645.46,84.14Z" />
			<path class="cls-4" d="M653.28,61.61s-12-15.5-3.78-19.84S653.28,61.61,653.28,61.61Z" />
			<path class="cls-4" d="M663.52,35.56s-12-15.5-3.78-19.84S663.52,35.56,663.52,35.56Z" />
			<path class="cls-4" d="M662.81,35.15s13.17-3,10.65-8.95S662.81,35.15,662.81,35.15Z" />
			<path class="cls-4" d="M653.54,61.21s19.13-4.4,15.46-13S653.54,61.21,653.54,61.21Z" />
			<path class="cls-2" d="M535.49,370.31S616.16,30.74,825.79,111,679,200.27,535.49,370.31Z" />
			<path class="cls-3" d="M535.12,370.12c3.81-7.2,8-14.16,12.28-21.06s8.8-13.66,13.45-20.33q13.93-20,29.61-38.7t33-35.86c2.92-2.82,5.77-5.72,8.75-8.47l9-8.26c6.14-5.33,12.23-10.71,18.62-15.73a403.42,403.42,0,0,1,39.66-28.33l5.14-3.28,5.27-3.06c3.54-2,7-4.14,10.59-6l10.81-5.64,2.7-1.41,2.77-1.28,5.53-2.58c7.3-3.59,14.93-6.43,22.44-9.55,3.81-1.42,7.66-2.71,11.49-4.07l5.76-2,5.85-1.71,11.71-3.42,11.88-2.79c2-.46,4-1,5.94-1.38l6-1.06,12-2.13a.65.65,0,1,1,.23,1.28h0l-12,2.11-6,1.05c-2,.43-4,.91-5.92,1.37l-11.83,2.76-11.68,3.39-5.83,1.71-5.74,2c-3.82,1.35-7.66,2.63-11.46,4-7.48,3.1-15.09,5.92-22.37,9.49l-5.52,2.56L734.5,175l-2.7,1.4L721,182c-3.58,1.9-7,4-10.57,6l-5.26,3.05-5.13,3.25a402.61,402.61,0,0,0-39.59,28.22c-6.38,5-12.47,10.36-18.59,15.67l-9,8.23c-3,2.74-5.83,5.63-8.75,8.44q-17.31,17.1-33,35.76t-29.61,38.59c-4.64,6.65-9.14,13.4-13.44,20.28s-8.49,13.84-12.28,21h0a.42.42,0,0,1-.57.18A.42.42,0,0,1,535.12,370.12Z" />
			<path class="cls-3" d="M605.87,274.16a.59.59,0,0,1-.23,0,.65.65,0,0,1-.58-.72c.05-.38,4.57-38.19,16.43-59.23a.65.65,0,0,1,1.14.64c-11.74,20.82-16.22,58.36-16.27,58.74A.65.65,0,0,1,605.87,274.16Z" />
			<path class="cls-3" d="M676.75,209.15a.65.65,0,0,1-.8-.75c.33-1.76,8.22-43.18,19-59.05a.67.67,0,0,1,.91-.17.66.66,0,0,1,.18.91c-10.59,15.64-18.69,58.12-18.77,58.55A.63.63,0,0,1,676.75,209.15Z" />
			<path class="cls-3" d="M765,162a.74.74,0,0,1-.39,0,.67.67,0,0,1-.39-.85c.51-1.35,12.6-33.15,31-40.32a.65.65,0,0,1,.85.37.66.66,0,0,1-.37.85c-17.9,7-30.17,39.24-30.29,39.56A.66.66,0,0,1,765,162Z" />
			<path class="cls-3" d="M808.24,162.45c-20.36,5.17-53.77,3.13-54.14,3.11a.67.67,0,0,1-.61-.7.66.66,0,0,1,.69-.61c.4,0,40.32,2.47,59.11-4.74a.67.67,0,0,1,.85.38.65.65,0,0,1-.38.84A48.56,48.56,0,0,1,808.24,162.45Z" />
			<path class="cls-3" d="M731,213.5l-.14,0c-15.47.64-41.47-10.28-42.57-10.74a.66.66,0,1,1,.51-1.21c.27.11,26.83,11.27,42,10.64a.66.66,0,0,1,.19,1.29Z" />
			<path class="cls-3" d="M615,264.82a.65.65,0,0,1-.44-1.22c.26-.13,26.76-13,46.34-13.42a.65.65,0,0,1,0,1.3c-19.31.46-45.55,13.16-45.81,13.29Z" />
			<path class="cls-3" d="M572.8,316a.65.65,0,0,1-.72-.29.66.66,0,0,1,.21-.9c1.09-.66,26.62-16.27,38.2-19.21a.65.65,0,1,1,.32,1.26c-11.39,2.9-37.57,18.91-37.83,19.07A.67.67,0,0,1,572.8,316Z" />
			<path class="cls-3" d="M558.91,332.68l-.14,0a.67.67,0,0,1-.68-.64c0-.77-.63-19,1.81-24.24a.67.67,0,0,1,.87-.31.65.65,0,0,1,.32.87c-2.31,4.94-1.7,23.45-1.69,23.64A.67.67,0,0,1,558.91,332.68Z" />
			<path class="cls-4" d="M710.87,50.45s28.74-7.24,27.66-16.3S725.06,24,717,33.68,710.87,50.45,710.87,50.45Z" />
			<path class="cls-4" d="M741.66,352.52c-15.92,36.45-11.32,62.71-8.35,88.09,2.66,22.59,14.45,35.07,22.9,41.24,6.67,4.87,13.2,9.91,19.48,15.26.41-4.81.63-9.4.63-9.4,3.22,4.64,5.24,10.9,6.38,15.46,17.69,15,43.44,32.81,51.2,17.19A50.19,50.19,0,0,0,839,505.51L824,498.45l14.94-.08c-4-18.66-38.94-13.29-50.44-22.52-4.27-3.42,15.24-4.13,28.88-4.46l-15-16.36c9.38,2.16,22.22,9.89,26.9,14.19,27-.54,54-.27,61.6-13.2-6.59-4.73-18-13.44-26.85-12.16,0,0,13.71-8.31,26.37,1.16-19.13-33.28-52.57-55.62-95.44-29.9-47,28.19-23.59,7.67-22.58-28.55S757.57,316.08,741.66,352.52Z" />
			<path class="cls-1" d="M399.63,274.31s-44.5-232.13-117-254.38-87,63.84-13.54,154.76S399.63,274.31,399.63,274.31Z" />
			<path class="cls-3" d="M400.15,274.84l0,0a.74.74,0,0,1-1.05-.07c-.92-1-91.58-104.12-117.44-173.09a.74.74,0,1,1,1.39-.52c25.77,68.71,116.25,171.6,117.16,172.63A.73.73,0,0,1,400.15,274.84Z" />
			<path class="cls-1" d="M338.26,302.34S79.4,159.94,26.64,189.48,57.18,291.42,181.53,311.72,338.26,302.34,338.26,302.34Z" />
			<path class="cls-1" d="M339,302.39l0,0c.16.4-.07.67-.5.62-1.44-.18-145.43-18.58-227.52-52.89a1.25,1.25,0,0,1-.82-1c0-.35.39-.48.85-.29,81.78,34.19,225.49,52.55,226.93,52.73A1.44,1.44,0,0,1,339,302.39Z" />
			<path class="cls-2" d="M272.44,354.64a.87.87,0,0,1-1.6.48c-.2-.3-20.57-30.84-57.85-55.87-34.36-23.08-90.55-46.08-163.11-24.6a.87.87,0,0,1-.5-1.67c32.34-9.57,64.18-11.26,94.65-5,24.37,5,47.92,15,70,29.87,37.55,25.23,58.08,56,58.28,56.32A.87.87,0,0,1,272.44,354.64Z" />
			<path class="cls-2" d="M220.52,304c-4.77-3.26-28.74-21.53-16.67-51.48C203.85,252.53,234.94,266.81,220.52,304Z" />
			<path class="cls-2" d="M167.69,325.42c3.63-5.29,23.92-31.91,57.18-18.51C224.87,306.91,209,341.44,167.69,325.42Z" />
			<path class="cls-2" d="M261.24,341.67c-3.49-4.4-20.52-28.23-.74-52.58C260.5,289.09,285.28,311.25,261.24,341.67Z" />
			<path class="cls-2" d="M206.05,346.43c4.89-3.88,31.35-22.79,58.4-.82C264.45,345.61,239.83,373.13,206.05,346.43Z" />
			<path class="cls-2" d="M178.72,279.6c-5.13-2.38-31.25-16.13-24.46-47C154.26,232.6,186.6,241.33,178.72,279.6Z" />
			<path class="cls-2" d="M128.89,266c-5.23-.13-32.4-2.2-38-30.85C90.92,235.13,121.52,230.67,128.89,266Z" />
			<path class="cls-2" d="M88.52,266.25c-5.23,0-32.45-1.08-39-29.52C49.51,236.73,79.94,231.22,88.52,266.25Z" />
			<path class="cls-2" d="M51.74,273c-2.28,3-15,18.25-34.26,9.49C17.48,282.53,27.73,262.52,51.74,273Z" />
			<path class="cls-2" d="M73.66,268.4c-.43,4-3.7,24.74-26,27.25C47.61,295.65,46.08,271.87,73.66,268.4Z" />
			<path class="cls-2" d="M121.9,265.29c-1.29,4.73-9.26,29-36.64,27.72C85.26,293,88.05,264.1,121.9,265.29Z" />
			<path class="cls-2" d="M176.56,279.17c-2.71,4.91-18.11,29.75-48.14,20.88C128.42,300.05,139.31,268.71,176.56,279.17Z" />
			<path class="cls-4" d="M352.77,44.39l56,201.49a1,1,0,0,1-.7,1.23,1,1,0,0,1-1.23-.69h0L351.88,44.64a.46.46,0,0,1,.89-.25Z" />
			<path class="cls-4" d="M382.2,155.16s-33.43-6.69-27.49-21.79S382.2,155.16,382.2,155.16Z" />
			<path class="cls-4" d="M391.21,183.32s-35.66,2-33.57-14.92S391.21,183.32,391.21,183.32Z" />
			<path class="cls-4" d="M400.63,217.26s-46.92,2.56-44.18-19.63S400.63,217.26,400.63,217.26Z" />
			<path class="cls-4" d="M375.85,128.89s-28.53-8.82-22-21.44S375.85,128.89,375.85,128.89Z" />
			<path class="cls-4" d="M367.42,98.23s-23.06-7.12-17.79-17.33S367.42,98.23,367.42,98.23Z" />
			<path class="cls-4" d="M382.42,154.78S407.73,131.94,394.9,122,382.42,154.78,382.42,154.78Z" />
			<path class="cls-4" d="M389.94,182.4s31.64-16.56,21.22-30S389.94,182.4,389.94,182.4Z" />
			<path class="cls-4" d="M399.2,216.39s41.63-21.8,27.92-39.47S399.2,216.39,399.2,216.39Z" />
			<path class="cls-4" d="M375.3,127.77s20-22.17,7.95-29.68S375.3,127.77,375.3,127.77Z" />
			<path class="cls-4" d="M366.87,97.12s16.17-17.92,6.42-24S366.87,97.12,366.87,97.12Z" />
			<path class="cls-4" d="M360.36,74.17s-18.75-5.79-14.46-14.09S360.36,74.17,360.36,74.17Z" />
			<path class="cls-4" d="M353.83,47s-18.76-5.8-14.47-14.1S353.83,47,353.83,47Z" />
			<path class="cls-4" d="M353,47s9.05-10,3.59-13.43S353,47,353,47Z" />
			<path class="cls-4" d="M360.35,73.7s13.16-14.57,5.23-19.51S360.35,73.7,360.35,73.7Z" />
			<path class="cls-2" d="M440.75,394.65S312.26,70.14,530.07,15.82,460.94,173.05,440.75,394.65Z" />
			<path class="cls-3" d="M440.34,394.71c-1-8.08-1.58-16.18-2-24.3s-.62-16.24-.63-24.36q0-24.37,2.09-48.69t6.49-48.29c.78-4,1.45-8,2.32-12l2.62-11.9c2-7.89,3.88-15.79,6.24-23.57a406,406,0,0,1,16.26-45.94l2.34-5.63,2.57-5.53c1.75-3.67,3.37-7.4,5.21-11l5.62-10.82,1.41-2.71,1.53-2.64,3.06-5.27c3.93-7.13,8.55-13.83,12.91-20.69,2.31-3.35,4.73-6.61,7.09-9.92l3.56-5,3.82-4.76,7.64-9.51,8.13-9.09c1.36-1.51,2.7-3,4.08-4.53L547,44.29l8.62-8.63a.65.65,0,1,1,.93.92h0l0,0-8.6,8.59-4.3,4.29c-1.38,1.48-2.71,3-4.07,4.51l-8.11,9-7.62,9.47L520,77.25l-3.55,4.93c-2.36,3.3-4.77,6.55-7.08,9.88-4.36,6.83-9,13.51-12.89,20.61l-3.06,5.25-1.52,2.63-1.41,2.69L484.88,134c-1.84,3.61-3.46,7.33-5.21,11l-2.57,5.51-2.33,5.61a400.8,400.8,0,0,0-16.28,45.81c-2.36,7.75-4.28,15.63-6.25,23.5l-2.63,11.87c-.87,4-1.55,8-2.33,11.94q-4.38,23.92-6.54,48.2c-1.44,16.15-2.15,32.38-2.14,48.6,0,8.11.18,16.22.6,24.32s1,16.2,2,24.23h0a.43.43,0,0,1-.37.47A.42.42,0,0,1,440.34,394.71Z" />
			<path class="cls-3" d="M443.33,275.52a.7.7,0,0,1-.19.15.65.65,0,0,1-.88-.27c-.18-.33-18.15-33.9-20.49-57.94a.67.67,0,0,1,.59-.72.65.65,0,0,1,.71.59c2.32,23.78,20.16,57.12,20.34,57.45A.66.66,0,0,1,443.33,275.52Z" />
			<path class="cls-3" d="M464.16,181.63a.66.66,0,0,1-.23.17.65.65,0,0,1-.86-.33c-.74-1.63-18-40.09-18.3-59.25a.66.66,0,1,1,1.31,0c.28,18.88,18,58.34,18.18,58.74A.64.64,0,0,1,464.16,181.63Z" />
			<path class="cls-3" d="M509.42,92.45a.7.7,0,0,1-.34.21.65.65,0,0,1-.79-.47c-.36-1.4-8.68-34.39,2.32-50.84a.65.65,0,0,1,.91-.17.65.65,0,0,1,.18.9c-10.68,16-2.23,49.45-2.15,49.78A.64.64,0,0,1,509.42,92.45Z" />
			<path class="cls-3" d="M545.15,68c-13.72,15.91-42.27,33.38-42.59,33.58a.66.66,0,1,1-.68-1.12c.34-.21,34.45-21.08,45.72-37.76a.65.65,0,0,1,.91-.17.65.65,0,0,1,.18.9A50.5,50.5,0,0,1,545.15,68Z" />
			<path class="cls-3" d="M511.13,154.08a.38.38,0,0,1-.09.09c-12.32,9.39-39.88,15.35-41.05,15.6a.64.64,0,0,1-.77-.5.65.65,0,0,1,.5-.78c.28-.06,28.44-6.14,40.52-15.35a.65.65,0,0,1,.89.94Z" />
			<path class="cls-3" d="M445.49,262.61a.65.65,0,0,1-1.07-.74c.15-.26,14.5-26,30.29-37.56a.67.67,0,0,1,.92.14.65.65,0,0,1-.14.91c-15.57,11.44-29.78,36.89-29.92,37.14A1,1,0,0,1,445.49,262.61Z" />
			<path class="cls-3" d="M440.17,328.73a.64.64,0,0,1-.75.17.65.65,0,0,1-.34-.86c.5-1.16,12.48-28.58,20.28-37.63a.65.65,0,1,1,1,.85c-7.67,8.9-20,37-20.07,37.3A1,1,0,0,1,440.17,328.73Z" />
			<path class="cls-3" d="M438.37,350.39l-.1.1a.65.65,0,0,1-.91-.13c-.47-.62-11.42-15.22-12.41-20.9a.65.65,0,1,1,1.28-.23c.94,5.37,12.06,20.19,12.17,20.34A.65.65,0,0,1,438.37,350.39Z" />
			<path class="cls-2" d="M316.41,401.84S151,259.25,74.13,376.85,181.26,368.27,316.41,401.84Z" />
			<path class="cls-3" d="M316.53,401.6c-4.58-2.25-9.25-4.25-14-6.17s-9.47-3.7-14.27-5.38q-14.4-5-29.21-8.76t-29.88-6.08c-2.52-.35-5-.78-7.55-1.08l-7.57-.9c-5.07-.45-10.13-.94-15.21-1.15a254.4,254.4,0,0,0-30.5.18l-3.81.23-3.8.38c-2.52.28-5.06.47-7.58.82l-7.55,1.1-1.89.28-1.87.36-3.75.72c-5,.86-9.93,2.22-14.88,3.39-2.45.68-4.88,1.44-7.32,2.15l-3.66,1.09-3.6,1.28-7.19,2.56-7,2.94c-1.18.5-2.36,1-3.52,1.48l-3.44,1.67L80.61,396a.41.41,0,0,0-.19.55.42.42,0,0,0,.55.19h0l6.84-3.32,3.42-1.66c1.16-.51,2.33-1,3.5-1.48l7-2.94,7.16-2.56,3.58-1.28,3.64-1.09c2.43-.71,4.85-1.47,7.3-2.15,4.93-1.18,9.82-2.53,14.82-3.4l3.74-.72,1.86-.36,1.88-.28,7.53-1.11c2.51-.35,5-.54,7.56-.82l3.79-.39,3.79-.23a251,251,0,0,1,30.42-.22c5.07.2,10.13.68,15.18,1.13l7.56.89c2.52.29,5,.72,7.53,1.07q15,2.32,29.84,6t29.17,8.71c4.79,1.67,9.55,3.44,14.25,5.35s9.37,3.91,13.92,6.14h0a.26.26,0,1,0,.24-.47Z" />
			<path class="cls-3" d="M245.46,378.9l.12-.08a.41.41,0,0,0,0-.58c-.17-.18-16.32-17.69-30.05-24a.41.41,0,0,0-.55.2.42.42,0,0,0,.2.54c13.59,6.25,29.63,23.64,29.79,23.81A.42.42,0,0,0,245.46,378.9Z" />
			<path class="cls-3" d="M185.68,371.93a.33.33,0,0,0,.14-.1.4.4,0,0,0,0-.57c-.81-.77-20-18.88-31.27-23a.41.41,0,0,0-.53.24.4.4,0,0,0,.25.52c11.1,4,30.79,22.62,31,22.81A.42.42,0,0,0,185.68,371.93Z" />
			<path class="cls-3" d="M123.67,380.38a.41.41,0,0,0,.19-.16.41.41,0,0,0-.12-.56c-.75-.5-18.54-12.2-30.52-9.07a.42.42,0,0,0-.3.5.41.41,0,0,0,.5.29c11.63-3,29.69,8.84,29.87,9A.47.47,0,0,0,123.67,380.38Z" />
			<path class="cls-3" d="M101.88,396.48c12.22-4.84,28.41-18.14,28.59-18.28a.41.41,0,0,0,.05-.58.4.4,0,0,0-.57-.05c-.19.16-19.54,16-31.71,19.27a.41.41,0,0,0,.21.79A31.41,31.41,0,0,0,101.88,396.48Z" />
			<path class="cls-3" d="M159.75,394.05l.07,0c8.08-5.35,17.26-20.42,17.65-21.06a.41.41,0,0,0-.14-.56.4.4,0,0,0-.56.13c-.1.16-9.47,15.56-17.4,20.81a.39.39,0,0,0-.11.56A.4.4,0,0,0,159.75,394.05Z" />
			<path class="cls-3" d="M237.38,377.53a.4.4,0,0,0,.25-.45.41.41,0,0,0-.47-.34c-.18,0-18.32,3.25-28.42,10.2a.39.39,0,0,0-.11.56.41.41,0,0,0,.57.11c10-6.85,27.92-10,28.1-10.06Z" />
			<path class="cls-3" d="M277.56,388a.41.41,0,0,0-.19-.79c-.79.06-19.46,1.51-26.41,4.26a.41.41,0,0,0-.23.53.41.41,0,0,0,.53.23c6.84-2.71,26-4.19,26.18-4.2Z" />
			<path class="cls-3" d="M290.73,391.34l.08,0a.41.41,0,0,0,.11-.57c-.27-.4-6.65-9.87-9.81-11.62a.4.4,0,0,0-.55.15.42.42,0,0,0,.15.56c3,1.66,9.47,11.27,9.53,11.37A.41.41,0,0,0,290.73,391.34Z" />
			<path class="cls-2" d="M326.79,341.92S345.41,139,222.05,156.47,282.47,226.55,326.79,341.92Z" />
			<path class="cls-3" d="M327,341.87c-.69-4.59-1.62-9.09-2.63-13.56S322.25,319.4,321,315q-3.67-13.17-8.5-25.85t-10.76-24.69c-1-2-2-4-3-6l-3.2-5.86c-2.24-3.84-4.45-7.7-6.88-11.39a202.87,202.87,0,0,0-15.57-21.33L271,217.39l-2.2-2.44c-1.48-1.61-2.9-3.28-4.42-4.84l-4.62-4.63-1.15-1.16-1.21-1.1L255,201c-3.16-3-6.62-5.63-10-8.4-1.73-1.31-3.5-2.56-5.25-3.84l-2.64-1.91-2.73-1.75-5.49-3.49-5.68-3.17c-.94-.52-1.88-1.06-2.84-1.57l-2.93-1.41-5.87-2.8a.37.37,0,0,0-.49.19.36.36,0,0,0,.14.5h0l5.85,2.79,2.92,1.4c.95.5,1.89,1,2.84,1.56l5.66,3.14,5.47,3.48,2.73,1.74,2.62,1.9c1.75,1.27,3.52,2.51,5.24,3.82,3.34,2.75,6.8,5.36,9.95,8.36l2.41,2.18,1.21,1.09,1.15,1.15,4.61,4.62c1.52,1.55,2.94,3.21,4.42,4.81l2.19,2.43,2.09,2.53a201,201,0,0,1,15.56,21.24c2.42,3.68,4.63,7.53,6.87,11.35l3.19,5.85c1.07,1.95,2,4,3.05,5.95q6,12,10.77,24.63t8.52,25.79c1.23,4.39,2.37,8.81,3.37,13.27s1.95,9,2.65,13.51h0a.2.2,0,0,0,.26.17A.26.26,0,0,0,327,341.87Z" />
			<path class="cls-3" d="M307.34,278.12a.25.25,0,0,0,.12,0,.41.41,0,0,0,.43-.33c0-.22,4.44-22.22,2-35.71a.32.32,0,0,0-.42-.25.43.43,0,0,0-.29.47c2.39,13.34-2,35.18-2,35.4A.36.36,0,0,0,307.34,278.12Z" />
			<path class="cls-3" d="M282.07,231.88a.23.23,0,0,0,.14,0,.41.41,0,0,0,.41-.36c.14-1,3.43-25.53.67-35.94a.32.32,0,0,0-.44-.22.42.42,0,0,0-.25.49c2.72,10.26-.66,35.38-.69,35.64A.35.35,0,0,0,282.07,231.88Z" />
			<path class="cls-3" d="M244.6,193.43a.3.3,0,0,0,.21,0,.41.41,0,0,0,.35-.42c0-.83-.63-20.44-8.95-27a.36.36,0,0,0-.51.1.37.37,0,0,0,.05.52c8.07,6.33,8.69,26.23,8.69,26.43A.33.33,0,0,0,244.6,193.43Z" />
			<path class="cls-3" d="M222,187.91c9.66,5.64,27.41,8.94,27.6,9a.4.4,0,0,0,.44-.31.34.34,0,0,0-.25-.44c-.21,0-21.41-4-29.9-10.57a.35.35,0,0,0-.5.1.39.39,0,0,0,0,.53A23.88,23.88,0,0,0,222,187.91Z" />
			<path class="cls-3" d="M253.06,227.09l.06,0c7.94,2.43,23.41-.28,24.06-.39a.43.43,0,0,0,.34-.44.33.33,0,0,0-.39-.31c-.15,0-16,2.79-23.75.41a.39.39,0,0,0-.46.27A.35.35,0,0,0,253.06,227.09Z" />
			<path class="cls-3" d="M304.24,271.62a.37.37,0,0,0,.45-.1.4.4,0,0,0,0-.54c-.12-.1-11.61-10.9-21.72-13.78a.4.4,0,0,0-.46.28.34.34,0,0,0,.21.46c10,2.83,21.34,13.52,21.46,13.63Z" />
			<path class="cls-3" d="M317.09,306.19a.35.35,0,0,0,.42-.07.39.39,0,0,0,.05-.54c-.44-.52-10.94-12.76-16.44-16a.37.37,0,0,0-.49.16.36.36,0,0,0,.1.51c5.41,3.16,16.17,15.71,16.28,15.84A.27.27,0,0,0,317.09,306.19Z" />
			<path class="cls-3" d="M321.33,317.5a.15.15,0,0,0,.07,0,.38.38,0,0,0,.46-.26c.15-.44,3.72-10.68,3.38-14a.32.32,0,0,0-.39-.3.43.43,0,0,0-.32.45c.32,3.11-3.3,13.5-3.34,13.61A.35.35,0,0,0,321.33,317.5Z" />
			<path class="cls-4" d="M365.9,331.68c9.21,38.7,0,63.73-7.4,88.18-6.61,21.76-20.42,31.95-29.84,36.53-7.42,3.6-14.75,7.41-21.87,11.57.45-4.81,1-9.37,1-9.37-4,4-7.08,9.8-9,14.09-20.07,11.64-48.56,24.59-53.44,7.84A50.14,50.14,0,0,1,243,465L259,460.72,244.36,458c7.26-17.65,40.67-6.18,53.62-13.22,4.81-2.62-14.26-6.77-27.62-9.51L288,421.82c-9.61.46-23.61,5.8-29,9.2-26.5-5.32-53.09-9.83-58.28-23.9,7.32-3.49,20.1-10,28.58-7.22,0,0-12-10.6-26.16-3.53C227.9,367,264.78,351,302.41,383.86c41.24,36.06,21.86,11.73,27.28-24.1S356.69,293,365.9,331.68Z" />
			<path class="cls-4" d="M39.26,306.71s-20,36.5-31.93,31.84-9.07-21.9,7-29.49S39.26,306.71,39.26,306.71Z" />
			<path class="cls-4" d="M401.17,32s19.4-22.4,13.32-29.21-16.86-.62-17.95,12S401.17,32,401.17,32Z" />
			<path class="cls-4" d="M181.44,472.12S219,452.49,208.84,446s-30.33-1.38-33.74,10.13S181.44,472.12,181.44,472.12Z" />
			<line class="cls-5" x1="165.6" y1="188.64" x2="163.45" y2="187.07" />
			<path class="cls-4" d="M882.13,495.24s14.09-7.65,12.32-12.25-8.42-3.53-11.37,2.64S882.13,495.24,882.13,495.24Z" />
			<path class="cls-6" d="M446.89,231.61c-.08.27-.17.54-.26.79h0c-1.56,4.44-3.9,6.66-6,7.77-1.92,7.13-17.29,12.73-30.5,16.3l.12-2.46-2.06-.6-.33,3.66c-9.47,2.45-17.29,3.76-17.29,3.76-.36-1-3.11-2.26-7.16-3.67v-3.78l-2.81-.63,0,3.44c-14.14-4.64-38.45-11.18-40.27-20.09a16.35,16.35,0,0,1-.31-1.81c-1.54-10.85,4.86-13.36,9.21-15.92a9,9,0,0,1,6.23-1.38.8.8,0,0,0,.58.42c.45,0,.18-.27-.58-.42-.89-1.31-1.24-5.43,3.06-9.05,3.48-2.93,14.81-4.66,21.9-5.48h0l.5.48c.72.7,1.41,1.35,2.06,1.95h0l0,0c.2.2.41.39.62.58.27,6.25-.33,17.13-4.93,21.12a39.12,39.12,0,0,1-8.19,5.49l.19.36c4.66,8.45,22.85,22.82,22.85,22.82a127.92,127.92,0,0,0,22.12-14.57c4.07-3.43,5.36-6.84,5.43-9.7,0-.22,0-.42,0-.63-3.14-1.05-6.85-2.67-9.29-5-3.16-2.91-4.34-14-4.66-20.84l.21-.2c1.28-1.23,2.66-2.59,4.06-4,.16-.16.33-.32.47-.49,7.32.72,20.25,2.66,23.37,7.46C444.78,210.55,449.66,222.75,446.89,231.61Z" />
			<path class="cls-7" d="M381.17,222.72a10.59,10.59,0,0,1-2.55,3.67,39.1,39.1,0,0,1-8.18,5.52,12.46,12.46,0,0,1-1.19-3.2,6.28,6.28,0,0,1,3.11-6.56C375,222.28,378.31,222.46,381.17,222.72Z" />
			<path class="cls-7" d="M421,230.19c-3.13-1.06-6.84-2.69-9.28-5a4.2,4.2,0,0,1-.52-.58,20.67,20.67,0,0,1,8.83,1.44A11.25,11.25,0,0,1,421,230.19Z" />
			<path class="cls-8" d="M457.3,487.41V470.5H326.38v16.91H276.53c4.69-151.61,36.44-240,38.69-242.48,2.66-3,17.62-8.6,24.75-10.83a16.68,16.68,0,0,0,.31,1.83c1.81,9,26.1,15.55,40.23,20.23h0l-1.73,87H377.5v10.07h5.85V343.16h-.8l.8-86c4,1.42,6.79,2.65,7.15,3.7,0,0,7.81-1.32,17.27-3.79l-2.15,53.26c-1.46,16.37-.86,35.1.13,51.67l-1.21.11.89,10,5.82-.5-.88-10-1.8.16-.51-10.49c-.44-10.67-.81-21.24-.23-31.93L410,256.44c13.2-3.6,28.55-9.24,30.48-16.42,2.11-1.11,4.44-3.35,6-7.82h0c5,1.68,16.72,6.57,22.58,10.16a12.93,12.93,0,0,1,3.07,2.35c2.23,2.72,22.79,91.29,26,242.7Z" />
			<path class="cls-9" d="M429,168.08h0c-.17,1.31-.24,2.14-.24,2.14l-.35-2-1.63-9.86c-.5-.9-1-1.79-1.36-2.67a26.8,26.8,0,0,1-6.28-5.62L419,150c-6.73.66-17.76,1.44-14-.94,2.16-1.36,5.67-1.54,9.07-1.28-.59-.34-1.15-.68-1.67-1a38.07,38.07,0,0,1-7.58-1.94,28.5,28.5,0,0,1-6.22-1.87c-.9-.21-2.7-.63-3-.68h0c-18.25-3.41-23.5-11.68-23.5-11.68-.59,6.78-9.27,15.92-12.66,19.27.15,2.14.34,4.85.59,7.82l.23,2.89a1.5,1.5,0,0,0,0,.2v.21l.12,1.37c.12,1.33.23,2.68.36,4s.25,2.68.37,4c.74,7.42,2.7,14.61,3.33,15.71,1.53,2.68,9.13,9.57,15.86,16.05h0c.18.16.33.33.5.49l2.05,2h0l0,0,.63.58a48.1,48.1,0,0,0,4.82,4.27c1.64.73,9,.59,11.27.82.75.08,3.68-2.43,7.39-6l.2-.21c1.29-1.24,2.66-2.6,4.07-4,.15-.17.31-.33.47-.49a132.51,132.51,0,0,0,13.58-16.4c1.7-2.68,3.44-8.24,4.3-15.17Zm-51.83-6.37a3.27,3.27,0,0,1-4.54-1.59,4.14,4.14,0,0,1-.28-3,.64.64,0,0,0,0-.07h0a.88.88,0,0,1,0-.15s0,0,0,0a15.54,15.54,0,0,1,2-.19h.48a16.39,16.39,0,0,1,3.7.44l0,.1.08.23h0A3.75,3.75,0,0,1,377.21,161.71Zm-14.3-11.35s13.11-4.77,18.68-1.82S362.91,150.36,362.91,150.36Zm52.19,10.49a3.08,3.08,0,0,1-4.4,1.29,3.71,3.71,0,0,1-1.19-4.46,15.85,15.85,0,0,1,3.4-.22,14.08,14.08,0,0,1,2.5.33l.09.34h0A4,4,0,0,1,415.1,160.85Z" />
			<path class="cls-10" d="M419,150c-6.73.66-17.76,1.44-14-.94,2.17-1.37,5.69-1.54,9.08-1.28A31.19,31.19,0,0,0,419,150Z" />
			<path class="cls-7" d="M437.8,155.66c-3.15-2-5.39-.37-6.88,1.12a1,1,0,0,0,0-.18l-.06.22,0,0c-.36,3.53-.81,7.45-1.27,11.15l-.61.14h0c-.16,1.32-.24,2.15-.24,2.15l-.34-2-1.64-9.86c-.5-.9-.95-1.8-1.36-2.67a27.44,27.44,0,0,1-6.28-5.62l-.07-.09H419a31.19,31.19,0,0,1-4.9-2.22c-.59-.34-1.15-.69-1.67-1a38.66,38.66,0,0,1-7.57-1.94,27.49,27.49,0,0,1-6.22-1.88c-.91-.2-2.7-.63-3-.67h0c-18.25-3.41-23.5-11.68-23.5-11.68-.6,6.78-9.26,15.91-12.66,19.27.15,2.14.35,4.85.58,7.81-1.22-1.57-3.12-2.91-6.32-1.56-2.23,1-2.62,3.19-1.71,5.66-9.32-9.06-12.33-27-5.6-42.5,3.52-8.1,16.69-13.73,16.69-13.73a29.89,29.89,0,0,1,27.4-12.92c18.6,1.56,36.48,9.32,47.39,26.5C446.4,132.5,440.69,149.07,437.8,155.66Z" />
			<path class="cls-11" d="M359.14,145s.12,1.86.32,4.77" />
			<path class="cls-11" d="M430.94,156.6v0h0c.67-6.45,1.12-11.53,1.12-11.53" />
			<path class="cls-9" d="M361.15,170.29a15.88,15.88,0,0,1-9.14-8.58c-.91-2.47-.52-4.7,1.71-5.66,3.2-1.35,5.1,0,6.32,1.56C360.36,161.63,360.74,166.12,361.15,170.29Z" />
			<path class="cls-9" d="M429.65,167.93c.46-3.7.91-7.62,1.27-11.15,1.49-1.49,3.73-3.1,6.88-1.12l.36.23C442.46,158.91,437.07,166,429.65,167.93Z" />
			<path class="cls-12" d="M399.09,143l-.48-.1" />
			<path class="cls-12" d="M406,144.94c-.39-.06-.76-.11-1.13-.18" />
			<path class="cls-11" d="M385.64,132a28.91,28.91,0,0,0,13,10.91" />
			<path class="cls-11" d="M404.83,144.76c-11.66-4.45-9-12.55-9-12.55" />
			<path class="cls-11" d="M404.2,135.22s.81,6.46,8.2,11.48" />
			<path class="cls-12" d="M425.58,155.74l-.12-.08" />
			<path class="cls-11" d="M416,140a14.91,14.91,0,0,0,2,8.2,15.08,15.08,0,0,0,1.13,1.74" />
			<path class="cls-11" d="M422,145.24a31.89,31.89,0,0,0,1,4c0,.08.06.18.09.27a47.59,47.59,0,0,0,2.35,6.13" />
			<path class="cls-12" d="M430.94,156.6v0h0" />
			<path class="cls-12" d="M391.76,160.34s-3.8,18,2.36,20.38" />
			<path class="cls-12" d="M384.82,190.27a27,27,0,0,0,20.95-.36" />
			<path class="cls-12" d="M390.94,194.79a7.72,7.72,0,0,0,3.35,1.77c2.24.62,5.11-1.57,5.11-1.57" />
			<path class="cls-12" d="M418.23,223.15a12.1,12.1,0,0,1,1.76,2.91,11.25,11.25,0,0,1,1,4.13" />
			<path class="cls-12" d="M370.44,231.91a12.46,12.46,0,0,1-1.19-3.2,6.28,6.28,0,0,1,3.11-6.56,13.11,13.11,0,0,1,5-1.72" />
			<path class="cls-12" d="M440.7,238.88a6.43,6.43,0,0,1-.18,1.14" />
			<path class="cls-12" d="M427.93,206.39a15.87,15.87,0,0,1,7.18.62" />
			<path class="cls-12" d="M420.75,160.26a14.47,14.47,0,0,0-5.46-2.55h0a15.44,15.44,0,0,0-1.81-.26c-.27,0-.55,0-.82-.06a18.88,18.88,0,0,0-5,.45,15.74,15.74,0,0,0-3.93,1.4" />
			<path class="cls-13" d="M415.1,160.85a3.07,3.07,0,0,1-4.39,1.29,3.69,3.69,0,0,1-1.2-4.46,15.86,15.86,0,0,1,3.4-.23,13.35,13.35,0,0,1,2.51.34c0,.11.05.21.07.33h0A3.93,3.93,0,0,1,415.1,160.85Z" />
			<path class="cls-12" d="M384.09,159.72a16,16,0,0,0-3.75-1.78,18.46,18.46,0,0,0-5.45-1h-.35A13.53,13.53,0,0,0,367,159" />
			<path class="cls-13" d="M377.21,161.7a3.25,3.25,0,0,1-4.54-1.59,4.06,4.06,0,0,1-.27-3s0,0,0-.08a1,1,0,0,1,.05-.16h0a15.21,15.21,0,0,1,2-.19H375a16.53,16.53,0,0,1,3.7.44l0,.1c0,.08.05.16.07.23A3.73,3.73,0,0,1,377.21,161.7Z" />
			<path class="cls-10" d="M362.92,150.36s13.1-4.78,18.67-1.83S362.92,150.36,362.92,150.36Z" />
			<path class="cls-12" d="M328.44,272.51c-.65-19-10.3-25.3-13.22-27.58" />
			<path class="cls-12" d="M453.06,274.47c2-25.51,13.48-29.9,16.05-32.11" />
			<polygon class="cls-3" points="383.35 257.13 382.55 343.16 378.79 343.16 380.51 256.17 380.51 256.16 380.53 252.7 383.34 253.32 383.35 257.13" />
			<rect class="cls-6" x="377.5" y="343.16" width="5.85" height="10.07" />
			<path class="cls-3" d="M407.83,319.31c-.58,10.69-.21,21.26.23,31.93l.51,10.49-2.82.24c-1-16.57-1.59-35.3-.13-51.67L407.77,257l.33-3.69,2.07.61-.13,2.48Z" />
			<polygon class="cls-6" points="411.25 371.61 405.43 372.11 404.54 362.08 405.75 361.97 408.57 361.73 410.37 361.57 411.25 371.61" />
			<path class="cls-12" d="M457,303.91S465.26,432,459.86,470.5H457.3" />
			<path class="cls-12" d="M324.51,303.91S319.58,432,325,470.5h1.39" />
			<polygon class="cls-7" points="452.46 470.5 450.4 484.39 449.96 487.41 333.02 487.41 331.51 473.87 331.13 470.5 452.46 470.5" />
			<path class="cls-9" d="M421,230.81c0,.31,0,.62-.07.94-.3,2.68-1.72,5.75-5.36,8.84a127.23,127.23,0,0,1-22.1,14.67s-17.85-14.21-22.69-22.76l-.13-.22c-.06-.11-.13-.24-.19-.37a39.1,39.1,0,0,0,8.18-5.52,10.59,10.59,0,0,0,2.55-3.67c1.57-3.48,2.2-8.19,2.37-12.38.08-1.91.07-3.7,0-5.23a48.42,48.42,0,0,0,4.83,4.27c1.63.74,9,.59,11.28.83.74.08,3.68-2.44,7.38-6,.09,2,.26,4.36.52,6.76.59,5.45,1.69,11.16,3.61,13.65a4.2,4.2,0,0,0,.52.58c2.44,2.3,6.15,3.93,9.28,5C421,230.39,421,230.6,421,230.81Z" />
			<path class="cls-14" d="M407.55,211,395.7,221.1l-12.16-10.76c.08-1.91.07-3.7,0-5.23a48.42,48.42,0,0,0,4.83,4.27c1.63.74,9,.59,11.28.83.74.08,3.68-2.44,7.38-6C407.12,206.21,407.29,208.57,407.55,211Z" />
			<path class="cls-14" d="M434.15,158.34s2,1.81-.57,3.77Z" />
			<path class="cls-14" d="M357.38,164.08s-5-5.62-1-5.26Z" />
			<path class="cls-14" d="M358.57,156.21c-.07,4.41,1.5,11.1,2.23,13.93.21.85.35,1.36.35,1.36l-.1-1.25-.74-9.33-.27-3.31Z" />
			<path d="M452.46,470.5l-2.06,13.89c-14.17-1.28-97.26-8.87-118.89-10.52l-.38-3.37Z" />
			<path class="cls-15" d="M339.73,275.81s31.43,81,65.7,98.3S486.85,333,486.85,333l-12.33-78.45-61.23,70.71Z" />
			<path class="cls-7" d="M764.36,489.41H652.23c-1.29-13.76-1.8-26-.91-34.36.81-7.55,2-15.1,3.45-22.28v0c2.39-12.27,5.35-23.45,7.74-31.64v0c1.25-4.26,2.33-7.72,3.09-10.1.2-.61.37-1.14.53-1.6,0-.17.1-.33.16-.48h84.5q.08.27.21.66a2.79,2.79,0,0,1,.09.34,404.28,404.28,0,0,1,11.31,46.4c1.13,6.25,2.12,12.75,2.83,19.27C766.14,463.8,765.63,475.86,764.36,489.41Z" />
			<path d="M762.4,436.31c-24.33-20-76.58-38.59-96.8-45.32.27-.83.5-1.52.69-2.08h84.5A409.48,409.48,0,0,1,762.4,436.31Z" />
			<path class="cls-16" d="M772.41,248.84c-4.31-3.91-12.63-7.1-21.54-9.89-9.61-3-19.87-5.56-26.4-8l-18.11,21.64-20.54-21.83-1.15.43c-1,.36-2,.72-3.14,1.09l-1.61.51c-.62.2-1.28.39-1.94.59l-1.48.45-1.53.45c-3.38,1-7,2-10.69,3.09l-2.48.73,0,0c-2.15.65-4.28,1.31-6.35,2l-2,.7-.34.12a73.7,73.7,0,0,0-10.81,4.63,25.22,25.22,0,0,0-4.81,3.3c-7,6.35-14.82,44.66-20,74.42v0c-1.61,9.38-3,17.92-4,24.33a14.66,14.66,0,0,0,2.44,10.52,14.49,14.49,0,0,0,6.93,5.32l12.31,2.78,21,4.75,6.27,1.41,2.47.56.25.06,18.46,4.17h0l3.17.71h21l3.84-16.82a22.22,22.22,0,0,1,8.41-.16l5-48.51a4.79,4.79,0,0,1,4.55-4.51h27.92l1.31-17,3,17h33C791.53,291.62,781.27,256.89,772.41,248.84ZM662.23,343.67l-5.48-1.86-7.09-2.4L657.43,310l3.77-14.26.9,19,1.38,29.35Z" />
			<path class="cls-16" d="M751.76,385.06l-.28,1.61-.55,3.24H666.16l-.7-11.08-.37-5.8L686.72,377h-1.56c-2.68,0-4.86,1.71-5,3.86a1,1,0,0,0,0,.18,3.67,3.67,0,0,0,1.47,2.86,5.44,5.44,0,0,0,2.85,1.14,5.06,5.06,0,0,0,.68.05Z" />
			<path class="cls-17" d="M755.34,380.17l-.44,6.06a5,5,0,0,1-3.13,1.64,4.17,4.17,0,0,1-.61,0h.6l-.28,2H685.69l-1.21-2.05-2.91-4.95-1.4-.23-14.71-2.47-.37-7.18,21.63,4.88h51Z" />
			<path class="cls-18" d="M750.87,239c-9.61-3-19.87-5.56-26.4-8-3.81-1.44-6.34-2.87-6.7-4.35,0-.06,0-.11,0-.16a9,9,0,0,1-1.26-.9c.08,0,.46.06,1.11.07,4.5.09,21.28-2.09,25.41-38.28a90.91,90.91,0,0,0,.57-11.82q-.07-3.09-.39-5.92c0-.13,0-.26,0-.39A63.91,63.91,0,0,0,742,162c-.17-.8-.36-1.58-.58-2.35-5.52-20.84-19.61-28.61-19.61-28.61s-17.39,5.13-26.25,24.79c-.29.63-.57,1.27-.83,1.93-2.76,6.84-4.49,15.33-4.23,25.81.14,5.69.44,10.7.87,15.12.37,4,.84,7.44,1.37,10.5.28,1.64.59,3.16.9,4.57.17.71.32,1.39.5,2,.25,1,.52,2,.79,2.92.12.37.23.73.34,1.08.26.82.54,1.59.81,2.3.09.27.2.54.31.8a29.6,29.6,0,0,0,1.61,3.47c.07.12.12.23.19.34.18.33.38.64.55.93s.24.37.36.54l.34.5.33.44c.12.14.22.28.33.4l.29.33a5.64,5.64,0,0,0,1.78,1.46,17.13,17.13,0,0,1-13.42-1.87c-.83.42-1.8.84-2.88,1.26l-1.15.43c-1,.36-2,.72-3.14,1.09l-1.61.51c-.62.2-1.28.39-1.94.59l-1.48.45-1.53.45c-3.38,1-7,2-10.69,3.09l-2.48.73,0,0c-2.15.65-4.28,1.31-6.35,2l-2,.7-.34.12-.07-2.19v-.05c-.12-5.87-.1-12,.1-18.37a332.41,332.41,0,0,1,5.05-49.46c9.54-52,38.2-58.36,48.27-58.89s20.18,4.77,20.18,4.77,21.75-5.83,32.88,40.86C769.07,198,754.88,230.83,750.87,239Z" />
			<path class="cls-19" d="M724.47,230.91l-18.11,21.64-20.54-21.83c1.08-.42,2-.84,2.88-1.26a17.13,17.13,0,0,0,13.42,1.87,5.64,5.64,0,0,1-1.78-1.46l-.29-.33c-.11-.12-.21-.26-.33-.4l-.33-.44-.34-.5c-.12-.17-.23-.35-.36-.54s-.37-.6-.55-.93c-.07-.11-.12-.22-.19-.34a29.6,29.6,0,0,1-1.61-3.47c-.11-.26-.22-.53-.31-.8-.27-.71-.55-1.48-.81-2.3-.11-.35-.22-.71-.34-1.08-.27-.91-.54-1.88-.79-2.92-.18-.66-.33-1.34-.5-2-.31-1.41-.62-2.93-.9-4.57-.53-3.06-1-6.54-1.37-10.5,10,8.23,17.09,11.65,21.32,13.06a10.58,10.58,0,0,0,4.45.51,3.4,3.4,0,0,0,.46-.06c0,.72-.1,1.44-.14,2.16,0,.88-.07,1.75-.09,2.6a3,3,0,0,0,0,.42c0,1.41,0,2.76,0,4,0,.41,0,.8,0,1.17s0,.66.05,1c0,.75.12,1.43.22,2-.65,0-1-.07-1.11-.07a9,9,0,0,0,1.26.9s0,.1,0,.16C718.13,228,720.66,229.47,724.47,230.91Z" />
			<path class="cls-14" d="M717.55,212.21c0,.72-.1,1.44-.14,2.16,0,.88-.07,1.75-.09,2.6a3,3,0,0,0,0,.42c0,1.41,0,2.76,0,4l-5.62,4.22-19-16.42c-.53-3.06-1-6.54-1.37-10.5,10.37,11.21,17.09,11.65,21.32,13.06a10.58,10.58,0,0,0,4.45.51A3.4,3.4,0,0,0,717.55,212.21Z" />
			<path class="cls-19" d="M743.16,169.55c0-.13,0-.26,0-.39A63.91,63.91,0,0,0,742,162c-3.43.48-7.93.75-8.73-.86-.88-1.79,3.63-2,8.15-1.49-5.52-20.84-19.61-28.61-19.61-28.61s-17.39,5.13-26.25,24.79c4-.11,10.64,0,11.39,2.27.86,2.56-6.55,1.34-12.22-.34-2.76,6.84-4.49,15.33-4.23,25.81.14,5.69.44,10.7.87,15.12,10,8.23,17.09,11.65,21.32,13.06a10.58,10.58,0,0,0,4.45.51,3.4,3.4,0,0,0,.46-.06,8.86,8.86,0,0,0,4.13-1.7c14-10.68,19.68-26.14,21.87-35Q743.48,172.38,743.16,169.55Zm-36.79.26a2.65,2.65,0,0,1-5.09-1.32,2.68,2.68,0,0,1,1-1.77,1.53,1.53,0,0,1,.23-.15,13.68,13.68,0,0,1,3.91,3A1.43,1.43,0,0,1,706.37,169.81Zm30.15,2.91a2.41,2.41,0,0,1-3.38.27,2.36,2.36,0,0,1-.82-1.9c.81-.48,1.58-1.06,2.32-1.5h0a5.09,5.09,0,0,1,1.67-.72c0,.06.09.11.13.18A3.43,3.43,0,0,1,736.52,172.72Z" />
			<path class="cls-20" d="M743.62,175.11c0,.12-.06.24-.08.36" />
			<path class="cls-20" d="M679.3,163.41c-3.18,10.09-5.83,25.47-.53,49.35,2.06,9.27,5.93,14.18,9.93,16.7" />
			<path class="cls-20" d="M716.46,225.5h0" />
			<path class="cls-20" d="M717.72,226.4c2.31,1.36,7.61,3.39,14.64-.91,9.55-5.83,18-22.28,18.57-44" />
			<path class="cls-20" d="M724.41,174.55s1.06,18-6.37,16.45" />
			<path class="cls-20" d="M725.47,201.08s-7.43,3.19-17-1.06" />
			<path class="cls-20" d="M714.33,205.33a5,5,0,0,0,6.37,0" />
			<path class="cls-20" d="M692.49,165.8a14,14,0,0,1,7.63,0,13.64,13.64,0,0,1,4.37,2.25,12.64,12.64,0,0,1,2.51,2.49" />
			<path d="M706.46,169.54a1.43,1.43,0,0,1-.09.27,2.65,2.65,0,0,1-5.09-1.32,2.68,2.68,0,0,1,1-1.77,1.53,1.53,0,0,1,.23-.15A13.68,13.68,0,0,1,706.46,169.54Z" />
			<path class="cls-20" d="M730.42,172.27a13.61,13.61,0,0,1,3-2.11l.13-.07a10.15,10.15,0,0,1,1.14-.5" />
			<path class="cls-20" d="M734.65,169.59a9.93,9.93,0,0,1,1.8-.54h0c.41-.08.82-.14,1.21-.18a12.8,12.8,0,0,1,3.21.11,12.36,12.36,0,0,1,2.25.58l.08,0" />
			<path d="M736.52,172.72a2.41,2.41,0,0,1-3.38.27,2.36,2.36,0,0,1-.82-1.9c.81-.48,1.58-1.06,2.32-1.5h0a5.09,5.09,0,0,1,1.67-.72c0,.06.09.11.13.18A3.43,3.43,0,0,1,736.52,172.72Z" />
			<path class="cls-20" d="M792.09,307.91c1,5.18,1.57,8.5,1.57,8.5" />
			<polyline class="cls-20" points="686.73 377.91 706.66 382.41 707.68 377.91" />
			<polyline class="cls-20" points="663.49 344.09 711.66 360.41 711.51 361.09" />
			<polyline class="cls-20" points="661.21 295.72 661.21 295.71 663.66 286.41" />
			<path class="cls-21" d="M743,187.29c-4.13,36.19-20.91,38.37-25.41,38.28-.1-.6-.17-1.28-.22-2,0-.31,0-.64-.05-1s0-.76,0-1.17c0-1.25,0-2.6,0-4a3,3,0,0,1,0-.42c0-.85,0-1.72.09-2.6,0-.72.09-1.44.14-2.16a8.86,8.86,0,0,0,4.13-1.7c14-10.68,19.68-26.14,21.87-35A90.91,90.91,0,0,1,743,187.29Z" />
			<path class="cls-22" d="M719.93,360.93l-1.74,17H707.68l3.84-16.82A22.22,22.22,0,0,1,719.93,360.93Z" />
			<path class="cls-23" d="M831.59,313.57l-7.18,69.83a4.78,4.78,0,0,1-4.55,4.51H807.55a1.35,1.35,0,0,0,.2-.42c.32-1.5.75-4.4-.57-5.18s-1.79.49-2,2.11c-.14-1.14-.85-6.36-2.77-6.24-.81,0-1.3,1.06-1.57,2.5-.4-1.85-1.24-4.59-2.68-5.27-1.21-.57-2.15,2.66-2.46,5.83,0-.44,0-2.69-1.91-2.57s-2.23,5.85-2.07,9.24H722.3c-2.75,0-4.87-2.64-4.55-5.66l.44-4.34,1.74-17,5-48.51a4.79,4.79,0,0,1,4.55-4.51H827C829.78,307.91,831.89,310.55,831.59,313.57Z" />
			<path class="cls-7" d="M835.59,313.57l-7.18,69.83a4.78,4.78,0,0,1-4.55,4.51H807.55a1.35,1.35,0,0,0,.2-.42c.32-1.5.75-4.4-.57-5.18s-1.79.49-2,2.11c-.14-1.14-.85-6.36-2.77-6.24-.81,0-1.3,1.06-1.57,2.5-.4-1.85-1.24-4.59-2.68-5.27-1.21-.57-2.15,2.66-2.46,5.83,0-.44,0-2.69-1.91-2.57s-2.23,5.85-2.07,9.24H726.3c-2.75,0-4.87-2.64-4.55-5.66l.44-4.34,1.66-16.21,5.06-49.28a4.79,4.79,0,0,1,4.55-4.51H831C833.78,307.91,835.89,310.55,835.59,313.57Z" />
			<path class="cls-7" d="M756.16,382.91a5,5,0,0,1-4.39,5,4.17,4.17,0,0,1-.61,0h-66a5.06,5.06,0,0,1-.68-.05,5,5,0,0,1-4.32-4.95,1.69,1.69,0,0,1,0-.23,5,5,0,0,1,5-4.77h66a4.86,4.86,0,0,1,1.91.38,5,5,0,0,1,1.62,1.08,5,5,0,0,1,.65.8A5,5,0,0,1,756.16,382.91Z" />
			<line class="cls-20" x1="661.2" y1="295.72" x2="661.2" y2="295.71" />
			<path class="cls-22" d="M810.27,387a1.63,1.63,0,0,1-.24.54,1.77,1.77,0,0,1-1.33.69,1.74,1.74,0,0,1-1.33-.47,1,1,0,0,1-.19-.22,1.41,1.41,0,0,1-.24-.73,25.78,25.78,0,0,1,.08-3.71v0c.24-2.07.89-3.68,2.53-2.7S810.68,385.08,810.27,387Z" />
			<path class="cls-24" d="M807.05,383.35l0-.25" />
			<path class="cls-22" d="M801.2,388.73l-4.48.18h-.12A1.59,1.59,0,0,1,795,387.6a.07.07,0,0,0,0-.06,43.3,43.3,0,0,1-.06-8.46V379c.38-4.07,1.6-8.21,3.15-7.48,1.85.87,2.93,4.39,3.44,6.76a38.77,38.77,0,0,0-.29,8.91c0,.1,0,.23,0,.36A9.39,9.39,0,0,0,801.2,388.73Z" />
			<path class="cls-22" d="M807.37,387.76c-.92.86-4,.88-4,.88l-2.16.09a9.39,9.39,0,0,1,0-1.19c0-.13,0-.26,0-.36a38.77,38.77,0,0,1,.29-8.91c.35-1.85,1-3.16,2-3.21,2.46-.15,3.38,6.54,3.55,8v0a25.78,25.78,0,0,0-.08,3.71,1.41,1.41,0,0,0,.24.73A1,1,0,0,0,807.37,387.76Z" />
			<path class="cls-22" d="M796.6,388.91l-5.06.3a1.59,1.59,0,0,1-1.77-1.42c0-.07,0-.16,0-.25-.19-4.35.27-11.72,2.67-11.85s2.48,2.73,2.45,3.3v.09a43.3,43.3,0,0,0,.06,8.46.07.07,0,0,1,0,.06A1.59,1.59,0,0,0,796.6,388.91Z" />
			<path class="cls-25" d="M694.68,157.77c.26-.66.54-1.3.83-1.93,4-.11,10.64,0,11.39,2.27C707.76,160.67,700.35,159.45,694.68,157.77Z" />
			<path class="cls-25" d="M742,162c-3.43.48-7.93.75-8.73-.86-.88-1.79,3.63-2,8.15-1.49C741.59,160.43,741.78,161.21,742,162Z" />
			<path class="cls-26" d="M766.18,245.11a40.19,40.19,0,0,0-7.77,23.23" />
			<line class="cls-20" x1="758.69" y1="290.91" x2="757.38" y2="307.91" />
			<circle class="cls-3" cx="781.19" cy="348.95" r="8.5" />
			<path class="cls-17" d="M662.92,489.41v0h-35.1l7.27-123.2,7.11-120.71,2-33.58L646,213.7h0a150.86,150.86,0,0,1,6.9,25c-.12-5.87-.1-12,.1-18.37l8.65,8.15.06,9.63.25,54.63h0l.1,22-.9-19L657.43,310l-.68,31.83,5.48,1.86.14,28.74L656.1,371l-1.33,61.75c2.39-12.27,5.35-23.45,7.74-31.64Z" />
			<g id="color">
				<path class="cls-27" d="M554,215.09l.22-.35c1.13-1.75,6.41-9.41,11.09-7.33A13.91,13.91,0,0,1,567.9,209Z" />
				<polygon class="cls-7" points="614.74 489.41 547.88 488.71 545.84 465.54 544.48 488.68 475.12 487.95 480.77 408.09 480.75 403.45 480.74 399.04 480.71 394.09 484.69 389.45 611.7 389.45 611.86 394.57 612.84 426.25 614.74 489.41" />
				<polygon points="612.84 426.25 480.8 413.28 480.77 408.09 480.75 403.45 480.74 399.04 550.88 396.65 550.88 396.65 558.68 396.39 611.86 394.57 612.84 426.25" />
				<path class="cls-28" d="M657.88,289.45,657.43,310l-.68,31.83L656.1,371l-1.33,61.75v0l-1.24,56.64V490H617.57L615.1,375.06l-.64,28.39H556.69c0-.1,0-.2,0-.31s0-.23,0-.34a2.62,2.62,0,0,0,0-.28c0-.26,0-.52,0-.8,0-.84,0-1.81.07-2.89,0-.44,0-.9,0-1.38,0-.33,0-.66,0-1,0-.16,0-.32,0-.48,0-.38,0-.77,0-1.17,0-1.07,0-2.21,0-3.42,0-.23,0-.45,0-.69,0-.4,0-.82,0-1.24,0-2.1,0-4.38.06-6.81q0-1.83,0-3.75c0-.65,0-1.3,0-2,0-1.6,0-3.25,0-4.94,0-7.19.06-15.2.07-23.7,0-1.66,0-3.33,0-5,0-22.37,0-47.55,0-69.77,0-3.53,0-7,0-10.36,0-1.38,0-2.74,0-4.08,0-1.95,0-3.87,0-5.75v-.07c0-2.5,0-4.93,0-7.27v-.07c0-2.33,0-4.58,0-6.73,0-.57,0-1.13,0-1.67,0-2.09,0-4.08,0-6,0-1,0-1.91,0-2.81,0-2.19,0-4.2,0-6s0-3.44,0-4.8,0-2.43,0-3.27c0-.51,0-.93,0-1.24v-.1A58.66,58.66,0,0,1,566.9,209c4.67,3.44,9.48,9.86,9.48,9.86.72-12,9.92-23.13,14.07-27.56,16.3,3.57,38.12,8.28,47.32,12.17a13.28,13.28,0,0,1,3.82,2.21c1.33,1.33,2.86,4.1,4.44,8h0a150.86,150.86,0,0,1,6.9,25v.05c.15.68.28,1.37.41,2.07A264.75,264.75,0,0,1,657.88,289.45Z" />
				<path class="cls-29" d="M542.6,113.29h0a2.35,2.35,0,0,0-1.89-1l-23.52-.81a2.43,2.43,0,0,0-2.52,2.32v0l-.07,2.16-.33,9.8a2.43,2.43,0,0,0,2.34,2.51L537,129a5.61,5.61,0,0,0,5.8-5.4l.29-8.41v-.38A2.48,2.48,0,0,0,542.6,113.29Zm-11.8,8.1a3.54,3.54,0,0,1-4.63-2.36,4.45,4.45,0,0,1,.15-3.18s0-.1.08-.15a.3.3,0,0,1,0-.08s0,0,0,0c.4,0,.81,0,1.19,0a.27.27,0,0,1,.09,0c.31,0,.59,0,.87.07h0a18.12,18.12,0,0,1,4.41,1.09.41.41,0,0,1,0,.11A4,4,0,0,1,530.8,121.39Z" />
				<path class="cls-29" d="M581.32,114.51l-.15-2a.45.45,0,0,0,0-.11,2.43,2.43,0,0,0-2.57-2.16L554,111.81a2.42,2.42,0,0,0-2.1,1.48,2.36,2.36,0,0,0-.17,1.09l.08,1.24.52,8.19a5.6,5.6,0,0,0,6,5.22l21.4-1.38a2.43,2.43,0,0,0,2.28-2.58Zm-9.75,3.68A3.31,3.31,0,0,1,567,120a3.9,3.9,0,0,1-1.78-4.38h0a1.13,1.13,0,0,1,.08-.24,16.88,16.88,0,0,1,3.63-.55,14.84,14.84,0,0,1,2.72.12,2.14,2.14,0,0,1,.09.27s0,0,0,.08h0A4.12,4.12,0,0,1,571.57,118.19Z" />
				<path class="cls-19" d="M576.61,80.83c-20.5,12.89-62.1,4.69-62.1,4.69s-2.38,15.28-3.94,27.64l4.09.62a2.43,2.43,0,0,1,2.52-2.32l23.52.81a2.35,2.35,0,0,1,1.89,1h9.34a2.42,2.42,0,0,1,2.1-1.48l24.56-1.6a2.43,2.43,0,0,1,2.57,2.16l5.18-1.62A281.41,281.41,0,0,0,576.61,80.83Zm-59.08,27.39c-1.69-.76-1.52-4.78-.69-4.78,18.25.1,23,5.89,23,5.89C534.2,106.4,519.21,109,517.53,108.22Zm61.56-3.94c-1.54,1-16.75.64-21.86,4.36,0,0,3.81-6.41,21.84-9.19C579.89,99.32,580.65,103.28,579.09,104.28Z" />
				<path class="cls-30" d="M500.8,112l2.25.26A3.23,3.23,0,0,0,500.8,112Z" />
				<path class="cls-31" d="M590.1,126.54l.57-.36h0" />
				<path class="cls-18" d="M510.3,115.32c-.63,5.17-1.07,9.59-1.07,11.8,0,0-1.21-8.13-4-12.54Z" />
				<path class="cls-18" d="M595.22,107.7a2.08,2.08,0,0,0-1.61.08,3.47,3.47,0,0,0-.94,1h0l-6.32,2a281.41,281.41,0,0,0-9.73-29.92c-20.5,12.89-62.1,4.69-62.1,4.69s-2.38,15.28-3.94,27.64l-7.52-.88a3.23,3.23,0,0,0-2.25-.26,3.7,3.7,0,0,0-.57.16c0-.07,0-.15,0-.23-1.47-7.67-4.16-24.33-1.51-32.3C502.19,69.11,518,48,546.73,48.6s40.15,11.9,45.71,19.92C599.63,78.89,596.52,96.47,595.22,107.7Z" />
				<path class="cls-28" d="M328.59,243.22l4.42-3.47,20.5-16.16.26-.2,3.53-2.79L407.19,296s42.63-76.26,53.82-89.13c4.45-4.46,35.35-10.89,54.89-15.2a43.52,43.52,0,0,0,13.83,19.89l7.62,15.24S542,216.31,545,211.44c.21-.36.42-.68.62-1a26.22,26.22,0,0,1,3.5,1.81c.28,8.72.77,171.25,0,191.17H476.35l2.54-121.23s-14.2,89.23-66.2,79.23-84.1-118.23-84.1-118.23Z" />
				<line class="cls-31" x1="479.19" y1="281.95" x2="478.89" y2="282.22" />
				<path class="cls-31" d="M533.32,168.47c0-.24,0-.47-.05-.68" />
				<path class="cls-19" d="M577.47,188.34c-3.72,5.71-17.06,13-20.18,16.14-2.32,2.3-3.61,7.11-4.22,10.16q-.11.47-.18.87l-.35.22c0-.43-.07-.93-.13-1.48-.37-4.09-1.62-10.9-5.68-12.12-4.68-1.4-15-9.93-18.93-13.28l.77-.2a13.19,13.19,0,0,0,3.34-1.17c1.51-1.21,1.77-7.13,1.68-12.55,0-2.4-.16-4.71-.27-6.46,4.52,2.88,9.53,5.28,14.58,6.12,7.22,1.2,15.06-3.31,21.46-8.62-.06.77-.11,1.73-.18,2.82-.32,6.05-.51,15.92,1.5,17.52C571.21,186.74,573.71,187.44,577.47,188.34Z" />
				<path class="cls-31" d="M527.8,188.85l-.23-.2" />
				<path class="cls-31" d="M552.33,216a.83.83,0,0,1,0-.15" />
				<path class="cls-31" d="M515.9,191.62a1.72,1.72,0,0,1-.07-.21" />
				<path class="cls-31" d="M619,257.53s.1-2.93,2-24.56c1.11-12.47,8.57-22.77,14.69-29.26" />
				<path class="cls-32" d="M578.78,118.63a14.14,14.14,0,0,0-6-3.27h0a14.33,14.33,0,0,0-2-.29A8.67,8.67,0,0,0,570,115a16.27,16.27,0,0,0-5.45.76,15.42,15.42,0,0,0-4.2,2" />
				<path class="cls-13" d="M571.57,118.19A3.31,3.31,0,0,1,567,120a3.9,3.9,0,0,1-1.78-4.38,1.21,1.21,0,0,1,.08-.25,16.88,16.88,0,0,1,3.63-.55,14.84,14.84,0,0,1,2.72.12,2.14,2.14,0,0,1,.09.27s0,0,0,.08h0A4.12,4.12,0,0,1,571.57,118.19Z" />
				<path class="cls-32" d="M519.54,118.65a13.88,13.88,0,0,1,6.19-2.87l.67-.08c.4,0,.81-.07,1.24-.08" />
				<path class="cls-32" d="M527.73,115.62H528A17,17,0,0,1,538,119" />
				<path class="cls-19" d="M595.63,107.85a2.48,2.48,0,0,0-.41-.15,2.08,2.08,0,0,0-1.61.08,3.47,3.47,0,0,0-.94,1h0a14.37,14.37,0,0,0-1.26,2.6,79.79,79.79,0,0,0-3.06,12.23,52.31,52.31,0,0,0-1.52-10.81l-5.5,1.71.68,10.56a2.43,2.43,0,0,1-2.28,2.58L558.32,129a5.6,5.6,0,0,1-6-5.22l-.52-8.19c-2.69-1.06-6.55-.76-8.8-.46l-.29,8.41A5.61,5.61,0,0,1,537,129l-20.35-.7a2.43,2.43,0,0,1-2.34-2.51l.33-9.8-4.29-.64c-.63,5.17-1.07,9.59-1.07,11.8,0,0-1.21-8.13-4-12.54a7.62,7.62,0,0,0-1.86-2.11,1.69,1.69,0,0,0-.32-.19L500.8,112a3.7,3.7,0,0,0-.57.16c-3.71,1.4-6.39,8.3,7.17,15.75,2.06,7.84,5.64,19.41,10,26.15,1.66,2.55,7.28,8.67,14.85,13.71l1,.68c4.52,2.88,9.53,5.28,14.58,6.12,7.22,1.2,15.06-3.31,21.46-8.62a84.87,84.87,0,0,0,12.53-13.06c2.46-3.28,6.93-15.73,8.79-26.73C604.55,117.56,599.45,109.41,595.63,107.85Zm-58.74,41.48s14,2.54,26.41-.66C563.3,148.67,552.14,166.38,536.89,149.33Z" />
				<path class="cls-13" d="M530.8,121.39a3.54,3.54,0,0,1-4.63-2.36,4.45,4.45,0,0,1,.15-3.18s0-.1.08-.15a.3.3,0,0,1,0-.08s0,0,0,0c.4,0,.81,0,1.19,0a.27.27,0,0,1,.09,0c.31,0,.59,0,.87.07h0a18.12,18.12,0,0,1,4.41,1.09.41.41,0,0,1,0,.11A4,4,0,0,1,530.8,121.39Z" />
				<path class="cls-31" d="M547.13,116.12s-4.89,26.41,4.72,22.91" />
				<path class="cls-33" d="M563.3,148.67s-11.16,17.71-26.41.66C536.89,149.33,550.87,151.87,563.3,148.67Z" />
				<path class="cls-31" d="M542.72,165.31c-2,.6,6-3.1,17-.28" />
				<path class="cls-31" d="M462.78,205.64c5.77,6,13,15.83,14.08,27.76,1.74,20.16,1.83,22.88,1.83,22.88" />
				<path class="cls-34" d="M530.8,121.39a3.54,3.54,0,0,1-4.63-2.36,4.45,4.45,0,0,1,.15-3.18s0-.1.08-.15a.3.3,0,0,1,0-.08s0,0,0,0c.4,0,.81,0,1.19,0a.27.27,0,0,1,.09,0c.31,0,.59,0,.87.07h0a18.12,18.12,0,0,1,4.41,1.09.41.41,0,0,1,0,.11A4,4,0,0,1,530.8,121.39Z" />
				<path class="cls-34" d="M571.57,118.19A3.31,3.31,0,0,1,567,120a3.9,3.9,0,0,1-1.78-4.38,1.21,1.21,0,0,1,.08-.25,16.88,16.88,0,0,1,3.63-.55,14.84,14.84,0,0,1,2.72.12,2.14,2.14,0,0,1,.09.27s0,0,0,.08h0A4.12,4.12,0,0,1,571.57,118.19Z" />
				<path class="cls-35" d="M551.76,114.38l.08,1.24c-2.69-1.06-6.55-.76-8.8-.46v-.38a2.48,2.48,0,0,0-.45-1.49h9.33A2.36,2.36,0,0,0,551.76,114.38Z" />
				<path class="cls-18" d="M579.09,104.28c-1.54,1-16.75.64-21.86,4.36,0,0,3.81-6.41,21.84-9.19C579.89,99.32,580.65,103.28,579.09,104.28Z" />
				<path class="cls-18" d="M539.8,109.33c-5.6-2.93-20.59-.34-22.27-1.11s-1.52-4.78-.69-4.78C535.09,103.54,539.8,109.33,539.8,109.33Z" />
				<path class="cls-35" d="M592.66,108.78a14.37,14.37,0,0,0-1.26,2.6l-4.58,1.42-5.5,1.71-.15-2a.45.45,0,0,0,0-.11l5.18-1.62Z" />
				<path class="cls-18" d="M591.4,111.38a79.79,79.79,0,0,0-3.06,12.23,52.31,52.31,0,0,0-1.52-10.81Z" />
				<line class="cls-31" x1="515" y1="113.83" x2="514.66" y2="113.78" />
				<path class="cls-35" d="M514.66,113.78v0l-.07,2.16-4.29-.64-5.07-.74a7.62,7.62,0,0,0-1.86-2.11,1.69,1.69,0,0,0-.32-.19l7.52.88Z" />
				<line class="cls-31" x1="500.79" y1="112.02" x2="500.19" y2="111.95" />
				<line class="cls-36" x1="619.69" y1="271.47" x2="615.1" y2="375.06" />
				<line class="cls-36" x1="478.69" y1="267.45" x2="478.89" y2="282.22" />
				<path class="cls-37" d="M553.68,215.26c.89-.55,1.93-1.18,3.1-1.85.34,11.88.72,169.29-.09,190h-7.62c.82-21.5.33-183.77,0-193.17,1.14.75,2.18,3.64,2.84,4.61h0Z" />
				<path class="cls-38" d="M353.51,223.59,333,239.75l-10.3-18.85c-8.34-7.74-16.67-18.23-19.16-23.93a25.13,25.13,0,0,0-5.27-7.74c-1.67-1.65-4.76-4.46-6.39-6.2-3.57-3.84-2.57-5.31-1.57-5.48,2.86-.47,17,12.82,16.79,11.38s-17.4-27.49-13.6-29.12c2.66-1.15,22,26.29,23.18,24.63s-15.27-32-11.64-34.62,20,31.77,21.21,30.11-7.11-28.36-2.81-29.05,10.69,23.36,13.32,30.29c1.42,3.78,2.42,3.78,2.42,3.78s6.58-15.88,9.68-14.92c4.26,1.33-.32,14-1.27,17.61a8.55,8.55,0,0,0-.17,3.73c1,4.75-.38,11.07-1.4,14.76a8,8,0,0,0,0,3.45,18.69,18.69,0,0,0,2.75,6.71Z" />
				<path class="cls-31" d="M339.19,185a16.74,16.74,0,0,0-6,15" />
				<path class="cls-27" d="M552,214.7a10.08,10.08,0,0,0-2.84-2.42,26.22,26.22,0,0,0-3.5-1.81,6.23,6.23,0,0,1,1.11-1.3c1.9-1.43,3.84,1.55,4.95,4.69h0C551.8,214.14,551.88,214.42,552,214.7Z" />
				<path class="cls-37" d="M552.54,215.73a4.32,4.32,0,0,0-.57-1v2c-.08-.28.84,1,.73.75l-1-1.59c-1.11-3.14-3-8.12-4.95-6.69a6.23,6.23,0,0,0-1.11,1.3c-.2.29-.41.61-.62,1-3,4.87-7.65,15.31-7.65,15.31l-7.62-15.24a43.52,43.52,0,0,1-13.83-19.89l.94-.21c4.46-1,8.27-1.86,11-2.56,3.93,3.35,14.25,11.88,18.93,13.28,4.06,1.22,5.31,8,5.68,12.12C552.47,214.8,552.52,215.3,552.54,215.73Z" />
				<path class="cls-37" d="M590.45,191.27c-4.15,4.43-13.35,15.56-14.07,27.56,0,0-4.81-6.42-9.48-9.86-3.21-2.52-7.29-2.4-10.21,3.48a8.86,8.86,0,0,1-3,3c-.28.16-.56-.08-.8.06q.08-.4.18-.87c.61-3,1.9-7.86,4.22-10.16,3.12-3.13,16.46-10.43,20.18-16.14C580.91,189.17,585.41,190.16,590.45,191.27Z" />
				<polygon class="cls-39" points="328.6 243.22 331.69 237.45 333 239.75 328.6 243.22" />
			</g>
			<path class="cls-14" d="M569.36,166c-.06.77-.11,1.73-.18,2.82l-18.09,15.46-17.5-9.32c0-2.4-.16-4.71-.27-6.46,4.52,2.88,9.53,5.28,14.58,6.12C555.12,175.79,563,171.28,569.36,166Z" />
			<polygon class="cls-17" points="407.19 295.95 417.69 310.45 427.69 260.45 407.19 295.95" />
		</g>
	</g>
</svg>