<svg xmlns="http://www.w3.org/2000/svg" viewBox="0 0 1920 1384.05">
	<defs>
		<style>.cls-1{isolation:isolate;}.cls-2{fill:#abe0f4;}.cls-3{fill:#d1d1d1;}.cls-4{fill:#fff;}.cls-5{fill:#54b256;}.cls-6{fill:#7c7c7c;}.cls-7{fill:#bababa;}.cls-8{fill:#e0e0e0;}.cls-9{fill:#ffc609;}.cls-10,.cls-20{fill:#231f20;}.cls-11{fill:#161717;}.cls-12{fill:#2d2e2e;}.cls-13{fill:#748a96;}.cls-14{fill:#3f4f5f;}.cls-15{fill:#3a3a3a;}.cls-16{fill:#5389c7;}.cls-17{fill:#3965ae;}.cls-18{fill:#1b1b0e;}.cls-19{opacity:0.19;}.cls-20{opacity:0.16;}.cls-21{fill:#44250b;}.cls-22{fill:#a0a0a0;}.cls-23{fill:#f7f7f7;}.cls-24{fill:#f9f9f9;}.cls-25{fill:#4cd356;}.cls-26,.cls-31,.cls-36,.cls-40,.cls-49,.cls-52,.cls-89{fill:none;}.cls-26,.cls-31{stroke:#8ea2ac;}.cls-26,.cls-31,.cls-40,.cls-41,.cls-42,.cls-43,.cls-49,.cls-52,.cls-73,.cls-74,.cls-75,.cls-89{stroke-miterlimit:10;}.cls-26{stroke-width:0.26px;}.cls-27{fill:#8ea2ac;}.cls-28{fill:#e4e5dd;}.cls-29{opacity:0.14;}.cls-30{fill:#e80a2f;}.cls-31{stroke-width:0.42px;}.cls-32{fill:#282828;}.cls-33{fill:#89181a;}.cls-34{fill:#d12026;}.cls-35{fill:#981b1e;}.cls-37{fill:#936d57;}.cls-38{fill:#ff4856;}.cls-39,.cls-41,.cls-74{fill:#ffd4ee;}.cls-40,.cls-41,.cls-42,.cls-43,.cls-49,.cls-73,.cls-74,.cls-75,.cls-89{stroke:#000;}.cls-40,.cls-41,.cls-42,.cls-43{stroke-width:0.17px;}.cls-42,.cls-47,.cls-75{fill:#0c0c0c;}.cls-43,.cls-45,.cls-73{fill:#212121;}.cls-44{opacity:0.2;}.cls-46{fill:#d8b08d;}.cls-48{fill:#fcb514;}.cls-49,.cls-73,.cls-74,.cls-75{stroke-width:0.14px;}.cls-50{fill:#ff1a1a;}.cls-51{fill:#811517;}.cls-52{stroke:#4a1611;stroke-width:0.54px;}.cls-53{fill:#311111;}.cls-54{opacity:0.75;}.cls-55{fill:#663200;}.cls-56{fill:#6d2b2b;}.cls-57{fill:#eab8a2;}.cls-58{fill:#757b97;}.cls-59{fill:#be5857;}.cls-60{fill:#172026;}.cls-61{fill:#c15753;}.cls-62{fill:#5b4036;}.cls-63{fill:#141414;}.cls-64{fill:#c9c9c9;}.cls-65{fill:#050505;}.cls-66{fill:#625a56;}.cls-67{fill:#8ba2b1;}.cls-68{fill:#ffdea5;}.cls-69{fill:#ea9b22;}.cls-70{mix-blend-mode:overlay;}.cls-71{fill:#402f13;}.cls-72{fill:#fce4ad;}.cls-76{fill:#ffe105;}.cls-77{fill:#e298c4;}.cls-78{fill:#977100;}.cls-79{fill:#7000f7;}.cls-80{fill:#562000;}.cls-81{opacity:0.4;}.cls-82{fill:#b8a200;}.cls-83{fill:#d850d5;}.cls-84{fill:#ffe1f4;}.cls-85{fill:#ff85f6;}.cls-86{fill:#b80044;}.cls-87{fill:#b57f5b;}.cls-88{fill:#990279;}.cls-90{fill:#b55a08;}.cls-91{fill:#3d2f2b;}.cls-92{fill:#0041f4;}.cls-93{fill:#2400c3;}</style>
	</defs>
	<g class="cls-1">
		<g id="Layer_2" data-name="Layer 2">
			<g id="Layer_1-2" data-name="Layer 1">
				<rect class="cls-2" width="1920" height="1035.19" />
				<rect class="cls-3" y="1062.71" width="1920" height="321.34" />
				<rect class="cls-4" x="1898.31" y="1160.26" width="21.69" height="7" />
				<path class="cls-4" d="M13.63,1160.26v7H75.09v-7Zm82,0v7H157v-7Zm81.94,0v7H239v-7Zm81.94,0v7h61.46v-7Zm81.94,0v7h61.46v-7Zm82,0v7H484.8v-7Zm81.94,0v7h61.46v-7Zm81.94,0v7h61.46v-7Zm81.94,0v7h61.46v-7Zm82,0v7h61.45v-7Zm81.94,0v7h61.46v-7Zm81.94,0v7h61.46v-7Zm81.94,0v7h61.46v-7Zm82,0v7h61.45v-7Zm81.94,0v7h61.46v-7Zm81.94,0v7h61.46v-7Zm82,0v7h61.45v-7Zm81.94,0v7h61.46v-7Zm81.94,0v7h61.46v-7Zm81.94,0v7H1632v-7Zm82,0v7h61.45v-7Zm81.94,0v7h61.46v-7Zm81.94,0v7h61.46v-7Z" />
				<rect class="cls-5" y="1027.93" width="1920" height="38.53" />
				<rect class="cls-6" x="1056.21" y="780.21" width="116.71" height="240.31" />
				<rect class="cls-6" x="783.76" y="716.99" width="116.71" height="300.78" />
				<rect class="cls-6" x="336.18" y="716.99" width="116.71" height="300.78" />
				<rect class="cls-7" x="934.16" y="598.78" width="116.71" height="418.99" />
				<rect class="cls-6" x="1477.99" y="598.78" width="102.27" height="418.99" />
				<rect class="cls-6" x="1601.36" y="867.38" width="102.27" height="150.39" />
				<rect class="cls-7" x="1667.19" y="749.94" width="102.27" height="267.82" />
				<rect class="cls-7" x="30.98" y="598.78" width="102.27" height="418.99" />
				<rect class="cls-7" x="1522.51" y="500.47" width="102.27" height="517.3" />
				<rect class="cls-6" x="1248.19" y="605.8" width="116.71" height="411.96" />
				<path class="cls-8" d="M67.94,1051.28H89.75l-2-7.73a3.11,3.11,0,0,0-3-2.33H73a3.13,3.13,0,0,0-3,2.33Z" />
				<path class="cls-9" d="M0,1106.67l1.51,0,5.41.12,6.87.15,5.79.13h0l6.86.15h0l5.43.12,71.94,1.57h0l4.61.1,5.46.12,10.46.23,5.47.12,3.24.07h0l11.57.25v-27.51a3.78,3.78,0,0,0-3.65-3.75l-3.5-.15a5.31,5.31,0,0,1-4.55-2.91l-4.57-9-1.89-3.75-4.73-9.36a8.72,8.72,0,0,0-7.8-4.77H41.65a8,8,0,0,0-7.35,4.77l-4.13,9.36-1.65,3.75L23.3,1078.3l-.18.41H1.48c-.52,0-1,0-1.48.09v27.87Z" />
				<path class="cls-10" d="M0,1106.67v3.49H143.82a2.55,2.55,0,0,0,1.79-4.35,2.59,2.59,0,0,0-.93-.59,2.47,2.47,0,0,0-.86-.15H0Z" />
				<path class="cls-10" d="M1.65,1109.63a1.55,1.55,0,0,0,1,.31H5.06s0,.07,0,.1h.77a6.32,6.32,0,0,0-.11.76H27.46c0-.26-.06-.51-.1-.76h.77s0-.07,0-.1h2.46a1.52,1.52,0,0,0,.94-.31,1.5,1.5,0,0,0,.57-1.61v0a15.74,15.74,0,0,0-1.33-3.29l-.17-.31c-.08-.15-.17-.3-.26-.45a16.16,16.16,0,0,0-27.48,0l-.27.45-.16.31A15.19,15.19,0,0,0,1.09,1108v0A1.49,1.49,0,0,0,1.65,1109.63Z" />
				<path class="cls-11" d="M5.64,1111.89a10.94,10.94,0,1,0,21.88-.33c0-.25,0-.51-.06-.76s-.06-.51-.1-.76c0-.08,0-.15,0-.23s0-.12,0-.18a10.82,10.82,0,0,0-2.57-5c-.22-.24-.46-.47-.7-.7a11.05,11.05,0,0,0-14.86,0c-.24.23-.47.46-.69.7a10.83,10.83,0,0,0-2.58,5l0,.18a1.85,1.85,0,0,0,0,.23,6.32,6.32,0,0,0-.11.76A9.82,9.82,0,0,0,5.64,1111.89Z" />
				<ellipse class="cls-12" cx="16.58" cy="1111.89" rx="5.71" ry="5.64" />
				<path class="cls-10" d="M104.16,1109.27a1.61,1.61,0,0,0,1,.31h2.46s0,.07,0,.1h.77a6.46,6.46,0,0,0-.11.75H130c0-.25-.06-.5-.1-.75h.77s0-.07,0-.1h2.46a1.58,1.58,0,0,0,.94-.31,1.5,1.5,0,0,0,.57-1.61v0a15.53,15.53,0,0,0-1.33-3.29,3.07,3.07,0,0,0-.17-.31c-.08-.15-.17-.3-.26-.45a16.16,16.16,0,0,0-27.48,0l-.27.45c0,.1-.11.2-.16.31a15,15,0,0,0-1.32,3.29v0A1.5,1.5,0,0,0,104.16,1109.27Z" />
				<path class="cls-11" d="M108.15,1111.53a10.94,10.94,0,1,0,21.88-.33c0-.25,0-.51-.06-.77s-.06-.5-.1-.75c0-.08,0-.15,0-.23s0-.12,0-.18a10.77,10.77,0,0,0-2.57-5c-.22-.24-.46-.47-.7-.7a11,11,0,0,0-14.86,0c-.24.23-.47.46-.69.7a10.78,10.78,0,0,0-2.58,5l0,.18a1.85,1.85,0,0,0,0,.23,6.46,6.46,0,0,0-.11.75A10.14,10.14,0,0,0,108.15,1111.53Z" />
				<ellipse class="cls-12" cx="119.09" cy="1111.53" rx="5.71" ry="5.64" />
				<path class="cls-13" d="M101.25,1053.35v25h22.37L118,1064.56A18.1,18.1,0,0,0,101.25,1053.35Z" />
				<rect class="cls-13" x="64.16" y="1053.35" width="34.05" height="24.95" />
				<path class="cls-13" d="M34.07,1078.3H61.12v-25h-7a15.81,15.81,0,0,0-8.71,2.6,15.44,15.44,0,0,0-4.38,4.33,15.72,15.72,0,0,0-1.76,3.47l-4.8,13.53Z" />
				<path class="cls-14" d="M101.25,1053.35v4.3l20.88,20.65h1.49L118,1064.56C114,1054.92,108.63,1053.35,101.25,1053.35Z" />
				<polygon class="cls-14" points="96.9 1053.35 98.21 1054.64 98.21 1053.35 96.9 1053.35" />
				<polygon class="cls-14" points="109.84 1078.3 101.25 1069.81 101.25 1074.75 104.83 1078.3 109.84 1078.3" />
				<polygon class="cls-14" points="79.6 1053.35 98.21 1071.75 98.21 1066.8 84.61 1053.35 79.6 1053.35" />
				<polygon class="cls-14" points="71.48 1053.35 64.16 1053.35 64.16 1060.94 81.72 1078.3 96.71 1078.3 71.48 1053.35" />
				<polygon class="cls-14" points="56.48 1053.35 61.12 1057.94 61.12 1053.35 56.48 1053.35" />
				<polygon class="cls-14" points="67.96 1078.3 64.16 1074.54 64.16 1078.3 67.96 1078.3" />
				<path class="cls-14" d="M41,1060.28l18.23,18h1.9v-6.77L45.37,1056A15.44,15.44,0,0,0,41,1060.28Z" />
				<polygon class="cls-14" points="34.07 1078.3 35.47 1078.3 34.43 1077.28 34.07 1078.3" />
				<path class="cls-15" d="M74,1043.46v.55h.91v2.58h.55V1044h.91v-.55Z" />
				<path class="cls-15" d="M78.66,1043.46h-.58l-1.32,3.13h.61l.32-.73h1.37l.32.73H80Zm-.73,1.84.45-1.06.44,1.06Z" />
				<path class="cls-15" d="M82.09,1045l.93-1.49h-.68l-.6,1-.59-1h-.69l1,1.49-1,1.64H81l.71-1.1.71,1.1h.67Z" />
				<path class="cls-15" d="M83.79,1043.46v3.13h.58v-3.13Z" />
				<path class="cls-16" d="M796.29,1211.31v15l-15.93,1.21-5,.37q-20.22,1.45-40.47,2.34-63.29,2.76-126.61-.15-20.25-.91-40.48-2.44-8.31-.6-16.63-1.33a23.44,23.44,0,0,1-5.93-15.18,21.78,21.78,0,0,1,1.39-7.61c.16-.45.35-.89.54-1.35,0,0-2.52-5.07-.46-13.85.76-3.23,4.76-9.59,8.11-9.49l4.53.15,13.42.45a134.64,134.64,0,0,1,154.28.12q3.21,2.25,6.25,4.67l2.8.09s37.49-1.63,55.41,15.63A15.78,15.78,0,0,1,796.29,1211.31Z" />
				<path class="cls-17" d="M608.26,1230.11a2,2,0,0,0-.06-.48v0a21,21,0,0,0-1.69-4.37l-.22-.4c-.11-.21-.22-.41-.34-.6a21.32,21.32,0,0,0-36.26-.46l-.35.58a4.1,4.1,0,0,0-.22.41,18.58,18.58,0,0,0-1.33,2.9Z" />
				<path class="cls-18" d="M573.25,1232.17a14.43,14.43,0,1,0,28.86-.07c0-.33,0-.67-.06-1s-.07-.67-.12-1c0-.1,0-.2,0-.3a2,2,0,0,1,0-.24,14.22,14.22,0,0,0-3.3-6.61c-.29-.33-.6-.63-.91-.93a14.55,14.55,0,0,0-19.6-.25,11.43,11.43,0,0,0-.93.91,14.25,14.25,0,0,0-3.48,6.52,2,2,0,0,0-.05.24c0,.1,0,.2-.06.3-.07.33-.12.66-.16,1S573.26,1231.68,573.25,1232.17Z" />
				<ellipse class="cls-12" cx="587.68" cy="1232.36" rx="7.53" ry="7.44" />
				<path class="cls-17" d="M775.34,1227.92q-20.22,1.45-40.47,2.34a1.92,1.92,0,0,1,0-.89s0,0,0,0a20.07,20.07,0,0,1,1.74-4.35c.06-.13.14-.27.21-.4s.24-.4.35-.6a21.34,21.34,0,0,1,36.27,0l.34.6c.08.13.15.27.22.4A21.26,21.26,0,0,1,775.34,1227.92Z" />
				<path class="cls-18" d="M740.91,1233.07a14.43,14.43,0,1,0,28.86-.44c0-.34,0-.68-.07-1s-.08-.67-.14-1c0-.1,0-.2,0-.3a2,2,0,0,1,0-.24,14.28,14.28,0,0,0-3.39-6.57c-.3-.32-.6-.62-.92-.92a14.57,14.57,0,0,0-19.6,0c-.32.3-.63.6-.92.92a14.3,14.3,0,0,0-3.4,6.57c0,.08,0,.16,0,.24s-.05.2-.06.3c-.06.33-.11.66-.14,1A13.79,13.79,0,0,0,740.91,1233.07Z" />
				<ellipse class="cls-12" cx="755.35" cy="1233.06" rx="7.53" ry="7.44" />
				<path class="cls-10" d="M586.48,1179.86l10.39.21,15.37.34,6.4.13,2.83.07,14.33.3,15.37.33,13.06.28,6.4.13,6.66.15,10,.21,9.22.2,7.66.16,5,.1,7.28.16,1.56,0c-1.55-1.09-3.13-2.16-4.76-3.2A138.21,138.21,0,0,0,697,1170.4q-4.28-2-8.71-3.74c-3.66-1.4-7.42-2.65-11.23-3.69a105.19,105.19,0,0,0-11.51-2.46,91.67,91.67,0,0,0-10.83-1q-1.59-.06-3.18-.06c-1.11,0-2.23,0-3.35,0-2,.06-4,.16-5.93.33a110,110,0,0,0-11.28,1.48,112.25,112.25,0,0,0-12.1,2.9c-3.53,1-7,2.28-10.34,3.65-.65.26-1.3.54-1.93.82q-2.18.93-4.29,1.95-5,2.4-9.71,5.27C590.52,1177.12,588.47,1178.46,586.48,1179.86Z" />
				<g class="cls-19">
					<path class="cls-14" d="M618.87,1164.16l16.93,16.75,15.37.33-20.2-20A112.25,112.25,0,0,0,618.87,1164.16Z" />
					<path class="cls-14" d="M592.6,1175.85l4.27,4.22,15.37.34-9.93-9.83Q597.32,1173,592.6,1175.85Z" />
					<path class="cls-14" d="M654.71,1159.46l22.58,22.34,10,.21-21.74-21.5A91.67,91.67,0,0,0,654.71,1159.46Z" />
					<path class="cls-14" d="M642.25,1159.78l22,21.74,6.4.13-22.45-22.2C646.19,1159.51,644.22,1159.61,642.25,1159.78Z" />
					<path class="cls-14" d="M606.6,1168.63l12,11.91,2.83.07-12.94-12.8C607.88,1168.07,607.23,1168.35,606.6,1168.63Z" />
					<path class="cls-14" d="M688.28,1166.66l15.88,15.71,5,.1L697,1170.4Q692.71,1168.38,688.28,1166.66Z" />
				</g>
				<path class="cls-20" d="M1080,1003.61a56.86,56.86,0,0,1-9.67,10.49l-6.33-7.5Z" />
				<polygon class="cls-7" points="540.72 1017.77 426.82 1017.77 426.82 610.48 540.72 658.08 540.72 1017.77" />
				<polygon class="cls-6" points="1879.02 1017.77 1765.12 1017.77 1765.12 610.48 1879.02 658.08 1879.02 1017.77" />
				<polygon class="cls-7" points="1284.28 1017.77 1170.38 1017.77 1170.38 466.53 1284.28 530.95 1284.28 1017.77" />
				<rect class="cls-21" x="507.44" y="1004.89" width="5.04" height="42.68" />
				<ellipse class="cls-5" cx="509.96" cy="993.37" rx="19.85" ry="19.63" />
				<polygon class="cls-7" points="675.48 1017.77 559.97 1017.77 559.97 557.82 617.07 500.47 675.48 557.82 675.48 1017.77" />
				<polygon class="cls-6" points="263.19 1017.77 147.69 1017.77 147.69 557.82 204.78 500.47 263.19 557.82 263.19 1017.77" />
				<polygon class="cls-22" points="1138.7 1017.77 1023.2 1017.77 1023.2 699.34 1080.29 659.64 1138.7 699.34 1138.7 1017.77" />
				<polygon class="cls-7" points="344.61 1017.77 229.1 1017.77 229.1 699.34 286.2 659.64 344.61 699.34 344.61 1017.77" />
				<polygon class="cls-7" points="1459.95 1017.77 1344.44 1017.77 1344.44 783.63 1401.54 754.44 1459.95 783.63 1459.95 1017.77" />
				<rect class="cls-7" x="712.78" y="590.59" width="116.71" height="427.18" />
				<path class="cls-23" d="M852.69,436.26h267.1s-21.56-105.25-114.07-64c0,0-9.05-28.89-48.69-27.52s-59.82,24.77-59.82,24.77-19.48-24.08-56.35-9.63-55,72.23-120.33,77Z" />
				<path class="cls-23" d="M1743.53,468.31H1634s8.84-43.17,46.79-26.24c0,0,3.71-11.86,20-11.29s24.54,10.16,24.54,10.16,8-9.88,23.11-3.95,22.55,29.63,49.37,31.6Z" />
				<path class="cls-23" d="M431.44,405.74,133,410.3s-5.61-51,36.17-54.59,56.9,11,68,10.47,12.35-41.12,47-29,112.27-21.31,131.43,3.7,46.77,42.54,70.41,42.84,54.54-22,84.24-5.15,89.47,21.06,89.47,21.06Z" />
				<path class="cls-24" d="M1920,305.2v70.92l-20.58,1.07-185.57,7.06s48.15-7.61,70.93-26.15,49.55,1.93,68.7.28,40.18-20.74,53.78-46.77a17.18,17.18,0,0,1,5.77-6.41Z" />
				<path class="cls-24" d="M423.75,539.91l40.24-.45c15.22-.17,27.6-12.76,26.69-27.79-.24-3.85-1.28-6.67-3.73-7.11-8.89-1.58-22.18,11-24.54,10.81s-11.78-9.8-18.43-2.55-17.59-11.32-20.4,3S416.24,527.6,411.32,528s-12.42-11.88-17.82-2-17.67,12.9-17.67,12.9Z" />
				<path class="cls-24" d="M1268,453.65h125.2s-12.52-19-24.72-19-17,4.13-17,4.13-1-8.57-9.31-8.89-19.26,8.89-19.26,8.89.64-7.3-8.67-7.62-13.81,11.43-13.81,11.43-4.49-7.62-13.48-7S1268,453.65,1268,453.65Z" />
				<path class="cls-23" d="M153.43,501.38H.86s5.57-9.78,12.15-15a13,13,0,0,1,6.79-3.13c9-.63,12.13,2.26,12.13,2.26s5.85-7,15.16-6.7,8.67,7.62,8.67,7.62S71.81,474,80.16,474.31c8.19.3,4.32,11.71,4.18,12.14.3-.24,5.19-4.12,17-4.12,5.31,0,10.69,3.62,15.07,7.7C122.08,495.32,153.43,501.38,153.43,501.38Z" />
				<path class="cls-23" d="M1424.45,369.31H1601.6s-26.9-21.1-43.13-24.31-18.09,9.17-33.39,5.05-27.82-15.14-36.17-12.84-27.36,17-41.73,21.55S1424.45,369.31,1424.45,369.31Z" />
				<rect class="cls-25" y="1013.87" width="1920" height="16.73" />
				<path class="cls-4" d="M1309.83,1128.24c.05,2,.12,3.22.12,3.22h200.74l10.13-.36c.32-.95.64-1.9.93-2.86s.61-2,.9-3a119.35,119.35,0,0,0,2.68-11.71,118.32,118.32,0,0,0-4.63-59.12c0-2-2.14-3.63-4.78-3.63H1379.69a5.29,5.29,0,0,0-4,1.61l-2.06,2.33-1.48,1.68-2,2.22-16.48,18h0l-1.48,1.62h0l-5.88,6.42-.76.84s-1.4.18-3.63.58c-7.11,1.3-22.61,4.84-27.31,11.89a22.37,22.37,0,0,0-2.69,6.41,58.88,58.88,0,0,0-1.57,8.85c-.25,2.32-.41,4.65-.5,6.81C1309.77,1123.32,1309.79,1126.19,1309.83,1128.24Z" />
				<path class="cls-26" d="M1353.85,1087.76v24c1.06,1.79,1.6,3.54,2.6,5l7.88,11.61" />
				<rect class="cls-26" x="1407.14" y="1050.79" height="80.68" />
				<path class="cls-10" d="M1309.83,1128.24c.05,2,.12,3.22.12,3.22H1520.7l.12-.36c.32-.95.64-1.9.93-2.86Z" />
				<path class="cls-27" d="M1401.41,1059.83v23.36a2.08,2.08,0,0,1-2.09,2.06h-46.17a.84.84,0,0,1-.85-.73.79.79,0,0,1,.21-.69l20.56-22.49,1.8-2,.74-.83a2.07,2.07,0,0,1,1.57-.71h22.14A2.08,2.08,0,0,1,1401.41,1059.83Z" />
				<path class="cls-10" d="M1472.91,1132a1.72,1.72,0,0,0,1,.35h2.72a.52.52,0,0,1,0,.11h25.58s0-.08,0-.11h2.72a1.72,1.72,0,0,0,1-.35,1.66,1.66,0,0,0,.63-1.79h0a17.13,17.13,0,0,0-1.48-3.65,3.65,3.65,0,0,0-.18-.34c-.1-.17-.19-.34-.29-.5a16.28,16.28,0,0,0-.93-1.36,17.91,17.91,0,0,0-28.59,0,16.28,16.28,0,0,0-.93,1.36c-.1.16-.19.33-.29.5a3.65,3.65,0,0,0-.18.34,16.57,16.57,0,0,0-1.46,3.65h0A1.67,1.67,0,0,0,1472.91,1132Z" />
				<path class="cls-11" d="M1477.34,1134.51a12.12,12.12,0,1,0,24.23-.37c0-.28,0-.57-.07-.85a8,8,0,0,0-.11-.84,2.21,2.21,0,0,0-.05-.25c0-.07,0-.13,0-.2a11.76,11.76,0,0,0-2.85-5.51,9.45,9.45,0,0,0-.77-.78,12.2,12.2,0,0,0-16.45,0c-.27.25-.53.5-.78.78a12,12,0,0,0-2.85,5.51c0,.07,0,.13,0,.2a2.21,2.21,0,0,0,0,.25c0,.28-.08.56-.11.84S1477.34,1134.1,1477.34,1134.51Z" />
				<ellipse class="cls-28" cx="1489.45" cy="1134.51" rx="6.32" ry="6.25" />
				<g class="cls-29">
					<path class="cls-14" d="M1379.36,1057.76l-27.06,26.76a.79.79,0,0,1,.21-.69l20.56-22.49,1.8-2,.74-.83a2.07,2.07,0,0,1,1.57-.71Z" />
					<path class="cls-14" d="M1401.41,1080.42v2.77a2.08,2.08,0,0,1-2.09,2.06h-2.8Z" />
					<polygon class="cls-14" points="1398.41 1057.77 1370.61 1085.25 1360.71 1085.25 1388.5 1057.77 1398.41 1057.77" />
					<polygon class="cls-14" points="1401.41 1061.33 1401.41 1067.61 1383.56 1085.25 1377.21 1085.25 1401.41 1061.33" />
				</g>
				<path class="cls-10" d="M1328.13,1131.46a1.54,1.54,0,0,0,.27.36,1.62,1.62,0,0,0,.2.18,1.72,1.72,0,0,0,1.05.35h2.72s0,.07,0,.1h.84q-.08.42-.12.84h24.11a6.07,6.07,0,0,0-.12-.84h.86s0-.07,0-.1h2.73a1.71,1.71,0,0,0,1-.35,1.87,1.87,0,0,0,.47-.54,1.58,1.58,0,0,0,.16-1.25h0a15.62,15.62,0,0,0-.68-2,17.31,17.31,0,0,0-.79-1.69,3.72,3.72,0,0,0-.19-.34l-.29-.5a17.9,17.9,0,0,0-30.45,0c-.09.17-.2.33-.29.5a3.65,3.65,0,0,0-.18.34,15.33,15.33,0,0,0-.8,1.69,14.1,14.1,0,0,0-.66,2h0A1.58,1.58,0,0,0,1328.13,1131.46Z" />
				<path class="cls-11" d="M1333,1134.51a12.12,12.12,0,1,0,24.23-.37c0-.28,0-.56-.06-.85a8,8,0,0,0-.11-.84c0-.08,0-.16,0-.25s0-.13,0-.2a11.86,11.86,0,0,0-2.85-5.51,9.45,9.45,0,0,0-.77-.78,12.21,12.21,0,0,0-16.46,0,9.45,9.45,0,0,0-.77.78,12,12,0,0,0-2.85,5.51c0,.07,0,.13,0,.2s0,.17,0,.25q-.08.42-.12.84C1333,1133.69,1333,1134.1,1333,1134.51Z" />
				<ellipse class="cls-28" cx="1345.14" cy="1134.51" rx="6.32" ry="6.25" />
				<rect class="cls-10" x="1352.13" y="1076.47" width="5.27" height="11.73" rx="2.62" transform="translate(2709.52 2164.66) rotate(180)" />
				<path class="cls-10" d="M1515.4,1117.24v8h7.25a119.35,119.35,0,0,0,2.68-11.71h-6.19A3.73,3.73,0,0,0,1515.4,1117.24Z" />
				<path class="cls-10" d="M1309.83,1128.24c.05,2,.12,3.22.12,3.22h18.18a1.54,1.54,0,0,0,.27.36h2.7l.22-.36,2-3.22,5-8.13H1309.9C1309.77,1123.32,1309.79,1126.19,1309.83,1128.24Z" />
				<path class="cls-10" d="M1310.4,1113.3h10.19v-.24a8.66,8.66,0,0,0-8.62-8.61A58.88,58.88,0,0,0,1310.4,1113.3Z" />
				<path class="cls-30" d="M1906.41,1275.46c-.08,3.17-.2,5.11-.2,5.11H1571.78l-16.06-.57c-.51-1.51-1-3-1.48-4.54s-1-3.16-1.41-4.74a188,188,0,0,1-7.13-51.2,187.83,187.83,0,0,1,10.21-61c0-3.17,3.39-5.76,7.57-5.76h232.21a8.39,8.39,0,0,1,6.28,2.56l3.27,3.7,2.34,2.65,3.12,3.52,26.12,28.59h0l2.35,2.58h0l9.31,10.18,1.21,1.32s2.22.29,5.75.93c11.27,2,35.84,7.67,43.28,18.84a35.72,35.72,0,0,1,4.27,10.16,91.87,91.87,0,0,1,2.48,14c.41,3.69.65,7.37.79,10.8C1906.5,1267.66,1906.47,1272.21,1906.41,1275.46Z" />
				<path class="cls-31" d="M1836.64,1211.31v38c-1.67,2.83-2.52,5.61-4.12,8L1820,1275.71" />
				<rect class="cls-31" x="1752.2" y="1152.72" height="127.85" />
				<path class="cls-10" d="M1906.41,1275.46c-.08,3.17-.2,5.11-.2,5.11h-350.3l-.19-.57c-.51-1.51-1-3-1.48-4.54Z" />
				<path class="cls-27" d="M1761.28,1167.05v37a3.29,3.29,0,0,0,3.31,3.27h73.16a1.34,1.34,0,0,0,1.35-1.16,1.3,1.3,0,0,0-.33-1.1l-32.58-35.64-2.86-3.23-1.16-1.31a3.29,3.29,0,0,0-2.49-1.12h-35.09A3.29,3.29,0,0,0,1761.28,1167.05Z" />
				<path class="cls-10" d="M1631.64,1281.43a2.75,2.75,0,0,1-1.66.54h-4.32l0,.17h-40.53l0-.17h-4.31a2.72,2.72,0,0,1-1.65-.54,2.63,2.63,0,0,1-1-2.84v0a27.08,27.08,0,0,1,2.33-5.79c.09-.18.19-.36.29-.54s.31-.53.46-.79c.46-.74,1-1.47,1.48-2.16a28.4,28.4,0,0,1,45.3,0c.52.69,1,1.42,1.47,2.16l.47.79c.1.18.2.36.29.54a27,27,0,0,1,2.31,5.79s0,0,0,0A2.65,2.65,0,0,1,1631.64,1281.43Z" />
				<path class="cls-11" d="M1624.63,1285.4a19.2,19.2,0,1,1-38.4-.59c0-.44,0-.89.1-1.34s.1-.89.18-1.33c0-.13,0-.27.07-.4s.05-.21.07-.32a18.89,18.89,0,0,1,4.51-8.74c.39-.43.8-.83,1.23-1.23a19.38,19.38,0,0,1,26.07,0c.43.4.84.8,1.23,1.23a19,19,0,0,1,4.52,8.74c0,.11,0,.21.06.32s.06.27.08.4c.08.44.13.88.18,1.33C1624.59,1284.11,1624.63,1284.74,1624.63,1285.4Z" />
				<ellipse class="cls-32" cx="1605.43" cy="1285.39" rx="10.02" ry="9.91" />
				<g class="cls-29">
					<path class="cls-14" d="M1796.22,1163.78l42.88,42.4a1.3,1.3,0,0,0-.33-1.1l-32.58-35.64-2.86-3.23-1.16-1.31a3.29,3.29,0,0,0-2.49-1.12Z" />
					<path class="cls-14" d="M1761.28,1199.68v4.39a3.29,3.29,0,0,0,3.31,3.27H1769Z" />
					<polygon class="cls-14" points="1766.04 1163.78 1810.09 1207.34 1825.78 1207.34 1781.73 1163.78 1766.04 1163.78" />
					<polygon class="cls-14" points="1761.28 1169.42 1761.28 1179.38 1789.56 1207.34 1799.62 1207.34 1761.28 1169.42" />
				</g>
				<path class="cls-10" d="M1877.41,1280.57a2.42,2.42,0,0,1-.44.57,2.65,2.65,0,0,1-2,.83h-4.32l0,.17h-1.34c.08.44.14.88.19,1.33h-38.21a11.83,11.83,0,0,1,.19-1.33h-1.36l0-.17h-4.32a2.63,2.63,0,0,1-1.64-.55,2.81,2.81,0,0,1-.76-.85,2.51,2.51,0,0,1-.25-2v0a29.82,29.82,0,0,1,1.07-3.1,28.48,28.48,0,0,1,1.26-2.68c.1-.18.2-.35.3-.54s.31-.52.46-.79a28.36,28.36,0,0,1,48.25,0c.15.27.31.52.46.79l.3.54a28.48,28.48,0,0,1,1.26,2.68,24.05,24.05,0,0,1,1.05,3.1,0,0,0,0,1,0,0A2.56,2.56,0,0,1,1877.41,1280.57Z" />
				<path class="cls-11" d="M1869.66,1285.4a19.21,19.21,0,1,1-38.41-.59c0-.44,0-.89.1-1.34s.1-.89.18-1.33c0-.13,0-.27.08-.4s0-.21.06-.32a18.91,18.91,0,0,1,4.52-8.74c.39-.43.79-.83,1.22-1.23a19.39,19.39,0,0,1,26.08,0c.43.4.84.8,1.23,1.23a19,19,0,0,1,4.51,8.74c0,.11,0,.21.07.32s0,.27.07.4c.08.44.14.88.19,1.33C1869.62,1284.11,1869.66,1284.74,1869.66,1285.4Z" />
				<ellipse class="cls-32" cx="1850.45" cy="1285.4" rx="10.02" ry="9.91" />
				<rect class="cls-10" x="1831.03" y="1193.42" width="8.35" height="18.59" rx="4.15" />
				<path class="cls-10" d="M1564.31,1258v12.69h-11.48a185.9,185.9,0,0,1-4.26-18.56h9.8A5.91,5.91,0,0,1,1564.31,1258Z" />
				<path class="cls-10" d="M1906.41,1275.46c-.08,3.17-.2,5.11-.2,5.11h-28.8a2.42,2.42,0,0,1-.44.57h-4.27l-.35-.57-3.17-5.11-8-12.88h45.09C1906.5,1267.66,1906.47,1272.21,1906.41,1275.46Z" />
				<path class="cls-10" d="M1905.5,1251.78h-16.14v-.38a13.7,13.7,0,0,1,13.66-13.63A91.87,91.87,0,0,1,1905.5,1251.78Z" />
				<rect class="cls-21" x="440.1" y="967.41" width="5.04" height="42.68" />
				<ellipse class="cls-5" cx="442.62" cy="955.89" rx="19.85" ry="19.63" />
				<rect class="cls-21" x="973.09" y="993.98" width="5.04" height="42.68" />
				<ellipse class="cls-5" cx="975.61" cy="982.45" rx="19.85" ry="19.63" />
				<rect class="cls-21" x="1089.06" y="985.75" width="6.99" height="59.17" />
				<ellipse class="cls-5" cx="1092.56" cy="969.77" rx="27.51" ry="27.21" />
				<rect class="cls-21" x="770.85" y="993.98" width="5.04" height="42.68" />
				<ellipse class="cls-5" cx="773.37" cy="982.45" rx="19.85" ry="19.63" />
				<rect class="cls-21" x="886.82" y="985.75" width="6.99" height="59.17" />
				<ellipse class="cls-5" cx="890.31" cy="969.77" rx="27.51" ry="27.21" />
				<path class="cls-8" d="M1726.06,1019.68h18.52l-1.7-6.57a2.68,2.68,0,0,0-2.58-2h-10a2.66,2.66,0,0,0-2.58,2Z" />
				<path class="cls-9" d="M1661.57,1049.71l2.13,16.9,127.52,2.78V1046a3.21,3.21,0,0,0-3.09-3.19l-3-.12a4.51,4.51,0,0,1-3.86-2.47l-9.51-18.83h0a7.39,7.39,0,0,0-6.61-4h-61.43a6.84,6.84,0,0,0-6.25,4h0l-9.33,21.19-.16.35h-18.37C1663.74,1043.09,1661.12,1046.12,1661.57,1049.71Z" />
				<rect class="cls-10" x="1661.38" y="1065.36" width="131.27" height="4.32" rx="2.16" transform="translate(3454.02 2135.03) rotate(-180)" />
				<path class="cls-10" d="M1669.77,1069.23a1.37,1.37,0,0,0,.81.26h2.08v.08h.65c0,.22-.07.43-.09.65h18.48c0-.22,0-.43-.09-.65h.65v-.08h2.09a1.37,1.37,0,0,0,.8-.26,1.28,1.28,0,0,0,.48-1.37v0a13.59,13.59,0,0,0-1.13-2.79,2.15,2.15,0,0,0-.14-.26l-.22-.39a13.74,13.74,0,0,0-23.34,0c-.08.13-.15.26-.22.39l-.15.26a13,13,0,0,0-1.11,2.79v0A1.28,1.28,0,0,0,1669.77,1069.23Z" />
				<path class="cls-11" d="M1673.16,1071.15a9.29,9.29,0,1,0,18.58-.28c0-.22,0-.44,0-.65s0-.43-.09-.65l0-.19c0-.05,0-.1,0-.15a9,9,0,0,0-2.18-4.23c-.19-.21-.39-.41-.59-.6a9.38,9.38,0,0,0-12.62,0c-.2.19-.4.39-.59.6a9,9,0,0,0-2.18,4.23.8.8,0,0,0,0,.15,1.29,1.29,0,0,0,0,.19c0,.22-.07.43-.09.65S1673.16,1070.83,1673.16,1071.15Z" />
				<ellipse class="cls-12" cx="1682.45" cy="1071.15" rx="4.84" ry="4.79" />
				<path class="cls-10" d="M1756.82,1068.92a1.37,1.37,0,0,0,.8.26h2.09v.09h.64c0,.21-.07.42-.09.64h18.48c0-.22,0-.43-.09-.64h.66v-.09h2.08a1.34,1.34,0,0,0,.8-.26,1.27,1.27,0,0,0,.49-1.37h0a12.9,12.9,0,0,0-1.12-2.8l-.14-.26c-.08-.13-.15-.26-.23-.38a13.73,13.73,0,0,0-23.34,0l-.22.38a2.15,2.15,0,0,0-.14.26,12.9,12.9,0,0,0-1.12,2.8h0A1.28,1.28,0,0,0,1756.82,1068.92Z" />
				<path class="cls-11" d="M1760.2,1070.84a9.29,9.29,0,1,0,18.58-.28c0-.22,0-.44,0-.65s0-.43-.09-.64a1.38,1.38,0,0,0,0-.2l0-.15a9.17,9.17,0,0,0-2.18-4.23,8.35,8.35,0,0,0-.6-.59,9.34,9.34,0,0,0-12.61,0,8.35,8.35,0,0,0-.6.59,9.27,9.27,0,0,0-2.18,4.23l0,.15c0,.07,0,.13,0,.2s-.07.42-.09.64S1760.2,1070.52,1760.2,1070.84Z" />
				<ellipse class="cls-12" cx="1769.49" cy="1070.84" rx="4.84" ry="4.79" />
				<path class="cls-13" d="M1754.34,1021.43v21.19h19L1768.6,1031A15.38,15.38,0,0,0,1754.34,1021.43Z" />
				<rect class="cls-13" x="1722.85" y="1021.43" width="28.91" height="21.19" />
				<path class="cls-13" d="M1697.3,1042.62h23v-21.19h-6a13.47,13.47,0,0,0-7.4,2.22,13.1,13.1,0,0,0-3.71,3.67,12.8,12.8,0,0,0-1.5,3l-4.07,11.48Z" />
				<path class="cls-14" d="M1754.34,1021.43v3.65l17.74,17.54h1.26L1768.6,1031C1765.2,1022.77,1760.61,1021.43,1754.34,1021.43Z" />
				<polygon class="cls-14" points="1750.65 1021.43 1751.76 1022.53 1751.76 1021.43 1750.65 1021.43" />
				<polygon class="cls-14" points="1761.64 1042.62 1754.34 1035.41 1754.34 1039.61 1757.39 1042.62 1761.64 1042.62" />
				<polygon class="cls-14" points="1735.96 1021.43 1751.76 1037.06 1751.76 1032.86 1740.21 1021.43 1735.96 1021.43" />
				<polygon class="cls-14" points="1729.07 1021.43 1722.85 1021.43 1722.85 1027.88 1737.76 1042.62 1750.49 1042.62 1729.07 1021.43" />
				<polygon class="cls-14" points="1716.33 1021.43 1720.27 1025.33 1720.27 1021.43 1716.33 1021.43" />
				<polygon class="cls-14" points="1726.08 1042.62 1722.85 1039.43 1722.85 1042.62 1726.08 1042.62" />
				<path class="cls-14" d="M1703.18,1027.32l15.47,15.3h1.62v-5.75l-13.38-13.22A13.1,13.1,0,0,0,1703.18,1027.32Z" />
				<polygon class="cls-14" points="1697.3 1042.62 1698.48 1042.62 1697.61 1041.75 1697.3 1042.62" />
				<path class="cls-15" d="M1731.2,1013v.46h.77v2.2h.47v-2.2h.77V1013Z" />
				<path class="cls-15" d="M1735.52,1013.87l-.36-.83h-.48l-.35.83-.78,1.83h.52l.26-.63h1.18l.26.63h.53Zm-1,.73.3-.73.07-.17.07.17.31.73Z" />
				<path class="cls-15" d="M1738.08,1014.3l.27-.43.51-.83h-.57l-.51.81-.51-.81h-.58l.53.83.28.43-.88,1.4h.57l.59-.94.6.94h.56Z" />
				<path class="cls-15" d="M1739.53,1013v2.66h.48V1013Z" />
				<path class="cls-8" d="M1176.63,1150h-36.35l3.35-12.88a5.22,5.22,0,0,1,5.06-3.89h19.53a5.22,5.22,0,0,1,5.06,3.89Z" />
				<path class="cls-9" d="M1303.2,1209l-4.19,33.17-250.27,5.46v-45.83a6.31,6.31,0,0,1,6.09-6.26l5.83-.23a8.89,8.89,0,0,0,7.59-4.86l18.65-36.94h0a14.53,14.53,0,0,1,13-7.94h120.56a13.36,13.36,0,0,1,12.25,7.94h0l18.32,41.59.3.68h36.07C1298.94,1196,1304.08,1201.94,1303.2,1209Z" />
				<rect class="cls-10" x="1045.95" y="1239.68" width="257.62" height="8.47" rx="4.24" />
				<path class="cls-10" d="M1287.09,1247.28a2.64,2.64,0,0,1-1.57.52h-4.1a.88.88,0,0,1,0,.16h-1.27q.12.61.18,1.26h-36.27q.06-.65.18-1.26H1243l0-.16h-4.1a2.61,2.61,0,0,1-1.56-.52,2.51,2.51,0,0,1-1-2.69,0,0,0,0,0,0,0,26.27,26.27,0,0,1,2.21-5.49c.09-.17.18-.34.28-.51s.29-.5.44-.75a26.94,26.94,0,0,1,45.8,0l.44.75c.09.17.19.34.27.51a25.71,25.71,0,0,1,2.2,5.49,0,0,0,0,1,0,0A2.52,2.52,0,0,1,1287.09,1247.28Z" />
				<path class="cls-11" d="M1280.45,1251.05a18.23,18.23,0,1,1-36.46-.56c0-.42,0-.85.09-1.27s.1-.85.18-1.26a2.66,2.66,0,0,1,.07-.39c0-.1,0-.19.06-.29a17.91,17.91,0,0,1,4.28-8.3c.37-.41.76-.79,1.16-1.17a18.39,18.39,0,0,1,24.76,0c.41.38.8.76,1.17,1.17a18,18,0,0,1,4.28,8.3l.06.29c0,.13.05.26.07.39q.12.61.18,1.26C1280.41,1249.82,1280.45,1250.43,1280.45,1251.05Z" />
				<ellipse class="cls-12" cx="1262.22" cy="1251.05" rx="9.51" ry="9.4" />
				<path class="cls-10" d="M1116.26,1246.67a2.57,2.57,0,0,1-1.57.52h-4.1l0,.16h-1.27q.11.63.18,1.26h-36.27a10.88,10.88,0,0,1,.17-1.26h-1.28l0-.16h-4.1a2.55,2.55,0,0,1-1.57-.52,2.48,2.48,0,0,1-1-2.69v0a25.74,25.74,0,0,1,2.21-5.49c.08-.17.18-.34.27-.51s.3-.5.44-.75a26.94,26.94,0,0,1,45.8,0c.15.25.3.49.44.75s.19.34.28.51a25.17,25.17,0,0,1,2.19,5.49v0A2.51,2.51,0,0,1,1116.26,1246.67Z" />
				<path class="cls-11" d="M1109.62,1250.44a18.23,18.23,0,1,1-36.46-.55c0-.43,0-.85.1-1.28a10.88,10.88,0,0,1,.17-1.26c0-.12,0-.25.07-.38l.06-.3a18,18,0,0,1,4.29-8.3c.37-.4.75-.79,1.16-1.16a18.39,18.39,0,0,1,24.76,0c.4.37.79.76,1.16,1.16a18.07,18.07,0,0,1,4.29,8.3,2.65,2.65,0,0,0,.06.3c0,.13,0,.26.07.38q.11.63.18,1.26C1109.59,1249.22,1109.62,1249.82,1109.62,1250.44Z" />
				<ellipse class="cls-12" cx="1091.39" cy="1250.44" rx="9.51" ry="9.4" />
				<path class="cls-13" d="M1121.13,1153.48v41.59h-37.29l9.31-22.9A30.17,30.17,0,0,1,1121.13,1153.48Z" />
				<rect class="cls-13" x="1126.19" y="1153.48" width="56.74" height="41.58" />
				<path class="cls-13" d="M1233.08,1195.07H1188v-41.59h11.73a26.35,26.35,0,0,1,14.52,4.35,26,26,0,0,1,10.23,13l8,22.54Z" />
				<path class="cls-14" d="M1121.13,1153.48v7.16l-34.81,34.43h-2.48l9.31-22.9C1099.82,1156.11,1108.82,1153.48,1121.13,1153.48Z" />
				<polygon class="cls-14" points="1128.37 1153.48 1126.19 1155.64 1126.19 1153.48 1128.37 1153.48" />
				<polygon class="cls-14" points="1106.81 1195.07 1121.13 1180.91 1121.13 1189.15 1115.15 1195.07 1106.81 1195.07" />
				<polygon class="cls-14" points="1157.19 1153.48 1126.19 1184.14 1126.19 1175.9 1148.86 1153.48 1157.19 1153.48" />
				<polygon class="cls-14" points="1170.73 1153.48 1182.93 1153.48 1182.93 1166.14 1153.67 1195.07 1128.69 1195.07 1170.73 1153.48" />
				<polygon class="cls-14" points="1195.73 1153.48 1187.99 1161.13 1187.99 1153.48 1195.73 1153.48" />
				<polygon class="cls-14" points="1176.59 1195.07 1182.93 1188.8 1182.93 1195.07 1176.59 1195.07" />
				<path class="cls-14" d="M1221.54,1165l-30.38,30H1188v-11.28l26.25-26A25.67,25.67,0,0,1,1221.54,1165Z" />
				<polygon class="cls-14" points="1233.08 1195.07 1230.75 1195.07 1232.47 1193.36 1233.08 1195.07" />
				<path class="cls-15" d="M1149.25,1137v.92h1.52v4.31h.93v-4.31h1.52V1137Z" />
				<path class="cls-15" d="M1157.05,1137h-1l-2.22,5.23h1l.52-1.22h2.3l.51,1.22h1Zm-1.23,3.06.74-1.76.74,1.76Z" />
				<path class="cls-15" d="M1162.76,1139.49l1.54-2.49h-1.12l-1,1.6-1-1.6H1160l1.58,2.49-1.72,2.74H1161l1.16-1.84,1.19,1.84h1.11Z" />
				<path class="cls-15" d="M1165.6,1137v5.23h1V1137Z" />
				<polygon class="cls-33" points="211.65 1153.55 206.66 1164.09 210.28 1164.76 214.14 1155.34 211.65 1153.55" />
				<polygon class="cls-33" points="230.84 1155.71 237.55 1165.28 239.96 1162.52 233.67 1154.48 230.84 1155.71" />
				<path class="cls-34" d="M203.86,1142h35.37a2.72,2.72,0,0,1,2.72,2.72V1154a2.72,2.72,0,0,1-2.72,2.72H211.62a11.21,11.21,0,0,1-11.21-11.21v0a3.46,3.46,0,0,1,3.46-3.46Z" />
				<path class="cls-8" d="M307.58,1237.93v61.49a7.88,7.88,0,0,1-7.91,7.83H40.56a7.87,7.87,0,0,1-7.91-7.83V1167a7.87,7.87,0,0,1,7.91-7.83h209a7.91,7.91,0,0,1,6.57,3.47l9.12,13.43,35.85,52.83,6.13,9Z" />
				<path class="cls-10" d="M315.14,1301a9.45,9.45,0,0,1-1.27,5,3.73,3.73,0,0,1-3.06,2.06h-282c-2.38,0-4.31-3.14-4.31-7a9.57,9.57,0,0,1,1.26-5,3.78,3.78,0,0,1,3.05-2.06h282a3.63,3.63,0,0,1,2.94,1.87A9.34,9.34,0,0,1,315.14,1301Z" />
				<path class="cls-10" d="M119.1,1307.25a3,3,0,0,1-1.81.6h-4.71l0,.18H68.39l0-.18h-4.7a3,3,0,0,1-1.8-.6,2.87,2.87,0,0,1-1.1-3.09,0,0,0,0,0,0,0,29.65,29.65,0,0,1,2.54-6.31c.1-.2.21-.39.32-.59s.33-.57.5-.86c.51-.81,1-1.6,1.61-2.36a31,31,0,0,1,49.42,0c.57.76,1.11,1.55,1.61,2.36l.51.86.31.59a29.08,29.08,0,0,1,2.52,6.31,0,0,0,0,1,0,0A2.87,2.87,0,0,1,119.1,1307.25Z" />
				<path class="cls-11" d="M111.45,1311.58a20.95,20.95,0,1,1-41.89-.63c0-.49,0-1,.11-1.47a14,14,0,0,1,.2-1.45,3.35,3.35,0,0,1,.07-.44c0-.12,0-.23.07-.34a20.66,20.66,0,0,1,4.93-9.54c.42-.47.87-.91,1.33-1.34a21.12,21.12,0,0,1,28.45,0c.47.43.91.87,1.34,1.34a20.66,20.66,0,0,1,4.93,9.54c0,.11.05.22.07.34s.06.29.08.44c.09.48.15,1,.2,1.45A20.79,20.79,0,0,1,111.45,1311.58Z" />
				<ellipse class="cls-12" cx="90.5" cy="1311.58" rx="10.93" ry="10.81" />
				<path class="cls-10" d="M279.33,1307.25a3,3,0,0,1-1.81.59h-4.71l0,.19h-1.47c.09.48.16,1,.21,1.45H229.9a14,14,0,0,1,.2-1.45h-1.48l0-.19H224a3,3,0,0,1-1.8-.59,2.87,2.87,0,0,1-1.1-3.09,0,0,0,0,0,0,0,29.44,29.44,0,0,1,2.54-6.31c.1-.2.21-.39.32-.59s.33-.58.5-.86a31,31,0,0,1,52.64,0l.51.86.31.59a28.88,28.88,0,0,1,2.52,6.31,0,0,0,0,1,0,0A2.87,2.87,0,0,1,279.33,1307.25Z" />
				<path class="cls-11" d="M271.69,1311.58a21,21,0,1,1-41.9-.63c0-.49.05-1,.11-1.47a14,14,0,0,1,.2-1.45c0-.15.05-.29.08-.44s0-.23.07-.34a20.64,20.64,0,0,1,4.92-9.54c.43-.47.87-.91,1.34-1.34a21.12,21.12,0,0,1,28.45,0c.47.43.91.87,1.34,1.34a20.84,20.84,0,0,1,4.93,9.54c0,.11,0,.22.06.34s.06.29.08.44c.09.48.16,1,.21,1.45A20.79,20.79,0,0,1,271.69,1311.58Z" />
				<ellipse class="cls-12" cx="250.74" cy="1311.58" rx="10.93" ry="10.81" />
				<path class="cls-27" d="M218.21,1183.68v37.6a7.65,7.65,0,0,0,7.69,7.61h75.21l-32.29-47.58-3.55-5.24H225.9a7.68,7.68,0,0,0-7.69,7.61Z" />
				<polygon class="cls-34" points="307.58 1255.47 307.58 1271.36 32.65 1271.36 32.65 1255.47 256.73 1255.47 307.58 1255.47" />
				<rect class="cls-34" x="71.24" y="1182.19" width="8.53" height="44.19" />
				<rect class="cls-34" x="71.29" y="1181.94" width="8.44" height="44.68" transform="translate(-1128.78 1279.78) rotate(-90)" />
				<path class="cls-35" d="M31.66,1276.45h9.9a1.58,1.58,0,0,1,1.58,1.58v1.58a9.25,9.25,0,0,1-9.25,9.25H31.66a4.4,4.4,0,0,1-4.4-4.4v-3.61a4.4,4.4,0,0,1,4.4-4.4Z" />
				<g class="cls-29">
					<line class="cls-36" x1="218.21" y1="1220.37" x2="226.81" y2="1228.89" />
					<polygon class="cls-14" points="238.6 1176.07 292.02 1228.89 301.11 1228.89 268.82 1181.31 263.53 1176.07 238.6 1176.07" />
					<path class="cls-14" d="M218.21,1183.68v4.45l41.21,40.76h16l-52.71-52.12A7.61,7.61,0,0,0,218.21,1183.68Z" />
				</g>
				<path class="cls-37" d="M959,1247.87a3.13,3.13,0,0,1-1.4,2.24c-1.88,1.55-5.79,4.69-8.65,7l-.56-5.8c4.3-3.44,7.47-5.6,8.31-5.6a2.55,2.55,0,0,1,2.2,1.54A1.83,1.83,0,0,1,959,1247.87Z" />
				<polygon points="950.37 1291.58 950.37 1291.6 950.35 1291.58 950.37 1291.58" />
				<path class="cls-37" d="M995.06,1337.37l-8,13.89-7.66-9-5.95-4.65c-11.91.42-22.26-15.79-22.26-15.79s-5.4-9-6.44-10.42.1-5.67,1.5-5.57,5.3,8.45,5.3,8.45l5.72,3.93.42-2.69L949.88,1301l-3.14-7-.9-1-.59-.64h0v0a4.89,4.89,0,0,1-.37-.41l-.1-.1a.89.89,0,0,1-.13-.14l-.11-.13h0l0,0-1.39-1.52c-.43-.46-.88-.94-1.3-1.41l-.11-.11-1.7-1.85-.83-.91-.6-.65-.08-.09a.21.21,0,0,1-.05-.07.31.31,0,0,1-.1-.1l-.08-.09c-1.29-1.52-1.89-3.15-1.51-4,.22-.48.75-.74,1.57-.74,2.33,0,8.55,7.42,10.75,10.28l1,1.48,0,.07,10.65,15.47.48-.33-9.49-13.77-.07-.71,1,.44h0l2.17,1.3,5.94,6.17h0l5.93,6.16.33-.31-5.64-5.85H968l1.21,1.48.19.23,2.9,3.54.35-.29-2.56-3.12,5.53,1.06,10.65,23.32Z" />
				<line class="cls-36" x1="960.87" y1="1300.38" x2="960.83" y2="1300.34" />
				<polygon class="cls-16" points="885.79 1384.05 886.37 1382.1 895.76 1350.86 902.55 1328.26 909.46 1330.73 928.53 1337.52 930.09 1338.07 930.09 1350.86 930.09 1364.6 930.09 1382.1 930.09 1384.05 885.79 1384.05" />
				<polygon class="cls-16" points="989.92 1384.05 989.27 1382.1 985.98 1372.37 987.75 1367.89 994.48 1350.86 999.37 1338.49 1008.62 1350.86 1031.97 1382.1 1033.43 1384.05 989.92 1384.05" />
				<path d="M949.89,1274.3h0l-.29-3.08v0l0-.5-.39-4h0l0-.26h0l-.42-4.38h0l-.12,0a1,1,0,0,0-.45,0l-1.79.57h0l.37,4,.07.71.31,3.33h0l.1,1.11.25,2.5,1.41,14.7c.33.43.58.73.69.86l.94,1.35,1.07.5Zm.46,17.28h0Z" />
				<path d="M946.36,1262.65h0l1.79-.57a1,1,0,0,1,.45,0l.12,0h0l-.32-3.48-.62-6.28,0-.27h0l-.92-9.75a4.25,4.25,0,0,0-4.84-3.58L917.66,1241a4.24,4.24,0,0,0-4.07,4.4l1.27,13.37h0l.13.34v0l.11.15c1.37,1.49,3.29,4.65,1,9.08h.14l2.92,30.24a3.44,3.44,0,0,0,1.38,2.42,4.38,4.38,0,0,0,3,.78l16.79-1.18,0,.05.42-.05h0l1.2-.11.57,0,5.34-.51a5.32,5.32,0,0,0,.78-.14l-2.45-5.44-.83-.88c-.43-.48-1-1.12-1.68-1.84l-23,2.14-4.5-46.94h0l28.41-2.66,1.51,16,0,.27h0Zm-11.31,31.68a2.34,2.34,0,1,1-2.14,2.56A2.35,2.35,0,0,1,935.05,1294.33Zm-.47-52.25a.35.35,0,0,1-.33.35l-8.25.77a.36.36,0,0,1-.41-.32v-.05a.37.37,0,0,1,.34-.35l8.24-.77a.35.35,0,0,1,.41.32Zm5.48-.18a.4.4,0,0,1-.41-.34.38.38,0,1,1,.41.34Z" />
				<path class="cls-37" d="M950.15,1265.62c-.09.43-.48.69-1,.84h0a7.83,7.83,0,0,1-2.4.16h0c-.54,0-1-.09-1.36-.13a.78.78,0,0,1-.61-.52,5.7,5.7,0,0,1-.38-1.54,1.4,1.4,0,0,1,.89-1.44l1.08-.34h0l1.79-.57a1.33,1.33,0,0,1,.56,0h0a1.24,1.24,0,0,1,.88.75A5,5,0,0,1,950.15,1265.62Z" />
				<path class="cls-37" d="M951.51,1269.83c-.15.54-1,.77-1.94.86a16.61,16.61,0,0,1-2.45,0c-.31,0-.58-.06-.81-.08a.83.83,0,0,1-.68-.47,4.31,4.31,0,0,1-.41-1.37,1.26,1.26,0,0,1,1-1.27l.62-.15,2.38-.6.16,0a1.44,1.44,0,0,1,1.6.65A3.83,3.83,0,0,1,951.51,1269.83Z" />
				<path class="cls-37" d="M951.18,1273.65c-.12.37-.63.57-1.28.64h0a12.26,12.26,0,0,1-2.43,0l-.36,0a.64.64,0,0,1-.52-.36,3.76,3.76,0,0,1-.32-1.06,1,1,0,0,1,.75-1l.21,0,2.26-.57a.25.25,0,0,1,.12,0,1.1,1.1,0,0,1,1.12.52A3.14,3.14,0,0,1,951.18,1273.65Z" />
				<path class="cls-37" d="M939.41,1301.49l-4.14,2.35-3.52,3.57-6.17,23.87-18.23-4.35,7.49-23L908,1280.76l5.8-21.83a2.89,2.89,0,0,1,1,.64l.2.21v0h0c1.45,1.69,2.63,4.42.78,8.12h0l0,0a1.92,1.92,0,0,1-.14.29s0,.09-.07.13-.09.16-.15.23a13.24,13.24,0,0,1-1.16,1.71l.36.28a12.27,12.27,0,0,0,.88-1.24l2.81,29.29a4.22,4.22,0,0,0,1.74,3,5.1,5.1,0,0,0,3.55.95Z" />
				<line class="cls-36" x1="915.79" y1="1268.35" x2="915.78" y2="1268.37" />
				<polygon points="950.37 1291.58 950.37 1291.6 950.35 1291.58 950.37 1291.58" />
				<path d="M944.63,1291.71l-.13-.13,0,0h0a.05.05,0,0,0,0,0Z" />
				<line class="cls-36" x1="915.79" y1="1268.35" x2="915.78" y2="1268.37" />
				<polygon points="984.64 1353.94 984.52 1353.69 984.93 1353.5 985.05 1353.75 984.64 1353.94" />
				<path d="M1001.79,1384.05H911c8.48-15.71,25.63-26.44,45.39-26.44S993.31,1368.34,1001.79,1384.05Z" />
				<path d="M941.23,1210a1.36,1.36,0,0,1-1-.4,16.56,16.56,0,0,0-23.21,0,1.38,1.38,0,0,1-1.94,0,1.35,1.35,0,0,1,0-1.91,19.32,19.32,0,0,1,27.08,0,1.36,1.36,0,0,1-1,2.31Z" />
				<path d="M920,1213.81a1.39,1.39,0,0,1-1-.39,1.36,1.36,0,0,1,0-1.92,13.81,13.81,0,0,1,19.34,0,1.34,1.34,0,0,1,0,1.92,1.37,1.37,0,0,1-1.93,0,11,11,0,0,0-15.47,0A1.39,1.39,0,0,1,920,1213.81Z" />
				<path d="M933.49,1217.64a1.36,1.36,0,0,1-1-.4,5.53,5.53,0,0,0-7.74,0,1.37,1.37,0,0,1-1.93,0,1.35,1.35,0,0,1,0-1.91,8.29,8.29,0,0,1,11.61,0,1.35,1.35,0,0,1,0,1.91A1.36,1.36,0,0,1,933.49,1217.64Z" />
				<path d="M928.65,1223.77a2.73,2.73,0,0,1-1.93-.79,2.71,2.71,0,0,1,1.93-4.62,2.72,2.72,0,0,1,1.94.8,2.68,2.68,0,0,1,0,3.82h0A2.76,2.76,0,0,1,928.65,1223.77Z" />
				<path d="M1174.27,1096.9a2,2,0,0,1-1.39-.57,23.77,23.77,0,0,0-33.31,0,2,2,0,0,1-2.78,0,1.91,1.91,0,0,1,0-2.74,27.73,27.73,0,0,1,38.87,0,1.91,1.91,0,0,1,0,2.74A2,2,0,0,1,1174.27,1096.9Z" />
				<path d="M1143.73,1102.39a2,2,0,0,1-1.39-.57,1.93,1.93,0,0,1,0-2.74,19.82,19.82,0,0,1,27.77,0,1.93,1.93,0,0,1,0,2.74,2,2,0,0,1-2.78,0,15.86,15.86,0,0,0-22.21,0A2,2,0,0,1,1143.73,1102.39Z" />
				<path d="M1163.17,1107.88a1.94,1.94,0,0,1-1.39-.56,7.93,7.93,0,0,0-11.11,0,2,2,0,0,1-2.77,0,1.93,1.93,0,0,1,0-2.75,11.87,11.87,0,0,1,16.65,0,1.94,1.94,0,0,1-1.38,3.31Z" />
				<path d="M1156.23,1116.69a3.9,3.9,0,0,1-2.78-1.14,3.86,3.86,0,0,1,0-5.49,3.95,3.95,0,0,1,5.55,0,3.85,3.85,0,0,1,0,5.49h0A3.9,3.9,0,0,1,1156.23,1116.69Z" />
				<path class="cls-38" d="M136,1008.38l-1.07.29a.56.56,0,0,0-.43.54v1.39a3.23,3.23,0,0,0-1.26.28c-.47.23-1.69,1-2.37,1.38l.36,1.3.15.55a20.36,20.36,0,0,1-5.59,3.52,6.78,6.78,0,0,1-4.23.4c-4.18-1.22-.32-10.28.4-12.09s5.81-3.09,5.81-3.09v-.05l2.79.43v.19s4.21,1.05,4.75,2.2A18.17,18.17,0,0,1,136,1008.38Z" />
				<path class="cls-39" d="M133.46,999.06a8.47,8.47,0,0,1-.94,3.45,1.89,1.89,0,0,1-2,.48v.24l-2.79-.43.07-2.17c.18.12.28.09.28.09a1.68,1.68,0,0,1-.4-1c0-.47.82-.22.87.34l1-2.62C129.62,997.43,132.07,998.9,133.46,999.06Z" />
				<path class="cls-40" d="M130.52,1003a2.81,2.81,0,0,1-1.66-1.43" />
				<path class="cls-40" d="M133.48,998.77s0,.11,0,.29" />
				<path d="M135.19,998.08s-.07.76-1.29,1a1.62,1.62,0,0,1-.44,0c-1.39-.16-3.84-1.63-3.86-1.57l-1,2.62c-.05-.56-.84-.81-.87-.34a1.68,1.68,0,0,0,.4,1s-.1,0-.28-.09a2.75,2.75,0,0,1-.79-.93c-.66-1.13-.29-4.26,1.91-5.17s4,.76,4.7,2A3.41,3.41,0,0,0,135.19,998.08Z" />
				<line class="cls-40" x1="127.82" y1="1000.43" x2="127.81" y2="1000.63" />
				<polyline class="cls-40" points="124.69 1014.1 130.84 1012.25 130.84 1012.26" />
				<path class="cls-40" d="M124.94,1008.63s.13,4.8-.49,6.44" />
				<path class="cls-38" d="M137.45,1025.05,137,1025h0l-1.58-.26c-.3-1.63-.57-3-.74-3.88h.38l-.34-6.26a.59.59,0,0,0,.47.08l1.65-.44.1,0C137.51,1018.2,137.88,1022.62,137.45,1025.05Z" />
				<line class="cls-40" x1="135.43" y1="1024.72" x2="135.42" y2="1024.71" />
				<path class="cls-38" d="M135.07,1020.84h-9.31v-3.21a20.36,20.36,0,0,0,5.59-3.52l0-.17-.11-.38c.58,0,2.18-.13,3.27-.23l.19,0,.07,1.27Z" />
				<line class="cls-40" x1="134.47" y1="1009.89" x2="134.42" y2="1009" />
				<path class="cls-41" d="M135.56,1013.16a3,3,0,0,1-.9.15l-.19,0c-1.09.1-2.69.2-3.27.23l-.36-1.3c.68-.42,1.9-1.15,2.37-1.38a3.23,3.23,0,0,1,1.26-.28h0a1.43,1.43,0,0,1,.93.26C135.89,1011.25,135.69,1013,135.56,1013.16Z" />
				<path class="cls-42" d="M137.27,1008.78v4.9a.58.58,0,0,1-.32.51l-.1,0-1.65.44a.59.59,0,0,1-.47-.08l-.07-1.27a3,3,0,0,0,.9-.15c.13-.17.33-1.91-.12-2.3a1.43,1.43,0,0,0-.93-.26l0-.71v-.68a.56.56,0,0,1,.43-.54l1.07-.29.58-.15A.58.58,0,0,1,137.27,1008.78Z" />
				<polygon class="cls-40" points="134.51 1010.6 134.47 1010.6 134.47 1009.89 134.51 1010.6" />
				<path class="cls-43" d="M136.85,1035.14c0,3.38-3.46,19.29-3.46,19.29l-.34,0-2.75.2c-.17,1.66-.28,2.66-.28,2.66h-.43l-3-.07h-.31s-1.09-28.25-1-31.28a19.23,19.23,0,0,1,.94-5.1h8.53c.17.84.44,2.25.74,3.88.23,1.28.48,2.71.71,4.12h0A47.83,47.83,0,0,1,136.85,1035.14Z" />
				<path class="cls-40" d="M132.94,1025.64c.08,2.74-1.89,21.89-2.64,29" />
				<path class="cls-40" d="M136.14,1028.84l0,.05" />
				<path class="cls-41" d="M137,1025a8.54,8.54,0,0,1-.88,3.86c-.23-1.41-.48-2.84-.71-4.12l1.58.26Z" />
				<path class="cls-40" d="M137,1025s0,0,0-.08" />
				<path d="M137.45,1058.29c-.54,1.15-5.5.58-7.09.37a4.19,4.19,0,0,1-.77-1.36H130s.11-1,.28-2.66l2.75-.2a2.2,2.2,0,0,0,.73,1.64C134.77,1056.92,138.09,1056.92,137.45,1058.29Z" />
				<path d="M133.63,1061.87c-1,1.42-6.28-.4-6.93-1-.48-.44-.27-2.6-.13-3.66l3,.07a4.19,4.19,0,0,0,.77,1.36,1.71,1.71,0,0,0,.25.22C131.56,1059.57,134.62,1060.45,133.63,1061.87Z" />
				<line class="cls-40" x1="134.66" y1="1013.31" x2="134.97" y2="1020.6" />
				<path class="cls-44" d="M131.12,1016l-5.35,3.17h0v-1.55a20.36,20.36,0,0,0,5.59-3.52l0-.17Z" />
				<path d="M139.79,1004.55a.15.15,0,0,1-.12,0,2.15,2.15,0,0,0-3,0,.19.19,0,0,1-.26,0,.18.18,0,0,1,0-.25,2.53,2.53,0,0,1,3.52,0,.18.18,0,0,1,0,.25A.15.15,0,0,1,139.79,1004.55Z" />
				<path d="M137,1005.05a.18.18,0,0,1-.12,0,.18.18,0,0,1,0-.25,1.8,1.8,0,0,1,2.51,0,.18.18,0,0,1-.25.25,1.43,1.43,0,0,0-2,0A.21.21,0,0,1,137,1005.05Z" />
				<path d="M138.79,1005.55a.21.21,0,0,1-.13,0,.7.7,0,0,0-1,0,.2.2,0,0,1-.25,0,.18.18,0,0,1,0-.25,1.06,1.06,0,0,1,.75-.31,1.08,1.08,0,0,1,.76.31.18.18,0,0,1,0,.25A.21.21,0,0,1,138.79,1005.55Z" />
				<path d="M138.16,1006.34a.35.35,0,0,1-.25-.6.39.39,0,0,1,.25-.1.36.36,0,0,1,.36.35.34.34,0,0,1-.11.25h0A.32.32,0,0,1,138.16,1006.34Z" />
				<rect class="cls-21" x="679.39" y="976.58" width="7.84" height="66.41" />
				<ellipse class="cls-5" cx="683.32" cy="958.65" rx="30.88" ry="30.54" />
				<rect class="cls-21" x="594.64" y="991.48" width="6.25" height="52.89" />
				<ellipse class="cls-5" cx="597.76" cy="977.19" rx="24.59" ry="24.32" />
				<rect class="cls-21" x="1159.57" y="1004.89" width="5.04" height="42.68" />
				<ellipse class="cls-5" cx="1162.09" cy="993.37" rx="19.85" ry="19.63" />
				<rect class="cls-21" x="1486.27" y="1002.24" width="5.04" height="42.68" />
				<ellipse class="cls-5" cx="1488.79" cy="990.71" rx="19.85" ry="19.63" />
				<rect class="cls-21" x="1353.53" y="976.58" width="7.84" height="66.41" />
				<ellipse class="cls-5" cx="1357.46" cy="958.65" rx="30.88" ry="30.54" />
				<rect class="cls-21" x="1246.76" y="991.48" width="6.25" height="52.89" />
				<ellipse class="cls-5" cx="1249.89" cy="977.19" rx="24.59" ry="24.32" />
				<rect class="cls-21" x="183.46" y="970.92" width="8.5" height="85.73" />
				<ellipse class="cls-5" cx="187.71" cy="951.48" rx="33.47" ry="33.1" />
				<polygon class="cls-45" points="302.72 1045.11 303.68 1054.7 309.02 1054.7 310.21 1044.59 302.72 1045.11" />
				<ellipse class="cls-46" cx="305.81" cy="1032.98" rx="3.59" ry="3.44" />
				<path class="cls-47" d="M301.71,1032.25l8.2,0s-.36-3.18-2.28-3.67C306.27,1028.28,301.91,1027.63,301.71,1032.25Z" />
				<rect class="cls-45" x="301.19" y="1037.47" width="9.26" height="7.18" rx="0.78" />
				<rect class="cls-46" x="305" y="1035.77" width="1.58" height="2.56" />
				<path class="cls-48" d="M300.9,1043.37s.1-5,4.29-5.35c7.27-.57,6.63,7.82,6.63,7.82H301A7.58,7.58,0,0,1,300.9,1043.37Z" />
				<ellipse class="cls-46" cx="302.02" cy="1045.89" rx="1.31" ry="0.57" />
				<ellipse class="cls-46" cx="310.79" cy="1045.78" rx="1.31" ry="0.57" />
				<path class="cls-45" d="M302.78,1038.56s1,4.33.54,6.51l.65-.07s.2-5.11-.61-6.6Z" />
				<path class="cls-45" d="M309,1038.54s-1,4.33-.54,6.51l-.66-.07s-.19-5.11.62-6.6Z" />
				<path class="cls-48" d="M306.23,1055.68a1.37,1.37,0,0,0-2.74,0Z" />
				<path class="cls-48" d="M309.25,1055.72a1.38,1.38,0,0,0-2.75,0Z" />
				<line class="cls-49" x1="306.5" y1="1048.2" x2="306.36" y2="1054.67" />
				<polygon class="cls-45" points="315.78 1045.42 316.75 1055.01 322.08 1055.01 323.28 1044.9 315.78 1045.42" />
				<ellipse class="cls-39" cx="318.87" cy="1033.28" rx="3.59" ry="3.44" />
				<path class="cls-47" d="M314.77,1032.56l8.2,0s-.36-3.17-2.28-3.66C319.33,1028.58,315,1027.93,314.77,1032.56Z" />
				<rect class="cls-45" x="314.25" y="1037.77" width="9.26" height="7.18" rx="0.78" />
				<rect class="cls-39" x="318.06" y="1036.07" width="1.58" height="2.56" />
				<path class="cls-50" d="M314,1043.68s.11-5,4.29-5.35c7.27-.58,6.63,7.81,6.63,7.81H314A7.51,7.51,0,0,1,314,1043.68Z" />
				<ellipse class="cls-39" cx="315.08" cy="1046.2" rx="1.31" ry="0.57" />
				<ellipse class="cls-39" cx="323.86" cy="1046.08" rx="1.31" ry="0.57" />
				<path class="cls-45" d="M315.84,1038.86s1,4.34.54,6.52l.66-.08s.19-5.1-.62-6.59Z" />
				<path class="cls-45" d="M322.08,1038.84s-1,4.34-.54,6.52l-.66-.08s-.19-5.1.62-6.59Z" />
				<path class="cls-50" d="M319.3,1056a1.38,1.38,0,0,0-2.75,0Z" />
				<path class="cls-50" d="M322.31,1056a1.37,1.37,0,0,0-2.74,0Z" />
				<line class="cls-49" x1="319.57" y1="1048.5" x2="319.42" y2="1054.98" />
				<path d="M478.71,961.63a1.75,1.75,0,0,1-1.25-.51,21.4,21.4,0,0,0-30,0,1.79,1.79,0,0,1-2.5,0,1.73,1.73,0,0,1,0-2.47,25,25,0,0,1,35,0,1.73,1.73,0,0,1,0,2.47A1.79,1.79,0,0,1,478.71,961.63Z" />
				<path d="M451.23,966.57a1.77,1.77,0,0,1-1.25-.51,1.73,1.73,0,0,1,0-2.47,17.83,17.83,0,0,1,25,0,1.73,1.73,0,0,1,0,2.47,1.79,1.79,0,0,1-2.5,0,14.25,14.25,0,0,0-20,0A1.79,1.79,0,0,1,451.23,966.57Z" />
				<path d="M468.71,971.51a1.75,1.75,0,0,1-1.24-.51,7.15,7.15,0,0,0-10,0,1.79,1.79,0,0,1-2.5,0,1.73,1.73,0,0,1,0-2.47,10.71,10.71,0,0,1,15,0,1.73,1.73,0,0,1,0,2.47A1.75,1.75,0,0,1,468.71,971.51Z" />
				<path d="M462.47,979.44a3.55,3.55,0,0,1-2.5-1,3.46,3.46,0,0,1,0-4.94,3.57,3.57,0,0,1,5,0,3.48,3.48,0,0,1,0,4.94h0A3.55,3.55,0,0,1,462.47,979.44Z" />
				<path d="M1457.59,1009.1a1.75,1.75,0,0,1-1.25-.51,21.38,21.38,0,0,0-30,0,1.79,1.79,0,0,1-2.5,0,1.73,1.73,0,0,1,0-2.47,24.94,24.94,0,0,1,35,0,1.75,1.75,0,0,1-1.24,3Z" />
				<path d="M1430.11,1014a1.75,1.75,0,0,1-1.25-.51,1.73,1.73,0,0,1,0-2.47,17.82,17.82,0,0,1,25,0,1.73,1.73,0,0,1,0,2.47,1.79,1.79,0,0,1-2.5,0,14.25,14.25,0,0,0-20,0A1.79,1.79,0,0,1,1430.11,1014Z" />
				<path d="M1447.59,1019a1.79,1.79,0,0,1-1.25-.51,7.14,7.14,0,0,0-10,0,1.79,1.79,0,0,1-2.5,0,1.73,1.73,0,0,1,0-2.47,10.68,10.68,0,0,1,15,0,1.73,1.73,0,0,1,0,2.47A1.75,1.75,0,0,1,1447.59,1019Z" />
				<path d="M1441.35,1026.9a3.52,3.52,0,0,1-2.5-1,3.46,3.46,0,0,1,0-4.94,3.57,3.57,0,0,1,5,0,3.48,3.48,0,0,1,0,4.94h0A3.54,3.54,0,0,1,1441.35,1026.9Z" />
				<path class="cls-51" d="M1071.66,1069.84c0,7-.62,19.25-1.85,26.16-.71,4-4.28,16.84-4.61,17.81l-209.54.36s-.07-1.24-.12-3.27-.06-5,.07-8.24c.1-2.19.25-4.54.51-6.9a59.2,59.2,0,0,1,1.61-9c.69-2.51,1.58-10,2.75-11.78,4.8-7.14,20.63-10.74,27.9-12,2.28-.4,12-1.43,12-1.43h0l26-28.34,4.06-4.43a5.43,5.43,0,0,1,4.05-1.63h125.72c.66,0,1.68,1.75,2.84,4.58a152.59,152.59,0,0,1,7.87,29.8A57.29,57.29,0,0,1,1071.66,1069.84Z" />
				<line class="cls-52" x1="968.38" y1="1031.7" x2="968.38" y2="1112.3" />
				<polyline class="cls-52" points="1013.66 1065.34 1018.48 1081.29 1018.48 1109.02" />
				<path class="cls-10" d="M1042.13,1098.17h25A5.82,5.82,0,0,1,1073,1104v0a10.22,10.22,0,0,1-10.22,10.22h-20.61a0,0,0,0,1,0,0v-16A0,0,0,0,1,1042.13,1098.17Z" />
				<path class="cls-10" d="M878,1114.86H856.48c-2.92,0-5.08-1.2-6-4a12.44,12.44,0,0,1,1.68-11.16c2.42-3.35,6.5-4.33,10.45-3.74,2.49.38,5,.82,7.46,1.24l7.93,1.31Z" />
				<rect class="cls-10" x="900.69" y="1109.37" width="115.91" height="4.97" />
				<path class="cls-53" d="M868.14,1114.87l2.05-8.95a13.38,13.38,0,0,1,7.42-9.09,11.33,11.33,0,0,1,4.79-1.12h12.67c5.2,0,9.91,3.72,11.64,10.21l1.84,8.43-27.9.45-4.38.07Z" />
				<path class="cls-10" d="M871.51,1117.25a17,17,0,1,0,34-.52c0-.4,0-.79-.09-1.19a11.54,11.54,0,0,0-.16-1.18c0-.11,0-.23-.07-.35s0-.19-.05-.28a16.77,16.77,0,0,0-4-7.74c-.35-.38-.71-.74-1.09-1.09a17.16,17.16,0,0,0-23.1,0c-.38.35-.74.71-1.08,1.09a16.77,16.77,0,0,0-4,7.74l-.06.28c0,.12-.05.24-.06.35-.07.39-.13.78-.17,1.18A16,16,0,0,0,871.51,1117.25Z" />
				<ellipse class="cls-12" cx="888.52" cy="1117.25" rx="8.87" ry="8.77" />
				<path class="cls-53" d="M1055.07,1114.31h-40.33l1.9-8.73c1.31-6,7-10.21,12.22-10.21h12.66c5.21,0,10.33,4.2,11.65,10.21Z" />
				<path class="cls-10" d="M1018,1116.91a17,17,0,1,0,34-.52c0-.39,0-.79-.09-1.19a11.35,11.35,0,0,0-.16-1.17c0-.12,0-.24-.06-.36l-.06-.28a16.67,16.67,0,0,0-4-7.74c-.34-.38-.7-.74-1.08-1.09a17.16,17.16,0,0,0-23.1,0c-.38.35-.74.71-1.09,1.09a16.86,16.86,0,0,0-4,7.74c0,.1,0,.18-.05.28s0,.24-.07.36c-.07.39-.13.77-.17,1.17C1018,1115.77,1018,1116.33,1018,1116.91Z" />
				<ellipse class="cls-12" cx="1034.98" cy="1116.91" rx="8.87" ry="8.77" />
				<line class="cls-36" x1="1006.75" y1="1061.74" x2="999.93" y2="1031.36" />
				<path class="cls-10" d="M928.19,1034.57a17.41,17.41,0,0,1-4,11.11l-12,14.46a4.28,4.28,0,0,1-3.28,1.54h-8.17l8.43-9.29,18.79-20.69a15.33,15.33,0,0,1,.21,1.9C928.18,1033.92,928.19,1034.25,928.19,1034.57Z" />
				<path class="cls-10" d="M964.55,1031.7v30H950l-27.27,0h-1.4a2.57,2.57,0,0,1-2.06-4.16l15.6-19.76a16.13,16.13,0,0,1,12.67-6.12Z" />
				<path class="cls-10" d="M1005.56,1061.74H994l-8.72,0H972.46v-30l8-.09,12.7-.14,5.35-.06a5.57,5.57,0,0,1,5.11,3.2,6.32,6.32,0,0,1,.35,1l1.53,6.14,1.72,6.93,2.08,8.34A3.84,3.84,0,0,1,1005.56,1061.74Z" />
				<path class="cls-10" d="M1070.9,1061.78h-39.46a5.67,5.67,0,0,1-5.51-4.29l-1.91-7.82-3.47-14.18-.19-.79a3.16,3.16,0,0,1,3.18-3.89l1.7,0,17.4.41,20.39.48,0,0a100.32,100.32,0,0,1,4.68,14.71c.26,1,.5,2,.74,3.08.56,2.37,1.07,4.77,1.53,7.12C1070.33,1058.44,1070.64,1060.14,1070.9,1061.78Z" />
				<g class="cls-54">
					<polygon class="cls-53" points="964.55 1031.7 964.55 1047.35 950.03 1061.71 922.76 1061.74 953.13 1031.7 964.55 1031.7" />
					<polygon class="cls-53" points="980.47 1031.61 972.46 1039.53 972.46 1031.7 980.47 1031.61" />
					<path class="cls-53" d="M1063.05,1031.79l-30.32,30h-1.29a5.67,5.67,0,0,1-5.51-4.29l-1.91-7.82,18.62-18.41,20.39.48Z" />
					<path class="cls-53" d="M1070.9,1061.78h-6l5.14-5.08C1070.33,1058.44,1070.64,1060.14,1070.9,1061.78Z" />
					<polygon class="cls-53" points="962.61 1061.7 964.55 1059.78 964.55 1061.7 962.61 1061.7" />
					<path class="cls-53" d="M1003.63,1034.61l-27.4,27.09h-3.77V1052l20.71-20.49,5.35-.06A5.57,5.57,0,0,1,1003.63,1034.61Z" />
					<polygon class="cls-53" points="1007.23 1048.66 994.02 1061.72 985.3 1061.71 1005.51 1041.73 1007.23 1048.66" />
					<path class="cls-53" d="M1025.24,1030.85l-4.69,4.64-.19-.79a3.16,3.16,0,0,1,3.18-3.89Z" />
					<path class="cls-53" d="M928.15,1033.6l-19,18.79,18.79-20.69A15.33,15.33,0,0,1,928.15,1033.6Z" />
					<path class="cls-53" d="M1068.47,1049.58l-12.34,12.2h-3.84l15.44-15.28C1068,1047.52,1068.23,1048.54,1068.47,1049.58Z" />
				</g>
				<rect x="257.17" y="1037.27" width="2.03" height="22.28" rx="1.01" transform="translate(516.36 2096.82) rotate(-180)" />
				<rect x="260.11" y="1039.56" width="0.61" height="18.04" rx="0.31" transform="translate(520.83 2097.16) rotate(-180)" />
				<rect x="255.48" y="1047.78" width="6.08" height="1.61" rx="0.8" transform="translate(517.05 2097.16) rotate(180)" />
				<rect x="257.82" y="1055.38" width="3.19" height="0.76" rx="0.38" transform="translate(518.84 2111.53) rotate(-180)" />
				<rect x="237.71" y="1042.31" width="17.47" height="4.82" />
				<rect x="233.48" y="1037.25" width="2.03" height="22.28" rx="1.01" />
				<rect x="231.95" y="1039.54" width="0.61" height="18.04" rx="0.31" />
				<rect x="231.11" y="1047.76" width="6.08" height="1.61" rx="0.8" />
				<rect x="232.08" y="1055.19" width="3.19" height="0.76" rx="0.38" />
				<rect x="236.28" y="1046.67" width="20.52" height="3.78" />
				<rect x="236.45" y="1049.88" width="0.84" height="5.31" rx="0.42" />
				<rect x="235.93" y="1035.13" width="1.4" height="6.39" />
				<path class="cls-55" d="M234.56,1033.59h2.35a.41.41,0,0,1,.41.41v.83a0,0,0,0,1,0,0h-3.18a0,0,0,0,1,0,0V1034A.41.41,0,0,1,234.56,1033.59Z" />
				<path d="M235.08,1034.83h2a.3.3,0,0,1,.3.3v.5a0,0,0,0,1,0,0h-2.54a0,0,0,0,1,0,0v-.5A.3.3,0,0,1,235.08,1034.83Z" transform="translate(472.12 2070.45) rotate(180)" />
				<rect x="255.38" y="1049.9" width="0.84" height="5.31" rx="0.42" transform="translate(511.6 2105.11) rotate(-180)" />
				<path d="M253.76,1052.63h0a0,0,0,0,1,0,0v5.55a0,0,0,0,1,0,0h-1.68a0,0,0,0,1,0,0v-3.87A1.68,1.68,0,0,1,253.76,1052.63Z" transform="translate(-708.78 1558.38) rotate(-104.13)" />
				<rect x="255.34" y="1035.15" width="1.4" height="6.39" transform="translate(512.08 2076.69) rotate(-180)" />
				<path class="cls-55" d="M255.34,1033.61h3.18a0,0,0,0,1,0,0v.83a.41.41,0,0,1-.41.41h-2.35a.41.41,0,0,1-.41-.41v-.83a0,0,0,0,1,0,0Z" transform="translate(513.86 2068.46) rotate(-180)" />
				<path d="M255.34,1034.85h2.54a0,0,0,0,1,0,0v.5a.3.3,0,0,1-.3.3h-2a.3.3,0,0,1-.3-.3v-.5a0,0,0,0,1,0,0Z" />
				<path d="M238.91,1052.61h1.68a0,0,0,0,1,0,0v5.55a0,0,0,0,1,0,0h0a1.68,1.68,0,0,1-1.68-1.68v-3.87A0,0,0,0,1,238.91,1052.61Z" transform="translate(-842.23 1030.17) rotate(-75.87)" />
				<rect x="251.33" y="1050.54" width="1.1" height="8.29" transform="translate(-709.38 1556.48) rotate(-104.13)" />
				<rect x="240.24" y="1050.52" width="1.1" height="8.29" transform="translate(-840.75 1030.64) rotate(-75.87)" />
				<rect x="234.9" y="1056.4" width="5.61" height="2.14" rx="1.07" transform="translate(-819.76 1295.18) rotate(-90)" />
				<rect x="252.58" y="1056.59" width="5.61" height="2.14" rx="1.07" transform="translate(-802.28 1313.05) rotate(-90)" />
				<rect x="235.93" y="1041.09" width="21.05" height="1.91" rx="0.96" />
				<path class="cls-55" d="M237.76,1022.77v18.33H255v-18.33Zm15.71,16.72h-14.2v-15.12h14.2Z" />
				<rect class="cls-55" x="237.76" y="1021.07" width="17.22" height="11.71" />
				<rect class="cls-56" x="244.12" y="1037.14" width="4.43" height="5.09" />
				<path class="cls-57" d="M248.89,1020.68s-.15,2.13-1.6,2.84a2.28,2.28,0,0,1-1,.23,2.09,2.09,0,0,1-1-.18c-1.49-.66-1.71-2.89-1.71-2.89a13.36,13.36,0,0,0,3.7-2.3A5,5,0,0,0,248.89,1020.68Z" />
				<path d="M249.82,1026.49a21.51,21.51,0,0,0-2.53-1.08v-1.89c1.45-.71,1.6-2.84,1.6-2.84a5,5,0,0,1-1.55-2.3,13.36,13.36,0,0,1-3.7,2.3s.22,2.23,1.71,2.89v1.89a22.52,22.52,0,0,0-3,1.33c-.1-1.62-.27-6,.73-8,1.24-2.52,4.82-2,5.84-.94S249.83,1025.64,249.82,1026.49Z" />
				<path class="cls-36" d="M249.82,1026.58v-.09" />
				<path class="cls-36" d="M243.15,1029.19l-.32.43" />
				<path class="cls-57" d="M244.54,1037.61h0c0,.16-.14.23-.31.12a5.5,5.5,0,0,0-2.4.08l-.27,0c-.24,0-1.39-1.16-1.88-1.68l.86-.93,1.18,1.31.6-.12a3.07,3.07,0,0,1,1.73.12,1.16,1.16,0,0,1,.44.59A1,1,0,0,1,244.54,1037.61Z" />
				<path class="cls-58" d="M255.23,1034.17a11.68,11.68,0,0,1-1.92,2.33l-.35-.38-.87-.93-.05-.06.79-2.7a11.68,11.68,0,0,1-3.18-3.06,53,53,0,0,0,.49,7,2.67,2.67,0,0,0-1.55.14,1.12,1.12,0,0,0-.46.64h-3.64a1.16,1.16,0,0,0-.44-.59,3.07,3.07,0,0,0-1.73-.12,48.07,48.07,0,0,0,.51-6.81,10.94,10.94,0,0,1-3,2.86l.8,2.7-.06.06-.86.93-.35.38a11.63,11.63,0,0,1-1.93-2.33c-.37-.84-1.24-2.18,1.21-4.75a14.51,14.51,0,0,1,3.71-2.68,22.52,22.52,0,0,1,3-1.33v-.56h1.94v.51a21.51,21.51,0,0,1,2.53,1.08,15.5,15.5,0,0,1,4.2,2.93C256.48,1032,255.61,1033.33,255.23,1034.17Z" />
				<path class="cls-57" d="M247.29,1023.52v1.38h-1.94v-1.33a2.09,2.09,0,0,0,1,.18A2.28,2.28,0,0,0,247.29,1023.52Z" />
				<line class="cls-36" x1="253" y1="1031.87" x2="252.83" y2="1032.43" />
				<path class="cls-36" d="M249.65,1029.37l-.16-.23" />
				<path class="cls-57" d="M253,1036.12c-.5.52-1.64,1.7-1.89,1.68H251l-.55-.09a4.15,4.15,0,0,0-2,0c-.21.14-.32,0-.31-.27a.88.88,0,0,1,0-.27,1.12,1.12,0,0,1,.46-.64,2.67,2.67,0,0,1,1.55-.14,6.52,6.52,0,0,1,.78.14l1.17-1.31Z" />
				<path class="cls-36" d="M242.08,1037.55a1.6,1.6,0,0,1-.05.21" />
				<path class="cls-36" d="M242.84,1029.19s0,.15,0,.43" />
				<path class="cls-36" d="M250.46,1037.85s0-.1,0-.15" />
				<path class="cls-36" d="M249.65,1029.37v-.09" />
				<path class="cls-59" d="M244.78,1052l-.26,0-1.64.07h-.06s-2.74-11.89-1-14.29a5.5,5.5,0,0,1,2.4-.08c.17.11.28,0,.31-.12C246.46,1040.72,244.78,1052,244.78,1052Z" />
				<path class="cls-36" d="M244.54,1037.61l-.15-.22" />
				<path class="cls-36" d="M242.08,1037.55a1.55,1.55,0,0,0-.25.26" />
				<path class="cls-59" d="M249.54,1052.11h-.17l-1.64,0h-.15s-2.18-13.88.51-14.65c0,.25.1.41.31.27a4.15,4.15,0,0,1,2,0l.55.09C252.12,1041.15,249.54,1052.11,249.54,1052.11Z" />
				<path class="cls-36" d="M251,1037.79l0-.06" />
				<polygon class="cls-57" points="244.52 1052.02 244.33 1054.46 243.15 1054.46 242.88 1052.09 244.52 1052.02" />
				<line class="cls-36" x1="244.55" y1="1051.67" x2="244.52" y2="1052.02" />
				<line class="cls-36" x1="242.88" y1="1052.09" x2="242.84" y2="1051.67" />
				<polygon class="cls-60" points="244.69 1055.14 244.69 1056.4 242.77 1056.4 242.72 1055.24 243.15 1054.46 244.27 1054.46 244.69 1055.14" />
				<polygon class="cls-57" points="249.37 1052.11 249.18 1054.46 248 1054.46 247.73 1052.07 249.37 1052.11" />
				<line class="cls-36" x1="249.41" y1="1051.67" x2="249.37" y2="1052.11" />
				<line class="cls-36" x1="247.73" y1="1052.07" x2="247.69" y2="1051.67" />
				<polygon class="cls-60" points="249.54 1055.14 249.54 1056.4 247.63 1056.4 247.58 1055.24 248 1054.46 249.13 1054.46 249.54 1055.14" />
				<path class="cls-61" d="M737.34,1015.19l-.46,0-2.1-.13-.78,0c-.16,1.11-.79,5.17-1.46,6.5-.38.78-1.93,2.86-3.36,4.9h-5.51c0-1.28,1-7.54,1.74-11.79l-1.23-.24-.51-.09a12,12,0,0,1,.92-3.64c.71-1.92,3.34-3.16,4.49-3.63a3.28,3.28,0,0,0,4.43.06A7.57,7.57,0,0,1,737.34,1015.19Z" />
				<path class="cls-62" d="M732.3,1006.46l-.47-2.36-.35-1.76s.29-1.17,0-1.31-1,.48-1,.48l-.68-1.21-3.3.24s0,.37,0,.91h0q0,.42.06.93l1.08-.07a.59.59,0,0,1,0,.14.83.83,0,0,1-.77.87.74.74,0,0,1-.21,0c.3,1.61,1.06,3,2.92,1.4v2.09l-.55.2a3.28,3.28,0,0,0,4.43.06A7.43,7.43,0,0,0,732.3,1006.46Zm-2.93-3.45a.83.83,0,0,1-.88-.77v-.14l1.62-.11a.78.78,0,0,1,0,.14A.82.82,0,0,1,729.37,1003Z" />
				<line class="cls-36" x1="734" y1="1014.99" x2="733.32" y2="1014.95" />
				<line class="cls-36" x1="725.46" y1="1014.61" x2="725.41" y2="1014.6" />
				<path class="cls-61" d="M735.55,1026.39h-4a20.29,20.29,0,0,0,2.73-3.35,13.85,13.85,0,0,0,.91-1.85Z" />
				<path class="cls-36" d="M726.09,1010.53s-.3,1.74-.68,4.07" />
				<path class="cls-36" d="M734.05,1014.7l0,.29" />
				<path class="cls-62" d="M736.88,1015.16a35.27,35.27,0,0,1-1.68,6,13.85,13.85,0,0,1-.91,1.85,20.29,20.29,0,0,1-2.73,3.35,51.41,51.41,0,0,0-3.6,3.78.62.62,0,0,0-.12.25,2.16,2.16,0,0,1-.24.57c-.37.61-1,1-1.12.06a1.32,1.32,0,0,1,.15-.6,7.5,7.5,0,0,1,.43-.83c.51-.89,1.29-2,2.12-3.23,1.43-2,3-4.12,3.36-4.9.67-1.33,1.3-5.39,1.46-6.5l.78,0Z" />
				<path class="cls-22" d="M733,1002.58c-.44.11-.94,1-1.2,1.52l-.35-1.76s.29-1.17,0-1.31-1,.48-1,.48l-.68-1.21-3.3.24s0,.37,0,.91a3.5,3.5,0,0,1-.54-1.15c-.31-1.07-.75-1.89,1.07-2.11s1.92-.83,3.08-1.19,2.43,1.14,3.59,2.23S733.66,1002.41,733,1002.58Z" />
				<path class="cls-61" d="M727.69,1002.45a.83.83,0,0,1-.77.87.74.74,0,0,1-.21,0,.83.83,0,0,1-.67-.76.66.66,0,0,1,0-.14l.54,0,1.08-.07A.59.59,0,0,1,727.69,1002.45Z" />
				<path class="cls-61" d="M730.13,1002.13a.82.82,0,1,1-1.64.11v-.14l1.62-.11A.78.78,0,0,1,730.13,1002.13Z" />
				<line class="cls-36" x1="728.09" y1="1033.5" x2="727.81" y2="1031.73" />
				<path class="cls-63" d="M729.61,1031.27l-.41.6-1.6-.88a2.16,2.16,0,0,0,.24-.57.62.62,0,0,1,.12-.25C728.77,1030.68,729.61,1031.27,729.61,1031.27Z" />
				<path class="cls-64" d="M735,1026.39l-.18,10.72-1,.05-4.15.21-1,.06-.6-3.93-.22,3.21h0l-.06.83-4.1.15-.36,0,.08-1,3.18-6.33h0a1.32,1.32,0,0,0-.15.6c.11.9.75.55,1.12-.06l1.6.88.41-.6s-.84-.59-1.65-1.1a51.41,51.41,0,0,1,3.6-3.78Z" />
				<path class="cls-64" d="M729.18,1026.39c-.83,1.18-1.61,2.34-2.12,3.23a2,2,0,0,0-.58-.25c-.42,0-.72.65-.72.65l-2.11,4.19.3-3.59h0l.36-4.23Z" />
				<path class="cls-63" d="M727.06,1029.62a7.5,7.5,0,0,0-.43.83h0l-3.18,6.33-11.76,23.39-.85-.43,12.83-25.52,2.11-4.19s.3-.65.72-.65A2,2,0,0,1,727.06,1029.62Z" />
				<polygon class="cls-62" points="733.83 1037.16 733.56 1057.92 730.94 1057.92 730.94 1057.87 729.68 1037.38 733.83 1037.16" />
				<path class="cls-65" d="M734.43,1058.65v1.74h-6.54s-.32-.8,0-1.24a1.45,1.45,0,0,1,.53-.33,23.51,23.51,0,0,1,2.52-1v.05h2.62Z" />
				<polygon class="cls-62" points="727.87 1036.4 727.59 1057.81 724.97 1057.81 724.97 1057.76 723.71 1037.38 727.81 1037.23 727.87 1036.4" />
				<path class="cls-65" d="M728.46,1060.07v.21h-6.55s-.31-.8,0-1.24a12.65,12.65,0,0,1,3.06-1.28v0h2.62l1.1,1c-.27.12-.74-.08-.8,0-.32.43,0,1.23,0,1.23Z" />
				<path class="cls-62" d="M723.67,1026.39h.64l-.36,4.23c-.83-5.1,0-13.85.23-16.26l1.23.24C724.7,1018.85,723.7,1025.11,723.67,1026.39Z" />
				<rect x="268.07" y="989.43" width="5" height="68.79" />
				<rect x="220.58" y="988.34" width="179.38" height="4.91" />
				<path d="M227.23,955H400.77a11.74,11.74,0,0,1,11.74,11.74v4.64a0,0,0,0,1,0,0H210.85a0,0,0,0,1,0,0v0A16.38,16.38,0,0,1,227.23,955Z" />
				<rect x="218.08" y="971.29" width="5" height="88.05" />
				<rect x="397.46" y="971.29" width="5" height="88.05" />
				<rect x="206.97" y="970.88" width="209.73" height="4.59" />
				<path class="cls-48" d="M358.8,1082.36H562.1V999.9a5.66,5.66,0,0,0-5.69-5.63H377.74a5.62,5.62,0,0,0-5.61,4.75l-.11.67-.06.36-1,6.32-.49,3.06-1.24,7.75-.28,1.75-.57,3.6-1.05,6.55-.62,3.89-.6,3.73-.26,1.61-.52,3.29-1.36,8.48-3.07,19.24-1.05,6.54-1,6.32Z" />
				<path class="cls-48" d="M331.47,1087.63h46.68v-43.45l-31.48,7.59c-9,2.17-15.2,8.89-15.2,16.51Z" />
				<path class="cls-66" d="M387.22,1009.54h31.56a0,0,0,0,1,0,0v74.12a2.83,2.83,0,0,1-2.83,2.83H390a2.83,2.83,0,0,1-2.83-2.83v-74.12A0,0,0,0,1,387.22,1009.54Z" transform="translate(805.99 2096.02) rotate(-180)" />
				<rect class="cls-67" x="391.78" y="1072.3" width="22.43" height="6.94" />
				<path class="cls-27" d="M523.16,1009.54v28.63H543a2.83,2.83,0,0,0,2.84-2.81v-23a2.83,2.83,0,0,0-2.84-2.81Z" />
				<rect class="cls-27" x="552.38" y="1009.54" width="9.72" height="28.63" />
				<rect class="cls-27" x="498.32" y="1009.54" width="22.69" height="28.63" />
				<rect class="cls-27" x="473.48" y="1009.54" width="22.69" height="28.63" />
				<rect class="cls-27" x="448.64" y="1009.54" width="22.69" height="28.63" />
				<path class="cls-27" d="M423.8,1012.35v23a2.83,2.83,0,0,0,2.84,2.81h19.85v-28.63H426.64a2.85,2.85,0,0,0-2.09.91A2.76,2.76,0,0,0,423.8,1012.35Z" />
				<polygon class="cls-27" points="365.63 1038.31 367.72 1038.29 376.55 1038.21 381.76 1038.17 381.76 1009.54 377.11 1009.5 376.42 1009.49 376.34 1009.49 370.25 1009.43 369.01 1017.18 368.76 1018.75 368.19 1022.35 367.14 1028.9 365.92 1036.52 365.63 1038.31" />
				<rect class="cls-67" x="391.78" y="1015.48" width="22.43" height="28.89" />
				<path class="cls-10" d="M327.29,1085.71a3.23,3.23,0,0,0,1,2.37,3.63,3.63,0,0,0,2.51,1H562.59a3.46,3.46,0,0,0,3.56-3.35,3.26,3.26,0,0,0-1-2.37,3.7,3.7,0,0,0-2.52-1H330.85a3.64,3.64,0,0,0-2.41.89A3.27,3.27,0,0,0,327.29,1085.71Z" />
				<path class="cls-10" d="M509.89,1085.56a12.53,12.53,0,0,0-.15,3.94h25.45a10.6,10.6,0,0,0,.1-1.5,12.31,12.31,0,0,0-.25-2.44h4.78a18.55,18.55,0,0,0-.45-2.12,17,17,0,0,0-1.63-3.93,17.53,17.53,0,0,0-32.18,3.93,16.6,16.6,0,0,0-.44,2.12Z" />
				<path class="cls-11" d="M509.39,1088.42a13.08,13.08,0,0,0,26.16,0,12.91,12.91,0,0,0-3.37-8.67,13.19,13.19,0,0,0-19.43,0,12.78,12.78,0,0,0-3.36,8.67Z" />
				<ellipse class="cls-12" cx="522.46" cy="1088.41" rx="7.88" ry="7.79" />
				<ellipse class="cls-10" cx="522.46" cy="1088.41" rx="3.56" ry="3.52" />
				<path class="cls-10" d="M351.16,1085.56a12.31,12.31,0,0,0-.25,2.44,10.6,10.6,0,0,0,.1,1.5h25.45a12.53,12.53,0,0,0-.15-3.94h4.77a15.07,15.07,0,0,0-.45-2.12,17,17,0,0,0-1.62-3.93,17.63,17.63,0,0,0-30.56,0,17.68,17.68,0,0,0-2.07,6Z" />
				<path class="cls-11" d="M350.65,1088.42a13.08,13.08,0,0,0,26.16,0,12.12,12.12,0,0,0-.25-2.5,12.9,12.9,0,0,0-3.11-6.17,13.2,13.2,0,0,0-19.44,0,12.9,12.9,0,0,0-3.11,6.17A12.12,12.12,0,0,0,350.65,1088.42Z" />
				<ellipse class="cls-12" cx="363.73" cy="1088.41" rx="7.88" ry="7.79" />
				<ellipse class="cls-10" cx="363.73" cy="1088.41" rx="3.56" ry="3.52" />
				<rect class="cls-10" x="424.1" y="1046.5" width="136.4" height="3.1" transform="translate(984.61 2096.1) rotate(-180)" />
				<rect class="cls-10" x="424.1" y="1052.35" width="136.4" height="3.1" transform="translate(984.61 2107.8) rotate(-180)" />
				<polygon class="cls-13" points="552.38 1015.55 552.38 1022.48 562.1 1032.1 562.1 1025.17 552.38 1015.55" />
				<path class="cls-13" d="M539.29,1009.54l6.56,6.49v-3.68a2.83,2.83,0,0,0-2.84-2.81Z" />
				<polygon class="cls-13" points="562.1 1035.63 552.38 1026.01 552.38 1035.68 554.9 1038.17 562.1 1038.17 562.1 1035.63" />
				<polygon class="cls-13" points="525.95 1009.54 545.85 1029.23 545.85 1019.56 535.72 1009.54 525.95 1009.54" />
				<polygon class="cls-13" points="541.07 1038.17 523.16 1020.46 523.16 1025.03 536.45 1038.17 541.07 1038.17" />
				<polygon class="cls-13" points="507.5 1009.54 521.01 1022.9 521.01 1018.34 512.12 1009.54 507.5 1009.54" />
				<polygon class="cls-13" points="528.89 1038.17 523.16 1032.5 523.16 1038.17 528.89 1038.17" />
				<polygon class="cls-13" points="498.32 1009.54 498.32 1014.86 521.01 1037.3 521.01 1030.37 499.95 1009.54 498.32 1009.54" />
				<polygon class="cls-13" points="492.94 1009.54 496.17 1012.74 496.17 1009.54 492.94 1009.54" />
				<polygon class="cls-13" points="517.58 1038.17 498.32 1019.12 498.32 1028.78 507.81 1038.17 517.58 1038.17" />
				<polygon class="cls-13" points="478.87 1009.54 496.17 1026.66 496.17 1016.99 488.63 1009.54 478.87 1009.54" />
				<polygon class="cls-13" points="499.38 1038.17 498.32 1037.12 498.32 1038.17 499.38 1038.17" />
				<polygon class="cls-13" points="496.17 1034.99 473.48 1012.55 473.48 1017.11 494.77 1038.17 496.17 1038.17 496.17 1034.99" />
				<polygon class="cls-13" points="465.83 1009.54 471.33 1014.98 471.33 1010.42 470.44 1009.54 465.83 1009.54" />
				<polygon class="cls-13" points="552.38 1009.54 552.38 1010.99 562.1 1020.61 562.1 1016.05 555.52 1009.54 552.38 1009.54" />
				<polygon class="cls-13" points="391.78 1015.48 391.78 1019.85 414.21 1042.03 414.21 1035.7 393.76 1015.48 391.78 1015.48" />
				<path class="cls-13" d="M428.86,1038.17l-5.06-5v2.2a2.83,2.83,0,0,0,2.84,2.81Z" />
				<polygon class="cls-13" points="397.01 1015.48 414.21 1032.49 414.21 1023.67 405.93 1015.48 397.01 1015.48" />
				<polygon class="cls-13" points="423.8 1016.52 423.8 1020.68 441.48 1038.17 445.69 1038.17 423.8 1016.52" />
				<polygon class="cls-13" points="458.97 1038.17 448.64 1027.95 448.64 1034.27 452.58 1038.17 458.97 1038.17" />
				<path class="cls-13" d="M424.55,1010.45l21.94,21.7v-6.33L430,1009.54h-3.38A2.85,2.85,0,0,0,424.55,1010.45Z" />
				<polygon class="cls-13" points="471.33 1037.69 448.64 1015.25 448.64 1024.07 462.89 1038.17 471.33 1038.17 471.33 1037.69" />
				<polygon class="cls-13" points="433.95 1009.54 446.49 1021.94 446.49 1013.12 442.87 1009.54 433.95 1009.54" />
				<polygon class="cls-13" points="483.7 1038.17 473.48 1028.06 473.48 1032.22 479.5 1038.17 483.7 1038.17" />
				<polygon class="cls-13" points="450.55 1009.54 471.33 1030.09 471.33 1025.94 454.75 1009.54 450.55 1009.54" />
				<polygon class="cls-13" points="412.37 1044.37 391.78 1024 391.78 1028.16 408.16 1044.37 412.37 1044.37" />
				<polygon class="cls-13" points="376.42 1009.49 381.76 1014.77 381.76 1009.54 377.11 1009.5 376.42 1009.49" />
				<polygon class="cls-13" points="365.92 1036.52 367.72 1038.29 376.55 1038.21 367.14 1028.9 365.92 1036.52" />
				<polygon class="cls-13" points="394.66 1044.37 391.78 1041.52 391.78 1044.37 394.66 1044.37" />
				<polygon class="cls-13" points="391.78 1076.9 391.78 1079.24 394.14 1079.24 391.78 1076.9" />
				<polygon class="cls-13" points="368.19 1022.35 381.76 1035.77 381.76 1031.61 368.76 1018.75 368.19 1022.35" />
				<polygon class="cls-13" points="407.22 1072.3 414.21 1079.21 414.21 1075.05 411.43 1072.3 407.22 1072.3" />
				<polygon class="cls-13" points="397.44 1072.3 404.45 1079.24 408.66 1079.24 401.64 1072.3 397.44 1072.3" />
				<path class="cls-68" d="M330.39,1066.88h5.68a2.53,2.53,0,0,1,2.53,2.53v2.52a3.54,3.54,0,0,1-3.54,3.54h-4.34a2.9,2.9,0,0,1-2.9-2.9v-3.13a2.57,2.57,0,0,1,2.57-2.57Z" transform="translate(666.41 2142.36) rotate(-180)" />
				<path class="cls-69" d="M560.75,1066.3h2a2.53,2.53,0,0,1,2.53,2.53v2.52a3.54,3.54,0,0,1-3.54,3.54h-.69a2.9,2.9,0,0,1-2.9-2.9v-3.13a2.57,2.57,0,0,1,2.57-2.57Z" transform="translate(1123.48 2141.2) rotate(-180)" />
				<g class="cls-70">
					<rect class="cls-71" x="552.38" y="1009.54" width="9.72" height="7.64" />
					<path class="cls-71" d="M543,1009.54H523.16v7.64h22.69v-4.83A2.83,2.83,0,0,0,543,1009.54Z" />
					<rect class="cls-71" x="498.32" y="1009.54" width="22.69" height="7.64" />
					<rect class="cls-71" x="473.48" y="1009.54" width="22.69" height="7.64" />
					<rect class="cls-71" x="448.64" y="1009.54" width="22.69" height="7.64" />
					<path class="cls-71" d="M424.55,1010.45a2.76,2.76,0,0,0-.75,1.9v4.83h22.69v-7.64H426.64A2.85,2.85,0,0,0,424.55,1010.45Z" />
					<rect class="cls-71" x="391.78" y="1015.48" width="22.43" height="1.7" />
					<polygon class="cls-71" points="369.01 1017.18 381.76 1017.18 381.76 1009.54 377.11 1009.5 376.42 1009.49 376.34 1009.49 370.25 1009.43 369.01 1017.18" />
				</g>
				<path class="cls-72" d="M549.75,1001.66a1.71,1.71,0,0,0,1.71-1.69h0a1.71,1.71,0,0,0-1.71-1.7H441.16a1.71,1.71,0,0,0-1.72,1.7h0a1.71,1.71,0,0,0,1.72,1.69Z" />
				<line class="cls-49" x1="294.36" y1="1023.76" x2="294.09" y2="1017.41" />
				<path class="cls-73" d="M286.33,1024s-8.26,29.67-9.5,31.58a16.2,16.2,0,0,0,18.55-3.74l-1.62-28.74Z" />
				<path class="cls-48" d="M295.23,1013.12l-.93.25a.48.48,0,0,0-.37.47v1.21a2.78,2.78,0,0,0-1.1.25c-.41.2-1.48.83-2.07,1.2l.32,1.13.13.48a17.85,17.85,0,0,1-4.88,3.07,5.93,5.93,0,0,1-3.69.35c-1.72-.51-1.88-2.54-1.49-4.71A30,30,0,0,1,283,1011c.58-1.48,4.53-2.55,5-2.68h.05v0l2.43.37v.17s3.67.92,4.15,1.92A18.08,18.08,0,0,1,295.23,1013.12Z" />
				<path class="cls-39" d="M293,1005a7.09,7.09,0,0,1-.82,3,1.64,1.64,0,0,1-1.74.41v.21l-2.43-.37.06-1.89c.16.1.24.08.24.08a1.4,1.4,0,0,1-.34-.83c0-.41.71-.2.75.3,0,0,.89-2.22.91-2.29A15.69,15.69,0,0,0,293,1005Z" />
				<path class="cls-49" d="M290.48,1008.41a2.44,2.44,0,0,1-1.45-1.25" />
				<path class="cls-49" d="M293.06,1004.73a2.32,2.32,0,0,1,0,.26" />
				<line class="cls-49" x1="288.12" y1="1006.18" x2="288.12" y2="1006.36" />
				<polyline class="cls-49" points="285.4 1018.1 290.76 1016.49 290.76 1016.49" />
				<path class="cls-49" d="M285.62,1013.33s.11,4.18-.43,5.61" />
				<path class="cls-48" d="M295.61,1027.51l-.37-.07h0l-1.38-.27c-.21-1.43-.41-2.66-.53-3.39h.32l-.12-5.47a.47.47,0,0,0,.4.08l1.45-.33.09,0C295.85,1021.54,296.06,1025.4,295.61,1027.51Z" />
				<line class="cls-49" x1="294.76" y1="1027.35" x2="294.75" y2="1027.35" />
				<path class="cls-48" d="M294.45,1024h-8.12v-2.81a17.76,17.76,0,0,0,4.88-3.06l0-.15-.09-.33c.5,0,1.89-.11,2.85-.2l.16,0,.06,1.11Z" />
				<line class="cls-49" x1="293.93" y1="1014.43" x2="293.88" y2="1013.65" />
				<path class="cls-74" d="M294.88,1017.28a2.77,2.77,0,0,1-.79.13l-.16,0c-1,.09-2.35.17-2.85.2l-.32-1.14c.59-.36,1.66-1,2.07-1.2a3,3,0,0,1,1.1-.24h0a1.3,1.3,0,0,1,.81.22C295.16,1015.62,295,1017.13,294.88,1017.28Z" />
				<path class="cls-75" d="M296.37,1013.46v4.27a.51.51,0,0,1-.28.45l-.09,0-1.44.38a.52.52,0,0,1-.41-.07l-.06-1.11a2.77,2.77,0,0,0,.79-.13c.11-.15.28-1.66-.11-2a1.3,1.3,0,0,0-.81-.22l0-.62v-.59a.5.5,0,0,1,.37-.48l.94-.24.5-.13A.49.49,0,0,1,296.37,1013.46Z" />
				<polygon class="cls-49" points="293.96 1015.05 293.93 1015.05 293.93 1014.43 293.96 1015.05" />
				<path class="cls-49" d="M292.59,1028.16c.07,2.39-1.65,19.08-2.3,25.29" />
				<path class="cls-49" d="M295.38,1031l0,0" />
				<path class="cls-74" d="M295.24,1027.44a7.29,7.29,0,0,1-.87,3.33c-.16-1.23-.34-2.48-.51-3.61l1.38.27Z" />
				<path class="cls-49" d="M296.14,1027.59v-.08" />
				<path class="cls-47" d="M296.52,1056.63c-.47,1-4.79.5-6.18.31a3.64,3.64,0,0,1-.67-1.18h.38l.24-2.32,2.4-.17a1.92,1.92,0,0,0,.63,1.43C294.19,1055.43,297.08,1055.43,296.52,1056.63Z" />
				<path class="cls-47" d="M293.2,1059.74c-.87,1.24-5.48-.34-6.05-.85-.41-.38-.23-2.26-.11-3.19l2.63.06a3.64,3.64,0,0,0,.67,1.18,1.37,1.37,0,0,0,.22.2C291.39,1057.74,294.06,1058.5,293.2,1059.74Z" />
				<path class="cls-44" d="M291,1019.77l-4.66,2.76h0v-1.35a17.76,17.76,0,0,0,4.88-3.06l0-.15Z" />
				<path d="M293.09,1005.33a1.86,1.86,0,0,1-2.28-.42c-.37,1.94-2.75,3.34-2.75,3.34l-.05.06c-.49.13-4.44,1.2-5,2.68a30,30,0,0,0-1.84,5.83c-.21,0-.64,0-.73-1.75-.14-2.89-1.47-1.66-1.76-3.1-.37-1.8.95-2.43,3-3.86,3-2.05.18-1.15,1.54-2.9s4.52-2.35,4.89-3.38,2.21-2.61,4.67-.63S293.66,1004.93,293.09,1005.33Z" />
				<path d="M297.27,980.67a.54.54,0,0,1-.39-.16,6.7,6.7,0,0,0-9.39,0,.54.54,0,0,1-.78,0,.53.53,0,0,1,0-.77,7.8,7.8,0,0,1,11,0,.53.53,0,0,1,0,.77A.54.54,0,0,1,297.27,980.67Z" />
				<path d="M288.67,982.22a.55.55,0,0,1-.4-.93,5.58,5.58,0,0,1,7.83,0,.55.55,0,0,1,0,.77.56.56,0,0,1-.78,0,4.46,4.46,0,0,0-6.26,0A.54.54,0,0,1,288.67,982.22Z" />
				<path d="M294.14,983.77a.59.59,0,0,1-.39-.16,2.23,2.23,0,0,0-3.13,0,.56.56,0,0,1-.78,0,.54.54,0,0,1,0-.78,3.34,3.34,0,0,1,4.69,0,.54.54,0,0,1,0,.78A.57.57,0,0,1,294.14,983.77Z" />
				<path d="M292.19,986.25a1.1,1.1,0,0,1-.79-1.87,1.12,1.12,0,0,1,1.57,0,1.1,1.1,0,0,1,0,1.55h0A1.1,1.1,0,0,1,292.19,986.25Z" />
				<path class="cls-76" d="M838,1028.36l-.93,0-3.54.11-1.35-4.64.57-.24-1.45-6.47s2.75-4.49,3.15-7.2-3.29-2.07-4.77-.51a9.37,9.37,0,0,0-1.41,2.23,11.05,11.05,0,0,1,2.64-4.84A10.67,10.67,0,0,1,834,1005l2.87,4.38c.13,2,.36,5.88.58,9.6h0c.11,1.83.22,3.64.31,5.17,0,.31,0,.61.06.89h0C837.89,1026.72,838,1028,838,1028.36Z" />
				<path class="cls-77" d="M840.34,1003.51s-1.16,3.07-2.64,2.56c-.74-.25-1-.5-1.14-.69l0-.32a.33.33,0,0,0,0,.32l.2,2.54.08,1.45L834,1005l1.42-1.42.64.3s.29-1.63,1.12-1.49.66.74.66.74.94-.92,1.3-.59A11.33,11.33,0,0,0,840.34,1003.51Z" />
				<path class="cls-76" d="M831.38,1028.56l-4.1.12-1.3,0s.61-5.44,1-8.3a26.72,26.72,0,0,0,2,4.79l.34-.14Z" />
				<line class="cls-36" x1="835.46" y1="1003.51" x2="835.39" y2="1003.57" />
				<path class="cls-78" d="M834.44,1010c-.4,2.71-3.15,7.2-3.15,7.2l1.45,6.47-.57.24-2.92,1.21-.34.14a26.72,26.72,0,0,1-2-4.79h0a14.69,14.69,0,0,1-.67-3.88,36.07,36.07,0,0,1,2-4.86h0a9.37,9.37,0,0,1,1.41-2.23C831.15,1007.88,834.84,1007.23,834.44,1010Z" />
				<line class="cls-36" x1="837.35" y1="1024.62" x2="837.34" y2="1024.63" />
				<path class="cls-78" d="M839.54,1021.92l-.27.34-1.54,1.88c-.09-1.53-.2-3.34-.31-5.17Z" />
				<path class="cls-77" d="M845.26,1029.77c0,.62-1.52,1-1.52,1l-2-1.92-4-3.79h0c0-.28,0-.58-.06-.89l1.54-1.88c.9,1.53,3.16,5.29,3.82,5.67C843.92,1028.4,845.22,1029.16,845.26,1029.77Z" />
				<path class="cls-77" d="M835.31,1032.38c0,.58-.76,2.42-1.23,2s-1.09-3.19-1.09-3.19l-1.61-2.62-2.13-3.49,2.92-1.21,1.35,4.64.52,1.78S835.35,1031.8,835.31,1032.38Z" />
				<path class="cls-79" d="M842.44,1054.12l-.31.13-1.46.59-.29.12s-4.27-7.58-6-11.93a13.26,13.26,0,0,1-.64-1.84c-.52-2.06-2.86-4.18-4.57-6.76a9.62,9.62,0,0,1-1.87-5.75l4.1-.12,1.61,2.62s.62,2.75,1.09,3.19,1.19-1.41,1.23-2-1.27-2.1-1.27-2.1l-.52-1.78,3.54-.11,2.85,10.36Z" />
				<path class="cls-79" d="M834.36,1043c-.45.67-1.1,1.51-1.85,2.42-3.26,3.92-8.56,9.25-8.56,9.25l0,0-1.36-1.41-.27-.29c.4-1.73,6.19-13.13,6.19-13.13l.13-1,.55-4.35c1.71,2.58,4.05,4.7,4.57,6.76A13.26,13.26,0,0,0,834.36,1043Z" />
				<path class="cls-80" d="M826,1059c-.58.33-5.36-2-5.47-2.6a4.34,4.34,0,0,1,.94-1.76l1.83,1.9a1.18,1.18,0,0,1,.74-.81C824.51,1056.36,826.48,1058.76,826,1059Z" />
				<path class="cls-77" d="M824,1055.77a1.18,1.18,0,0,0-.74.81l-1.83-1.9c.41-.57.85-1.13,1.1-1.43l1.36,1.41v1Z" />
				<path class="cls-77" d="M843.66,1056.39l-2.64.15c-.15-.64-.28-1.3-.35-1.7l1.46-.59,1.23,1h.17A1.14,1.14,0,0,0,843.66,1056.39Z" />
				<path class="cls-80" d="M847.28,1056c-.13.65-5,2.75-5.54,2.43a4.25,4.25,0,0,1-.72-1.86l2.64-.15a1.14,1.14,0,0,1-.13-1.08C844.3,1055.31,847.4,1055.4,847.28,1056Z" />
				<path d="M841.28,1003.87a1.57,1.57,0,0,1-.94-.36,11.33,11.33,0,0,1-1.23-1c-.36-.33-1.3.59-1.3.59s.18-.59-.66-.74-1.12,1.49-1.12,1.49l-.64-.3-.77-.35a4.5,4.5,0,0,1,2.17-4c2.32-1.19,4.2.94,4.85,2S841.82,1003.76,841.28,1003.87Z" />
				<path class="cls-81" d="M834.36,1043c-.45.67-1.1,1.51-1.85,2.42l-3.91-6.67.55-4.35c1.71,2.58,4.05,4.7,4.57,6.76A13.26,13.26,0,0,0,834.36,1043Z" />
				<path class="cls-82" d="M1565.22,1010.66s-1,.31-1-1.89,2.75-3.86,5.5-3.11,5.67-2.72,9,1.66,4-1.45,6.18,1.45-.34,3.29.34,6.22-4.08,2.62-4.89,4.69-1.87,3.26-3.43,2.31-4.07-2.7-5.4-2.47-4.41-8.43-4.41-8.43Z" />
				<path class="cls-83" d="M1566.88,1031.86l.83,0,3.14.1,1.2-4.12-.51-.22,1.29-5.75s-2.44-4-2.8-6.39,2.93-1.84,4.25-.45a9,9,0,0,1,1.25,2,9.78,9.78,0,0,0-2.35-4.3,9.46,9.46,0,0,0-2.73-1.64l-2.55,3.9c-.11,1.8-.31,5.22-.51,8.52h0c-.1,1.63-.2,3.23-.28,4.6,0,.27,0,.54,0,.79h0C1567,1030.4,1566.9,1031.5,1566.88,1031.86Z" />
				<path class="cls-84" d="M1564.79,1009.77s1,2.74,2.35,2.29c.66-.23.92-.45,1-.62l0-.28a.29.29,0,0,1,0,.28l-.17,2.26-.08,1.29,2.55-3.9-1.26-1.26-.57.27s-.26-1.45-1-1.32-.58.65-.58.65-.83-.81-1.15-.52A9.7,9.7,0,0,1,1564.79,1009.77Z" />
				<path class="cls-83" d="M1572.75,1032l3.64.11,1.16,0s-.54-4.84-.85-7.38a24.32,24.32,0,0,1-1.75,4.26l-.3-.12Z" />
				<line class="cls-36" x1="1569.19" y1="1009.83" x2="1569.13" y2="1009.77" />
				<path class="cls-85" d="M1570,1015.5c.36,2.41,2.8,6.39,2.8,6.39l-1.29,5.75.51.22,2.6,1.08.3.12a24.32,24.32,0,0,0,1.75-4.26h0a13.22,13.22,0,0,0,.6-3.45,31.92,31.92,0,0,0-1.77-4.32h0a9,9,0,0,0-1.25-2C1573,1013.66,1569.68,1013.09,1570,1015.5Z" />
				<line class="cls-36" x1="1567.46" y1="1028.54" x2="1567.45" y2="1028.53" />
				<path class="cls-85" d="M1565.5,1026.13l.25.31,1.36,1.67c.08-1.37.18-3,.28-4.6Z" />
				<path class="cls-84" d="M1560.42,1033.11c0,.55,1.35.87,1.35.87l1.74-1.71,3.55-3.37h0c0-.25,0-.52,0-.79l-1.36-1.67c-.81,1.36-2.81,4.7-3.4,5S1560.46,1032.56,1560.42,1033.11Z" />
				<path class="cls-84" d="M1569.26,1035.42c0,.52.68,2.16,1.09,1.77a10.77,10.77,0,0,0,1-2.83l1.43-2.33,1.9-3.09-2.6-1.08-1.2,4.12-.46,1.58S1569.23,1034.91,1569.26,1035.42Z" />
				<path class="cls-86" d="M1562.93,1054.74l.27.11,1.3.53.26.1s3.79-6.72,5.35-10.59a13.09,13.09,0,0,0,.57-1.64c.45-1.83,2.53-3.71,4-6a8.44,8.44,0,0,0,1.66-5.1l-3.64-.11-1.43,2.33a10.77,10.77,0,0,1-1,2.83c-.41.39-1.06-1.25-1.09-1.77s1.13-1.86,1.13-1.86l.46-1.58-3.14-.1-2.53,9.2Z" />
				<path class="cls-86" d="M1570.11,1044.89c.4.6,1,1.34,1.64,2.15,2.9,3.48,7.61,8.22,7.61,8.22l0,0,1.2-1.26.24-.25c-.35-1.54-5.49-11.66-5.49-11.66l-.12-.94-.49-3.87c-1.52,2.3-3.6,4.18-4,6A13.09,13.09,0,0,1,1570.11,1044.89Z" />
				<path d="M1577.55,1059.11c.52.29,4.76-1.77,4.86-2.31a3.84,3.84,0,0,0-.83-1.56l-1.63,1.69a1.05,1.05,0,0,0-.66-.72C1578.85,1056.73,1577.1,1058.86,1577.55,1059.11Z" />
				<path class="cls-84" d="M1579.29,1056.21a1.05,1.05,0,0,1,.66.72l1.63-1.69c-.37-.51-.76-1-1-1.28l-1.2,1.26v.87Z" />
				<path class="cls-84" d="M1561.84,1056.76l2.35.13c.13-.57.25-1.16.31-1.51l-1.3-.53-1.09.94H1562A1,1,0,0,1,1561.84,1056.76Z" />
				<path d="M1558.63,1056.38c.12.58,4.44,2.44,4.92,2.16a3.83,3.83,0,0,0,.64-1.65l-2.35-.13a1,1,0,0,0,.12-1C1561.28,1055.8,1558.52,1055.87,1558.63,1056.38Z" />
				<path class="cls-81" d="M1570.11,1044.89c.4.6,1,1.34,1.64,2.15l3.47-5.93-.49-3.87c-1.52,2.3-3.6,4.18-4,6A13.09,13.09,0,0,1,1570.11,1044.89Z" />
				<path class="cls-87" d="M1194.33,1016.86s-.24.57-.53,1.35c0,.71.06,1.37.3,1.37s.67-.41,1.17-.92a1.52,1.52,0,0,1,.1-.62,3.14,3.14,0,0,1,1.64-1.3c.28-1.38.73-3.32,1-3.43.5-.19.54-1.64-.19-1.64s-.89,1-.89,1l-.23-2.57-2.43-.85c-.32.9-1.86,5.08,1.14,4.79l-.89,2.19Z" />
				<path class="cls-88" d="M1193.68,1009.12l.64.17,2.43.85.23,2.57s.17-1,.89-1,.69,1.45.19,1.64c-.32.11-.77,2.05-1,3.43l0,.13c2.85-.68,4.76,6.26,4.76,6.26l-.12.07c6.51,6.49,10.12-1.34,9.77-1.34s-4.14-2.5-3.73-4.87-1.69-2.86-3.92-2.93-1.86-7.26-6.46-6.85S1193.68,1009.12,1193.68,1009.12Z" />
				<path class="cls-4" d="M1188.41,1045.15h.51c.68,0,2,.06,3.48.16,1.18.09,2.47.21,3.7.39q.63.09,1.23.21a8.54,8.54,0,0,0,3.31,0,10.08,10.08,0,0,0,3.47-1.35,63.92,63.92,0,0,1-2.81-6.92l-4.56,1.09v-6l1.11-.3,2.21-.59a9.3,9.3,0,0,0-1.5-4.22,7,7,0,0,1-1.09-4.9l1.09,2.09.61-.33,1.86-1,.59-.32.12-.07s-1.91-6.94-4.76-6.26l-.11,0s-.83,1-1.6,1.76c-.5.51-1,.92-1.17.92s-.3-.66-.3-1.37c-.38,1-.86,2.34-1.1,3.28l0,.13a3.7,3.7,0,0,0-.12.74c0,.4-.52,3.39-1.19,7.07h0C1190.14,1036.13,1188.41,1045.15,1188.41,1045.15Z" />
				<path class="cls-4" d="M1192.5,1022.27l.17-.65,0-.13c.24-.94.72-2.28,1.1-3.28.29-.78.53-1.35.53-1.35l.24-.59c-.41-.16-1-.15-1.33.63C1192.52,1018.33,1191.68,1020.76,1192.5,1022.27Z" />
				<path class="cls-87" d="M1199.17,1024.53c.95,1.46,3.73,4.73,4.25,5.38.2.24.44.57.67.91a9.22,9.22,0,0,1,1,1.77c.09.41.13,1.14.36,1.14s.23-.86.23-.86a8.23,8.23,0,0,0,1.2.82c.69.38,1.52.66,2,.22,1-.86-2-2.59-2-2.59l-5.9-7.8Z" />
				<path d="M1196.74,1032.78v6l4.56-1.09,6.76-1.63-1.16-2.32a8.23,8.23,0,0,1-1.2-.82s0,.86-.23.86-.27-.73-.36-1.14a9.22,9.22,0,0,0-1-1.77l-4,1.07-2.21.59Z" />
				<path class="cls-36" d="M1187.68,1033.31h0v0" />
				<path class="cls-36" d="M1187.72,1033.24h0" />
				<path class="cls-87" d="M1185.23,1033.09c.18,1,.64,1.55,1.46,1.05a3.66,3.66,0,0,0,1-.83c-.14.21-.44.7,0,.56a39.42,39.42,0,0,0,3.72-4.44h0c.67-3.68,1.19-6.67,1.19-7.07a.41.41,0,0,0,0-.09l-.9,3.59-4,5.69S1185.05,1032.09,1185.23,1033.09Z" />
				<polyline class="cls-36" points="1187.72 1033.24 1187.73 1033.24 1187.73 1033.23 1187.73 1033.23" />
				<path class="cls-36" d="M1187.68,1033.31h0v0" />
				<path class="cls-87" d="M1195.27,1018.66c.77-.78,1.6-1.76,1.6-1.76l.11,0,0-.13a3.14,3.14,0,0,0-1.64,1.3A1.52,1.52,0,0,0,1195.27,1018.66Z" />
				<path class="cls-87" d="M1188,1058l3-.23s1.51-8.87,1.39-12.43c-1.5-.1-2.8-.15-3.48-.16Z" />
				<path d="M1183.32,1061.75s6.86,1.1,7.09,1c.75-.47.6-5,.6-5l-3,.23v2.09s-3.23-.32-4.1.55S1183.32,1061.75,1183.32,1061.75Z" />
				<path class="cls-87" d="M1196.1,1045.71a9.13,9.13,0,0,0,1.45,2.51l7.88,9.76,2.12-2.2a106.43,106.43,0,0,0-6.91-9.87,8.54,8.54,0,0,1-3.31,0Q1196.73,1045.8,1196.1,1045.71Z" />
				<path d="M1204.88,1063.34s2.91.13,3.18-.43,2.51-3.48,2.55-3.84-1.82-1.32-1.82-1.32l-1.24-2-2.12,2.2,1.77,2s-.27,1.55-.64,1.78-1.63.9-1.68,1.11A1.34,1.34,0,0,0,1204.88,1063.34Z" />
				<path class="cls-89" d="M1198.89,1033.23s-4.18-11.31-1.88-16.49" />
				<path class="cls-90" d="M1306.93,1004.66c-.2-.52-.35-.86-.35-.86l-2.07,2.07-.78-.21c-.79-.2-.33,1.49-.33,1.49a8.82,8.82,0,0,1-.75,1.9,1.19,1.19,0,0,1-.29-.12,3.75,3.75,0,0,1-1.94-4.51,3,3,0,0,1,1.35-1.53,2.32,2.32,0,0,1-.73-1.74,1.88,1.88,0,1,1,3.72,0,2.56,2.56,0,0,1-.16.89C1306.49,1001.92,1308.05,1002.71,1306.93,1004.66Z" />
				<path class="cls-91" d="M1307.57,1009.67a25.82,25.82,0,0,1-2.89,0v.9c-.68-.23-1.49-.46-2.32-.69v-1a1.19,1.19,0,0,0,.29.12,8.82,8.82,0,0,0,.75-1.9s-.46-1.69.33-1.49l.78.21,2.07-2.07s.15.34.35.86C1307.58,1006.27,1308.76,1009.61,1307.57,1009.67Z" />
				<path class="cls-92" d="M1309.35,1035.35l-1.22.07-7.32.35-2.06.08c-.81,0-1.34,0-1.43,0a3.21,3.21,0,0,1,0-1.24c.15-3.22,1.1-11.87,1.63-15.8a15.52,15.52,0,0,1,.32-2,4.55,4.55,0,0,0,0-2c-7,3.15-3-6.41-3-6.41s3.25.68,6.12,1.45c.83.23,1.64.46,2.32.69a6.93,6.93,0,0,1,1.86.84c1.32,1.12,2,13.81,2,13.81v0l.65,8.44Z" />
				<polygon class="cls-93" points="1312.53 1032.83 1312.13 1033.42 1311.21 1034.75 1310.8 1035.35 1309.22 1033.69 1308.57 1025.25 1312.53 1032.83" />
				<path class="cls-91" d="M1314.6,1036.55c0,.91-.54,1.94-.95,1.94s-1.12-1.4-1.12-1.4l-.3.79a.09.09,0,0,1-.18,0,29.41,29.41,0,0,0-.84-3.12l.92-1.33a9.71,9.71,0,0,0,1.06,1.39C1313.49,1035,1314.6,1035.64,1314.6,1036.55Z" />
				<path class="cls-93" d="M1298.9,1018.81c-.53,3.93-1.48,12.58-1.63,15.8l-.17,0-1.5-.26-.47-.08s-.13-8.27,0-8.85C1295.22,1025,1297.42,1021.28,1298.9,1018.81Z" />
				<path class="cls-91" d="M1297.1,1037.1c0,1.44-1.85,2.81-2.38,2.21s.67-1.55.78-1.77-.72.42-1,.39.36-.72.47-.77.54-2.18.68-2.84l1.5.26C1297.11,1035,1297.12,1036.05,1297.1,1037.1Z" />
				<path class="cls-47" d="M1303,1041.3c-2,5.21-8.64,15.87-8.64,15.87l-.25-.07-1.58-.48-.2-.06c-.22-4.18,6-14.66,6-14.66l.47-6.05,2.06-.08A19.31,19.31,0,0,0,1303,1041.3Z" />
				<path d="M1312.76,1058.27h0l-1.6.39-.2,0s-4.53-7.06-4.59-12.3a43.14,43.14,0,0,1-3.33-5.12,19.31,19.31,0,0,1-2.19-5.53l7.32-.35c.46,2.24,1.91,9.31,2,10.56C1310.24,1047.47,1312.76,1058.27,1312.76,1058.27Z" />
				<path class="cls-4" d="M1318.4,1060.7c.11.88-5.87,3-5.87,3l-1.15-4.09,1.72-.63.73,1.3S1318.29,1059.82,1318.4,1060.7Z" />
				<polygon class="cls-91" points="1313.1 1058.96 1311.38 1059.59 1311.12 1058.67 1312.72 1058.28 1313.1 1058.96" />
				<path class="cls-4" d="M1296.38,1063c-.54.7-6.25-2-6.25-2l2.07-3.7,1.66.77-.4,1.43S1296.93,1062.25,1296.38,1063Z" />
				<polygon class="cls-91" points="1294.11 1057.1 1293.86 1057.97 1292.2 1057.2 1292.53 1056.62 1294.11 1057.1" />
			</g>
		</g>
	</g>
</svg>