<svg width="388" height="298" viewBox="0 0 388 298" fill="none"
	xmlns="http://www.w3.org/2000/svg">
	<path d="M294.659 202.579H373.932V213.008H294.659V202.579Z" fill="#AF814F" />
	<path d="M330.281 206.522H338.316V280.723H330.281V206.522Z" fill="#AF814F" />
	<path d="M336.551 267.839V289.455H332.04V267.839H336.551Z" fill="#AF814F" />
	<path d="M336.304 275.737L363.118 285.709L361.546 289.938L334.731 279.965L336.304 275.737Z" fill="#AF814F" />
	<path d="M336.358 277.567L309.465 287.58L307.887 283.34L334.779 273.326L336.358 277.567Z" fill="#AF814F" />
	<path d="M115.084 202.478H194.358V212.907H115.084V202.478Z" fill="#AF814F" />
	<path d="M182.323 206.414H190.358V280.615H182.323V206.414Z" fill="#AF814F" />
	<path d="M188.592 267.73V289.346H184.081V267.73H188.592Z" fill="#AF814F" />
	<path d="M187.1 275.943L213.993 285.957L212.414 290.197L185.521 280.184L187.1 275.943Z" fill="#AF814F" />
	<path d="M188.883 277.196L161.991 287.209L160.412 282.969L187.304 272.956L188.883 277.196Z" fill="#AF814F" />
	<path d="M197.696 285.586L202.809 289.955L211.649 287.493L211.06 274.386L210.35 272.106L208.592 271.944L201.592 271.274H201.51L199.38 273.655L197.696 285.586Z" fill="black" />
	<path d="M201.544 264.031L201.592 271.274L208.592 271.944L208.544 263.99L201.544 264.031Z" fill="#995552" />
	<path d="M174.991 288.589L169.878 292.958L161.038 290.496L161.627 277.388L162.344 275.102L164.095 274.94L171.102 274.271H171.177L173.307 276.658L174.991 288.589Z" fill="black" />
	<path d="M171.143 267.034L171.102 274.271L164.095 274.94L164.143 266.993L171.143 267.034Z" fill="#995552" />
	<path d="M132.743 173.719C132.94 173.347 133.075 173.111 133.129 173.043L132.973 173.719H134.326L180.358 173.043H181.034L181.873 158.13H132.784L132.743 173.719Z" fill="#FD786C" />
	<path d="M133.17 172.976C133.17 172.976 133.014 173.233 132.764 173.72H132.994L133.17 172.976Z" stroke="#7CBFBD" stroke-width="0.72" stroke-miterlimit="10" />
	<path d="M184.48 104.023C194.456 105.93 199.238 99.5727 200.949 96.4142C199.727 95.9862 198.633 95.2556 197.77 94.2905C197.161 93.6085 196.655 92.8405 196.269 92.0112C195.788 93.018 195.174 93.9552 194.443 94.7977C193.117 96.3676 191.293 97.4348 189.275 97.821C188.046 98.0532 186.779 97.9718 185.589 97.5843C185.961 98.5447 185.474 100.783 184.825 102.887C184.71 103.279 184.595 103.678 184.48 104.023Z" fill="#995552" />
	<path d="M173.328 66.0196C173.328 66.0196 169.656 62.5905 167.031 63.8756C167.031 63.8756 170.413 66.2901 171.516 68.2515C171.707 68.5668 171.819 68.9245 171.84 69.2931C171.84 71.3018 173.328 66.0196 173.328 66.0196Z" fill="#0C0C0C" />
	<path d="M174.349 64.1598C174.349 64.1598 174.349 61.1636 174.349 59.7366C174.349 58.3095 174.349 59.0399 174.349 59.0399C174.349 59.0399 171.996 63.1994 172.429 66.6893C172.861 70.1792 174.349 64.1598 174.349 64.1598Z" fill="#0C0C0C" />
	<path d="M172.509 117.84H186.117L185.332 106.065L183.811 105.95L177.987 105.538H177.967L175.079 105.328L172.509 117.84Z" fill="#FD786C" />
	<path d="M160.889 130.556V117.84H172.509L175.079 105.328L177.967 105.538C179.367 101.196 176.188 100.864 175.059 97.273C174.893 96.6949 174.789 96.1009 174.748 95.501C174.01 95.5416 173.03 95.6159 171.9 95.7715C167.281 96.3802 160.362 98.2672 159.544 104.097C158.8 109.501 159.564 121.743 160.889 130.556Z" fill="#FD786C" />
	<path d="M129.409 185.36C134.049 182.336 137.87 181.518 140.907 182.059C142.35 182.354 143.715 182.949 144.914 183.806C146.113 184.662 147.119 185.76 147.866 187.03C149.539 189.744 150.504 192.835 150.673 196.019C150.768 197.696 150.572 201.849 150.24 207.388H159.411C158.945 200.347 158.688 195.004 158.789 193.016C159.236 184.616 165.945 172.374 181.108 183.094C181.631 183.459 182.104 183.891 182.515 184.379C182.535 182.398 182.358 180.42 181.988 178.474C181.631 176.592 181.069 174.755 180.31 172.996L134.279 173.672C133.335 175.357 132.477 177.088 131.709 178.86C130.768 180.961 129.999 183.134 129.409 185.36V185.36Z" fill="#0C0C0C" />
	<path d="M184.825 102.887L184.886 103.083C193.678 99.4374 196.742 96.1031 197.736 94.2905C197.127 93.6085 196.621 92.8405 196.235 92.0112C195.754 93.018 195.14 93.9552 194.409 94.7977C193.084 96.3676 191.259 97.4348 189.242 97.821C188.013 98.0532 186.745 97.9718 185.556 97.5843C185.961 98.5447 185.474 100.783 184.825 102.887Z" fill="#5E2323" />
	<path d="M173.28 76.4652C173.28 76.4652 173.549 77.989 174.108 80.2426C174.439 81.5112 174.873 83.0775 175.411 84.6437C175.804 85.7635 176.239 86.8974 176.735 88.0526C177.762 90.6504 179.195 93.0586 180.977 95.1822C181.963 96.3215 183.146 97.2634 184.466 97.9603V97.9603C184.911 98.1833 185.372 98.3682 185.846 98.5131C187.115 98.8966 188.452 98.9766 189.756 98.747C191.858 98.3824 193.783 97.3134 195.232 95.7066C196.003 94.8704 196.657 93.9283 197.177 92.9072C198.538 90.2103 199.427 87.2885 199.804 84.2752V84.2752C200.052 82.5677 200.211 80.8478 200.28 79.1229C200.28 78.0882 200.28 77.1669 200.28 76.3802C200.28 74.814 200.177 73.8359 200.177 73.8359L199.204 68.875L178.156 74.984C178.008 75.0365 177.855 75.0768 177.701 75.1045C177.616 75.1248 177.534 75.1508 177.453 75.1825L173.28 76.4652Z" fill="#995552" />
	<path d="M201.625 80.6824C199.816 78.5695 198.257 76.2546 196.979 73.7838C195.403 70.4021 177.981 75.3258 177.981 75.3258C177.712 78.7018 176.911 82.014 175.607 85.1395C175.607 85.1395 167.491 74.778 169.046 71.0852C170.602 67.3924 173.158 58.1942 186.841 58.1807C200.523 58.1671 205.731 69.4282 201.625 80.6824Z" fill="#0C0C0C" />
	<path d="M176.182 82.3735C176.182 82.3735 174.247 77.7338 172.8 81.5213C171.353 85.3088 177.223 87.7639 177.223 87.7639L176.182 82.3735Z" fill="#995552" />
	<path d="M198.223 79.188C198.223 79.188 198.325 74.1764 201.253 77.159C204.182 80.1417 199.319 84.5446 199.319 84.5446L198.223 79.188Z" fill="#995552" />
	<path d="M197.751 73.7568L199.401 81.1695L200.28 75.7047L197.751 73.7568Z" fill="#0C0C0C" />
	<path d="M183.6 98.875C183.6 98.875 186.022 96.1846 185.05 95.3443C184.078 94.504 176.774 90.8111 176.28 86.875L177.329 93.0372L183.6 98.875Z" fill="#5E2323" />
	<path d="M174.768 95.5011C174.809 96.1011 174.913 96.695 175.079 97.2731C176.209 100.864 179.387 101.196 177.987 105.538L183.817 105.951C184.67 103.57 186.151 99.0519 185.589 97.5843C185.548 97.4369 185.457 97.3082 185.332 97.219C183.581 96.0693 182.174 95.1494 181.024 94.2499C181.024 94.2499 181.024 94.2499 181.024 94.2161C178.815 92.6395 177.274 90.2952 176.702 87.6421C176.658 87.4627 176.556 87.3032 176.41 87.1892C176.265 87.0752 176.086 87.0132 175.901 87.0132C175.716 87.0132 175.537 87.0752 175.391 87.1892C175.246 87.3032 175.143 87.4627 175.099 87.6421C174.612 89.1841 174.518 92.9852 174.768 95.5011Z" fill="#995552" />
	<path d="M183.817 105.95L185.332 106.065L186.117 117.84H221.226V155.472C244.039 152.428 228.165 108.034 224.364 103.536C222.788 101.642 216.18 95.0343 208.064 96.5696C206.272 96.9213 203.506 97.3339 200.949 96.4141C199.427 99.2073 195.538 104.53 187.713 104.368C186.628 104.343 185.546 104.228 184.48 104.023C184.243 104.74 184.007 105.403 183.817 105.95Z" fill="#FD786C" />
	<path d="M131.729 178.887C137.18 177.291 140.264 178.285 142.99 179.827C149.841 183.703 153.209 192.678 153.209 192.678C158.011 169.067 175.109 175.012 182.008 178.474C181.652 176.592 181.089 174.755 180.331 172.996L134.299 173.672C133.354 175.366 132.496 177.106 131.729 178.887Z" fill="#282828" />
	<path d="M191.027 207.388C192.549 230.234 196.215 270.787 196.215 270.787L210.526 270.145C210.526 270.145 226.805 198.845 214.158 184.379C213.747 183.891 213.274 183.459 212.751 183.094C197.567 172.374 190.858 184.615 190.432 193.015C190.303 194.984 190.56 200.347 191.027 207.388Z" fill="#282828" />
	<path d="M162.175 273.148L176.486 273.79C176.486 273.79 180.483 229.456 181.863 207.387C182.194 201.848 182.39 197.696 182.296 196.018C181.863 187.835 175.471 175.978 161.025 185.359L159.929 186.096C144.745 196.837 162.175 273.148 162.175 273.148Z" fill="#282828" />
	<path d="M160.89 117.84H221.226V158.062H160.89V117.84Z" fill="#0C0C0C" />
	<path d="M191.061 142.682C188.45 142.682 186.333 140.566 186.333 137.955C186.333 135.344 188.45 133.227 191.061 133.227C193.672 133.227 195.789 135.344 195.789 137.955C195.789 140.566 193.672 142.682 191.061 142.682Z" fill="#E0E0E0" />
	<path opacity="0.2" d="M184.48 104.023C184.243 104.74 184.007 105.376 183.804 105.951L185.319 106.065L186.103 117.841H189.925L187.713 104.354C186.628 104.334 185.547 104.223 184.48 104.023V104.023Z" fill="black" />
	<path opacity="0.2" d="M168.958 117.84H172.509L175.079 105.328L177.967 105.538C179.367 101.196 176.188 100.864 175.059 97.273C174.893 96.6949 174.789 96.1009 174.748 95.501C174.01 95.5416 173.03 95.6159 171.9 95.7715C172.428 99.8904 173.713 105.328 173.713 105.328L168.958 117.84Z" fill="black" />
	<path d="M91.5534 162.875H102.28V292.651H91.5534V162.875Z" fill="#AF814F" />
	<path d="M368.28 162.875H378.28V292.875H368.28V162.875Z" fill="#AF814F" />
	<path d="M121.28 152.875H125.917L128.876 147.083L143.28 118.889L139.668 116.875L124.233 147.083L121.28 152.875Z" fill="#0C0C0C" />
	<path d="M90.2802 150.208V152.875H124.638L127.28 148.875L90.2802 150.208Z" fill="#0C0C0C" />
	<path d="M60.5088 85.2073L63.7349 87.6015L64.161 87.9126C66.8934 89.929 70.1024 91.2014 73.4742 91.6054L110.788 96.0151L117.091 97.5369L117.375 97.6113C117.375 97.6113 120.676 102.271 128.102 98.1253C135.528 93.9793 133.993 87.3986 129.576 86.472C128.024 86.083 126.402 86.0668 124.842 86.4247C124.407 86.6653 123.955 86.8733 123.489 87.0469C123.89 86.744 124.351 86.5317 124.842 86.4247C126.195 85.6942 128 84.3956 127.588 82.7319C126.912 80.1415 121.23 83.9222 119.905 85.9986C119.073 87.2971 117.314 88.2305 116.104 88.758C115.366 89.0691 114.825 89.2382 114.825 89.2382L77.1602 81.4806L74.8336 79.2758L70.3292 74.9878L60.5088 85.2073Z" fill="#D87979" />
	<path d="M2.41141 132.247H3.65589L29.5867 132.483L34.7539 132.524L53.9551 132.713H56.5116L57.4044 104.388L54.1715 101.987L63.9784 91.7747L68.4828 96.0627L72.5949 91.3283L81.0762 81.5823C81.0762 81.5823 64.3436 59.8989 57.1271 51.9858C52.4874 46.8997 46.5424 44.3026 42.8564 43.0987C43.9318 46.4127 44.5743 51.5191 39.0148 52.5674C32.3258 53.8727 26.5161 45.1277 24.4533 41.5566C19.4213 44.1267 10.5342 49.7606 9.01247 58.181C8.62019 60.2912 8.17381 63.9907 7.65979 68.6372C6.25301 81.8122 4.59599 102.691 3.52738 116.907C3.09453 122.562 2.74961 127.181 2.57377 129.812C2.46555 131.408 2.41141 132.247 2.41141 132.247Z" fill="#20A4F3" />
	<path d="M47.9897 18.737C47.9897 18.6423 47.9897 18.5341 47.9897 18.4326" stroke="black" stroke-width="0.93" stroke-miterlimit="10" />
	<path d="M68.2731 96.3533L68.4895 96.103" stroke="black" stroke-width="0.89" stroke-miterlimit="10" />
	<path d="M37.6012 63.835L65.4122 90.3203L63.9784 91.8015L63.9852 91.815" stroke="black" stroke-width="0.89" stroke-miterlimit="10" />
	<path d="M12.3062 58.3633C12.3062 58.3633 8.52546 63.659 11.6299 70.9229C14.7342 78.1867 48.9975 107.445 48.9975 107.445L54.2053 102.034" stroke="black" stroke-width="0.89" stroke-miterlimit="10" />
	<path d="M54.1783 102.021L57.3976 104.422L57.8237 104.733C60.5624 106.745 63.7758 108.012 67.1504 108.412L104.471 112.835L110.774 114.357L111.058 114.432C111.058 114.432 114.366 119.092 121.792 114.952C129.218 110.813 127.676 104.226 123.266 103.299C121.715 102.906 120.092 102.887 118.532 103.245C118.096 103.484 117.644 103.692 117.179 103.867C117.582 103.568 118.042 103.356 118.532 103.245C119.884 102.521 121.69 101.216 121.237 99.5522C120.595 96.9619 114.886 100.743 113.554 102.826C112.729 104.124 110.97 105.058 109.76 105.578C109.016 105.89 108.475 106.065 108.475 106.065L70.8094 98.3078L68.4895 96.1029L63.9851 91.8149L54.1783 102.021Z" fill="#D87979" />
	<path d="M63.9851 91.8153L63.9783 91.8018" stroke="black" stroke-width="0.89" stroke-miterlimit="10" />
	<path d="M27.3682 35.368L27.9634 27.8674C27.9634 27.8674 25.8938 25.0403 26.5634 21.7263C27.233 18.4122 29.6272 21.4625 29.6272 21.4625C29.6272 21.4625 41.5916 22.22 47.9627 18.7233C48.0137 18.6989 48.0633 18.6718 48.1115 18.6422C48.9677 18.1773 49.7197 17.5421 50.3211 16.7755C50.9225 16.009 51.3605 15.1274 51.6082 14.1851C53.6845 6.01495 51.8584 -2.04699 43.3501 2.1463C34.8418 6.33959 35.9442 6.042 31.0949 6.38017C26.2455 6.71834 15.0318 11.3377 17.5275 17.9726C19.9962 24.479 17.8995 32.7911 27.3682 35.368Z" fill="#231204" stroke="#071235" stroke-width="0.38" stroke-miterlimit="10" stroke-linecap="round" />
	<path d="M23.7498 40.0212C25.9885 44.0115 32.2446 53.7373 39.0012 52.574C44.6012 51.6068 43.7355 46.0338 42.5249 42.3883C41.3768 41.9281 40.1997 41.544 39.0012 41.2386L36.6543 35.9225C47.151 39.1216 48.0438 25.6084 47.9897 18.7368C41.6186 22.2335 29.6542 21.476 29.6542 21.476C29.6542 21.476 27.2464 18.4325 26.5904 21.7398C25.9343 25.047 27.9904 27.8809 27.9904 27.8809L27.3682 35.368L27.1247 38.4521C25.9741 38.9181 24.8477 39.4418 23.7498 40.0212V40.0212Z" fill="#D87979" />
	<path d="M28.1866 37.1738C28.3782 37.2248 28.5723 37.2654 28.7682 37.2956" stroke="black" stroke-width="0.89" stroke-miterlimit="10" />
	<path d="M57.3976 104.422L57.4111 104.232" stroke="black" stroke-width="0.89" stroke-miterlimit="10" />
	<path opacity="0.24" d="M2.41138 132.247H3.65585L29.5866 132.483L34.7538 132.524C19.2522 115.893 9.42499 76.1581 7.70033 68.6372C6.29355 81.8123 4.63654 102.691 3.56793 116.907C3.13507 122.562 2.79016 127.181 2.61431 129.812C2.46552 131.408 2.41138 132.247 2.41138 132.247Z" fill="black" />
	<path d="M44.4187 149.669C44.4187 149.669 41.1384 151.055 29.2146 155.526" stroke="#0C0C0C" stroke-width="1.44" stroke-miterlimit="10" />
	<path d="M22.4106 280.763L23.8715 283.651C23.8715 283.651 33.0967 286.634 37.5132 288.318C39.3867 288.994 39.8939 290.658 39.8534 292.315L44.1819 292.2L50.8303 292.004C50.8303 292.004 53.7115 285.728 49.7143 284.226C45.7172 282.725 37.3983 280.033 37.3983 280.033L35.2137 275.684H30.4793C30.3035 278.274 30.1615 279.992 30.1276 280.56C30.123 280.63 30.123 280.7 30.1276 280.77L22.4106 280.763Z" fill="#0F0F0F" />
	<path d="M3.02008 289.319C2.46848 290.108 2.08122 290.999 1.88137 291.94C1.68151 292.881 1.67316 293.853 1.8568 294.798C2.00496 295.676 2.46583 296.472 3.15445 297.037C3.84307 297.603 4.71296 297.901 5.6037 297.875L16.9188 297.55L38.7984 296.928C39.4377 295.466 39.8132 293.902 39.9075 292.309C39.9481 290.652 39.4409 289.015 37.5674 288.312C33.1239 286.634 23.8986 283.652 23.8986 283.652L22.4377 280.764H6.31384V284.26C6.31384 284.26 4.53508 287.209 3.02008 289.319Z" fill="#0F0F0F" />
	<path d="M5.66456 280.763H30.1142C30.1095 280.694 30.1095 280.624 30.1142 280.554C30.1142 279.986 30.29 278.268 30.4659 275.677H40.2187L53.9551 132.761L34.7538 132.571L29.5867 132.531L3.65586 132.294C1.94472 138.848 0.165947 147.505 0.0103893 155.533C-0.280436 171.312 5.66456 280.763 5.66456 280.763Z" fill="#282828" />
	<path d="M22.4106 280.763L23.8716 283.651C23.8716 283.651 33.0968 286.634 37.5133 288.318C39.3868 288.994 39.894 290.658 39.8535 292.315L44.182 292.2C43.7153 288.535 42.5656 284.761 39.8535 283.814C36.9858 282.82 33.1442 281.555 30.1074 280.561C30.1027 280.63 30.1027 280.7 30.1074 280.77L22.4106 280.763Z" fill="#0C0C0C" />
	<path d="M30.5403 274.994C32.177 253.047 37.8718 174.673 37.6013 152.327V152.232" stroke="black" stroke-width="0.89" stroke-miterlimit="10" />
	<path d="M40.8408 146.869C40.8408 146.869 38.7104 154.241 32.2852 157.596" stroke="black" stroke-width="0.89" stroke-miterlimit="10" />
	<path d="M243.825 131.82C243.825 131.82 243.487 126.707 246.821 124.935C250.156 123.163 254.816 124.171 254.132 120.005C253.449 115.838 252.103 112.45 248.85 114.939C245.597 117.428 243.825 131.82 243.825 131.82Z" fill="#5DE87A" />
	<path d="M245.442 133.193C245.442 133.193 246.118 125.023 245.103 120.377C244.035 115.433 235.344 116.231 237.792 111.05C240.241 105.869 243.203 101.96 246.368 106.498C249.533 111.037 245.442 133.193 245.442 133.193Z" fill="#40D366" />
	<path d="M242.479 131.821C242.479 131.821 244.386 127.262 247.078 127.303C249.77 127.343 252.239 129.568 253.348 126.735C254.457 123.901 254.904 121.324 251.995 121.757C249.087 122.19 242.479 131.821 242.479 131.821Z" fill="#73E08A" />
	<path d="M245.164 133.193C245.164 133.193 244.008 126.254 240.775 124.638C237.542 123.021 235.323 123.096 235.296 118.821C235.269 114.547 235.939 111.016 239.226 113.363C242.513 115.71 245.164 133.193 245.164 133.193Z" fill="#5DE87A" />
	<path d="M245.624 133.004C245.624 133.004 244.948 127.931 241.282 126.876C237.616 125.821 233.301 127.769 233.112 123.555C232.923 119.342 233.531 115.75 237.244 117.509C240.957 119.267 245.624 133.004 245.624 133.004Z" fill="#40D366" />
	<path d="M247.18 131.82C246.171 131.82 245.354 131.427 245.354 130.941C245.354 130.456 246.171 130.062 247.18 130.062C248.188 130.062 249.006 130.456 249.006 130.941C249.006 131.427 248.188 131.82 247.18 131.82Z" fill="#F4F4F4" />
	<path d="M245.8 130.434C244.814 130.434 244.014 130.043 244.014 129.561C244.014 129.08 244.814 128.689 245.8 128.689C246.786 128.689 247.586 129.08 247.586 129.561C247.586 130.043 246.786 130.434 245.8 130.434Z" fill="#D3D3D3" />
	<path d="M248.634 130.434C247.831 130.434 247.18 130.107 247.18 129.704C247.18 129.3 247.831 128.973 248.634 128.973C249.437 128.973 250.088 129.3 250.088 129.704C250.088 130.107 249.437 130.434 248.634 130.434Z" fill="#D3D3D3" />
	<path d="M250.135 131.469C249.306 131.469 248.634 131.154 248.634 130.765C248.634 130.377 249.306 130.062 250.135 130.062C250.965 130.062 251.637 130.377 251.637 130.765C251.637 131.154 250.965 131.469 250.135 131.469Z" fill="#F4F4F4" />
	<path d="M244.684 132.024C243.75 132.024 242.993 131.669 242.993 131.232C242.993 130.795 243.75 130.441 244.684 130.441C245.618 130.441 246.375 130.795 246.375 131.232C246.375 131.669 245.618 132.024 244.684 132.024Z" fill="#D3D3D3" />
	<path d="M243.379 130.765C242.658 130.765 242.073 130.496 242.073 130.163C242.073 129.831 242.658 129.562 243.379 129.562C244.1 129.562 244.684 129.831 244.684 130.163C244.684 130.496 244.1 130.765 243.379 130.765Z" fill="#F4F4F4" />
	<path d="M242.182 129.561C241.733 129.561 241.37 129.365 241.37 129.122C241.37 128.879 241.733 128.682 242.182 128.682C242.63 128.682 242.993 128.879 242.993 129.122C242.993 129.365 242.63 129.561 242.182 129.561Z" fill="#F4F4F4" />
	<path d="M241.133 131.476C240.386 131.476 239.781 131.182 239.781 130.82C239.781 130.457 240.386 130.164 241.133 130.164C241.88 130.164 242.486 130.457 242.486 130.82C242.486 131.182 241.88 131.476 241.133 131.476Z" fill="#D3D3D3" />
	<path d="M234.14 130.819H256.567V153.247H234.14V130.819Z" fill="#8E5726" />
	<path d="M246.348 130.819L246.612 131.036C248.569 132.612 250.647 134.032 252.827 135.283C253.759 135.754 254.625 136.346 255.404 137.042C255.855 137.507 256.246 138.027 256.567 138.59V134.532C255.264 133.748 254.006 132.89 252.8 131.962C252.354 131.611 251.873 131.239 251.447 130.826L246.348 130.819Z" fill="#AF6946" />
	<path d="M238.678 130.819C240.268 134.323 243.48 136.988 246.957 138.82C247.565 139.145 248.194 139.436 248.816 139.72L250.088 140.295L250.494 140.477L250.602 140.525L250.697 140.565C251.763 141.019 252.783 141.576 253.74 142.229C254.505 142.768 255.149 143.461 255.63 144.264C256.111 145.066 256.419 145.961 256.533 146.889V140.417C255.181 139.652 253.76 139.003 252.523 138.442L252.408 138.394L251.894 138.158C251.576 138.009 251.265 137.86 250.954 137.698L250.223 137.305L249.797 137.062L249.628 136.954C248.7 136.373 247.838 135.692 247.058 134.925C245.92 133.769 245.04 132.386 244.474 130.867L238.678 130.819Z" fill="#AF6946" />
	<path d="M234.14 130.819V140.998C235.931 143.278 238.312 145.023 241.025 146.044C244.001 147.288 247.112 148.012 250.21 148.932C250.579 149.04 250.951 149.155 251.326 149.277C251.407 149.277 251.901 149.479 252.063 149.527C252.739 149.777 253.361 150.048 253.99 150.352C254.099 150.406 254.545 150.683 254.667 150.758C254.829 150.879 254.998 151.015 255.012 151.015C255.055 151.048 255.094 151.087 255.127 151.13L255.215 151.272L255.309 151.468L255.248 151.36C255.248 151.61 255.282 151.657 255.296 151.495C255.268 151.817 255.315 152.141 255.432 152.443C255.549 152.744 255.734 153.014 255.972 153.233H256.5V147.64C256.5 147.437 256.5 147.227 256.5 147.031C255.999 146.801 255.505 146.592 255.032 146.409C251.948 145.185 248.715 144.475 245.563 143.48C245.279 143.392 244.988 143.298 244.704 143.196H244.664C244.644 143.202 244.623 143.202 244.603 143.196L243.927 142.946C243.272 142.69 242.633 142.397 242.012 142.067C241.931 141.999 241.411 141.688 241.336 141.641C241.262 141.593 240.849 141.269 240.727 141.188C240.274 140.799 239.884 140.343 239.571 139.835C237.968 137.197 237.934 133.937 237.88 130.907L234.14 130.819Z" fill="#AF6946" />
	<path d="M234.14 146.849V151.13C235.1 151.421 236.081 151.678 237.062 151.887C238.448 152.185 239.848 152.415 241.255 152.597C241.816 152.672 242.384 152.739 242.946 152.821L243.433 152.895H243.507L244.184 153.051L244.86 153.233H252.164C249.574 149.851 244.785 148.878 240.585 148.336C240.011 148.262 239.442 148.174 238.868 148.086L238.692 148.052H238.644L238.421 148.005L237.522 147.809C236.379 147.538 235.263 147.2 234.14 146.842V146.849Z" fill="#AF6946" />
	<path d="M344.775 117.841L362.36 119.329L364.815 155.939C369.29 154.848 373.547 153.002 377.402 150.481C396.488 137.36 373.229 107.412 369.056 99.9448C366.601 95.5622 358.038 93.5332 351.234 92.4375L344.775 117.841Z" fill="#29CFBB" />
	<path d="M345.188 129.46L337.173 152.253C337.173 152.253 337.755 152.564 338.81 153.01C342.3 154.532 350.984 157.67 360.98 156.561C362.588 156.381 364.183 156.101 365.755 155.722" stroke="#0C0C0C" stroke-width="0.72" stroke-miterlimit="10" />
	<path d="M317.384 93.3978L323.701 117.841H344.775L351.207 92.4374C347.095 91.7611 343.625 91.4432 342.557 91.1523C340.839 93.6277 336.592 97.7805 330.173 91.3485C327.799 91.7205 322.544 92.2277 317.384 93.3978Z" fill="#EDEDED" />
	<path d="M330.173 91.3482C336.592 97.7802 340.839 93.6275 342.557 91.1521C342.437 91.1346 342.323 91.0882 342.225 91.0168C341.894 90.6854 341.833 88.7917 341.874 86.668C341.874 85.1868 341.968 83.5906 342.05 82.2988C340.51 83.6623 338.545 84.4489 336.49 84.524C334.771 84.6074 333.078 84.075 331.715 83.0225C331.89 85.4176 331.903 87.8218 331.756 90.2187C331.742 90.5029 331.654 90.7783 331.499 91.0168C331.08 91.2057 330.631 91.318 330.173 91.3482V91.3482Z" fill="#FFCAC5" />
	<path d="M331.715 83.0227V83.0024" stroke="#0C0C0C" stroke-width="0.72" stroke-miterlimit="10" />
	<path d="M296.329 150.481C299.124 152.412 302.183 153.929 305.412 154.985V117.841H323.673L317.356 93.3979C311.898 94.6424 306.535 96.6105 304.648 99.9449C300.502 107.412 277.229 137.36 296.329 150.481Z" fill="#29CFBB" />
	<path d="M328.516 129.46L336.551 152.253C336.551 152.253 335.963 152.564 334.914 153.01C331.052 154.708 320.758 158.421 309.274 156.013C307.967 155.749 306.678 155.406 305.412 154.985" stroke="#0C0C0C" stroke-width="0.72" stroke-miterlimit="10" />
	<path d="M343.409 123.204L344.775 117.84" stroke="#0C0C0C" stroke-width="0.72" stroke-miterlimit="10" />
	<path d="M323.701 117.84L325.087 123.204" stroke="#0C0C0C" stroke-width="0.72" stroke-miterlimit="10" />
	<path d="M312.724 268.934L315.476 270.787L322.158 275.312L325.087 277.28C325.087 277.28 328.09 273.439 332.554 267.351C336.003 262.651 340.291 256.604 344.775 249.956C358.829 229.044 374.622 201.936 370.665 190.81C368.251 184.047 364.741 180.415 360.98 179.171C357.017 177.818 352.769 179.076 349.185 181.937C346.286 184.31 344.01 187.357 342.557 190.81C341.245 193.854 338.891 199.833 336.044 207.205C331.634 218.588 326.101 233.271 321.496 245.458C316.545 258.64 312.724 268.934 312.724 268.934Z" fill="#282828" />
	<path d="M290.716 283.28L312.122 287.141C313.313 287.355 314.542 287.17 315.617 286.613C316.692 286.057 317.553 285.161 318.067 284.064L322.158 275.312L315.476 270.788L312.352 274.609C312.352 274.609 294.361 276.516 291.649 279.539C288.937 282.563 290.716 283.28 290.716 283.28Z" fill="black" />
	<path d="M332.554 267.352L334.042 270.145L337.234 268.664L338.972 267.859L344.545 265.268L347.568 263.862C347.568 263.862 346.946 260.805 345.952 255.834C345.6 254.095 345.195 252.107 344.762 249.922C340.291 256.571 336.003 262.617 332.554 267.352Z" fill="#282828" />
	<path d="M321.496 245.425C326.102 233.251 331.641 218.554 336.044 207.171C333.683 195.924 331.6 186.252 330.525 181.984C330.525 181.984 330.525 181.923 330.525 181.903C327.759 171.122 318.067 163.385 309.295 169.661C307.015 171.258 304.79 173.834 302.781 177.52C296.64 188.727 310.329 221.99 321.496 245.425Z" fill="#282828" />
	<path d="M337.268 268.664L337.525 277.788C337.572 279.435 338.17 281.019 339.223 282.286C340.276 283.554 341.724 284.432 343.335 284.781L363.8 289.265C363.8 289.265 365.654 288.819 363.469 285.43C361.285 282.042 349.023 273.087 349.023 273.087L344.559 265.269L337.268 268.664Z" fill="black" />
	<path d="M330.504 181.903C330.504 181.903 330.504 181.964 330.504 181.984C331.58 186.252 333.663 195.924 336.023 207.171C338.871 199.799 341.224 193.82 342.536 190.777C343.99 187.323 346.265 184.277 349.165 181.903H330.504Z" fill="black" />
	<path d="M309.274 158.062V169.662C318.067 163.385 327.738 171.123 330.504 181.903H349.185C352.769 179.042 357.017 177.791 360.98 179.137V158.062H309.274Z" fill="#29CFBB" />
	<path d="M360.98 158.062V156.561V153.01H338.81H334.914H309.274V156.013V158.062" stroke="#0C0C0C" stroke-width="0.72" stroke-miterlimit="10" />
	<path d="M304.959 117.84H365.295V158.062H304.959V117.84Z" fill="#0C0C0C" />
	<path d="M336.044 207.171L321.496 245.425" stroke="black" stroke-width="0.62" stroke-miterlimit="10" />
	<path d="M332.554 267.352L334.042 270.145L337.234 268.664L338.972 267.859L345.966 255.854C345.614 254.116 345.208 252.127 344.775 249.943C340.291 256.571 336.003 262.617 332.554 267.352Z" fill="black" />
	<path d="M335.124 142.682C332.513 142.682 330.396 140.566 330.396 137.955C330.396 135.344 332.513 133.227 335.124 133.227C337.735 133.227 339.851 135.344 339.851 137.955C339.851 140.566 337.735 142.682 335.124 142.682Z" fill="#E0E0E0" />
	<path d="M331.756 90.2187L341.901 86.668C341.901 85.1868 341.995 83.5906 342.077 82.2988C340.537 83.6623 338.572 84.4489 336.517 84.524C334.798 84.6074 333.105 84.075 331.742 83.0225C331.908 85.4182 331.912 87.8224 331.756 90.2187V90.2187Z" fill="#F4A19D" />
	<path d="M323.004 63.0976C323.004 63.0976 323.004 64.4503 323.247 66.4793C323.383 67.6291 323.579 68.9953 323.883 70.4562C324.106 71.4639 324.37 72.5258 324.702 73.5876C325.865 77.3954 327.867 81.2302 331.228 83.1713C332.862 84.1385 334.742 84.6086 336.639 84.524C338.868 84.4829 341.039 83.8046 342.895 82.5694C346.175 80.3983 348.306 76.7123 349.597 73.2359C350.137 71.7901 350.589 70.313 350.95 68.8127C351.146 67.9199 351.302 67.1353 351.43 66.4455C351.674 65.0928 351.741 64.2406 351.741 64.2406L351.545 59.8174L327.921 62.5227H327.637L323.004 63.0976Z" fill="#FFCAC5" />
	<path d="M352.019 70.4024C350.47 68.2984 349.202 66.0022 348.245 63.5714C347.142 60.325 327.616 62.5907 327.616 62.5907C326.72 65.6929 325.282 68.6122 323.369 71.214C323.369 71.214 316.457 60.8052 318.79 57.6873C321.124 54.5694 325.439 46.4804 340.129 48.2186C354.819 49.9568 358.39 60.7443 352.019 70.4024Z" fill="#0C0C0C" />
	<path d="M324.952 68.8397C324.952 68.8397 323.552 64.3759 321.232 67.6156C318.912 70.8552 325.182 73.8649 325.182 73.8649L324.952 68.8397Z" fill="#FFCAC5" />
	<path d="M348.63 68.6503C348.63 68.6503 349.611 64.1189 352.228 67.2233C354.846 70.3277 348.847 73.6755 348.847 73.6755L348.63 68.6503Z" fill="#FFCAC5" />
	<path d="M348.245 63.5713L348.718 70.497L350.619 65.6544L348.245 63.5713Z" fill="#0C0C0C" />
	<path d="M90.2802 157.875H377.28V213.875H90.2802V157.875Z" fill="#AF814F" />
	<path d="M81.2802 152.875H387.28V165.875H81.2802V152.875Z" fill="#CE9B59" />
	<path d="M342.239 74.9745C339.811 74.9745 337.843 73.0063 337.843 70.5783C337.843 68.1504 339.811 66.1821 342.239 66.1821C344.667 66.1821 346.635 68.1504 346.635 70.5783C346.635 73.0063 344.667 74.9745 342.239 74.9745Z" fill="#0C0C0C" />
	<path d="M331.418 74.9745C328.99 74.9745 327.021 73.0063 327.021 70.5783C327.021 68.1504 328.99 66.1821 331.418 66.1821C333.845 66.1821 335.814 68.1504 335.814 70.5783C335.814 73.0063 333.845 74.9745 331.418 74.9745Z" fill="#0C0C0C" />
	<path d="M335.137 70.2397H338.519V70.9161H335.137V70.2397Z" fill="#0C0C0C" />
	<path d="M329.977 68.9009L330.214 68.299L325.121 66.8584L324.891 67.4603L329.977 68.9009Z" fill="#0C0C0C" />
	<path d="M348.505 67.4985L348.736 68.0981L344.999 69.5363L344.768 68.9366L348.505 67.4985Z" fill="#0C0C0C" />
	<path opacity="0.2" d="M91.2802 165.875H378.28V173.875H91.2802V165.875Z" fill="black" stroke="#071235" stroke-width="0.29" stroke-miterlimit="10" stroke-linecap="round" />
</svg>
