<svg width="522" height="391" viewBox="0 0 522 391" fill="none"
	xmlns="http://www.w3.org/2000/svg">
	<path d="M326.779 81.1958L323.537 78.9772C319.86 76.4534 287.864 53.7274 293.636 35.1216C295.544 28.9706 299.677 26.0242 304.688 27.245C315.119 29.804 326.194 48.8793 326.662 76.4064L326.779 81.1958ZM302.545 32.6448C300.742 32.6448 298.752 33.6191 297.628 37.2698C294.655 46.8368 309.98 62.3553 322.214 71.5466C320.575 47.8111 310.659 34.4525 303.927 32.8678C303.477 32.7383 303.013 32.6634 302.545 32.6448V32.6448Z" fill="#CAC7F3" />
	<path d="M322.366 80.9972V76.1726C322.834 48.6454 333.909 29.5584 344.34 27.0111C349.351 25.8372 353.484 28.7367 355.392 34.8877C361.176 53.4935 329.168 76.2078 325.492 78.7433L322.366 80.9972ZM346.6 32.4344C346.134 32.4377 345.67 32.4968 345.219 32.6105C338.499 34.2539 328.571 47.6124 326.955 71.348C339.166 62.1566 354.491 46.6264 351.54 37.0711C350.346 33.3852 348.356 32.3992 346.553 32.3992L346.6 32.4344Z" fill="#CAC7F3" />
	<path d="M323.572 104.732V212L251.138 195.86V110.66L323.49 104.744L323.572 104.732Z" fill="#CAC7F3" />
	<path d="M244.98 111.377V85.9859L323.572 71.2656V104.733L244.98 111.377Z" fill="#47468E" />
	<path d="M276.028 201.412V108.629L292.419 107.279V205.062L276.028 201.412Z" fill="#47468E" />
	<path d="M271.966 108.959V80.9267L296.364 76.3604V106.963L271.966 108.959Z" fill="#CAC7F3" />
	<path d="M395.993 110.261V195.46L323.572 212V104.321L323.654 104.333L395.993 110.261Z" fill="#CAC7F3" />
	<path d="M402.151 110.977V85.5747L323.572 70.8662V104.333L402.151 110.977Z" fill="#47468E" />
	<path d="M371.115 201.013V108.219L354.725 106.869V204.664L371.115 201.013Z" fill="#47468E" />
	<path d="M375.166 108.559V80.5273L350.768 75.9609V106.552L375.166 108.559Z" fill="#CAC7F3" />
	<path d="M217 143.657C217 143.657 231.681 143.657 231.915 127.986C231.915 127.986 232.781 143.892 247.533 143.657C247.533 143.657 232.313 145.313 232.313 158.366C232.22 158.366 230.733 144.385 217 143.657Z" fill="#CAC7F3" />
	<path d="M405.734 158.601C406.742 158.599 407.74 158.392 408.667 157.994C409.594 157.595 410.431 157.012 411.128 156.281C411.824 155.549 412.366 154.684 412.721 153.738C413.075 152.791 413.235 151.782 413.191 150.771C413.191 150.771 413.624 158.73 421 158.601C421 158.601 413.367 159.435 413.367 165.961C413.367 165.961 412.594 158.965 405.734 158.601Z" fill="#CAC7F3" />
	<path d="M355.849 11.41C355.849 11.41 366.538 11.41 366.713 0C366.713 0 367.345 11.586 378.093 11.41C378.093 11.41 366.971 12.5838 366.971 22.1391C366.971 22.1391 365.847 11.9382 355.849 11.41Z" fill="#CAC7F3" />
	<path opacity="0.28" d="M323.49 104.744V112.069L251.138 118.255V110.66L323.49 104.744Z" fill="#18184C" />
	<path opacity="0.28" d="M395.993 110.261V118.302L323.572 112.116V104.321L323.654 104.333L395.993 110.261Z" fill="#18184C" />
	<path d="M323.572 212L322.986 211.871L323.068 104.779V104.333H323.572H323.654H324.239V104.38V112.127L324.157 211.871L323.572 212Z" fill="#47468E" />
	<path d="M119 353.994C119 353.994 153.62 353.994 154.172 315.066C154.172 315.066 156.215 354.577 191 353.994C191 353.994 155.11 358.105 155.11 390.53C154.89 390.53 151.383 355.802 119 353.994Z" fill="#CAC7F3" />
	<path d="M0 86.9931C0 86.9931 22.5989 86.9931 22.9594 61.582C22.9594 61.582 24.2929 87.3737 47 86.9931C47 86.9931 23.5721 89.6769 23.5721 110.843C23.4279 110.843 21.1392 88.1732 0 86.9931Z" fill="#CAC7F3" />
	<path d="M475 118.438C475 118.438 497.599 118.438 497.959 93.0273C497.959 93.0273 499.293 118.819 522 118.438C522 118.438 498.572 121.122 498.572 142.288C498.428 142.288 496.139 119.618 475 118.438Z" fill="#CAC7F3" />
</svg>
