<svg xmlns="http://www.w3.org/2000/svg"
	xmlns:xlink="http://www.w3.org/1999/xlink" viewBox="0 0 288.01 352.01">
	<defs>
		<style>.cls-1{fill:none;}.cls-2{clip-path:url(#clip-path);}.cls-3{fill:#ffd56c;}.cls-4{fill:#fc6732;}.cls-5{fill:#fc3;}.cls-6{fill:#686868;}.cls-7{fill:#231f20;}.cls-8{fill:#fd8;}.cls-9{fill:#fff;}.cls-10{fill:#161616;}.cls-11{fill:#1e1e1e;}.cls-12{opacity:0.2;}.cls-13{fill:#f7c548;}.cls-14{fill:#fde49b;}</style>
		<clipPath id="clip-path" transform="translate(-42.34 -10.34)">
			<rect class="cls-1" width="372.68" height="372.68" />
		</clipPath>
	</defs>
	<g id="Layer_2" data-name="Layer 2">
		<g id="Layer_1-2" data-name="Layer 1">
			<g class="cls-2">
				<path class="cls-3" d="M101.37,188.06c5.33-1.26,10.41-1.14,14.13,1.66,11,8.28,8.09,14.92,8,15.18l11.11-13.32S119,181.22,101.37,188.06Z" transform="translate(-42.34 -10.34)" />
				<path class="cls-4" d="M73.6,202.39s30.5,15.21,42.52,11.34l7.35-8.82h0c.12-.26,3-6.9-8-15.18-3.72-2.8-8.8-2.92-14.13-1.66C88.27,191.11,73.6,202.39,73.6,202.39Z" transform="translate(-42.34 -10.34)" />
				<path class="cls-5" d="M288.07,231.1l-185.14-3.68,17.74-23.51a104.53,104.53,0,0,1,40.06-32.25,99.38,99.38,0,0,1,25.1-7.63c21.74-3.56,45.32-1.44,73.45,19.89,19.26,12.93,27.55,44,28.7,47a.61.61,0,0,0,0,.12A.42.42,0,0,0,288.07,231.1Z" transform="translate(-42.34 -10.34)" />
				<path class="cls-5" d="M283.51,233.05s22.18-20.4,20.07-28.91-11.81,13.8-1.93,12.41c11.74-1.65,9.36-32.77,7-41.61,0,0,11.92,28.6,5.2,40-8.52,14.41-30.7,3.51-22.58-12.15s15-3.73,15.76,1.51c.49,3.43-.76,23.34-9.93,29.76a48.33,48.33,0,0,0-9.83,9C285,246.57,278.19,238,283.51,233.05Z" transform="translate(-42.34 -10.34)" />
				<path class="cls-5" d="M330,277.3a98.65,98.65,0,0,1-2.67,15.75L278.94,308,222.42,325.4l-66.5,20.51-5.69,1.76c-28.24,13.94-79.2-6.23-92-38.48s10.63-70,12.47-72.59,32.26-9.18,32.26-9.18l185.14,3.68s5.5-6.24,28.23,6.58C330,245.39,331.17,263.83,330,277.3Z" transform="translate(-42.34 -10.34)" />
				<path class="cls-6" d="M275.61,236.23l-27,5.87-25.18,5.47-22.53,4.91-4.5,1c.19-1.12.41-2.24.63-3.32,2.8-13.19,8-23.86,14.43-32a59.58,59.58,0,0,1,10.87-10.89c9.06-7,18.93-10.12,27.18-9.55a23.43,23.43,0,0,1,5.26,1,16.94,16.94,0,0,1,1.74.59,22.82,22.82,0,0,1,8.85,6.46,38.1,38.1,0,0,1,6.93,12.76A67.48,67.48,0,0,1,275.61,236.23Z" transform="translate(-42.34 -10.34)" />
				<path class="cls-7" d="M73.94,231.45h0a0,0,0,0,1,0,0v9.85A15.53,15.53,0,0,1,58.4,256.84h0a0,0,0,0,1,0,0V247A15.53,15.53,0,0,1,73.94,231.45Z" transform="translate(49.38 -17.85) rotate(20.96)" />
				<path class="cls-6" d="M198.24,205.07l-7.13,13.16-5.23,9.62-9.47,17.46L172,253.45l-5-1.64-10.69-3.54-5.9-2-29.68-9.82L104.18,231l-.88-.29c9.59-9.83,21.2-24.6,28.07-33.64,3.66-4.79,6-8,6-8l4.05,1.06,15.91,4.17L175.07,199Z" transform="translate(-42.34 -10.34)" />
				<ellipse class="cls-3" cx="69.96" cy="274.46" rx="23.67" ry="28.81" transform="translate(-245.05 187.48) rotate(-60)" />
				<ellipse class="cls-4" cx="16.96" cy="259.62" rx="3.3" ry="9.9" />
				<ellipse class="cls-4" cx="37.31" cy="267.32" rx="3.12" ry="9.17" />
				<path class="cls-8" d="M220.2,326.72,158,345.92a32.65,32.65,0,1,1,62.22-19.2Z" transform="translate(-42.34 -10.34)" />
				<circle class="cls-7" cx="146.07" cy="324.82" r="27.18" />
				<path class="cls-8" d="M330,277.31a98.65,98.65,0,0,1-2.67,15.75L278.93,308a30.62,30.62,0,0,1-1.8-17.34c3-16.54,18.58-27.55,34.71-24.59A29.15,29.15,0,0,1,330,277.31Z" transform="translate(-42.34 -10.34)" />
				<ellipse class="cls-7" cx="306.35" cy="295.99" rx="24.56" ry="23.97" transform="translate(-82.35 533.62) rotate(-79.61)" />
				<circle class="cls-9" cx="146.07" cy="324.82" r="13.51" />
				<ellipse class="cls-9" cx="306.35" cy="295.99" rx="12.2" ry="11.91" transform="translate(-82.35 533.62) rotate(-79.61)" />
				<path class="cls-10" d="M94.31,327.37a36.16,36.16,0,0,1-16.11-3.59c-15.67-7.66-20.26-24.72-20.45-25.44a1.6,1.6,0,1,1,3.09-.8c0,.16,4.44,16.39,18.79,23.39,10.17,5,22.89,4.21,37.81-2.22a1.6,1.6,0,0,1,1.27,2.94Q105.45,327.37,94.31,327.37Z" transform="translate(-42.34 -10.34)" />
				<path class="cls-7" d="M152.73,268.26h0a0,0,0,0,1,0,0v13.85a21.84,21.84,0,0,1-21.84,21.84h0a0,0,0,0,1,0,0V290.1A21.84,21.84,0,0,1,152.73,268.26Z" transform="translate(69.39 -42.13) rotate(20.96)" />
				<path class="cls-11" d="M79.64,241.08c6,2.1,12,4.36,18,6.65s11.9,4.7,17.86,7.05,11.83,4.86,17.71,7.39L142,266c2.92,1.33,5.85,2.6,8.75,4-3-1-6-2.17-9-3.25l-9-3.4c-6-2.29-11.9-4.7-17.85-7.05s-11.83-4.87-17.71-7.39S85.45,243.79,79.64,241.08Z" transform="translate(-42.34 -10.34)" />
				<g class="cls-12">
					<path class="cls-7" d="M157.31,194.34,104.18,231l-.88-.29c9.59-9.83,21.2-24.6,28.07-33.64l10-6.92Z" transform="translate(-42.34 -10.34)" />
					<polygon class="cls-7" points="155.9 194.73 148.77 207.89 108.08 235.98 78.4 226.17 132.73 188.66 155.9 194.73" />
					<polygon class="cls-7" points="143.54 217.52 134.08 234.98 124.67 241.47 113.98 237.94 143.54 217.52" />
				</g>
				<g class="cls-12">
					<path class="cls-7" d="M249.53,197.65l-52.48,52.48c2.8-13.19,8-23.86,14.43-32l10.87-10.89C231.41,200.23,241.28,197.08,249.53,197.65Z" transform="translate(-42.34 -10.34)" />
					<path class="cls-7" d="M265.38,205.66l-41.93,41.91-22.53,4.91,53.87-53.87a16.94,16.94,0,0,1,1.74.59A22.82,22.82,0,0,1,265.38,205.66Z" transform="translate(-42.34 -10.34)" />
					<path class="cls-7" d="M275.61,236.23l-27,5.87,23.68-23.68A67.48,67.48,0,0,1,275.61,236.23Z" transform="translate(-42.34 -10.34)" />
				</g>
				<ellipse class="cls-5" cx="143.54" cy="47.57" rx="40.81" ry="47.57" />
				<ellipse class="cls-13" cx="143.54" cy="47.57" rx="26.74" ry="31.16" />
				<ellipse class="cls-14" cx="143.54" cy="47.57" rx="26.74" ry="31.16" />
				<path class="cls-14" d="M214.94,39.51a1.5,1.5,0,0,1-1.42-.92c-5.17-14.25-21.29-17.42-21.45-17.46a1.34,1.34,0,0,1-1.16-1.57,1.48,1.48,0,0,1,1.76-1c.73.14,18,3.49,23.68,19.24a1.29,1.29,0,0,1-.95,1.67A1.47,1.47,0,0,1,214.94,39.51Z" transform="translate(-42.34 -10.34)" />
				<ellipse class="cls-14" cx="218.25" cy="46.55" rx="1.59" ry="2.94" transform="matrix(0.95, -0.31, 0.31, 0.95, -46.06, 59.17)" />
				<path class="cls-7" d="M234.73,169.86c-27.72-.22-54.91,8.9-62.79,11.79l-14.63-5.83c38.19-15.44,68-9.18,68-9.18Z" transform="translate(-42.34 -10.34)" />
				<path class="cls-4" d="M219.21,265.31c18.43,21.68,46.52,6.54,49.17-1.54-2.14-1.95-6.39-3.55-14.72-2.35C238.11,263.69,227.68,270.44,219.21,265.31Z" transform="translate(-42.34 -10.34)" />
				<path class="cls-3" d="M203.08,232.86c-.06,12.44,6.77,24.33,13.93,30.8a14.85,14.85,0,0,0,2.2,1.65c8.47,5.13,18.9-1.62,34.45-3.89,8.33-1.2,12.58.4,14.72,2.35a2.88,2.88,0,0,0-.05-2.28c-3.45-6.73-23.84-17.66-31-29.05s-21.36-20.23-30-21.39a7,7,0,0,0-5.83,2c-.23.27-.46.54-.67.83,2.92-.6,6.42.33,3.51,10.12A31.72,31.72,0,0,0,203.08,232.86Z" transform="translate(-42.34 -10.34)" />
				<path class="cls-4" d="M195.74,224.64l7.34,8.22a31.72,31.72,0,0,1,1.3-8.89c2.91-9.79-.59-10.72-3.51-10.12C197.7,218,195.74,224.64,195.74,224.64Z" transform="translate(-42.34 -10.34)" />
			</g>
		</g>
	</g>
</svg>