<svg xmlns="http://www.w3.org/2000/svg" viewBox="0 0 530.32 631.21">
	<defs>
		<style>.cls-1{fill:#f4f4f4;}.cls-11,.cls-2{fill:#071235;}.cls-3{fill:#4263ce;}.cls-4{opacity:0.2;}.cls-5{fill:#ffc7c7;}.cls-6{fill:#f28f8f;}.cls-7{fill:#282828;}.cls-8{fill:#ffcac5;}.cls-9{fill:#231f20;}.cls-10,.cls-11{font-size:89.08px;font-family:Roboto-Black, Roboto Black;font-weight:800;}.cls-10{fill:none;stroke:#071235;stroke-linecap:round;stroke-miterlimit:10;stroke-width:0.54px;}</style>
	</defs>
	<g id="Layer_2" data-name="Layer 2">
		<g id="Layer_1-2" data-name="Layer 1">
			<ellipse class="cls-1" cx="431.41" cy="87.23" rx="98.92" ry="73.91" />
			<path class="cls-2" d="M417.45,149.08c-54.89,0-99.55-33.44-99.55-74.54S362.56,0,417.45,0,517,33.44,517,74.54,472.34,149.08,417.45,149.08Zm0-147.81c-54.19,0-98.28,32.87-98.28,73.27s44.09,73.27,98.28,73.27,98.28-32.87,98.28-73.27S471.64,1.27,417.45,1.27Z" />
			<path class="cls-2" d="M7.4,103.38a.39.39,0,0,1-.27-.1h0a.38.38,0,0,1,0-.54.39.39,0,0,1,.53,0,.38.38,0,0,1,0,.54A.34.34,0,0,1,7.4,103.38Z" />
			<path class="cls-3" d="M291.88,631.21h-53l-5.9-138-2.52,80.48H67.79l-4-35.62c37.9,5.86,59.68-66.9,60.63-70.18a.11.11,0,0,1,0-.06.13.13,0,0,1,0-.06l.93-2.29,0-.06,12.14-37.61v0l16.12-51.07-4.2-2.24c5.1-27.11,7.87-47.93,8.46-49.11,1.66-3.29,6.59-3.29,11.54-9.88l.06-.07,13.93,19.47.45-31c3.42-3.33,7-7.27,7-8.19a40.72,40.72,0,0,0-.63-4.55c1,.44,2,.91,3.18,1.37,25.64,10.35,61.52,26,74.39,37.18h0c1.79,1.56,2.78,3.33,3.95,4.4C281.11,342.76,295.89,577.58,291.88,631.21Z" />
			<path class="cls-4" d="M71.28,534.21s8.52,5.24,16.3,4.12,31.15-26.21,46.23-65.08,30.46-96.42,30.46-96.42l-8.89-12.69,6.35-36.8,21.05-14.09-21.19-10.89Z" />
			<path class="cls-3" d="M153.67,376.75l-16.12,51.07v0L125.4,465.46l0,.06-.93,2.29a.13.13,0,0,0,0,.06.11.11,0,0,0,0,.06c-1,3.28-22.73,76-60.63,70.18a32.86,32.86,0,0,1-8.27-2.48C6.56,514,2.1,426.09,2.54,440c-3.87-27.12-4.45-92.88,6.51-103.31a10.26,10.26,0,0,1,1.27-1c10.34-7.08,63.63-28.39,86.94-42.2l23,46h0l-6.69,15.91,35.87,19.05Z" />
			<path class="cls-5" d="M137.77,198.59h0l0,0h-.07c-.54-.16-1.11-.32-1.73-.44a23.7,23.7,0,0,0-5-.55h-.31a4.79,4.79,0,1,0,9.09,2.25v-.13A18.46,18.46,0,0,0,137.77,198.59Zm8.14-14.44c-.63-1.61-19.3-1.21-26.23-.86a11,11,0,0,0-8.08,3.9s21.14.26,28,.39a8.59,8.59,0,0,0,5.1-1.51C145.55,185.47,146.16,184.78,145.91,184.15Zm42.59,2.33a16.24,16.24,0,0,0-6.88.37,4.6,4.6,0,1,0,9.06.57C190,187.07,189.22,186.75,188.5,186.48Zm8.8-7.72c-.67-1-1.49-2.06-2.5-3.28-6.76,2.39-16.15,5.73-20.28,7.22a8.87,8.87,0,0,1-5.62.23c-1-.32-1.88-.77-1.86-1.5.08-1.73,16.9-7.15,24.69-9.45-7.39-8.51-15.67-28-15.67-28-25.79,9.52-60.87,9.57-60.87,9.57,2.75,17.5-8.12,42.59-8.12,42.59s.05,1.4.13,3.45l3.65.8.53,3.34-4.07-.95c.22,5.61.49,12.88.57,13.48-.27-.54-4.66-9.45-6.47-11.43-.63-.68-1.84-2.43-3.32-4.25h0a21.38,21.38,0,0,0-3.85-3.87c-1.64-1.22-3.34-1.76-4.83-.8a4.6,4.6,0,0,0-1,.83c-4,4.51-2.85,21.49,17.25,25.36,2.44,1.13,4.31,9.87,5.67,20.11l2.78,39.61.3,1.21h0l2,8,12.86,14.79.47.54.1-2.19.06-1.33.93-19.64a42.13,42.13,0,0,0-3.44-19.81c-.68-1.54-1.37-3.12-2-4.6l-.47-1.09c-.2-.51-.4-1-.6-1.45s-.24-.61-.36-.89c-.24-.62-.47-1.19-.65-1.68a10.35,10.35,0,0,1-.69-2.21.52.52,0,0,1,.21-.4l.18-.11.15-.06.24-.08h0l.31-.05a3.1,3.1,0,0,1,.81,0,5.27,5.27,0,0,1,1.22.19h0a9.12,9.12,0,0,1,1,.31,5.5,5.5,0,0,1,.63.25,2.42,2.42,0,0,1,.4.19.22.22,0,0,1,.08,0l.09,0,.42.2a1.51,1.51,0,0,1,.17.1l.45.26c.19.11.38.22.57.35s.41.27.6.41.42.29.62.45l.64.49c.2.19.43.36.63.55s.43.4.66.6l.12.1c.29.28.6.6.91.92h0l0,0s0,0,0,0c.22.21.43.43.62.65s.43.47.63.72.53.63.8,1l.39.47.38.51a4.37,4.37,0,0,0,.4.25l.16.12.42.29c.13.06.24.14.37.21l.47.31c.32.19.63.38,1,.56l.26.14a34.7,34.7,0,0,0,3.88,1.8l1.1.42c.59.21,1.18.4,1.78.57s.95.26,1.43.39c.65.17,1.28.32,1.92.46l.76.15.76.13c.17,0,.34.06.51.09l1,.15,5.67-1.32,2.54-.58,3.45-.8,3.49-.82c.31-.06.6-.14.88-.21l2.62-.61,5.08-1.19,3.4-.79c10.62-9.49,16.64-25.05,17.46-39.21.3-5.31.61-11.1.82-16.31v-.22c.23-5.26.42-10.22.56-14.07,0-.3,0-.59,0-.89l.09-2.39c0-.19,0-.37,0-.55.1-2.55.15-4.06.15-4.06A32,32,0,0,0,197.3,178.76Z" />
			<path class="cls-6" d="M137.36,310l-.43,1.22-2.44-.31-13.74-1.75,11.61,3.69-20.67-72.34,3.31,5.29a22.74,22.74,0,0,0,8.36,7.91l4.68,2.56.17.13,5.74,4.43s8.33,25.23,8.86,28.61C143.26,292.26,138.76,305.78,137.36,310Z" />
			<polygon class="cls-7" points="228.5 631.22 68.5 631.22 70.42 578.77 70.6 573.73 227.67 573.73 228.14 606.39 228.5 631.22" />
			<path class="cls-2" d="M136.7,260a.41.41,0,0,1-.22-.07,32.68,32.68,0,0,1-4.75-4.06.39.39,0,0,1,.56-.53,31.51,31.51,0,0,0,4.63,3.95.39.39,0,0,1,.09.54A.37.37,0,0,1,136.7,260Z" />
			<path class="cls-2" d="M159.66,266.49a50.27,50.27,0,0,1-6.84-.45.38.38,0,0,1,.1-.76,55.81,55.81,0,0,0,13.45.06c1.45-.16,2.71-.34,3.84-.51a8.7,8.7,0,0,0,1.49-.36,8.41,8.41,0,0,0,1.16-.48,31.76,31.76,0,0,0,5.19-3.51c.58-.46,1.14-.94,1.69-1.42a.39.39,0,0,1,.51.58c-.56.49-1.13,1-1.72,1.44a33.42,33.42,0,0,1-5.31,3.6,11.56,11.56,0,0,1-1.27.52,9.49,9.49,0,0,1-1.62.39c-1.15.18-2.41.36-3.88.52A63.79,63.79,0,0,1,159.66,266.49Z" />
			<path class="cls-7" d="M107.88,216.23c-.27-.56-4.65-9.46-6.47-11.43-.63-.69-1.84-2.44-3.32-4.25l9.22,2.18C107.53,208.35,107.8,215.61,107.88,216.23Z" />
			<path class="cls-2" d="M108.49,218.29l-.93-1.91c0-.09-4.59-9.36-6.41-11.34-.32-.35-.77-.95-1.34-1.7s-1.24-1.66-2-2.57l-.67-.81,10.5,2.49.12,2.92c.18,4.83.4,10.3.46,10.82ZM99,201.13c.5.64,1,1.26,1.36,1.78.56.74,1,1.32,1.3,1.65,1.44,1.56,4.37,7.21,5.76,10-.09-2.07-.23-5.65-.37-9.14L107,203Z" />
			<path class="cls-7" d="M194.8,175.49c-6.76,2.38-16.15,5.72-20.28,7.22a8.94,8.94,0,0,1-5.62.22c-1.05-.31-1.89-.78-1.86-1.5.08-1.73,16.91-7.16,24.7-9.44.17.21.35.41.53.61.69.74,1.33,1.47,1.91,2.14Z" />
			<path class="cls-2" d="M171.33,183.63a8.89,8.89,0,0,1-2.53-.36c-.53-.16-2.16-.64-2.11-1.85.11-2.41,22.41-9,24.95-9.77l.22-.07.15.19a7.17,7.17,0,0,0,.52.58c.7.76,1.33,1.48,1.91,2.16.23.26.44.51.64.76l.3.39-.46.16c-6.54,2.3-16,5.67-20.28,7.22A9.56,9.56,0,0,1,171.33,183.63Zm20.28-11.24c-11.47,3.38-23.89,7.81-24.22,9.07,0,.53.87.91,1.61,1.13a8.57,8.57,0,0,0,5.4-.21c4.17-1.51,13.3-4.77,19.81-7.06l-.3-.35c-.58-.67-1.21-1.39-1.9-2.13Z" />
			<path class="cls-7" d="M200.93,176.6c0,.66-.07,1.28-.11,1.87-.22,3.68-.44,6.1-.44,6.1a9.9,9.9,0,0,0-1.24-2.92,28.72,28.72,0,0,0-1.84-2.89c-.67-1-1.49-2.06-2.5-3.27l-.62-.75c-.58-.67-1.22-1.4-1.91-2.14-.18-.2-.36-.4-.53-.61-7.4-8.53-15.67-28-15.67-28-25.8,9.5-60.88,9.55-60.88,9.55,2.75,17.51-8.12,42.6-8.12,42.6s.05,1.4.13,3.45l-13-2.88c-1.64-1.21-3.33-1.77-4.81-.8-.35-7.1-4.83-15.44-4.73-28.21.3-38.88,30.47-49.23,30.47-49.23-4.55-.05-6.41-6.36-6.51-6.76C117,115,135.48,109,135.48,109c-5.8-2.21-5.59-10.81-5.59-10.81s5.4,4.61,11.73,5.17,22,4.14,22.49,4.26c-5.92-3-5.07-12.45-5.07-12.45s6.13,9.17,15.45,14S199.77,141,200.92,153.3A170.9,170.9,0,0,1,200.93,176.6Z" />
			<path class="cls-2" d="M107.56,200,94,197c-1.77-1.32-3.21-1.58-4.41-.79l-.52.33,0-.61a46,46,0,0,0-1.82-9.22c-1.39-5.29-3-11.29-2.91-19,.27-34.18,23.81-46.57,29.49-49.06-4-1.12-5.5-6.78-5.51-6.85l-.18-.67.65.26c7.09,2.86,22-1.28,25.73-2.41-5.08-2.72-5-10.41-5-10.76l0-.74.56.48s5.39,4.55,11.53,5.09c5.07.46,16.28,2.87,20.7,3.85-4.32-3.73-3.69-11.37-3.66-11.72l.09-1,.56.83c.06.09,6.18,9.15,15.31,13.83s25.43,31.75,26.62,44.47a165.21,165.21,0,0,1,0,23.36h0c0,.66-.08,1.28-.12,1.88-.22,3.64-.44,6.08-.44,6.1l-.27,2.93-.43-2.91a10,10,0,0,0-1.2-2.8A30.83,30.83,0,0,0,197,179c-.7-1-1.53-2.09-2.49-3.25-.2-.24-.4-.49-.62-.74-.58-.67-1.21-1.39-1.9-2.13-.19-.2-.37-.42-.55-.63-6.83-7.87-14.49-25.28-15.58-27.82-24,8.76-56.28,9.42-60.28,9.46,2.44,16.91-7.53,40.8-8.18,42.32Zm-13.2-3.66,12.47,2.77-.12-3.07,0-.08c.11-.25,10.81-25.2,8.1-42.4l-.06-.41h.41c.35,0,35.32-.16,60.76-9.54l.31-.11.13.31c.09.19,8.33,19.56,15.61,27.95a7.63,7.63,0,0,0,.53.59c.7.76,1.33,1.48,1.91,2.16.23.26.44.51.64.76,1,1.17,1.81,2.27,2.52,3.29a33,33,0,0,1,1.85,2.92,15.52,15.52,0,0,1,.71,1.41c.09-1.07.2-2.6.31-4.44,0-.59.07-1.21.11-1.87h0a167,167,0,0,0,0-23.25c-1.17-12.57-17.11-39.24-26.24-43.91-7.63-3.91-13.19-10.82-15-13.22,0,2.48.4,8.83,4.91,11.1l2.7,1.35L164,108c-.16,0-16.13-3.68-22.44-4.25-5.22-.46-9.74-3.56-11.33-4.77.11,2.09.83,8,5.35,9.73l.93.36-.95.31c-.74.24-17.79,5.73-26.4,2.91.59,1.65,2.43,5.8,6,5.84l2,0-1.93.67c-.29.1-29.94,10.72-30.23,48.89-.06,7.63,1.5,13.58,2.88,18.83a50.45,50.45,0,0,1,1.81,8.81C91.05,194.71,92.61,195.06,94.36,196.34ZM200.93,176.6h0Z" />
			<path class="cls-2" d="M50.33,400.34a.34.34,0,0,1-.32-.25C39.38,362.29,24.67,349,13.92,339.31c-1-.89-1.93-1.75-2.84-2.59a.34.34,0,1,1,.46-.5c.91.84,1.86,1.7,2.84,2.58,10.8,9.76,25.6,23.12,36.28,61.11a.34.34,0,0,1-.23.42Z" />
			<path class="cls-2" d="M238.92,388.72a.35.35,0,0,1-.34-.35c0-37.61,23.62-58.47,29.2-58.95a.33.33,0,0,1,.36.31.34.34,0,0,1-.31.37c-5.45.47-28.57,21.08-28.57,58.27A.35.35,0,0,1,238.92,388.72Z" />
			<path class="cls-2" d="M183.91,304.33h0a.38.38,0,0,1-.39-.39l.22-15.63a.4.4,0,0,1,.39-.38h0a.38.38,0,0,1,.38.4L184.3,304A.39.39,0,0,1,183.91,304.33Z" />
			<path class="cls-2" d="M147.25,318.36a.37.37,0,0,1-.37-.3.38.38,0,0,1,.29-.46l21-4.67,1.64,2.29a.39.39,0,0,1-.63.45l-1.34-1.87-20.55,4.55Z" />
			<path class="cls-7" d="M144.71,186.07a8.64,8.64,0,0,1-5.11,1.51c-6.87-.13-28-.39-28-.39a11,11,0,0,1,8.09-3.9c6.92-.35,25.6-.75,26.22.85C146.17,184.79,145.55,185.47,144.71,186.07Z" />
			<path class="cls-2" d="M139.74,187.93h-.14c-6.79-.13-27.79-.38-28-.39h-.69l.4-.56a11.36,11.36,0,0,1,8.36-4c.25,0,25.69-1.19,26.57,1.08.29.72-.16,1.51-1.33,2.34h0A8.92,8.92,0,0,1,139.74,187.93Zm-27.37-1.08c3.87.05,21.19.26,27.24.38a8.27,8.27,0,0,0,4.89-1.45h0c.49-.35,1.28-1,1.08-1.5-.82-1.14-15.87-1.14-25.88-.64A11,11,0,0,0,112.37,186.85Zm32.34-.78h0Z" />
			<path class="cls-2" d="M191.75,172.37h0a.38.38,0,0,1-.39-.38.39.39,0,0,1,.39-.39.4.4,0,0,1,.39.39A.38.38,0,0,1,191.75,172.37Z" />
			<path class="cls-2" d="M147.25,318.36a.38.38,0,0,1-.25-.09l-17.71-15.5a.39.39,0,0,1,0-.55.38.38,0,0,1,.55,0l17.7,15.5a.38.38,0,0,1,0,.54A.37.37,0,0,1,147.25,318.36Z" />
			<path class="cls-2" d="M147.25,318.37a.43.43,0,0,1-.27-.11.38.38,0,0,1,0-.54l23-23.74-2.27-12.13a.39.39,0,1,1,.76-.14l2.34,12.52-23.24,24A.39.39,0,0,1,147.25,318.37Z" />
			<path class="cls-2" d="M122.67,345.17,120,339.72a.39.39,0,0,1,.17-.52.4.4,0,0,1,.52.18l1.9,3.8,9.82-28.72,15,3.14a.38.38,0,1,1-.16.75l-14.3-3Z" />
			<path class="cls-2" d="M97.26,293.88a.39.39,0,0,1-.35-.22l-.08-.17A.39.39,0,0,1,97,293a.39.39,0,0,1,.51.19l.07.17a.39.39,0,0,1-.19.51A.45.45,0,0,1,97.26,293.88Z" />
			<path d="M170.66,192.14a.39.39,0,0,1-.26-.67,22.16,22.16,0,0,1,5.21-3.43A24.89,24.89,0,0,1,184,185.7l.34,0,.32,0a16.65,16.65,0,0,1,7,.89,32.42,32.42,0,0,1,3.79,1.62.4.4,0,0,1,.18.52.39.39,0,0,1-.52.17,34.79,34.79,0,0,0-3.7-1.59,15.66,15.66,0,0,0-6.68-.84l-.33,0-.31,0a24.21,24.21,0,0,0-8.09,2.26,21.65,21.65,0,0,0-5,3.3A.39.39,0,0,1,170.66,192.14Z" />
			<path d="M190.68,187.42a4.6,4.6,0,1,1-9.06-.56,16.08,16.08,0,0,1,6.88-.38C189.22,186.75,189.94,187.06,190.68,187.42Z" />
			<path d="M186.1,192.82H186a4.93,4.93,0,0,1-4.73-6l.05-.19.18-.05a16.82,16.82,0,0,1,7-.38,24,24,0,0,1,2.28,1l.16.08,0,.18a4.94,4.94,0,0,1-4.9,5.43Zm-4.2-5.7a4.27,4.27,0,0,0,4.15,5,4.2,4.2,0,0,0,3-1.23,4.26,4.26,0,0,0,1.27-3.31c-.65-.31-1.31-.59-2-.85A15.71,15.71,0,0,0,181.9,187.12Z" />
			<path d="M117.08,203.23a.39.39,0,0,1-.3-.13.4.4,0,0,1,0-.55c4.27-3.6,6.89-4.55,10.51-5.11a22.8,22.8,0,0,1,3.22-.26.36.36,0,0,1,.39.38.39.39,0,0,1-.38.39,22.76,22.76,0,0,0-3.11.25c-3.55.56-6,1.44-10.14,4.94A.38.38,0,0,1,117.08,203.23Z" />
			<path d="M137.76,199l-.13,0,.13-.37-.18.35.06-.38.12-.37.12,0a.39.39,0,0,1,.24.49A.38.38,0,0,1,137.76,199Z" />
			<path d="M141.71,200.53a.34.34,0,0,1-.19-.05,20,20,0,0,0-3.86-1.53.38.38,0,0,1-.26-.47.38.38,0,0,1,.48-.26,20.75,20.75,0,0,1,4,1.59.4.4,0,0,1,.15.53A.42.42,0,0,1,141.71,200.53Z" />
			<path d="M139.67,199.68v.13a4.8,4.8,0,1,1-9.11-2.25h0l7,1h.08l0,0h0C138.45,198.93,139.09,199.31,139.67,199.68Z" />
			<path d="M134.89,204.78a5.16,5.16,0,0,1-5.11-4.5,5.1,5.1,0,0,1,.49-2.86l.09-.18h.2l7.36,1.06a20.44,20.44,0,0,1,1.92,1.11l.15.1v.3a5.1,5.1,0,0,1-4.49,4.93A4.26,4.26,0,0,1,134.89,204.78Zm-4.13-6.87a4.36,4.36,0,0,0-.34,2.29,4.51,4.51,0,0,0,5,3.9,4.46,4.46,0,0,0,3.92-4.24,18.79,18.79,0,0,0-1.65-1l-.1,0Z" />
			<path d="M154.14,223.87a11,11,0,0,1-1.68-.14.39.39,0,0,1-.32-.45.37.37,0,0,1,.44-.31c2.48.41,4.4-.13,5.72-1.58,4.75-5.26.62-20.81.58-21a.37.37,0,0,1,.27-.47.38.38,0,0,1,.47.27c.18.65,4.29,16.11-.75,21.69A6.1,6.1,0,0,1,154.14,223.87Z" />
			<path class="cls-2" d="M116.2,216.07a3.85,3.85,0,0,1-2.24-.71,3.62,3.62,0,0,1-1.52-2.44L111,203.75a.38.38,0,0,1,.32-.44.4.4,0,0,1,.44.32l1.44,9.17a2.92,2.92,0,0,0,1.21,1.94,3.17,3.17,0,0,0,2.29.52l32.35-5.08c1.68-.26,2.83-1.8,2.7-2.65l-2-12.67a.38.38,0,0,1,.32-.44.4.4,0,0,1,.44.32l2,12.67c.2,1.32-1.3,3.21-3.34,3.53L116.82,216A4.44,4.44,0,0,1,116.2,216.07Z" />
			<path class="cls-2" d="M110.85,200.74a.39.39,0,0,1-.38-.32l0-.16a.38.38,0,0,1,.32-.44.38.38,0,0,1,.44.32l0,.16a.38.38,0,0,1-.31.44Z" />
			<path class="cls-2" d="M166.23,209a3.81,3.81,0,0,1-3.83-3.13l-2-12.67a.38.38,0,0,1,.32-.44.39.39,0,0,1,.44.32l2,12.67a3.09,3.09,0,0,0,3.6,2.44l33.3-5.24a3.09,3.09,0,0,0,2.67-3.43L200.05,186a.38.38,0,0,1,.3-.45.38.38,0,0,1,.45.3l.78,3.91,1.91,9.67a3.85,3.85,0,0,1-3.31,4.32l-33.31,5.24A3.45,3.45,0,0,1,166.23,209Z" />
			<path class="cls-2" d="M111.38,203.69l-4.07-1-9.22-2.18h0a22.21,22.21,0,0,0-3.87-3.88l13,2.88,3.65.8Z" />
			<polygon class="cls-2" points="201.2 189.78 198.85 189.54 198.97 186.26 200.55 186.48 201.2 189.78" />
			<path class="cls-2" d="M150.76,199.49a.39.39,0,0,1-.06-.77L161,197.1a.38.38,0,0,1,.11.76l-10.32,1.62Z" />
			<path class="cls-2" d="M151.17,201.33a.38.38,0,0,1-.06-.76L161.32,199a.39.39,0,0,1,.44.32.39.39,0,0,1-.32.44l-10.21,1.61Z" />
			<path d="M162.06,240.3c-4.47,0-16.35-1.84-16.88-1.92a.38.38,0,0,1,.12-.76c.13,0,13.55,2.1,17.34,1.9a.37.37,0,0,1,.4.36.39.39,0,0,1-.36.41Z" />
			<path class="cls-2" d="M233,493.61h0a.37.37,0,0,1-.35-.37l2.38-76a.36.36,0,0,1,.37-.35.35.35,0,0,1,.34.37l-2.37,76A.37.37,0,0,1,233,493.61Z" />
			<path class="cls-2" d="M190.24,291.59a.42.42,0,0,1-.23-.07c-1.63-.76-3-1.47-4.35-2.16a58.63,58.63,0,0,0-6-2.8c-2.14-.83-4-1.55-5.67-2.16-3.61-1.36-5.78-2.15-6.09-2.25-.8-.28-1.73-1.75-1.9-10.81,0-1.83,0-3.83,0-5.62a.42.42,0,0,1,.39-.41h0a.36.36,0,0,1,.38.35v.07c0,1.78,0,3.77,0,5.6.16,9.21,1.16,10,1.36,10.09s2.5.89,6.12,2.26c1.63.61,3.53,1.33,5.68,2.16a58,58,0,0,1,6,2.83c1.35.7,2.75,1.42,4.39,2.18l.22.1v.25A.39.39,0,0,1,190.24,291.59Z" />
			<path class="cls-7" d="M183.91,304l-.45,31-13.93-19.47c1.4-1.86,2.91-3.54,3.52-5.87l.15-.65h4.5C178.43,308.93,181.13,306.64,183.91,304Z" />
			<path class="cls-2" d="M142.05,268.59a.34.34,0,0,1-.31-.2l.31-.14-.33.11.59-.34,0,.08a.34.34,0,0,1-.16.45A.25.25,0,0,1,142.05,268.59Z" />
			<path class="cls-2" d="M72.94,452.65a.27.27,0,0,1-.13,0,.34.34,0,0,1-.19-.45l40.67-96.85a.34.34,0,0,1,.44-.18.33.33,0,0,1,.19.44L73.25,452.45A.33.33,0,0,1,72.94,452.65Z" />
			<path class="cls-6" d="M152.87,265.66,142,268.17a59,59,0,0,0-5.31-8.54A36.42,36.42,0,0,0,152.87,265.66Z" />
			<path class="cls-8" d="M197.89,262c-2.69,1.22-11,3.9-19.48,6.26,1.51.23,3.57.51,4.22,1.15,1.2,1.19,3.09,4.79,4,6.68l.91-.09s2.7,4.06.76,7.26a3.39,3.39,0,0,1,.7,1c.1.95.71,4.14,1.2,7h0a40.72,40.72,0,0,1,.63,4.55c0,.92-3.54,4.86-7,8.19-2.78,2.69-5.48,5-6.21,5h-4.5l-.15.65c-.61,2.33-2.12,4-3.52,5.87l-.06.07c-4.95,6.59-9.88,6.59-11.54,9.88-.59,1.18-3.36,22-8.46,49.11L113.6,355.46l6.69-15.91h0l8-19.08,1-14.75.22-3.23,1.33-19.29a42.19,42.19,0,0,0-3.43-19.8c-2.34-5.31-4.77-11.07-4.77-11.94a.46.46,0,0,1,.21-.38l.18-.12.15-.06a1.12,1.12,0,0,1,.24-.08h0a1.44,1.44,0,0,1,.31-.05,3.54,3.54,0,0,1,.81,0,5.94,5.94,0,0,1,1.22.2h0a9.88,9.88,0,0,1,1,.31,6.48,6.48,0,0,1,.64.25,2.25,2.25,0,0,1,.38.19l.09,0h0l.48.25.17.09c.15.07.29.17.45.26s.39.23.58.36a6.82,6.82,0,0,1,.59.4c.21.14.42.29.62.45s.42.32.64.49.42.36.63.56.44.38.66.59a.73.73,0,0,0,.09.08c.31.29.62.6.94.94h0l0,0,0,0,0,0c.21.21.41.44.62.66s.43.46.63.71.53.63.8,1l.39.48.39.5c.44.57.86,1.18,1.3,1.81s.66,1,1,1.5c.17.26.33.51.49.79.84,1.34,1.68,2.81,2.52,4.44l10.86-2.51,3.19-.73,5-1.17c1.13-.25,2.29-.53,3.44-.8l3.49-.81c.3-.07.6-.13.88-.21.88-.19,1.76-.4,2.62-.6,1.75-.4,3.46-.82,5.16-1.22l3.32-.77c9.58-2.29,17.41-4.19,19.1-4.76C204,253,203.26,259.54,197.89,262Z" />
			<path class="cls-2" d="M157.93,273.06a.35.35,0,0,1-.34-.34.34.34,0,0,1,.34-.34c2.83,0,10.45-1.66,20.39-4.44a.34.34,0,0,1,.42.24.34.34,0,0,1-.24.42C173.7,269.94,162.09,273.06,157.93,273.06Z" />
			<path class="cls-2" d="M136.53,269.76a.32.32,0,0,1-.33-.26.34.34,0,0,1,.25-.41l5.48-1.25a.34.34,0,0,1,.41.25.34.34,0,0,1-.26.41l-5.47,1.25Z" />
			<path class="cls-2" d="M178.41,268.61a1,1,0,0,1-.25,0,.34.34,0,0,1-.28-.4.35.35,0,0,1,.4-.27l.13,0a.34.34,0,1,1,0,.68Z" />
			<path class="cls-2" d="M171.11,278a.34.34,0,0,1-.34-.31.34.34,0,0,1,.3-.37l15.57-1.55a.33.33,0,0,1,.37.31.34.34,0,0,1-.3.37L171.14,278Z" />
			<path class="cls-2" d="M172,284.58a.33.33,0,0,1-.34-.31.34.34,0,0,1,.3-.37l2.14-.2c1.37-.11,3.14-.43,5-.76,3.16-.57,6.44-1.16,8.18-.82a2.75,2.75,0,0,1,1.27.92.34.34,0,1,1-.5.46,2.28,2.28,0,0,0-.89-.71c-1.63-.31-4.84.26-7.94.82-1.89.34-3.67.66-5.07.77l-2.13.2Z" />
			<path class="cls-2" d="M173.2,309.28h-.76a.35.35,0,0,1,0-.69h.76a.35.35,0,0,1,0,.69Z" />
			<path class="cls-2" d="M169.46,297.75a.34.34,0,0,1,0-.68,21.83,21.83,0,0,0,11.33-3.39.35.35,0,0,1,.48.09.33.33,0,0,1-.09.47A22.1,22.1,0,0,1,169.46,297.75Z" />
			<path class="cls-2" d="M149.43,375.06h-.07a.35.35,0,0,1-.26-.41l0-.11,0-.09a.33.33,0,0,1,.4-.27.35.35,0,0,1,.27.4l-.34-.06.32.14,0,.13A.35.35,0,0,1,149.43,375.06Z" />
			<path class="cls-2" d="M173.2,309.28h-.07a.34.34,0,0,1-.26-.41,36.39,36.39,0,0,0,.32-11.82.34.34,0,0,1,.28-.39.35.35,0,0,1,.39.28,36.87,36.87,0,0,1-.33,12.08A.33.33,0,0,1,173.2,309.28Z" />
			<path class="cls-2" d="M124.18,468.76l-.13,0a.34.34,0,0,1-.18-.45l.2-.46a.36.36,0,0,1,.46-.19.32.32,0,0,1,.18.43l0,.05a4,4,0,0,0-.19.43A.36.36,0,0,1,124.18,468.76Z" />
			<path class="cls-2" d="M66.46,538.54c-.93,0-1.83,0-2.71-.09a.34.34,0,0,1-.32-.36.33.33,0,0,1,.36-.32c9.32.57,20.92-.94,40.63-26.2,19.38-24.83,47.26-128.67,48.85-134.65l-39.83-21.16a.34.34,0,0,1-.14-.46.35.35,0,0,1,.46-.14l40.31,21.41-.07.27c-.29,1.09-29.1,109.6-49,135.15C86.89,535.14,75.5,538.54,66.46,538.54Z" />
			<path class="cls-2" d="M152.87,266a.32.32,0,0,1-.33-.26.34.34,0,0,1,.25-.41L179.92,259a.34.34,0,1,1,.15.67L153,266Z" />
			<path class="cls-2" d="M138,261.78a.34.34,0,0,1-.3-.19c-2.67-5.36-9.88-9.52-10-9.56-1-.39-3.9-1.26-4.83-.34a.33.33,0,0,1-.48,0,.34.34,0,0,1,0-.48c1.41-1.41,5.18,0,5.61.21s7.51,4.32,10.27,9.87a.33.33,0,0,1-.15.45A.29.29,0,0,1,138,261.78Z" />
			<path class="cls-7" d="M129.32,305.71l-1,14.75-8,19.08-23-46c3.49-2,6.59-3.94,9.15-5.59,1.56-1,2.92-1.93,4-2.74a17.59,17.59,0,0,0,3.47-3Z" />
			<polygon class="cls-9" points="228.14 606.39 70.42 578.77 70.6 573.73 227.67 573.73 228.14 606.39" />
			<path d="M137.72,198.94l-.15,0a19.43,19.43,0,0,0-7-1,.42.42,0,0,1-.4-.36.38.38,0,0,1,.36-.41,19.87,19.87,0,0,1,7.32,1,.39.39,0,0,1,.22.5A.4.4,0,0,1,137.72,198.94Z" />
			<polygon class="cls-2" points="153.67 376.75 150.1 371.17 149.47 374.51 153.67 376.75" />
			<polygon class="cls-4" points="76.77 442.56 70.11 486.15 55.15 477.06 76.77 442.56" />
			<text class="cls-10" transform="translate(394.77 101.57)">?</text>
			<text class="cls-11" transform="translate(389.69 101.57)">?</text>
			<path class="cls-2" d="M287.34,129.41a16.49,16.49,0,1,1,16.49-16.49A16.51,16.51,0,0,1,287.34,129.41Zm0-31.71a15.23,15.23,0,1,0,15.22,15.22A15.24,15.24,0,0,0,287.34,97.7Z" />
			<path class="cls-2" d="M248.64,149.72a10.79,10.79,0,1,1,10.78-10.79A10.8,10.8,0,0,1,248.64,149.72Zm0-20.31a9.52,9.52,0,1,0,9.51,9.52A9.53,9.53,0,0,0,248.64,129.41Z" />
			<path class="cls-2" d="M221.36,161.13a6.34,6.34,0,1,1,6.34-6.34A6.34,6.34,0,0,1,221.36,161.13Zm0-11.41a5.08,5.08,0,1,0,5.08,5.07A5.08,5.08,0,0,0,221.36,149.72Z" />
		</g>
	</g>
</svg>