<svg xmlns="http://www.w3.org/2000/svg"
	xmlns:xlink="http://www.w3.org/1999/xlink" viewBox="0 0 316.36 149.31">
	<defs>
		<style>.cls-1{fill:none;}.cls-2{clip-path:url(#clip-path);}.cls-3{fill:#6761aa;}</style>
		<clipPath id="clip-path" transform="translate(-28.16 -111.68)">
			<rect class="cls-1" width="372.68" height="372.68" />
		</clipPath>
	</defs>
	<g id="Layer_2" data-name="Layer 2">
		<g id="Layer_1-2" data-name="Layer 1">
			<g class="cls-2">
				<path class="cls-3" d="M91.07,111.68H37.9a9.75,9.75,0,0,0-9.74,9.75V251.26A9.75,9.75,0,0,0,37.9,261H91.07a9.74,9.74,0,0,0,9.73-9.74V121.43A9.74,9.74,0,0,0,91.07,111.68Zm-2.61,5.56a.89.89,0,1,1-.89.89A.88.88,0,0,1,88.46,117.24Zm-33.94,0H74.45a.89.89,0,0,1,0,1.77H54.52a.89.89,0,1,1,0-1.77ZM64.48,256a5.7,5.7,0,1,1,5.7-5.69A5.68,5.68,0,0,1,64.48,256Zm31-16H33.45V125.51H95.52Z" transform="translate(-28.16 -111.68)" />
				<path class="cls-3" d="M246.77,147.9v76.89l57.11,9.88V138Zm41.73,26.36-9.88.44v28.83l-6.58-.38V175l-9.9.4v-6.08l26.36-1.6Zm18.68,3.3v38.82c1.09.24,1.5.42,2.27.53a17.13,17.13,0,0,0,2.58.18,18.89,18.89,0,0,0,4-.42,11.78,11.78,0,0,0,3.75-1.47,8.49,8.49,0,0,0,2.81-2.78,8.14,8.14,0,0,0,1.11-4.37V177.56Zm13.58-17.72a8.77,8.77,0,0,0-4.66-4.67,8.66,8.66,0,0,0-3.41-.69,8.54,8.54,0,0,0-3.37.69c-.8.35-1.05.78-2.14,1.32V170c1.09.54,1.34,1,2.14,1.32a8.67,8.67,0,0,0,6.78,0,8.71,8.71,0,0,0,4.66-11.47Zm6.18,23.21v26.36h4.4a25,25,0,0,0,4.49-.43,14.09,14.09,0,0,0,4.27-1.49,9.63,9.63,0,0,0,3.17-2.79,7.43,7.43,0,0,0,1.25-4.38V183.05Zm16.83-17.72a8.76,8.76,0,0,0-16.14,6.81,8.64,8.64,0,0,0,1.88,2.79,8.79,8.79,0,0,0,2.78,1.89,9,9,0,0,0,6.81,0,8.84,8.84,0,0,0,4.67-4.68A8.75,8.75,0,0,0,343.77,165.33Z" transform="translate(-28.16 -111.68)" />
				<polygon class="cls-3" points="174.58 79.43 162.49 92.85 162.49 84.17 120.49 84.17 120.49 79.37 174.58 79.43" />
				<polygon class="cls-3" points="120.49 69.88 132.58 56.46 132.58 65.14 174.58 65.14 174.58 69.94 120.49 69.88" />
			</g>
		</g>
	</g>
</svg>