<svg xmlns="http://www.w3.org/2000/svg"
	xmlns:xlink="http://www.w3.org/1999/xlink" viewBox="0 0 259.39 250">
	<defs>
		<style>.cls-1{fill:none;}.cls-2{clip-path:url(#clip-path);}.cls-3{fill:#ffd764;}.cls-4{fill:#ffa13b;opacity:0.2;}.cls-5{fill:#231f20;}.cls-6{fill:#fc6732;}.cls-7{fill:#fff;}</style>
		<clipPath id="clip-path" transform="translate(-56.65 -61.34)">
			<rect class="cls-1" width="372.68" height="372.68" />
		</clipPath>
	</defs>
	<g id="Layer_2" data-name="Layer 2">
		<g id="Layer_1-2" data-name="Layer 1">
			<g class="cls-2">
				<path class="cls-3" d="M316,205.88A105.45,105.45,0,0,1,210.57,311.34c-3.39,0-6.75-.15-10.06-.48a105.47,105.47,0,0,1,0-210c3.31-.32,6.67-.47,10.06-.47A105.45,105.45,0,0,1,316,205.88Z" transform="translate(-56.65 -61.34)" />
				<path class="cls-4" d="M316,205.88A105.45,105.45,0,0,1,210.57,311.34c-3.39,0-6.75-.15-10.06-.48a105.46,105.46,0,0,0,0-210c3.31-.32,6.67-.47,10.06-.47A105.45,105.45,0,0,1,316,205.88Z" transform="translate(-56.65 -61.34)" />
				<path class="cls-5" d="M185,185.86a2.43,2.43,0,0,1-2.24-1.48,18.72,18.72,0,0,0-34.41,0,2.44,2.44,0,0,1-4.48-1.92,23.6,23.6,0,0,1,43.37,0,2.43,2.43,0,0,1-1.28,3.2A2.5,2.5,0,0,1,185,185.86Z" transform="translate(-56.65 -61.34)" />
				<path class="cls-5" d="M275,185.86a2.43,2.43,0,0,1-2.24-1.48,18.73,18.73,0,0,0-34.42,0,2.44,2.44,0,1,1-4.48-1.92,23.6,23.6,0,0,1,43.37,0,2.44,2.44,0,0,1-1.27,3.2A2.54,2.54,0,0,1,275,185.86Z" transform="translate(-56.65 -61.34)" />
				<path class="cls-6" d="M169.46,250.78a44.72,44.72,0,0,0,82.22,0Z" transform="translate(-56.65 -61.34)" />
				<ellipse class="cls-7" cx="160.03" cy="121.74" rx="11.47" ry="3.44" transform="translate(-90.28 6.31) rotate(-21.66)" />
				<ellipse class="cls-7" cx="174.87" cy="110.53" rx="6.47" ry="1.94" transform="translate(-85.09 11) rotate(-21.66)" />
				<path class="cls-3" d="M56.65,75.44s13.24,0,13.46-14.1c0,0,.78,14.32,14.1,14.1,0,0-13.78,1.5-13.78,13.25C70.43,88.69,69,76.08,56.65,75.44Z" transform="translate(-56.65 -61.34)" />
				<path class="cls-3" d="M64.19,106.65s23.76,0,24.14-25.3c0,0,1.41,25.68,25.3,25.3,0,0-24.72,2.68-24.72,23.77C88.91,130.42,86.42,107.8,64.19,106.65Z" transform="translate(-56.65 -61.34)" />
			</g>
		</g>
	</g>
</svg>