<svg xmlns="http://www.w3.org/2000/svg" viewBox="0 0 442.64 512.49">
	<defs>
		<style>.cls-1{fill:#bfbfbf;}.cls-2{fill:#1a1344;}.cls-3,.cls-7{fill:#231f20;}.cls-3{opacity:0.2;}.cls-4{fill:#d6d6d6;}.cls-5{fill:#e5e5e5;}.cls-6{fill:#201b51;}.cls-8{fill:#f7f7f7;}.cls-9{fill:#1b1b0e;}.cls-10{opacity:0.19;}.cls-11{fill:#3f4f5f;}</style>
	</defs>
	<g id="Layer_2" data-name="Layer 2">
		<g id="Layer_1-2" data-name="Layer 1">
			<polygon class="cls-1" points="382.06 467.44 274.25 467.44 274.7 137.16 382.51 196.92 382.06 467.44" />
			<rect class="cls-2" x="320.46" y="210.1" width="16.28" height="16.28" />
			<rect class="cls-2" x="320.46" y="241.97" width="16.28" height="16.28" />
			<rect class="cls-2" x="320.46" y="273.84" width="16.28" height="16.28" />
			<rect class="cls-2" x="320.46" y="305.7" width="16.28" height="16.28" />
			<rect class="cls-2" x="320.46" y="337.57" width="16.28" height="16.28" />
			<rect class="cls-2" x="320.46" y="369.44" width="16.28" height="16.28" />
			<rect class="cls-2" x="320.46" y="401.31" width="16.28" height="16.28" />
			<rect class="cls-2" x="320.01" y="433.17" width="16.28" height="16.28" />
			<polygon class="cls-3" points="292.16 158.29 334.89 466.72 277.03 467.27 292.16 158.29" />
			<polygon class="cls-4" points="296.89 0 291.4 467.44 251.6 467.44 251.6 55.97 296.89 0" />
			<rect class="cls-5" x="138.62" y="55.97" width="112.99" height="411.47" />
			<rect class="cls-2" x="176.3" y="439.52" width="38.47" height="27.7" />
			<polygon class="cls-6" points="251.6 55.97 138.62 55.97 183.91 0 296.89 0 251.6 55.97" />
			<rect class="cls-2" x="397.86" y="429.08" width="2.89" height="38.75" />
			<circle class="cls-2" cx="399.3" cy="423.81" r="20.22" />
			<rect class="cls-2" x="46.48" y="418.4" width="3.59" height="48.21" />
			<circle class="cls-2" cx="48.27" cy="411.84" r="25.16" />
			<rect class="cls-2" x="93.22" y="437.53" width="2.17" height="29.08" />
			<circle class="cls-2" cx="94.3" cy="433.57" r="15.18" />
			<rect class="cls-7" x="220.82" y="245.63" width="1.01" height="442.64" transform="translate(-246.56 686.29) rotate(-89.76)" />
			<path class="cls-8" d="M56.47,488.35v10.07l10.56.81,3.33.25q13.4,1,26.81,1.57,41.93,1.84,83.89-.1,13.42-.61,26.83-1.64c3.67-.27,7.34-.56,11-.89a15.77,15.77,0,0,0,3.94-10.17,14.85,14.85,0,0,0-.93-5.1c-.1-.3-.23-.59-.35-.9,0,0,1.67-3.4.3-9.28-.5-2.17-3.15-6.42-5.37-6.36l-3,.1-8.9.3a88.41,88.41,0,0,0-102.23.09q-2.11,1.5-4.14,3.13l-1.85,0s-24.84-1.09-36.71,10.48A10.58,10.58,0,0,0,56.47,488.35Z" />
			<path class="cls-4" d="M181.06,501a1.75,1.75,0,0,1,0-.32v0a14.46,14.46,0,0,1,1.12-2.92l.15-.27.22-.41a14.06,14.06,0,0,1,24-.3l.23.39.15.27a13.56,13.56,0,0,1,.88,1.94Z" />
			<path class="cls-9" d="M204.26,502.33a9.56,9.56,0,1,1-19.12,0,5.07,5.07,0,0,1,0-.68,4.91,4.91,0,0,1,.08-.67l0-.2a1.1,1.1,0,0,0,0-.16,9.6,9.6,0,0,1,2.19-4.43c.2-.22.4-.43.61-.63a9.58,9.58,0,0,1,13-.17c.22.2.42.4.62.61a9.66,9.66,0,0,1,2.31,4.38.8.8,0,0,0,0,.15c0,.07,0,.14,0,.21,0,.22.08.44.1.66A7.77,7.77,0,0,1,204.26,502.33Z" />
			<circle class="cls-4" cx="194.7" cy="502.45" r="4.99" />
			<path class="cls-4" d="M70.36,499.48q13.4,1,26.81,1.57a1.23,1.23,0,0,0,0-.6h0A13.19,13.19,0,0,0,96,497.53c0-.09-.09-.18-.14-.27l-.23-.4a14.06,14.06,0,0,0-24,0l-.23.4c0,.09-.1.18-.14.27A13.11,13.11,0,0,0,70.36,499.48Z" />
			<path class="cls-9" d="M93.17,502.93A9.57,9.57,0,1,1,74,502.64c0-.23,0-.45,0-.68s0-.45.09-.67,0-.13,0-.2l0-.16a9.59,9.59,0,0,1,2.25-4.4c.19-.22.4-.42.61-.62a9.57,9.57,0,0,1,13,0c.21.2.41.4.61.62a9.68,9.68,0,0,1,2.25,4.4,1.1,1.1,0,0,0,0,.16l0,.2c0,.22.08.44.1.67S93.17,502.6,93.17,502.93Z" />
			<circle class="cls-4" cx="83.6" cy="502.93" r="4.99" />
			<path class="cls-7" d="M195.5,467.28l-6.89.15-10.19.22-4.24.09-1.87,0-9.5.21-10.18.21-8.65.19-4.24.09-4.42.1-6.61.14-6.11.13-5.08.11-3.33.07-4.83.11-1,0c1-.73,2.07-1.44,3.15-2.14A91,91,0,0,1,122.27,461q2.83-1.36,5.77-2.51c2.43-.94,4.92-1.78,7.44-2.48a73.5,73.5,0,0,1,7.63-1.65,59.54,59.54,0,0,1,7.18-.69c.7,0,1.4-.05,2.1-.05s1.48,0,2.22,0c1.32,0,2.63.11,3.93.22a70.79,70.79,0,0,1,7.48,1,73.8,73.8,0,0,1,8,1.94q3.51,1.07,6.85,2.45l1.28.55c1,.41,1.9.85,2.84,1.3,2.2,1.08,4.35,2.26,6.43,3.53C192.82,465.45,194.18,466.34,195.5,467.28Z" />
			<g class="cls-10">
				<path class="cls-11" d="M174,456.76,162.81,468l-10.18.21L166,454.82A73.8,73.8,0,0,1,174,456.76Z" />
				<path class="cls-11" d="M191.44,464.59l-2.83,2.84-10.19.22,6.59-6.59C187.21,462.14,189.36,463.32,191.44,464.59Z" />
				<path class="cls-11" d="M150.29,453.62l-15,15-6.61.14,14.4-14.41A59.54,59.54,0,0,1,150.29,453.62Z" />
				<path class="cls-11" d="M158.54,453.83,144,468.39l-4.24.09,14.87-14.87C155.93,453.65,157.24,453.72,158.54,453.83Z" />
				<path class="cls-11" d="M182.17,459.76l-8,8-1.87,0,8.58-8.57Z" />
				<path class="cls-11" d="M128,458.44,117.52,469l-3.33.07,8.08-8.08Q125.1,459.59,128,458.44Z" />
			</g>
			<rect class="cls-6" x="149.32" y="84.52" width="90.62" height="25.78" />
			<path class="cls-7" d="M240.48,110.44H148.77V84.38h91.71Zm-90.62-.29h89.53V84.66H149.86Z" />
			<rect class="cls-6" x="149.32" y="128.87" width="90.62" height="25.78" />
			<path class="cls-7" d="M240.48,154.79H148.77V128.73h91.71Zm-90.62-.28h89.53V129H149.86Z" />
			<rect class="cls-6" x="149.32" y="173.22" width="90.62" height="25.78" />
			<path class="cls-7" d="M240.48,199.14H148.77V173.08h91.71Zm-90.62-.28h89.53v-25.5H149.86Z" />
			<rect class="cls-6" x="149.32" y="217.58" width="90.62" height="25.78" />
			<path class="cls-7" d="M240.48,243.5H148.77V217.43h91.71Zm-90.62-.29h89.53V217.72H149.86Z" />
			<rect class="cls-6" x="149.32" y="261.93" width="90.62" height="25.78" />
			<path class="cls-7" d="M240.48,287.85H148.77V261.79h91.71Zm-90.62-.28h89.53v-25.5H149.86Z" />
			<rect class="cls-6" x="149.32" y="306.28" width="90.62" height="25.78" />
			<path class="cls-7" d="M240.48,332.2H148.77V306.14h91.71Zm-90.62-.28h89.53v-25.5H149.86Z" />
			<rect class="cls-6" x="149.32" y="350.63" width="90.62" height="25.78" />
			<rect class="cls-6" x="149.32" y="394.99" width="90.62" height="25.78" />
		</g>
	</g>
</svg>