<svg xmlns="http://www.w3.org/2000/svg" viewBox="0 0 230.31 211.48">
	<defs>
		<style>.cls-1{fill:#29cfbb;}.cls-2{fill:#9989fc;}.cls-3{fill:#fc7079;}</style>
	</defs>
	<g id="Layer_2" data-name="Layer 2">
		<g id="Layer_1-2" data-name="Layer 1">
			<path class="cls-1" d="M162,124.2v.3c-.09-1.07-.13-2.17-.13-3.26,0-.24,0-.46,0-.7C161.91,121.74,162,123,162,124.2Z" />
			<path class="cls-1" d="M151.74,120.71a4.7,4.7,0,0,0,0,.53c0,1.17,0,2.35.13,3.51v-.55C151.85,123,151.81,121.88,151.74,120.71Z" />
			<path class="cls-2" d="M230.31,75.9l-3.44,1.29-13.74,5.16L192.74,90V82a40.39,40.39,0,0,0-30.91,38.57c0,.24,0,.46,0,.7,0,1.09,0,2.19.13,3.26a56.79,56.79,0,1,1-89.12-47H37.56V87.87L0,73.78,37.56,59.69v7.72H128a5,5,0,0,1,5,5h0a5,5,0,0,1-5,5.05H106.08c-26.18,0-48.11,21.43-47.6,47.61a46.69,46.69,0,0,0,93.37-.37c0-.19,0-.36,0-.55,0-1.17-.05-2.33-.13-3.48a50.44,50.44,0,0,1,41-49.08V61.81Z" />
			<path class="cls-3" d="M134,120.47l-8.65-.51a.62.62,0,0,1-.59-.49c-.14-.52-.31-1.06-.49-1.57s-.39-1.06-.62-1.57c-.12-.25-.23-.51-.36-.75a14.94,14.94,0,0,0-.77-1.42.67.67,0,0,1,.08-.77l5.65-6.33a1.89,1.89,0,0,0-.08-2.57l-3.42-3.43a1.87,1.87,0,0,0-2.57-.06l-6.39,5.68a.62.62,0,0,1-.75.08,21.12,21.12,0,0,0-5.7-2.25l-.53-9.07A1.88,1.88,0,0,0,107,93.68h-4.86a1.89,1.89,0,0,0-1.88,1.76l-.5,8.6a.64.64,0,0,1-.48.59A20.59,20.59,0,0,0,94,106.76a.62.62,0,0,1-.75-.08L86.87,101a1.87,1.87,0,0,0-2.57.06l-3.42,3.43a1.88,1.88,0,0,0-.07,2.57l5.64,6.33a.66.66,0,0,1,.07.77,20.45,20.45,0,0,0-2.23,5.31.63.63,0,0,1-.59.49l-8.65.51a1.86,1.86,0,0,0-1.75,1.87v4.83A1.87,1.87,0,0,0,75.05,129l8.65.5a.65.65,0,0,1,.59.48,20.73,20.73,0,0,0,2.23,5.33.65.65,0,0,1-.07.76l-5.64,6.35a1.87,1.87,0,0,0,.07,2.56l3.42,3.42a1.88,1.88,0,0,0,2.57.07l6.39-5.68a.63.63,0,0,1,.75-.08,20.57,20.57,0,0,0,5.24,2.12.65.65,0,0,1,.48.59l.5,8.61a1.89,1.89,0,0,0,1.88,1.76H107a1.88,1.88,0,0,0,1.87-1.76l.53-9.08a20.47,20.47,0,0,0,5.7-2.24.63.63,0,0,1,.75.08l6.39,5.68a1.88,1.88,0,0,0,2.57-.07L128.2,145a1.88,1.88,0,0,0,.08-2.56l-5.65-6.35a.65.65,0,0,1-.08-.76,14.94,14.94,0,0,0,.77-1.42c.13-.25.24-.49.36-.75a16.52,16.52,0,0,0,.62-1.57c.18-.52.35-1,.49-1.59a.64.64,0,0,1,.59-.48L134,129a1.87,1.87,0,0,0,1.75-1.86v-4.83A1.86,1.86,0,0,0,134,120.47Zm-29.49,17.35a13.07,13.07,0,0,1-13-11.79s0-.86,0-1.28,0-1.28,0-1.28a13.07,13.07,0,0,1,13-11.79,13.07,13.07,0,1,1,0,26.14Z" />
			<circle class="cls-3" cx="144.29" cy="18.08" r="8.43" />
			<circle class="cls-3" cx="14.39" cy="53.73" r="4.98" />
			<circle class="cls-3" cx="25.19" cy="116.26" r="5.37" />
			<circle class="cls-3" cx="220.25" cy="124.42" r="6.96" />
			<circle class="cls-3" cx="108.7" cy="204.35" r="7.12" />
			<path class="cls-2" d="M61.65,17.58a8.79,8.79,0,1,1,8.79-8.79A8.8,8.8,0,0,1,61.65,17.58Zm0-13.83a5,5,0,1,0,5,5A5.05,5.05,0,0,0,61.65,3.75Z" />
			<path class="cls-2" d="M112.38,60.92a4.84,4.84,0,1,1,4.84-4.83A4.84,4.84,0,0,1,112.38,60.92Zm0-7.61a2.78,2.78,0,1,0,2.77,2.78A2.78,2.78,0,0,0,112.38,53.31Z" />
			<path class="cls-2" d="M29.55,183.34a8.79,8.79,0,1,1,8.79-8.79A8.8,8.8,0,0,1,29.55,183.34Zm0-13.83a5,5,0,1,0,5,5A5.05,5.05,0,0,0,29.55,169.51Z" />
			<path class="cls-2" d="M175.78,163.29a5.08,5.08,0,1,1,5.08-5.08A5.09,5.09,0,0,1,175.78,163.29Zm0-8a2.92,2.92,0,1,0,2.92,2.92A2.91,2.91,0,0,0,175.78,155.29Z" />
			<path class="cls-2" d="M213.28,44.93a5.08,5.08,0,1,1,5.08-5.08A5.09,5.09,0,0,1,213.28,44.93Zm0-8a2.92,2.92,0,1,0,2.92,2.92A2.91,2.91,0,0,0,213.28,36.93Z" />
		</g>
	</g>
</svg>