<svg xmlns="http://www.w3.org/2000/svg" viewBox="0 0 609.74 507.55">
	<defs>
		<style>.cls-1,.cls-12{fill:#ce9b59;}.cls-1,.cls-13,.cls-14,.cls-16,.cls-19,.cls-2,.cls-23,.cls-24,.cls-34,.cls-35,.cls-5,.cls-7{stroke:#071235;}.cls-1,.cls-13,.cls-14,.cls-16,.cls-19,.cls-2,.cls-23,.cls-24,.cls-34,.cls-35,.cls-5,.cls-6,.cls-7,.cls-8{stroke-linecap:round;}.cls-1,.cls-13,.cls-14,.cls-16,.cls-19,.cls-2,.cls-23,.cls-24,.cls-28,.cls-32,.cls-33,.cls-34,.cls-35,.cls-5,.cls-6,.cls-7,.cls-8{stroke-miterlimit:10;}.cls-1{stroke-width:0.29px;}.cls-15,.cls-2{fill:#282828;}.cls-2,.cls-5,.cls-6,.cls-7,.cls-8{stroke-width:0.36px;}.cls-3{fill:#ffd8c7;}.cls-4{fill:#20a4f3;}.cls-13,.cls-14,.cls-16,.cls-23,.cls-28,.cls-32,.cls-34,.cls-35,.cls-5,.cls-6{fill:none;}.cls-28,.cls-32,.cls-33,.cls-6,.cls-8{stroke:#000;}.cls-7{fill:#231f20;}.cls-10,.cls-33,.cls-8{fill:#fff;}.cls-9{fill:#212121;}.cls-11{fill:#5e2ded;}.cls-13{stroke-width:0.36px;}.cls-14{stroke-width:0.23px;}.cls-16{stroke-width:0.41px;}.cls-17,.cls-20{fill:#020202;}.cls-18{fill:#af814f;}.cls-19{stroke-width:0.16px;}.cls-19,.cls-20,.cls-31{opacity:0.2;}.cls-21{fill:#b27976;}.cls-22{fill:#e8e8e8;}.cls-23,.cls-24{stroke-width:0.35px;}.cls-24{fill:#231204;}.cls-25{fill:#071235;}.cls-26{fill:#ffcac5;}.cls-27{fill:#0a0a0a;}.cls-28{stroke-width:0.39px;}.cls-29{fill:#29cfbb;}.cls-30{fill:#1dbca5;}.cls-32,.cls-33{stroke-width:0.45px;}.cls-34{stroke-width:0.38px;}.cls-35{stroke-width:0.44px;}</style>
	</defs>
	<g id="Layer_2" data-name="Layer 2">
		<g id="Layer_1-2" data-name="Layer 1">
			<path class="cls-1" d="M363.75,241.8c0,36.67-38,66.39-84.93,66.39a104.28,104.28,0,0,1-37.57-6.84c-28.07-10.82-47.37-33.43-47.37-59.55a51.92,51.92,0,0,1,.69-8.49c5.33-32.65,41-57.89,84.25-57.89C325.72,175.42,363.75,205.14,363.75,241.8Z" />
			<path class="cls-2" d="M294.69,107.92c-.77-.35-1.52,0-2.2.72l-.12.06-.32.12-3.64,1.43-.9.36-.86.33c.32-2.42-6.85-10.65-7.11-20.91,0,0-16.36,2.54-29.09,0,0,0-2.55,10.2-5.46,14.56-.24.35-.48.74-.73,1.15h0c-.15.25-.29.48-.41.7s-.31.55-.46.83a4.11,4.11,0,0,0-.21.42,1.09,1.09,0,0,0-.08.15,14.36,14.36,0,0,0-.65,1.49,6.12,6.12,0,0,0-.36,1.45c-.2-.82-.42-1.78-.65-2.8-.06-.28-.12-.57-.19-.88a82.59,82.59,0,0,1-1.71-10.89c-.36-5.82,5.1-19.67,9.1-22.58A22.26,22.26,0,0,0,254.81,66s1.09,4.36-1.46,6.18c1-.69,14.55-4.5,15.29-6.91,0,0,.72,4-1.82,5.46,0,0,9.09,1.45,12.72-.73,0,0-.36,3.28-2.54,3.64C287.84,75,297.66,87.52,294.69,107.92Z" />
			<path class="cls-3" d="M294.68,107.92c-.77-.35-1.51,0-2.19.72a11,11,0,0,0-1.51,2.11h0a33.63,33.63,0,0,0-3.42,8c0-.23-.4-3.68-.72-6.36l-1.83.75v-1.6l1.65-.65c.32-2.42-6.85-10.65-7.11-20.91,0,0-16.36,2.54-29.09,0,0,0-2.55,10.2-5.46,14.56-.24.35-.49.74-.73,1.15,20.76-3,13.86,2.08-1.16,2.1h0a13.49,13.49,0,0,0-.65,1.49c.7,3.2,1.25,6.68,1.91,10.2,1.81,9.57,4.51,19.33,13.62,24a11.93,11.93,0,0,0,2.81,1.06c0,2.9-.15,7.82-.88,8.07l-1.09,5.84L278,169.8l6.33-12.75,1.09-4.38c-.84-7.26,3.76-30.55,3.64-31.33C298.21,117.92,297.68,109.68,294.68,107.92Zm-46.88,5.21a2.08,2.08,0,0,1-.41-1.73h0a.54.54,0,0,0,0-.1,11.53,11.53,0,0,1,4-.55.25.25,0,0,1,0,.07h0C252.69,113.05,249.34,115.26,247.8,113.13Zm12.1,21.36s4,.35,11.14-3.76C271,130.73,267.25,140.33,259.9,134.49Zm14.44-20.13a2.27,2.27,0,0,1-1.33-2.63h0a.13.13,0,0,1,0-.06,12,12,0,0,1,4.18-.51l0,0h0A2.29,2.29,0,0,1,274.34,114.36ZM268,105.54c-2.61-2.7,8.79-.37,11.89-.22a5.23,5.23,0,0,1,3.63,2.19C282.91,107.05,270.94,107.46,268,105.54Z" />
			<path class="cls-4" d="M335.79,247,333,247l6.77-17.94c-1.06-5.29-10.58-52.4-17.14-58.89a24.23,24.23,0,0,0-6-4c-9.29-4.77-23.35-8-23.35-8l0,.17L289.58,177l-4.73-13.84L278,169.8l-9.83-2.2-7.27,10.2-8.48-21.88c-7.78,3.55-20,9.63-28.53,16.39-4.48,3.54-8,7.26-9.32,10.91-5.46,14.67,11.21,67.12,22.61,84.39,2.07,3.15,6.7,4.94,12.86,5.77s13.91.7,22.18,0c2.3-.19,4.65-.44,7-.71,20.38-2.39,42.35-7.45,52.26-9.88l1.32-.33c2.59-.64,4.05-1,4.05-1l-.95-13.38Zm-23.63-.29.91-23.54,9.29,23.66Z" />
			<path class="cls-5" d="M260.77,144.6c5.47,1.4,12.84-.2,18.41-6.86" />
			<path class="cls-2" d="M291,110.75a34,34,0,0,0-3.42,8c0-.22-.4-3.68-.72-6.36l.7-.29L288,112l.88-.36,1.87-.76.14,0Z" />
			<path class="cls-5" d="M291,110.74h0l-.11,0Z" />
			<path class="cls-5" d="M243.17,107.69a1,1,0,0,0-.07.15h0A1.09,1.09,0,0,1,243.17,107.69Z" />
			<path class="cls-5" d="M287.51,110.61l-.86.34h0Z" />
			<path class="cls-2" d="M293.33,158.31,289.58,177l-4.73-13.84L278,169.8l6.33-12.75,1.09-4.38C287.08,154.77,290.62,156.58,293.33,158.31Z" />
			<path class="cls-5" d="M293.65,158.52l-.32-.21" />
			<line class="cls-5" x1="253.36" y1="72.18" x2="253.36" y2="72.17" />
			<line class="cls-5" x1="252.37" y1="155.92" x2="252.31" y2="155.77" />
			<path class="cls-2" d="M283.55,107.51c-.64-.46-12.61-.05-15.52-2-2.61-2.71,8.79-.37,11.88-.23A5.23,5.23,0,0,1,283.55,107.51Z" />
			<path class="cls-2" d="M243.1,107.84a1,1,0,0,1,.07-.15,4.11,4.11,0,0,1,.21-.42c.15-.28.3-.56.46-.83s.26-.45.41-.7h0C265,102.7,258.12,107.82,243.1,107.84Z" />
			<path class="cls-5" d="M243.17,107.69a1,1,0,0,0-.07.15h0A1.09,1.09,0,0,1,243.17,107.69Z" />
			<polyline class="cls-5" points="252.54 207.92 255.63 246 312.16 246.73" />
			<line class="cls-5" x1="333.04" y1="246.99" x2="322.35" y2="246.85" />
			<path class="cls-2" d="M278,169.8l-9.83-2.2-7.27,10.2-8.48-21.88c4.5-2,7.53-3.25,7.53-3.25l-1.09,5.84Z" />
			<path class="cls-5" d="M339.9,229.53s0-.17-.09-.48" />
			<path class="cls-6" d="M244.77,113c3.33-3.08,8.79-2.51,11.68-.74" />
			<path d="M247.79,113.13a2.12,2.12,0,0,1-.4-1.74s0-.07,0-.1a11.59,11.59,0,0,1,4-.56.25.25,0,0,1,0,.09C252.7,113.05,249.34,115.26,247.79,113.13Z" />
			<path class="cls-6" d="M270.59,112.85c2.84-1.89,8.24-2.69,11.7.25" />
			<path d="M274.34,114.36a2.29,2.29,0,0,1-1.33-2.64.13.13,0,0,1,0-.06,11.74,11.74,0,0,1,4.18-.51l0,0A2.3,2.3,0,0,1,274.34,114.36Z" />
			<path class="cls-6" d="M262.81,114.79s-1.73,13.86,4.44,11.82" />
			<path class="cls-5" d="M266.27,111.88c.39,1.42-1.21,7.47,1.63,7.28h15.47c2.6.11,1.36-4.56,1.63-6" />
			<line class="cls-5" x1="285" y1="111.59" x2="285" y2="111.51" />
			<path class="cls-5" d="M261.18,111.88c-.44,1.49,1.26,7.83-1.68,7.65H243.58c-2.92.19-1.28-6.18-1.68-7.65" />
			<path class="cls-7" d="M292.49,108.64a10.51,10.51,0,0,0-1.51,2.1h0l-.11.06-.14,0-1.87.76L288,112l-.44.18-.7.29c-.76.31-1.43.59-1.83.74v-1.59l1.65-.65h0l.86-.34.9-.36,3.64-1.43.32-.12Z" />
			<path class="cls-5" d="M286.65,110.94l.86-.33-.86.34Z" />
			<path class="cls-5" d="M291,110.74h0l-.11,0Z" />
			<path class="cls-5" d="M241.88,113.33l1.28-.34" />
			<line class="cls-5" x1="241.64" y1="111.85" x2="242.86" y2="111.47" />
			<line class="cls-5" x1="266.29" y1="113.93" x2="261.36" y2="113.93" />
			<line class="cls-5" x1="266.24" y1="114.82" x2="261.36" y2="114.82" />
			<polyline class="cls-5" points="314.2 199.68 313.07 223.18 313.07 223.19" />
			<line class="cls-5" x1="312.16" y1="246.73" x2="312.15" y2="247.02" />
			<line class="cls-5" x1="322.43" y1="247.02" x2="322.35" y2="246.85" />
			<line class="cls-5" x1="313.07" y1="223.19" x2="313.07" y2="223.18" />
			<path class="cls-8" d="M271,130.73s-3.79,9.6-11.14,3.76C259.9,134.49,263.85,134.84,271,130.73Z" />
			<path class="cls-9" d="M467.18,177.8l-106.3,4a5.45,5.45,0,0,0-5.09,3.53l-16,43.71L333,247l2.75,0,.07,1h4.56l19-9.26,6.68-.51s15.57-8.24,19.1-7.72-14,12.86-14,12.86,3.09,7.21,3.09,8.24c0,.48-2,3-4.18,5.51-.89,1-1.79,2.09-2.6,3a7.58,7.58,0,0,1-3.56,2.28h74.92a5.46,5.46,0,0,0,5.09-3.53l27.88-74.32A5,5,0,0,0,467.18,177.8ZM332.76,262.46h22.95l-18.9-1S335.35,261.82,332.76,262.46Z" />
			<path class="cls-10" d="M463.64,187.47,438.37,254.8a3.63,3.63,0,0,1-3.42,2.37h-64.8c2.16-2.53,4.18-5,4.18-5.51,0-1-3.09-8.24-3.09-8.24s17.47-12.35,14-12.86-19.1,7.72-19.1,7.72l-6.68.51-19,9.26h-.36l1.48-4.38,19.94-54.21a3.64,3.64,0,0,1,3.41-2.36l95.72-4A3.24,3.24,0,0,1,463.64,187.47Z" />
			<path class="cls-3" d="M371.24,243.42s3.09,7.21,3.09,8.24c0,.48-2,3-4.18,5.51-.89,1-1.79,2.09-2.6,3a7.58,7.58,0,0,1-3.56,2.28h-8.28l-18.9-1-.95-13.38h4.56l19-9.26,6.68-.51s15.57-8.24,19.1-7.72S371.24,243.42,371.24,243.42Z" />
			<path class="cls-5" d="M355.71,262.46l5.68.31a7.32,7.32,0,0,0,2.6-.31" />
			<path class="cls-5" d="M361.66,216.4c7.35,1.67,11.43-23.75,16.66-18.49s-1,10.29,3,16.35,8.5-16.13,16-16.72-2.41,30,1.27,33.86,10.21-28.38,16-26.15,2.66,14.71,7.46,13.32,6.45-19.22,11.44-19.22c6.26,0,3.26,10.39,4.66,13.83s3.85-8.67,8.89-7.65" />
			<circle class="cls-11" cx="376.38" cy="197.11" r="1.54" />
			<circle class="cls-11" cx="382.55" cy="214.61" r="1.54" />
			<circle class="cls-11" cx="398.99" cy="231.07" r="1.54" />
			<circle class="cls-11" cx="413.98" cy="205.06" r="1.54" />
			<rect x="351.2" y="262.46" width="90.44" height="11.32" />
			<path class="cls-9" d="M351.2,262.79v11l-72-.4v-.71c20.38-2.39,42.35-7.45,52.26-9.88Z" />
			<path class="cls-12" d="M285.66,360.45V438a60.23,60.23,0,0,0-18.57,0V360.45Z" />
			<path class="cls-12" d="M309.06,451.27h0l-.62,3a3.58,3.58,0,0,0-.15,1.25,3.86,3.86,0,0,0,.1.84H242.21c0-8.74,10.53-16.11,24.89-18.37a61,61,0,0,1,18.56,0c1.35.21,2.65.47,3.92.77a35.49,35.49,0,0,1,18.25,10.87A11.59,11.59,0,0,1,309.06,451.27Z" />
			<line class="cls-13" x1="341.34" y1="360.45" x2="340.47" y2="360.45" />
			<polyline class="cls-14" points="301.01 360.45 291.24 360.45 260.58 360.45" />
			<polygon class="cls-15" points="386.48 360.45 385.06 371.46 376.83 435.42 375.29 435.52 349.6 437.1 346.82 437.27 342.13 371.46 341.34 360.45 386.48 360.45" />
			<polygon class="cls-15" points="340.47 360.45 339.81 371.46 335.74 439.41 308.17 439.41 302.01 371.46 301.01 360.45 340.47 360.45" />
			<line class="cls-16" x1="310.04" y1="445.56" x2="309.59" y2="448.21" />
			<path class="cls-17" d="M367,471.89a4,4,0,0,1-5,2.73L316.7,461l-5.53-1.66a4.06,4.06,0,0,1-2.78-3,3.86,3.86,0,0,1-.1-.84,3.58,3.58,0,0,1,.15-1.25l.62-3h0l.53-3.06,2-8.8h22.31l10.25,8.8,21.68,19.45a4.12,4.12,0,0,1,1.23,2A4.19,4.19,0,0,1,367,471.89Z" />
			<path class="cls-17" d="M411.08,452.58a4.05,4.05,0,0,1-4.2,3.92l-47.25-1.71-5.76-.2a4,4,0,0,1-3.74-3,3.64,3.64,0,0,1-.17-1.25l.16-6.88-.53-6.4,25.7-1.58,1.55,1.77,32,11.51a4.17,4.17,0,0,1,1.69,1.64A4.08,4.08,0,0,1,411.08,452.58Z" />
			<path class="cls-5" d="M223.84,172.31s14.67,7,18.6,19.77" />
			<path class="cls-5" d="M316.71,166.14a149.65,149.65,0,0,0-1.48,19.14" />
			<polygon class="cls-17" points="301.01 360.45 340.47 360.45 339.81 371.46 302.01 371.46 301.01 360.45" />
			<polygon class="cls-17" points="386.48 360.45 385.06 371.46 342.13 371.46 341.34 360.45 386.48 360.45" />
			<rect class="cls-18" x="145.7" y="300.41" width="375.73" height="60.04" />
			<polyline class="cls-18" points="519.43 358.45 519.43 472.51 502.92 472.51 502.92 358.45" />
			<rect class="cls-1" x="132.71" y="273.4" width="389.72" height="28.02" />
			<polyline class="cls-18" points="217.92 360.47 217.92 474.53 196.66 474.53 196.66 360.47" />
			<path class="cls-19" d="M521.43,301.35v5.13H172.11a93.93,93.93,0,0,0-10.67-5.13Z" />
			<path class="cls-20" d="M285.66,360.45v18.41c-4.77-7.38-11.45-13.84-16.85-18.41Z" />
			<path class="cls-21" d="M177.68,121.69a36.19,36.19,0,0,0-1.34-19.52l-19.79-6.55a3.94,3.94,0,0,0-5.12,3.14c-1.05,6.86-2.65,19.92-1.23,28.44,0,0-2-7-7-10s-10,3-5,11c2.85,4.57-1,11-4,12a3.84,3.84,0,0,1-1.75,0,21,21,0,0,1-1,5l23.72,8.07.75-3,.59-2.35a28.41,28.41,0,0,0,10.66,2.35c8,0,11-8,10.31-13.57s2.68-4.44,3.68-7.44S177.68,121.69,177.68,121.69ZM143.2,132.2a3,3,0,1,1,3-3A3,3,0,0,1,143.2,132.2ZM173,120a2,2,0,0,1-2.77-2.77l.12-.1a0,0,0,0,1,0,0,1.6,1.6,0,0,1,.72-.37h0a1.94,1.94,0,0,1,1.9.49A2,2,0,0,1,173,120Zm-12.19-4.65c-.57-2.12,2.43-3.12,7.43-5.12s6-1,6-1S161.33,117.43,160.76,115.31Z" />
			<path class="cls-22" d="M171.14,207.3a58.11,58.11,0,0,1-1,21c-3.25,14.28-7.93,24-11.38,29.84l-.81.07.24.86,4,14.26s-4.82.11-12.3.11h-.38c-4.61,0-10.18,0-16.25-.16-22.85-.48-52.7-2.2-63.91-7.65a8.9,8.9,0,0,1-4.09-3.31c-3.67-6.83.91-29.32,7.67-51.21,6.14-19.85,13.08-31.19,18.31-37.85,5.8-7.4,16.61-11.72,25.53-14.16a21.42,21.42,0,0,0,14.7-13.93l23.72,8.07-1,4s11.82,13.65,15,18C175.6,184.07,173.33,198.38,171.14,207.3Z" />
			<path class="cls-23" d="M140.21,134.2a35.53,35.53,0,0,0,16.32,13.66" />
			<path class="cls-24" d="M176.34,102.17l-19.79-6.55a3.94,3.94,0,0,0-5.12,3.14c-1.05,6.86-2.65,19.92-1.23,28.44,0,0-2-7-7-10s-10,3-5,11c2.85,4.57-1,11-4,12a3.84,3.84,0,0,1-1.75,0c-5.75-1.08-21.23-9.6-21.23-29A39.76,39.76,0,0,1,113,99.75c4-13.46,14.56-25.25,26.33-29.26a25.65,25.65,0,0,1,10.91-1.33C169.18,71.16,185.17,87.17,176.34,102.17Z" />
			<path class="cls-24" d="M137.75,66.87A47.81,47.81,0,0,0,109.38,98c-2.34-1.7-4.42-4.7-5.15-9.83C102.47,75.89,129.11,52.43,137.75,66.87Z" />
			<path class="cls-22" d="M139.29,70.49C127.52,74.5,117,86.29,113,99.75A11,11,0,0,1,109.38,98a47.81,47.81,0,0,1,28.37-31.13A15.34,15.34,0,0,1,139.29,70.49Z" />
			<path class="cls-23" d="M118.22,201.25c-4.15,13.91-23,41-23,41l62,13,.8,2.9" />
			<path class="cls-23" d="M164.19,121.19s6-5,11-6" />
			<path class="cls-23" d="M167.44,138.37a19.93,19.93,0,0,0,7.74,1.14" />
			<path class="cls-24" d="M174.18,109.18s-12.85,8.25-13.42,6.13,2.43-3.12,7.43-5.12S174.18,109.18,174.18,109.18Z" />
			<path class="cls-15" d="M218.15,454.42l-5.1,1.35-27.88,7.39-2,.53s-9-36.38-18.19-67.8c-6.48-22.05-13.07-41.65-16.78-44.54a12.35,12.35,0,0,0-2.79-1.47c-3.53-1.43-9.3-2.9-16.3-4.57l-1.42-.34c-10.28-2.44-22.94-5.35-34.88-9.3,4.29-22.06,8.42-59.37,8.42-59.37a107.14,107.14,0,0,1-33.57-5.83,12.74,12.74,0,0,0,.6-1.36,29.06,29.06,0,0,0,1.09-3.51c3.68,1.8,9.4,3.19,16.22,4.26,3.38.53,7,1,10.83,1.37,5.16.52,10.62.94,16.09,1.25h.05c7.08.4,14.19.63,20.72.77a.78.78,0,0,0,0,.16,27.53,27.53,0,0,0,0,6.85v21.13h27.25l.95.43a89.82,89.82,0,0,1,10.31,5c5.08,3,9.49,7.13,15.42,15.51,1.68,2.37,3,13-.5,21.26,1.5,4.61,3.29,10.44,5.24,17C202.58,396.51,218.15,454.42,218.15,454.42Z" />
			<path class="cls-23" d="M117.22,295.31c18,8,60,26,65.95,38.67a100.38,100.38,0,0,1,3.5,9.61" />
			<path class="cls-15" d="M165,395.89c-2.61,5.79-5.19,11.42-7.63,16.66-7.5,16.18-13.62,28.73-14.9,31.35-.16.34-.25.51-.25.51L113.39,437l-2.16-.56,31.65-80.12,2.53-6.41a12.35,12.35,0,0,1,2.79,1.47C151.91,354.24,158.5,373.84,165,395.89Z" />
			<path class="cls-21" d="M149.89,273.41c7.48,0,12.3-.11,12.3-.11l-4.5-15.51c.19-.3.92.64,1.11.32,10-.86,27,0,30.44,15.3Z" />
			<path class="cls-18" d="M69.35,265.6a29.06,29.06,0,0,1-1.09,3.51,12.74,12.74,0,0,1-.6,1.36c-27.9-9.21-51-26.86-59.68-34.05a53.1,53.1,0,0,1,8.31-12.16C29.45,210,53.7,209,72.93,211.08c-6.76,21.89-11.34,44.38-7.67,51.21A8.9,8.9,0,0,0,69.35,265.6Z" />
			<path class="cls-12" d="M101.23,276.3s-4.13,37.31-8.42,59.37c-.11.57-.22,1.12-.33,1.67-1.6,7.94-3.22,13.56-4.63,14.11h0l-.33,0a47.26,47.26,0,0,0-7.2,0c-1.48,0-3.14.1-4.94.14-18.81.44-53.28-.4-63.46-21.8C.2,305.28-5.88,264,8,236.42c8.43,7,30.54,23.89,57.43,33.28.74.27,1.49.52,2.25.77A107.14,107.14,0,0,0,101.23,276.3Z" />
			<path class="cls-12" d="M93.41,350.78v84.88a59.37,59.37,0,0,0-18,0v-84c6.29-.15,10.82-.44,12.14-.15a.55.55,0,0,0,.33,0h0C88.62,351.36,90.61,351.13,93.41,350.78Z" />
			<path class="cls-12" d="M117.61,453.42H51.16c0-8.45,10.24-15.58,24.2-17.76a59.37,59.37,0,0,1,18,0A41.06,41.06,0,0,1,110.53,442a3.52,3.52,0,0,0,1.59,3.85l4.3,2.63A10.93,10.93,0,0,1,117.61,453.42Z" />
			<path class="cls-18" d="M127.69,345c-11.81,2.73-26.33,4.78-34.28,5.81-2.8.35-4.79.58-5.56.67,1.41-.55,3-6.17,4.63-14.11.11-.55.22-1.1.33-1.67C104.75,339.62,117.41,342.53,127.69,345Z" />
			<ellipse class="cls-10" cx="143.2" cy="129.2" rx="3" ry="3" />
			<path class="cls-25" d="M173,120a2,2,0,0,1-2.77-2.77l.13-.11a1.69,1.69,0,0,1,.74-.38,1.94,1.94,0,0,1,1.9.49A2,2,0,0,1,173,120Z" />
			<polyline class="cls-23" points="164.98 301.39 161.12 301.39 160.49 301.39" />
			<line class="cls-23" x1="133.24" y1="280.26" x2="133.24" y2="273.41" />
			<path class="cls-23" d="M171.14,207.3c-1.86-13.59-7.95-22.06-7.95-22.06" />
			<path class="cls-17" d="M240.11,470.76a3.64,3.64,0,0,1-3.64,3.64H188.81a3.64,3.64,0,0,1-3.64-3.64v-7.6l27.88-7.39,25,11.69A3.65,3.65,0,0,1,240.11,470.76Z" />
			<path class="cls-17" d="M157.06,467.05a3.54,3.54,0,0,1-5.38,3l-35.26-21.56-4.3-2.63a3.52,3.52,0,0,1-1.59-3.85,3.17,3.17,0,0,1,.41-1l2.45-4,28.81,7.44s.09-.17.25-.51l14,21.19A3.57,3.57,0,0,1,157.06,467.05Z" />
			<path class="cls-17" d="M165,395.89c-2.61,5.79-5.19,11.42-7.63,16.66-3.22-13.55-11.42-44.69-14.47-56.26l2.53-6.41a12.35,12.35,0,0,1,2.79,1.47C151.91,354.24,158.5,373.84,165,395.89Z" />
			<path class="cls-20" d="M93.41,350.78v26.84c-5.78-10-14.49-20.08-18-24v-2c6.29-.15,10.82-.44,12.14-.15a.55.55,0,0,0,.33,0h0C88.62,351.36,90.61,351.13,93.41,350.78Z" />
			<path class="cls-17" d="M129.11,344.91l-1.42-.34c-10.28-2.44-22.94-5.35-34.88-9.3,4.29-22.06,8.42-59.37,8.42-59.37a107.14,107.14,0,0,1-33.57-5.83,12.74,12.74,0,0,0,.6-1.36,29.06,29.06,0,0,0,1.09-3.51c3.68,1.8,9.4,3.19,16.22,4.26,3.38.53,7,1,10.83,1.37,5.16.52,10.62.93,16.09,1.25h.05c-.16,16.95.9,57.07,14.18,70.36C127.59,343.32,128.39,344.14,129.11,344.91Z" />
			<path class="cls-23" d="M8,236s45.79,39.38,93.25,39.88" />
			<path class="cls-24" d="M109.38,98s-34.15,20.28-34.31-2.58,9.41-12.11,9.41-12.11S55.92,73.55,68.92,63.55s17-6,17-4-10-17-1-21,24-1,22,6c0,0,9.24-19.58,15.62-7.79s2.38,10.79,2.38,10.79,13-12,17-2-4.17,21.32-4.17,21.32-19.22,7.47-26.52,17.58S109.38,98,109.38,98Z" />
			<rect class="cls-26" x="521.08" y="469.58" width="13.58" height="17.16" transform="translate(34.54 991.87) rotate(-88.33)" />
			<rect class="cls-26" x="559.13" y="471.95" width="11.32" height="18.51" transform="translate(67.35 1031.73) rotate(-88.33)" />
			<path class="cls-15" d="M584.59,254.84c-.05,1.67-.3,7.68-.7,16.7-2.33,52.13-9.5,211-9.5,211h-21l-11-74.32-4,69.31h-21l-1.51-263.82s0,0,0,0l65.16,1.9C582.15,223.74,584.86,245.71,584.59,254.84Z" />
			<path class="cls-27" d="M523.28,493.89c-4.22,4-3.43,6.18-3.51,9.24l-32.31.42s-4.34-7.74,2.6-13.93c8.36-7.44,29-4.93,29-4.93l17.15.51,0,1,.33.39a21.19,21.19,0,0,1,2,2.7C534.28,490.17,525.83,491.48,523.28,493.89Z" />
			<polyline class="cls-28" points="529.93 262.48 529.93 262.49 542.4 408.22" />
			<path class="cls-28" d="M522.87,255.1s5.93,8.42,18.08,15" />
			<path class="cls-27" d="M578.53,501.16a5.52,5.52,0,0,1-5.69,5.5l-53.41.89a16.23,16.23,0,0,1-1-4c0-.13,0-.27,0-.4.13-2.7.71-5.1,4.1-8.53.23-.24.48-.48.74-.73,1.92-1.82,7.14-3,11.43-3.86l1-.21.58-.12.89-.17.45-.09.85-.17.32-.08a151.1,151.1,0,0,1,16.54-2.6l18.49.54,0,1a19.42,19.42,0,0,1,3.93,6.3C578.31,496.21,578.54,497.11,578.53,501.16Z" />
			<path d="M538.53,489.26l-.85.18-.45.09-.89.17-.58.12-1,.21c-4.29.86-9.51,2-11.43,3.86-.26.25-.51.49-.74.73-3.39,3.43-4,5.83-4.1,8.53l-2,0c.13-2.8.67-7.84,4-11.05,3.13-2.95,10.64-4.66,16.06-5.55A22.61,22.61,0,0,1,538.53,489.26Z" />
			<path class="cls-20" d="M584.59,254.84c-.05,1.67-.3,7.68-.7,16.7-16.44-32-53.88-51.43-67.95-57.83l65.16,1.9C582.15,223.74,584.86,245.71,584.59,254.84Z" />
			<path class="cls-26" d="M550.68,52.53c7.05-6.65,4.55-15,1.81-15-2.47-.07-4,6.58-4.3,7.87,3-14.76-13-15.27-22.82-16.89S513.18,24,513.18,24a64.75,64.75,0,0,1-3,12.46c3.61-.16,7.73-.08,6.28,1.48,0,0-3.16.09-6.84.42-.12.23-.91-.26-1,0,.06.85.41,2.73.51,3.61,1,9.42,4.14,19.78,9.61,26.1,4.12,4.74,8.65,5,14,3.26.62,2.92,1.75,9.49.59,13.61-.57,2-2.5,5.71-4.89,10.93l3.09,4.11L552.42,84c-1.27-1.84-1.61-15.26-1.71-24C550.66,55.71,550.68,52.53,550.68,52.53Zm-39.26-8.47a1.75,1.75,0,0,1-1.91-1.62,1.65,1.65,0,0,1,.08-.7,7.17,7.17,0,0,1,3.11-.46,1.65,1.65,0,0,1,.33.87A1.76,1.76,0,0,1,511.42,44.06ZM520.23,63l9.9-.48C524.47,65.53,520.23,63,520.23,63Zm11.45-19.26A2.07,2.07,0,0,1,529.37,42a2.42,2.42,0,0,1,0-.66s0-.1,0-.15a8.25,8.25,0,0,1,3.58-.71,1,1,0,0,1,.12.17,1.94,1.94,0,0,1,.31.83A2.05,2.05,0,0,1,531.68,43.73ZM541.13,36c-1.63.23-3.76.49-5.88.75-4.33.51-8.63,1-8.63,1-3.11-2.2,9.59-3.54,11.86-3.91S546.13,35.3,541.13,36Z" />
			<path class="cls-29" d="M583,182.12l0,4.34-.12,30.17-68.41-2s-.23-9.72-.2-23v-.33l11.37-1.1.12,1S561.39,189.51,583,182.12Z" />
			<path class="cls-30" d="M516.78,135.18c-1.51,11.69-2.15,27.94-2.38,42.69a33.08,33.08,0,0,1-9.8,1.76c-29,.89-52.54-35.83-52.54-35.83l.42-2.91,2-14.34.17-1.21,45.59,26.4c4-27.83,17-41.36,23.42-46.47.39-.32.76-.59,1.09-.84A130,130,0,0,0,516.78,135.18Z" />
			<path class="cls-31" d="M516.78,135.18c-1.51,11.69-2.15,27.94-2.38,42.69a33.08,33.08,0,0,1-9.8,1.76c1.9-23.42,14.5-61.26,19.07-74.36.39-.32.76-.59,1.09-.84A130,130,0,0,0,516.78,135.18Z" />
			<path class="cls-29" d="M609.1,162.55c-1.81,8.75-12.94,15.08-26.08,19.57-21.63,7.39-57.26,9.15-57.26,9.15l-.12-1-1.49-12-9.81,3.36c0-1.23,0-2.47.06-3.73.23-14.75.87-31,2.38-42.69a130,130,0,0,1,8-30.75q1.23-3.09,2.4-5.75c.42-1,.85-1.93,1.26-2.83l3.09,4.11L552.42,84l.08.09c2,2.12,24.47,6.21,33.81,14.71C590.84,102.94,613.88,139.38,609.1,162.55Z" />
			<path class="cls-32" d="M520.82,42.42s-1.69,16.16,4.44,15" />
			<path class="cls-33" d="M530.13,62.51c-5.66,3-9.9.48-9.9.48Z" />
			<polyline class="cls-32" points="563.74 121.47 579.36 149.34 524.1 177.83 524.15 178.24" />
			<path class="cls-32" d="M548.19,45.37s0,0,0,0v0l0,.18" />
			<path class="cls-15" d="M516.49,38s-3.54.37-7.22.69c.33-.68.65-1.41.94-2.17C513.82,36.31,517.94,36.39,516.49,38Z" />
			<path class="cls-15" d="M561.58,49c-2.28,5.39-7.75,9.5-10.87,11.08-.05-4.33,0-7.51,0-7.51,7.05-6.65,4.55-15,1.81-15-2.47-.07-4,6.58-4.3,7.87,3-14.76-13-15.27-22.82-16.89S513.18,24,513.18,24a64.75,64.75,0,0,1-3,12.46c-.29.76-.61,1.49-.94,2.17l-.28,0h-.14l-.28,0c-.15-.68-.35-1.38-.59-2.12-2.05-6.47-6.31-15.07-.33-21,0,0-2.62-3.69-6.1-4.25s-4.63-.58-4.63-.58,4.32-2.14,6.26-2.09,5.25,6.49,5.25,6.49S526.32.05,535.32,0h.1a33.2,33.2,0,0,1,24.07,10.47C568.4,20.27,566.69,36.81,561.58,49Z" />
			<path class="cls-15" d="M541.13,36c-1.63.23-3.76.49-5.88.75-4.33.51-8.63,1-8.63,1-3.11-2.2,9.59-3.54,11.86-3.91S546.13,35.3,541.13,36Z" />
			<path class="cls-32" d="M539.26,68.65a55.28,55.28,0,0,1-6.54,2.66" />
			<path class="cls-34" d="M509.59,41.74a4.69,4.69,0,0,0-.46.21" />
			<path class="cls-34" d="M512.7,41.28a9.23,9.23,0,0,1,3.91,1.17" />
			<path class="cls-25" d="M511.42,44.06a1.75,1.75,0,0,1-1.91-1.62,1.65,1.65,0,0,1,.08-.7,7.17,7.17,0,0,1,3.11-.46,1.65,1.65,0,0,1,.33.87A1.76,1.76,0,0,1,511.42,44.06Z" />
			<path class="cls-35" d="M527.7,42.26a9.06,9.06,0,0,1,2.95-1.4,8.41,8.41,0,0,1,3.64-.14,10.63,10.63,0,0,1,4.36,1.86" />
			<path class="cls-25" d="M531.68,43.73A2.07,2.07,0,0,1,529.37,42a2.42,2.42,0,0,1,0-.66s0-.1,0-.15a8.25,8.25,0,0,1,3.58-.71,1,1,0,0,1,.12.17,1.94,1.94,0,0,1,.31.83A2.05,2.05,0,0,1,531.68,43.73Z" />
			<line class="cls-32" x1="552.43" y1="84.01" x2="552.42" y2="84.02" />
			<polyline class="cls-32" points="527.16 98.68 531.38 104.07 555.12 85.56" />
			<path class="cls-26" d="M525.64,190.24l-11.37,1.1-5,.48c-7.85,9.86-33.49,19.35-28.16,9.41s17.36-11.32,14.92-13.92-6.85-3.49-6.81-4.76S503,185.48,503,185.48l11.34-3.88,9.81-3.36Z" />
			<path class="cls-26" d="M454.49,126.55l-2,14.34-13.22-12.56-3.64-3.45c-12.58.55-36.55-12.59-25.57-15.09s19.92,5.68,20.27,2.14-1.86-7.47-.88-8.28S436.27,116,436.27,116l10.37,6Z" />
			<path class="cls-28" d="M500.25,151.74c0,.22-.07.45-.1.67" />
			<line class="cls-28" x1="505.23" y1="154.62" x2="500.25" y2="151.74" />
			<path class="cls-34" d="M512.7,41.28a5.71,5.71,0,0,0-3.11.46" />
			<path class="cls-20" d="M583,182.12l0,4.34c-12,3.91-37.54,11.89-46.58,11.89-12,0-12-5-12-5l-10.16-1.67v-.33l11.37-1.1.12,1S561.39,189.51,583,182.12Z" />
		</g>
	</g>
</svg>