<svg xmlns="http://www.w3.org/2000/svg" viewBox="0 0 602.29 272.99">
	<defs>
		<style>.cls-1{fill:#eaeaea;}.cls-2{fill:#020223;}.cls-3{opacity:0.2;}.cls-4{fill:#0f0b35;}.cls-5{fill:#1a1344;}.cls-6{fill:#201b51;}.cls-7{fill:#282660;}.cls-8{fill:none;}.cls-9{fill:#efefef;}.cls-10{fill:#373775;}.cls-11{fill:#ccc;}.cls-12{fill:#231f20;}.cls-13{fill:#00f336;}.cls-14{fill:#161717;}.cls-15{fill:#2d2e2e;}.cls-16{fill:#2f3e48;}.cls-17{fill:#3f4f5f;}</style>
	</defs>
	<g id="Layer_2" data-name="Layer 2">
		<g id="Layer_1-2" data-name="Layer 1">
			<rect class="cls-1" x="30.26" y="146.62" width="120.15" height="77.14" />
			<polygon class="cls-2" points="184.35 146.62 30.26 146.62 70.47 82.62 178.86 82.62 184.35 146.62" />
			<polygon class="cls-3" points="76.6 119.11 62.84 222.29 76.14 222.29 76.6 119.11" />
			<rect class="cls-1" x="69.93" y="125.27" width="153.4" height="98.5" />
			<polygon class="cls-4" points="429.01 74.68 275.61 74.68 283.62 31.17 422.01 31.17 429.01 74.68" />
			<polygon class="cls-4" points="266.67 125.27 69.93 125.27 121.27 43.55 259.66 43.55 266.67 125.27" />
			<polygon class="cls-5" points="367.1 57.94 213.7 57.94 233.72 14.44 360.1 14.44 367.1 57.94" />
			<polygon class="cls-6" points="290.4 3.4 213.7 57.94 367.1 57.94 290.4 3.4" />
			<polygon class="cls-3" points="221.74 223.8 203.41 223.8 212.11 57.98 221.74 57.98 221.74 223.8" />
			<rect class="cls-1" x="213.7" y="57.94" width="153.4" height="165.82" />
			<rect class="cls-3" x="213.7" y="57.94" width="153.4" height="5.64" />
			<rect class="cls-3" x="69.72" y="125.07" width="138.66" height="5.01" />
			<rect class="cls-3" x="30.26" y="146.17" width="39.46" height="5.93" />
			<polygon class="cls-7" points="433.48 0 327.16 74.22 539.81 74.22 433.48 0" />
			<rect class="cls-6" x="320.07" y="84.53" width="9.95" height="19.66" />
			<path class="cls-1" d="M330.53,104.68h-11V84h11Zm-10-1h9V85h-9Z" />
			<line class="cls-8" x1="320.07" y1="94.35" x2="330.03" y2="94.35" />
			<rect class="cls-1" x="320.07" y="93.86" width="9.95" height="1" />
			<rect class="cls-9" x="327.16" y="74.68" width="212.65" height="149.08" />
			<polygon class="cls-5" points="327.16 164.66 241.85 164.66 234.24 156.27 327.16 155.19 327.16 164.66" />
			<polygon class="cls-5" points="220.24 149.29 233.19 149.29 253.93 164.66 237.79 164.66 220.24 149.29" />
			<path class="cls-10" d="M241.85,164.66v59.1h-6.06v-35.4a15.56,15.56,0,0,0-31.11,0v35.4h-6.07v-59.1Z" />
			<polygon class="cls-7" points="220.24 149.29 198.62 164.66 241.85 164.66 220.24 149.29" />
			<rect class="cls-5" x="241.85" y="164.66" width="12.08" height="59.1" />
			<rect class="cls-6" x="272.76" y="78.32" width="15.89" height="28.08" />
			<path class="cls-1" d="M289.14,106.89H272.26V77.82h16.88Zm-15.88-1h14.88V78.82H273.26Z" />
			<line class="cls-8" x1="272.76" y1="92.35" x2="288.64" y2="92.35" />
			<rect class="cls-1" x="272.76" y="91.85" width="15.89" height="1" />
			<rect class="cls-6" x="227.13" y="84.53" width="9.95" height="19.66" />
			<path class="cls-1" d="M237.58,104.68h-11V84h11Zm-10-1h9V85h-9Z" />
			<line class="cls-8" x1="227.13" y1="94.35" x2="237.08" y2="94.35" />
			<rect class="cls-1" x="227.13" y="93.86" width="9.95" height="1" />
			<rect class="cls-6" x="400" y="134.82" width="33.36" height="41.07" />
			<path class="cls-11" d="M433.87,176.4H399.5V134.32h34.37Zm-33.37-1h32.37V135.32H400.5Z" />
			<rect class="cls-6" x="433.37" y="134.82" width="33.36" height="41.07" />
			<path class="cls-11" d="M467.23,176.4H432.87V134.32h34.36Zm-33.36-1h32.36V135.32H433.87Z" />
			<rect class="cls-6" x="400" y="176.03" width="33.36" height="41.07" />
			<path class="cls-11" d="M433.87,217.61H399.5V175.53h34.37Zm-33.37-1h32.37V176.53H400.5Z" />
			<rect class="cls-6" x="433.37" y="176.03" width="33.36" height="41.07" />
			<path class="cls-11" d="M467.23,217.61H432.87V175.53h34.36Zm-33.36-1h32.36V176.53H433.87Z" />
			<rect class="cls-6" x="347.77" y="147.93" width="23.54" height="25.78" />
			<path class="cls-12" d="M371.45,173.85H347.63V147.79h23.82Zm-23.54-.28h23.26v-25.5H347.91Z" />
			<rect class="cls-6" x="273.34" y="179.03" width="13.28" height="14.55" />
			<path class="cls-12" d="M286.7,193.66H273.25V179H286.7Zm-13.28-.16h13.12V179.11H273.42Z" />
			<rect class="cls-6" x="307.88" y="178.73" width="13.28" height="14.55" />
			<path class="cls-12" d="M321.25,193.36H307.8V178.65h13.45ZM308,193.2h13.13V178.81H308Z" />
			<rect class="cls-6" x="44.35" y="172.15" width="13.2" height="26.08" />
			<path class="cls-1" d="M58.06,198.73H43.85V171.65H58.06Zm-13.21-1H57.06V172.65H44.85Z" />
			<line class="cls-8" x1="44.35" y1="185.19" x2="57.56" y2="185.19" />
			<rect class="cls-1" x="44.35" y="184.69" width="13.21" height="1" />
			<rect class="cls-3" x="327.16" y="74.22" width="212.22" height="14.74" />
			<rect class="cls-6" x="114.08" y="155.4" width="22.16" height="25.31" />
			<path class="cls-11" d="M136.74,181.22H113.58V154.9h23.16Zm-22.16-1h21.16V155.9H114.58Z" />
			<rect class="cls-6" x="136.24" y="155.4" width="22.16" height="25.31" />
			<path class="cls-11" d="M158.89,181.22H135.74V154.9h23.15Zm-22.15-1h21.15V155.9H136.74Z" />
			<rect class="cls-6" x="114.08" y="180.8" width="22.16" height="25.31" />
			<path class="cls-11" d="M136.74,206.61H113.58V180.3h23.16Zm-22.16-1h21.16V181.3H114.58Z" />
			<rect class="cls-6" x="136.24" y="180.8" width="22.16" height="25.31" />
			<path class="cls-11" d="M158.89,206.61H135.74V180.3h23.15Zm-22.15-1h21.15V181.3H136.74Z" />
			<rect class="cls-4" y="222.57" width="602.29" height="1" />
			<path class="cls-13" d="M336.94,239.37l109.05-1,2.24,0,97.27-.85q-1.34-4.62-2.66-9.22l-1.86-6.4c-1.29-4.46-2.37-13.14-4.82-18.65a11.36,11.36,0,0,0-2.46-3.76c-3.67-3.38-11.29-2-16.14-2H371.08c-.7,0-6.85-.61-7.24,0l-3.71,5.77c-4.13,6.44-10.92,17-16.09,25.05C340,234.62,336.94,239.37,336.94,239.37Z" />
			<path class="cls-13" d="M298.47,241.58V246a13.27,13.27,0,0,0,13.27,13.27H555.23A13.26,13.26,0,0,0,568.49,246v-4.42a13.26,13.26,0,0,0-13.26-13.27H311.74A13.27,13.27,0,0,0,298.47,241.58Z" />
			<path class="cls-13" d="M304,246.74H563a9,9,0,0,1,9,9v0a3.13,3.13,0,0,1-3.13,3.13H298.07a3.13,3.13,0,0,1-3.13-3.13v0a9,9,0,0,1,9-9Z" transform="translate(866.97 505.64) rotate(-180)" />
			<path class="cls-12" d="M512.55,259.27a1.59,1.59,0,0,0,1,.33h2.55s0,.07,0,.1h.8c-.05.26-.09.53-.12.79h22.58a7.14,7.14,0,0,0-.11-.79h.8s0-.07,0-.1h2.55a1.62,1.62,0,0,0,1.57-2v0a16.69,16.69,0,0,0-1.38-3.45,3.24,3.24,0,0,0-.17-.32c-.09-.16-.18-.32-.28-.47a16.66,16.66,0,0,0-28.5,0l-.28.47c-.06.1-.11.21-.17.32a16.09,16.09,0,0,0-1.36,3.45v0A1.59,1.59,0,0,0,512.55,259.27Z" />
			<path class="cls-14" d="M516.69,261.65a11.35,11.35,0,1,0,22.69-.35q0-.41-.06-.81a7.14,7.14,0,0,0-.11-.79c0-.08,0-.16,0-.24s0-.12,0-.19a11.28,11.28,0,0,0-2.67-5.22,9.93,9.93,0,0,0-.72-.73,11.34,11.34,0,0,0-15.41,0c-.25.23-.49.47-.73.73a11.36,11.36,0,0,0-2.66,5.22c0,.07,0,.13,0,.19a2,2,0,0,0,0,.24c-.05.26-.09.53-.12.79S516.69,261.25,516.69,261.65Z" />
			<circle class="cls-15" cx="528.03" cy="261.64" r="5.92" />
			<path class="cls-12" d="M315.31,258.7a1.59,1.59,0,0,0,1,.33h2.55a.36.36,0,0,1,0,.1h.8a7.14,7.14,0,0,0-.11.79h22.57a7.14,7.14,0,0,0-.11-.79h.8s0-.07,0-.1h2.55a1.62,1.62,0,0,0,1.57-2v0a16.69,16.69,0,0,0-1.38-3.45,3.24,3.24,0,0,0-.17-.32l-.27-.47a16.67,16.67,0,0,0-28.51,0l-.28.47-.17.32a16.09,16.09,0,0,0-1.36,3.45v0A1.59,1.59,0,0,0,315.31,258.7Z" />
			<path class="cls-14" d="M319.45,261.08a11.35,11.35,0,1,0,22.69-.35q0-.41-.06-.81a7.14,7.14,0,0,0-.11-.79c0-.08,0-.16,0-.24s0-.12,0-.19a11.28,11.28,0,0,0-2.67-5.22,9.93,9.93,0,0,0-.72-.73,11.34,11.34,0,0,0-15.41,0,9.93,9.93,0,0,0-.72.73,11.28,11.28,0,0,0-2.67,5.22c0,.07,0,.13,0,.19a2,2,0,0,0,0,.24,7.14,7.14,0,0,0-.11.79A11,11,0,0,0,319.45,261.08Z" />
			<circle class="cls-15" cx="330.79" cy="261.07" r="5.92" />
			<path class="cls-16" d="M349.1,228.31H537.77c-.19-.71-.39-1.43-.59-2.14-.39-1.42-.77-2.84-1.16-4.26-.54-1.94-1-4.68-1.62-7.62a60.47,60.47,0,0,0-3-11H364.37c-1.36,2.25-3,5-4.83,8l-6.32,10.35-3.86,6.34Z" />
			<polygon class="cls-13" points="486.73 199.39 488.28 207.35 492.37 228.31 493.83 235.8 498.53 234.89 497.25 228.31 494.7 215.29 491.42 198.48 486.73 199.39" />
			<rect class="cls-13" x="456.33" y="197.86" width="4.79" height="37.09" />
			<rect class="cls-13" x="386.68" y="198.96" width="4.79" height="37.09" />
			<path class="cls-17" d="M525.48,203.26l8.92,11a60.47,60.47,0,0,0-3-11Z" />
			<path class="cls-17" d="M500.69,203.26,521,228.31h16.81c-.19-.71-.39-1.43-.59-2.14l-18.53-22.91Z" />
			<polygon class="cls-17" points="469.61 228.31 461.12 217.83 461.12 225.93 463.05 228.31 469.61 228.31" />
			<polygon class="cls-17" points="442.79 203.26 456.33 220.01 456.33 211.91 449.34 203.26 442.79 203.26" />
			<polygon class="cls-17" points="462.18 203.26 482.44 228.31 487.16 228.31 466.89 203.26 462.18 203.26" />
			<polygon class="cls-17" points="494.7 215.29 497.25 228.31 505.24 228.31 494.7 215.29" />
			<polygon class="cls-17" points="471.87 203.26 492.13 228.31 492.37 228.31 488.28 207.35 484.97 203.26 471.87 203.26" />
			<polygon class="cls-17" points="417.56 203.26 437.83 228.31 449.68 228.31 429.41 203.26 417.56 203.26" />
			<polygon class="cls-17" points="394.34 203.26 391.48 203.26 391.48 210.27 406.07 228.31 414.6 228.31 394.34 203.26" />
			<polygon class="cls-17" points="385.81 203.26 386.69 204.35 386.69 203.26 385.81 203.26" />
			<polygon class="cls-17" points="397.07 228.31 391.48 221.4 391.48 228.31 397.07 228.31" />
			<path class="cls-17" d="M359.54,211.21l13.83,17.1h13.31V215.47l-9.88-12.21H364.37C363,205.51,361.34,208.25,359.54,211.21Z" />
			<path class="cls-17" d="M349.36,227.9l.34.41h9l-5.46-6.75Z" />
		</g>
	</g>
</svg>