<svg xmlns="http://www.w3.org/2000/svg" viewBox="0 0 512.76 262.61">
	<defs>
		<style>.cls-1{fill:#1a1344;}.cls-2{fill:#ccc;}.cls-3{fill:#eaeaea;}.cls-4{fill:#231f20;}.cls-5{fill:#ffc609;}.cls-6{fill:#161717;}.cls-7{fill:#2d2e2e;}.cls-8{fill:#2c2b4c;}.cls-9{fill:#636464;}</style>
	</defs>
	<g id="Layer_2" data-name="Layer 2">
		<g id="Layer_1-2" data-name="Layer 1">
			<rect class="cls-1" x="49.3" y="110.12" width="4.28" height="97.14" />
			<circle class="cls-1" cx="51.43" cy="111.92" r="25.91" />
			<polygon class="cls-2" points="218.86 82.75 427.86 82.75 362.44 0 153.44 0 218.86 82.75" />
			<polygon class="cls-1" points="297.82 82.75 88.82 82.75 154.23 0 363.23 0 297.82 82.75" />
			<rect class="cls-2" x="298.08" y="82.46" width="129.78" height="125.38" />
			<rect class="cls-3" x="88.82" y="82.46" width="209.26" height="125.38" />
			<rect class="cls-1" x="108.87" y="131.16" width="26.99" height="26.99" />
			<rect class="cls-1" x="223.79" y="131.65" width="26.99" height="26.99" />
			<rect class="cls-1" x="360.94" y="131.16" width="26.99" height="26.99" />
			<rect class="cls-1" x="158.14" y="123.02" width="43.08" height="84.82" />
			<rect class="cls-2" x="374.43" y="5.5" width="16.75" height="31.8" />
			<rect class="cls-1" x="443.39" y="70.11" width="5.59" height="137.08" />
			<circle class="cls-1" cx="446.18" cy="51.48" r="41.05" />
			<rect class="cls-4" y="206.24" width="512.76" height="1" transform="translate(-0.81 1) rotate(-0.22)" />
			<path class="cls-5" d="M221.23,222.73l-2.75,22L54.27,248.36V218a4.16,4.16,0,0,1,4-4.16l3.83-.15a5.84,5.84,0,0,0,5-3.22l12.24-24.51h0a9.52,9.52,0,0,1,8.52-5.27h79.1a8.78,8.78,0,0,1,8,5.27h0l12,27.59.2.45h23.66C218.43,214.12,221.81,218.07,221.23,222.73Z" />
			<rect class="cls-4" x="52.44" y="243.11" width="169.03" height="5.62" rx="2.81" />
			<path class="cls-4" d="M210.66,248.15a1.72,1.72,0,0,1-1,.34h-2.69s0,.08,0,.11h-.84c0,.28.09.55.12.83h-23.8c0-.28.07-.55.12-.83h-.84s0-.07,0-.11H179a1.71,1.71,0,0,1-1.65-2.13,0,0,0,0,0,0,0,17,17,0,0,1,1.45-3.65c.05-.11.12-.22.18-.34l.29-.49a17.57,17.57,0,0,1,30.05,0l.29.49.18.34a17,17,0,0,1,1.44,3.65h0A1.68,1.68,0,0,1,210.66,248.15Z" />
			<path class="cls-6" d="M206.3,250.65a12,12,0,1,1-23.92-.37c0-.28,0-.56.06-.85s.07-.55.12-.83a2.34,2.34,0,0,1,0-.26c0-.06,0-.12,0-.19a12.07,12.07,0,0,1,2.81-5.51c.25-.27.5-.52.77-.77a12,12,0,0,1,16.24,0c.27.25.52.5.76.77a12,12,0,0,1,2.82,5.51,1.06,1.06,0,0,0,0,.19c0,.09,0,.17,0,.26,0,.28.09.55.12.83S206.3,250.24,206.3,250.65Z" />
			<circle class="cls-7" cx="194.34" cy="250.65" r="6.24" />
			<path class="cls-4" d="M98.58,247.75a1.77,1.77,0,0,1-1,.34H94.85a.43.43,0,0,1,0,.11H94a7.86,7.86,0,0,1,.11.83H70.36a7.86,7.86,0,0,1,.11-.83h-.84s0-.07,0-.11H67a1.72,1.72,0,0,1-1-.34A1.69,1.69,0,0,1,65.3,246a0,0,0,0,0,0,0,17,17,0,0,1,1.45-3.65l.18-.34.29-.49a17.57,17.57,0,0,1,30.05,0l.29.49.18.34A17,17,0,0,1,99.19,246a0,0,0,0,1,0,0A1.68,1.68,0,0,1,98.58,247.75Z" />
			<path class="cls-6" d="M94.22,250.25a12,12,0,1,1-23.92-.37,8.29,8.29,0,0,1,.06-.85,7.86,7.86,0,0,1,.11-.83,2.38,2.38,0,0,1,0-.26,1.29,1.29,0,0,1,0-.19,11.88,11.88,0,0,1,2.81-5.51c.24-.27.49-.52.76-.77a12,12,0,0,1,16.25,0c.26.25.52.5.76.77A12.07,12.07,0,0,1,94,247.75c0,.06,0,.13,0,.19s0,.17.05.26a7.86,7.86,0,0,1,.11.83C94.19,249.44,94.22,249.84,94.22,250.25Z" />
			<circle class="cls-7" cx="82.25" cy="250.25" r="6.24" />
			<path class="cls-1" d="M101.77,185.92v27.59H77.3l6.11-15.19A19.8,19.8,0,0,1,101.77,185.92Z" />
			<rect class="cls-1" x="105.09" y="185.92" width="37.23" height="27.59" />
			<path class="cls-1" d="M175.22,213.51H145.64V185.92h7.7a17.23,17.23,0,0,1,14.31,7.66,16.82,16.82,0,0,1,1.92,3.84l5.25,15Z" />
			<path class="cls-8" d="M101.77,185.92v4.75L78.93,213.51H77.3l6.11-15.19C87.79,187.66,93.69,185.92,101.77,185.92Z" />
			<polygon class="cls-8" points="106.52 185.92 105.09 187.35 105.09 185.92 106.52 185.92" />
			<polygon class="cls-8" points="92.37 213.51 101.77 204.11 101.77 209.58 97.84 213.51 92.37 213.51" />
			<polygon class="cls-8" points="125.43 185.92 105.09 206.26 105.09 200.79 119.96 185.92 125.43 185.92" />
			<polygon class="cls-8" points="134.31 185.92 142.32 185.92 142.32 194.31 123.12 213.51 106.73 213.51 134.31 185.92" />
			<polygon class="cls-8" points="150.71 185.92 145.64 190.99 145.64 185.92 150.71 185.92" />
			<polygon class="cls-8" points="138.16 213.51 142.32 209.35 142.32 213.51 138.16 213.51" />
			<path class="cls-8" d="M167.65,193.58l-19.93,19.93h-2.08V206l17.22-17.22A17,17,0,0,1,167.65,193.58Z" />
			<polygon class="cls-9" points="175.22 213.51 173.69 213.51 174.82 212.37 175.22 213.51" />
		</g>
	</g>
</svg>