<svg xmlns="http://www.w3.org/2000/svg" viewBox="0 0 625.99 359.53">
	<defs>
		<style>.cls-1{fill:#1a1344;}.cls-2{fill:#ccc;}.cls-3{fill:#eaeaea;}.cls-4{fill:#231f20;}.cls-5{fill:#fff;}.cls-6{fill:#e0e0e0;}.cls-7{fill:#ffc609;}.cls-8{fill:#161717;}.cls-9{fill:#2d2e2e;}.cls-10{fill:#748a96;}.cls-11{fill:#3f4f5f;}.cls-12{fill:#3a3a3a;}.cls-13{fill:#d8192b;}.cls-14{fill:#4a1611;}.cls-15{fill:#311111;}.cls-16{fill:none;}.cls-17{opacity:0.75;}</style>
	</defs>
	<g id="Layer_2" data-name="Layer 2">
		<g id="Layer_1-2" data-name="Layer 1">
			<rect class="cls-1" x="573.04" y="200.68" width="2.93" height="28.4" />
			<circle class="cls-1" cx="574.5" cy="196.82" r="14.34" />
			<polygon class="cls-2" points="121.62 41.17 225.59 41.17 193.05 0 89.08 0 121.62 41.17" />
			<polygon class="cls-1" points="160.9 41.17 56.92 41.17 89.47 0 193.44 0 160.9 41.17" />
			<rect class="cls-2" x="161.13" y="41.02" width="64.56" height="187.66" />
			<rect class="cls-3" x="57.11" y="41.02" width="104.1" height="187.66" />
			<rect class="cls-2" x="199.01" y="2.73" width="8.34" height="15.82" />
			<rect class="cls-1" x="64.24" y="52.23" width="90.03" height="10.32" />
			<rect class="cls-1" x="64.24" y="68.55" width="90.03" height="10.32" />
			<rect class="cls-1" x="64.24" y="84.87" width="90.03" height="10.32" />
			<rect class="cls-1" x="64.24" y="101.19" width="90.03" height="10.32" />
			<rect class="cls-1" x="64.24" y="117.5" width="90.03" height="10.32" />
			<rect class="cls-1" x="64.24" y="133.82" width="90.03" height="10.32" />
			<rect class="cls-1" x="64.24" y="150.14" width="90.03" height="10.32" />
			<rect class="cls-1" x="64.24" y="166.46" width="90.03" height="10.32" />
			<rect class="cls-1" x="64.24" y="182.78" width="9.63" height="10.32" />
			<rect class="cls-1" x="144.49" y="182.78" width="9.63" height="10.32" />
			<rect class="cls-1" x="64.31" y="199.1" width="9.63" height="10.32" />
			<rect class="cls-1" x="144.57" y="199.1" width="9.63" height="10.32" />
			<rect class="cls-1" x="99.23" y="199.1" width="19.86" height="29.58" />
			<rect class="cls-1" x="188.72" y="52.23" width="9.63" height="10.32" />
			<rect class="cls-1" x="188.8" y="68.55" width="9.63" height="10.32" />
			<rect class="cls-1" x="188.8" y="84.87" width="9.63" height="10.32" />
			<rect class="cls-1" x="188.76" y="101.19" width="9.63" height="10.32" />
			<rect class="cls-1" x="188.83" y="117.5" width="9.63" height="10.32" />
			<rect class="cls-1" x="188.83" y="133.82" width="9.63" height="10.32" />
			<rect class="cls-1" x="188.36" y="150.14" width="9.63" height="10.32" />
			<rect class="cls-1" x="188.43" y="166.46" width="9.63" height="10.32" />
			<rect class="cls-1" x="188.43" y="182.78" width="9.63" height="10.32" />
			<rect class="cls-1" x="188.72" y="199.1" width="9.63" height="10.32" />
			<polygon class="cls-2" points="247.96 41.33 351.94 41.33 319.39 0.16 215.42 0.16 247.96 41.33" />
			<polygon class="cls-1" points="287.24 41.33 183.27 41.33 215.81 0.16 319.79 0.16 287.24 41.33" />
			<rect class="cls-2" x="287.48" y="41.18" width="64.56" height="187.66" />
			<rect class="cls-3" x="183.45" y="41.18" width="104.1" height="187.66" />
			<rect class="cls-2" x="325.36" y="2.9" width="8.34" height="15.82" />
			<rect class="cls-1" x="190.58" y="52.39" width="90.03" height="10.32" />
			<rect class="cls-1" x="190.58" y="68.71" width="90.03" height="10.32" />
			<rect class="cls-1" x="190.58" y="85.03" width="90.03" height="10.32" />
			<rect class="cls-1" x="190.58" y="101.35" width="90.03" height="10.32" />
			<rect class="cls-1" x="190.58" y="117.67" width="90.03" height="10.32" />
			<rect class="cls-1" x="190.58" y="133.99" width="90.03" height="10.32" />
			<rect class="cls-1" x="190.58" y="150.3" width="90.03" height="10.32" />
			<rect class="cls-1" x="190.58" y="166.62" width="90.03" height="10.32" />
			<rect class="cls-1" x="190.58" y="182.94" width="9.63" height="10.32" />
			<rect class="cls-1" x="270.84" y="182.94" width="9.63" height="10.32" />
			<rect class="cls-1" x="190.65" y="199.26" width="9.63" height="10.32" />
			<rect class="cls-1" x="270.91" y="199.26" width="9.63" height="10.32" />
			<rect class="cls-1" x="225.58" y="199.26" width="19.86" height="29.58" />
			<rect class="cls-1" x="315.07" y="52.39" width="9.63" height="10.32" />
			<rect class="cls-1" x="315.14" y="68.71" width="9.63" height="10.32" />
			<rect class="cls-1" x="315.14" y="85.03" width="9.63" height="10.32" />
			<rect class="cls-1" x="315.11" y="101.35" width="9.63" height="10.32" />
			<rect class="cls-1" x="315.18" y="117.67" width="9.63" height="10.32" />
			<rect class="cls-1" x="315.18" y="133.99" width="9.63" height="10.32" />
			<rect class="cls-1" x="314.7" y="150.3" width="9.63" height="10.32" />
			<rect class="cls-1" x="314.78" y="166.62" width="9.63" height="10.32" />
			<rect class="cls-1" x="314.78" y="182.94" width="9.63" height="10.32" />
			<rect class="cls-1" x="315.07" y="199.26" width="9.63" height="10.32" />
			<polygon class="cls-2" points="368.91 194.34 426.29 194.34 408.33 171.62 350.95 171.62 368.91 194.34" />
			<polygon class="cls-1" points="390.59 194.34 333.21 194.34 351.17 171.62 408.55 171.62 390.59 194.34" />
			<rect class="cls-2" x="390.66" y="194.26" width="35.63" height="34.42" />
			<rect class="cls-3" x="333.21" y="194.26" width="57.45" height="34.42" />
			<rect class="cls-1" x="338.72" y="207.63" width="7.41" height="7.41" />
			<rect class="cls-1" x="370.27" y="207.76" width="7.41" height="7.41" />
			<rect class="cls-4" x="407.92" y="207.63" width="7.41" height="7.41" />
			<rect class="cls-1" x="352.25" y="205.39" width="11.83" height="23.28" />
			<rect class="cls-2" x="411.62" y="173.13" width="4.6" height="8.73" />
			<polygon class="cls-2" points="436.82 194.34 494.2 194.34 476.24 171.62 418.86 171.62 436.82 194.34" />
			<polygon class="cls-1" points="458.5 194.34 401.12 194.34 419.08 171.62 476.46 171.62 458.5 194.34" />
			<rect class="cls-2" x="458.57" y="194.26" width="35.63" height="34.42" />
			<rect class="cls-3" x="401.12" y="194.26" width="57.45" height="34.42" />
			<rect class="cls-1" x="406.63" y="207.63" width="7.41" height="7.41" />
			<rect class="cls-1" x="438.17" y="207.76" width="7.41" height="7.41" />
			<rect class="cls-4" x="475.83" y="207.63" width="7.41" height="7.41" />
			<rect class="cls-1" x="420.15" y="205.39" width="11.83" height="23.28" />
			<rect class="cls-2" x="479.53" y="173.13" width="4.6" height="8.73" />
			<polygon class="cls-2" points="504.73 194.34 562.11 194.34 544.15 171.62 486.77 171.62 504.73 194.34" />
			<polygon class="cls-1" points="526.4 194.34 469.03 194.34 486.99 171.62 544.36 171.62 526.4 194.34" />
			<rect class="cls-2" x="526.48" y="194.26" width="35.63" height="34.42" />
			<rect class="cls-3" x="469.03" y="194.26" width="57.45" height="34.42" />
			<rect class="cls-1" x="474.53" y="207.63" width="7.41" height="7.41" />
			<rect class="cls-1" x="506.08" y="207.76" width="7.41" height="7.41" />
			<rect class="cls-1" x="543.73" y="207.63" width="7.41" height="7.41" />
			<rect class="cls-1" x="488.06" y="205.39" width="11.83" height="23.28" />
			<rect class="cls-2" x="547.44" y="173.13" width="4.6" height="8.73" />
			<rect class="cls-5" y="291.01" width="50" height="5" />
			<path class="cls-5" d="M523.39,296H418.19v-5h105.2Zm-157.8,0H260.39v-5h105.2ZM207.8,296H102.6v-5H207.8Z" />
			<rect class="cls-5" x="575.99" y="291.01" width="50" height="5" />
			<rect class="cls-4" y="228.18" width="625.99" height="1" />
			<path class="cls-6" d="M490.78,223.11h19.1l-1.75-6.85a2.76,2.76,0,0,0-2.67-2.06H495.2a2.75,2.75,0,0,0-2.66,2.06Z" />
			<path class="cls-7" d="M424.26,254.43l2.2,17.63L558,275V250.61a3.33,3.33,0,0,0-3.19-3.33l-3.07-.13a4.65,4.65,0,0,1-4-2.57l-9.8-19.64h0a7.63,7.63,0,0,0-6.82-4.22H467.76a7,7,0,0,0-6.44,4.22h0L451.69,247l-.16.37H432.58C426.5,247.53,423.8,250.69,424.26,254.43Z" />
			<rect class="cls-4" x="424.07" y="270.75" width="135.39" height="4.5" rx="2.25" transform="translate(983.53 546.01) rotate(180)" />
			<path class="cls-4" d="M432.73,274.79a1.35,1.35,0,0,0,.83.27h2.15s0,.06,0,.09h.67c0,.22-.07.44-.09.67h19.06c0-.23-.05-.45-.09-.67h.67s0-.06,0-.09h2.15a1.4,1.4,0,0,0,.83-.27,1.35,1.35,0,0,0,.5-1.43h0a13.47,13.47,0,0,0-1.16-2.92c0-.09-.09-.18-.14-.27l-.23-.4a14.08,14.08,0,0,0-24.08,0l-.23.4c0,.09-.1.18-.14.27a14,14,0,0,0-1.16,2.92h0A1.34,1.34,0,0,0,432.73,274.79Z" />
			<path class="cls-8" d="M436.22,276.79a9.58,9.58,0,1,0,19.16-.29c0-.23,0-.45-.05-.68s-.05-.45-.09-.67a1.18,1.18,0,0,0,0-.2l0-.16a9.62,9.62,0,0,0-2.25-4.41c-.2-.22-.4-.42-.61-.62a9.57,9.57,0,0,0-13,0c-.22.2-.42.4-.62.62a9.72,9.72,0,0,0-2.25,4.41l0,.16c0,.06,0,.13,0,.2,0,.22-.07.44-.09.67S436.22,276.46,436.22,276.79Z" />
			<circle class="cls-9" cx="445.8" cy="276.79" r="5" />
			<path class="cls-4" d="M522.51,274.47a1.34,1.34,0,0,0,.82.27h2.16s0,.06,0,.09h.67c0,.22-.07.44-.09.67h19.06c0-.23-.05-.45-.09-.67h.67s0-.06,0-.09h2.15a1.37,1.37,0,0,0,1.33-1.7h0a13.47,13.47,0,0,0-1.16-2.92l-.15-.27c-.07-.14-.15-.27-.23-.4a14.07,14.07,0,0,0-24.07,0l-.23.4c0,.09-.1.18-.14.27A14,14,0,0,0,522,273h0A1.34,1.34,0,0,0,522.51,274.47Z" />
			<path class="cls-8" d="M526,276.47a9.58,9.58,0,1,0,19.16-.29c0-.23,0-.45,0-.68s-.05-.45-.09-.67a1.18,1.18,0,0,0,0-.2l0-.16a9.57,9.57,0,0,0-2.25-4.41c-.2-.22-.4-.42-.61-.62a9.58,9.58,0,0,0-13,0c-.21.2-.41.4-.61.62a9.57,9.57,0,0,0-2.25,4.41l0,.16c0,.06,0,.13,0,.2,0,.22-.07.44-.09.67S526,276.14,526,276.47Z" />
			<circle class="cls-9" cx="535.58" cy="276.47" r="5" />
			<path class="cls-10" d="M520,224.94V247h19.6l-4.9-12.17A15.84,15.84,0,0,0,520,224.94Z" />
			<rect class="cls-10" x="487.47" y="224.94" width="29.82" height="22.1" />
			<path class="cls-10" d="M461.11,247h23.7v-22.1h-6.17a13.77,13.77,0,0,0-7.63,2.31,13.84,13.84,0,0,0-5.37,6.91l-4.21,12Z" />
			<path class="cls-11" d="M520,224.94v3.81L538.24,247h1.31l-4.9-12.17C531.15,226.34,526.42,224.94,520,224.94Z" />
			<polygon class="cls-11" points="516.15 224.94 517.29 226.09 517.29 224.94 516.15 224.94" />
			<polygon class="cls-11" points="527.48 247.04 519.95 239.52 519.95 243.9 523.1 247.04 527.48 247.04" />
			<polygon class="cls-11" points="501 224.94 517.29 241.24 517.29 236.86 505.38 224.94 501 224.94" />
			<polygon class="cls-11" points="493.88 224.94 487.47 224.94 487.47 231.67 502.85 247.04 515.98 247.04 493.88 224.94" />
			<polygon class="cls-11" points="480.75 224.94 484.81 229.01 484.81 224.94 480.75 224.94" />
			<polygon class="cls-11" points="490.8 247.04 487.47 243.71 487.47 247.04 490.8 247.04" />
			<path class="cls-11" d="M467.18,231.08l16,16h1.67v-6L471,227.25A13.56,13.56,0,0,0,467.18,231.08Z" />
			<polygon class="cls-11" points="461.12 247.04 462.34 247.04 461.43 246.13 461.12 247.04" />
			<path class="cls-12" d="M496.08,216.19v.48h.79V219h.49v-2.29h.8v-.48Z" />
			<path class="cls-12" d="M500.17,216.19h-.51L498.5,219H499l.27-.65h1.21l.27.65h.54Zm-.64,1.62.36-.86,0-.07.39.93Z" />
			<path class="cls-12" d="M503.17,217.51l.81-1.32h-.59l-.52.84-.53-.84h-.59l.82,1.32-.9,1.45h.58l.62-1,.62,1h.58Z" />
			<path class="cls-12" d="M504.67,216.19V219h.5v-2.77Z" />
			<path class="cls-13" d="M126.72,301.31c0,6.33.55,17.45,1.66,23.71.64,3.62,3.84,15.27,4.13,16.14l187.85.33s.07-1.12.11-3,0-4.52-.07-7.47c-.08-2-.22-4.12-.45-6.26a53.42,53.42,0,0,0-1.44-8.12c-.62-2.28-1.42-9.11-2.47-10.68-4.3-6.48-18.5-9.74-25-10.93-2-.37-10.78-1.3-10.78-1.3h0L257,268.07l-3.64-4a4.86,4.86,0,0,0-3.63-1.48H137c-.59,0-1.5,1.58-2.54,4.15a139.75,139.75,0,0,0-7.06,27A52.33,52.33,0,0,0,126.72,301.31Z" />
			<rect class="cls-14" x="219.06" y="266.73" width="0.48" height="73.06" />
			<polygon class="cls-14" points="174.64 336.82 174.15 336.82 174.16 311.62 178.48 297.15 178.94 297.29 174.64 311.72 174.64 336.82" />
			<path class="cls-4" d="M125.56,327h18.37a9.26,9.26,0,0,1,9.26,9.26v0a5.28,5.28,0,0,1-5.28,5.28H125.56a0,0,0,0,1,0,0V327A0,0,0,0,1,125.56,327Z" transform="translate(278.75 668.51) rotate(-180)" />
			<path class="cls-4" d="M300.37,342.12h19.26c2.61,0,4.55-1.09,5.41-3.62a11.34,11.34,0,0,0-1.51-10.11c-2.16-3-5.82-3.93-9.36-3.39-2.24.33-4.46.74-6.69,1.11l-7.11,1.2Z" />
			<rect class="cls-4" x="176.08" y="337.14" width="103.91" height="4.5" transform="translate(456.07 678.78) rotate(-180)" />
			<path class="cls-15" d="M309.17,342.13,307.34,334a12.12,12.12,0,0,0-6.66-8.24,10.09,10.09,0,0,0-4.29-1H285c-4.66,0-8.88,3.37-10.43,9.25L273,341.66l25,.4,3.93.07Z" />
			<path class="cls-4" d="M306.15,344.28a15.25,15.25,0,1,1-30.49-.47,9.81,9.81,0,0,1,.08-1.08c0-.36.08-.71.14-1.06l.06-.33c0-.08,0-.16.05-.25a15.32,15.32,0,0,1,3.58-7c.31-.34.64-.67,1-1a15.24,15.24,0,0,1,20.71,0c.33.31.66.64,1,1a15.32,15.32,0,0,1,3.58,7c0,.09,0,.17.05.25a1.91,1.91,0,0,1,.06.33,9.32,9.32,0,0,1,.15,1.06C306.12,343.24,306.15,343.76,306.15,344.28Z" />
			<circle class="cls-9" cx="290.9" cy="344.28" r="7.95" />
			<path class="cls-15" d="M141.59,341.62h36.16L176,333.7c-1.17-5.45-6.28-9.25-10.95-9.25H153.74c-4.67,0-9.26,3.8-10.44,9.25Z" />
			<path class="cls-4" d="M174.86,344a15.25,15.25,0,1,1-30.5-.46c0-.36,0-.72.08-1.08a9.5,9.5,0,0,1,.15-1.07c0-.11,0-.21,0-.32s0-.17.05-.25a15.2,15.2,0,0,1,3.59-7c.31-.35.63-.67,1-1a15.26,15.26,0,0,1,20.71,0c.34.32.66.64,1,1a15.29,15.29,0,0,1,3.59,7c0,.08,0,.16,0,.25l.06.32c.06.35.11.71.15,1.07S174.86,343.45,174.86,344Z" />
			<circle class="cls-9" cx="159.61" cy="343.97" r="7.95" />
			<line class="cls-16" x1="184.91" y1="293.96" x2="191.03" y2="266.43" />
			<path class="cls-4" d="M255.34,269.34A15.83,15.83,0,0,0,259,279.4l10.76,13.12a3.8,3.8,0,0,0,2.94,1.39H280l-7.57-8.42-16.84-18.76a14.59,14.59,0,0,0-.19,1.72C255.35,268.75,255.34,269,255.34,269.34Z" />
			<path class="cls-4" d="M222.75,266.73v27.2h13l24.45,0h1.26a2.33,2.33,0,0,0,1.84-3.77l-14-17.91A14.43,14.43,0,0,0,238,266.73Z" />
			<path class="cls-4" d="M186,294h29.67v-27.2l-7.17-.08-11.4-.13-4.79,0a5,5,0,0,0-4.58,2.9,4.46,4.46,0,0,0-.31.89L186,275.82l-1.55,6.28-1.86,7.57A3.46,3.46,0,0,0,186,294Z" />
			<path class="cls-4" d="M127.4,294h35.38a5.09,5.09,0,0,0,4.94-3.89l1.71-7.08,3.11-12.87.17-.71a2.85,2.85,0,0,0-2.85-3.52l-1.52,0-15.6.37-18.28.44s0,0,0,.05a91.76,91.76,0,0,0-4.2,13.33q-.35,1.38-.66,2.79c-.5,2.15-1,4.33-1.37,6.45C127.91,291,127.63,292.52,127.4,294Z" />
			<g class="cls-17">
				<polygon class="cls-15" points="222.75 266.73 222.75 280.92 235.76 293.94 260.21 293.96 232.98 266.73 222.75 266.73" />
				<polygon class="cls-15" points="208.48 266.65 215.65 273.83 215.65 266.73 208.48 266.65" />
				<path class="cls-15" d="M134.44,266.82,161.62,294h1.16a5.09,5.09,0,0,0,4.94-3.89l1.71-7.08-16.69-16.7-18.28.44S134.45,266.8,134.44,266.82Z" />
				<path class="cls-15" d="M127.4,294h5.41l-4.6-4.61C127.91,291,127.63,292.52,127.4,294Z" />
				<polygon class="cls-15" points="224.48 293.93 222.75 292.19 222.75 293.93 224.48 293.93" />
				<path class="cls-15" d="M187.71,269.37l24.56,24.56h3.38V285.1l-18.57-18.58-4.79,0A5,5,0,0,0,187.71,269.37Z" />
				<polygon class="cls-15" points="184.48 282.1 196.32 293.95 204.15 293.94 186.03 275.82 184.48 282.1" />
				<path class="cls-15" d="M168.34,266l4.2,4.2.17-.71a2.85,2.85,0,0,0-2.85-3.52Z" />
				<path class="cls-15" d="M255.37,268.45l17,17-16.84-18.76A14.59,14.59,0,0,0,255.37,268.45Z" />
				<path class="cls-15" d="M129.58,282.94,140.64,294h3.45l-13.85-13.85Q129.89,281.53,129.58,282.94Z" />
			</g>
			<rect class="cls-1" x="18.5" y="167.45" width="2.51" height="61.56" />
			<circle class="cls-1" cx="19.75" cy="159.08" r="18.44" />
			<rect class="cls-1" x="38.19" y="207.8" width="1.77" height="20.66" />
			<circle class="cls-1" cx="38.93" cy="204.99" r="8.84" />
			<rect class="cls-1" x="315.54" y="208.7" width="1.48" height="20.66" />
			<circle class="cls-1" cx="316.28" cy="205.89" r="8.84" />
		</g>
	</g>
</svg>