<svg xmlns="http://www.w3.org/2000/svg"
	xmlns:xlink="http://www.w3.org/1999/xlink" viewBox="0 0 250 250">
	<defs>
		<style>.cls-1,.cls-4{fill:none;}.cls-2{clip-path:url(#clip-path);}.cls-3{fill:#fc3;}.cls-4{stroke:#231f20;stroke-miterlimit:10;stroke-width:2.17px;}.cls-5{fill:#231f20;}.cls-6{fill:#fde49b;}</style>
		<clipPath id="clip-path" transform="translate(-61.34 -61.34)">
			<rect class="cls-1" width="372.68" height="372.68" />
		</clipPath>
	</defs>
	<g id="Layer_2" data-name="Layer 2">
		<g id="Layer_1-2" data-name="Layer 1">
			<g class="cls-2">
				<rect class="cls-3" x="91.41" y="91.41" width="189.86" height="189.86" rx="22.33" transform="translate(-138.53 125) rotate(-45)" />
				<rect class="cls-4" x="99.37" y="99.37" width="173.95" height="173.95" rx="15.18" transform="translate(-138.53 125) rotate(-45)" />
				<polygon class="cls-5" points="158.62 104.25 125 51.03 91.38 104.25 111.91 104.25 111.91 198.97 138.09 198.97 138.09 104.25 158.62 104.25" />
				<path class="cls-6" d="M134.23,126.47,78.92,180.86a3,3,0,0,0,0,4.36h0a3.16,3.16,0,0,0,4.43,0l55.32-54.39a3,3,0,0,0,.53-3.65h0A3.17,3.17,0,0,0,134.23,126.47Z" transform="translate(-61.34 -61.34)" />
				<ellipse class="cls-6" cx="155.14" cy="112.33" rx="13.06" ry="2.44" transform="translate(-96.75 70.41) rotate(-41.73)" />
				<ellipse class="cls-6" cx="206.86" cy="275" rx="4.5" ry="3.62" transform="translate(-189.43 292.54) rotate(-66.3)" />
			</g>
		</g>
	</g>
</svg>